<svg id="Iconly_Bulk_3_User" data-name="Iconly/Bulk/3 User" xmlns="http://www.w3.org/2000/svg" width="20" height="14.545" viewBox="0 0 20 14.545">
  <g id="_3_User" data-name="3 User">
    <path id="Fill_1" data-name="Fill 1" d="M5.783,0C2.646,0,0,.512,0,2.49S2.663,4.964,5.783,4.964c3.136,0,5.783-.512,5.783-2.49S8.9,0,5.783,0" transform="translate(4.171 9.582)" fill="#3ea7ff"/>
    <path id="Fill_3" data-name="Fill 3" d="M3.827,7.7A3.824,3.824,0,0,0,7.653,3.849,3.827,3.827,0,1,0,0,3.849,3.824,3.824,0,0,0,3.827,7.7" transform="translate(6.127)" fill="#3ea7ff" opacity="0.4"/>
    <path id="Fill_6" data-name="Fill 6" d="M3.841,4.1A3.249,3.249,0,0,0,.728,0,3.261,3.261,0,0,0,.084.066.123.123,0,0,0,.009.111a.094.094,0,0,0,.015.1,5.279,5.279,0,0,1,.97,3.064A5.238,5.238,0,0,1,.1,6.222a.144.144,0,0,0,.1.222,2.984,2.984,0,0,0,.44.043A3.194,3.194,0,0,0,3.841,4.1" transform="translate(14.421 0.642)" fill="#3ea7ff" opacity="0.4"/>
    <path id="Fill_8" data-name="Fill 8" d="M4.916,1.445A2.5,2.5,0,0,0,2.978.26,14.141,14.141,0,0,0,.03,0,.034.034,0,0,0,0,.025.042.042,0,0,0,.027.068,4.046,4.046,0,0,1,2.44,4.051a.165.165,0,0,0,.184.187c.524-.075,1.873-.367,2.291-1.275a1.748,1.748,0,0,0,0-1.518" transform="translate(14.911 8.388)" fill="#3ea7ff"/>
    <path id="Fill_11" data-name="Fill 11" d="M3.866.066A3.2,3.2,0,0,0,3.221,0,3.248,3.248,0,0,0,.109,4.1a3.192,3.192,0,0,0,3.2,2.384,3.088,3.088,0,0,0,.44-.043.144.144,0,0,0,.1-.222A5.31,5.31,0,0,1,3.926.211a.094.094,0,0,0,.015-.1A.118.118,0,0,0,3.866.066" transform="translate(1.63 0.643)" fill="#3ea7ff" opacity="0.4"/>
    <path id="Fill_13" data-name="Fill 13" d="M2.111.259A2.5,2.5,0,0,0,.174,1.445a1.744,1.744,0,0,0,0,1.519c.418.907,1.767,1.2,2.291,1.274a.164.164,0,0,0,.183-.187A4.045,4.045,0,0,1,5.063.068.043.043,0,0,0,5.088.024.031.031,0,0,0,5.06,0,14.106,14.106,0,0,0,2.111.259" transform="translate(0 8.389)" fill="#3ea7ff"/>
  </g>
</svg>
