<svg xmlns="http://www.w3.org/2000/svg" width="7.944" height="9.932" viewBox="0 0 7.944 9.932">
  <g id="_-Product-Icons" data-name="ðŸ”-Product-Icons" transform="translate(-4 -2)">
    <g id="ic_fluent_copy_24_filled" transform="translate(4 2)">
      <path id="_-Color" data-name="ðŸŽ¨-Color" d="M4.746,3.3v6.27a1.614,1.614,0,0,0,1.614,1.614h4.278a1.118,1.118,0,0,1-1.054.745H6.358A2.358,2.358,0,0,1,4,9.574V4.358A1.118,1.118,0,0,1,4.746,3.3ZM10.827,2a1.117,1.117,0,0,1,1.117,1.117V9.572a1.117,1.117,0,0,1-1.117,1.117H6.358A1.117,1.117,0,0,1,5.241,9.572V3.117A1.117,1.117,0,0,1,6.358,2Z" transform="translate(-4 -2)" fill="#fff"/>
    </g>
  </g>
</svg>
