<svg id="Iconly_Bold_Delete" data-name="Iconly/Bold/Delete" xmlns="http://www.w3.org/2000/svg" width="12.923" height="14.358" viewBox="0 0 12.923 14.358">
  <g id="Delete">
    <path id="Delete-2" data-name="Delete" d="M3.684,14.331a2.094,2.094,0,0,1-2.1-2.03C1.355,10.257.98,5.426.972,5.376a.568.568,0,0,1,.137-.4.508.508,0,0,1,.375-.168h9.958a.52.52,0,0,1,.375.168.535.535,0,0,1,.13.4c0,.049-.383,4.888-.6,6.925A2.1,2.1,0,0,1,9.2,14.331c-.93.021-1.838.028-2.733.028C5.515,14.358,4.586,14.351,3.684,14.331ZM.512,3.655A.524.524,0,0,1,0,3.128V2.855a.519.519,0,0,1,.512-.527H2.606A.92.92,0,0,0,3.5,1.6l.109-.49A1.428,1.428,0,0,1,4.979,0H7.944A1.427,1.427,0,0,1,9.31,1.075l.117.524a.919.919,0,0,0,.891.729h2.093a.519.519,0,0,1,.512.527v.273a.524.524,0,0,1-.512.527Z" fill="#3ea7ff"/>
  </g>
</svg>
