<svg id="Iconly_Bold_Voice_2" data-name="Iconly/Bold/Voice 2" xmlns="http://www.w3.org/2000/svg" width="13.5" height="15.882" viewBox="0 0 13.5 15.882">
  <g id="Voice_2" data-name="Voice 2">
    <path id="Voice_2-2" data-name="Voice 2" d="M5.981,15.122V13.594A6.7,6.7,0,0,1,0,6.975a.764.764,0,0,1,.769-.76.765.765,0,0,1,.77.76,5.212,5.212,0,0,0,10.422,0,.769.769,0,0,1,1.539,0,6.7,6.7,0,0,1-5.981,6.619v1.529a.769.769,0,0,1-1.538,0Zm.63-4.627A3.434,3.434,0,0,1,3.155,7.084V3.413A3.434,3.434,0,0,1,6.611,0h.278a3.45,3.45,0,0,1,3.327,2.486.308.308,0,0,1-.3.392h-.9a.489.489,0,0,0-.492.486h0a.489.489,0,0,0,.492.486h.829a.491.491,0,1,1,0,.981H9.018a.487.487,0,1,0,0,.973h.829a.491.491,0,1,1,0,.981H9.018a.486.486,0,1,0,0,.972h.855a.307.307,0,0,1,.3.4A3.452,3.452,0,0,1,6.889,10.5Z" fill="#3ea7ff"/>
  </g>
</svg>
