<svg id="Iconly_Bold_Call" data-name="Iconly/Bold/Call" xmlns="http://www.w3.org/2000/svg" width="14.025" height="14.025" viewBox="0 0 14.025 14.025">
  <g id="Call">
    <path id="Call-2" data-name="Call" d="M11.337,8.681a1.6,1.6,0,0,0-1.174.308c-.338.2-.98.718-1.349.585a8.367,8.367,0,0,1-4.427-4.32c-.135-.376.383-1.023.579-1.365a1.638,1.638,0,0,0,.306-1.182A9.61,9.61,0,0,0,3.639.431,1.341,1.341,0,0,0,2.82,0C1.767-.044.592,1.361.385,1.7A2.73,2.73,0,0,0,.394,4.523c1.259,3.105,6.021,7.792,9.137,9.1a3.767,3.767,0,0,0,1.574.4,2.047,2.047,0,0,0,1.228-.385c.267-.154,1.729-1.388,1.691-2.469a1.361,1.361,0,0,0-.426-.818,9.677,9.677,0,0,0-2.261-1.672" transform="translate(0 0)" fill="#3ea7ff"/>
  </g>
</svg>
