<svg id="Iconly_Bold_Camera" data-name="Iconly/Bold/Camera" xmlns="http://www.w3.org/2000/svg" width="17" height="16" viewBox="0 0 17 16">
  <g id="Camera">
    <path id="Camera-2" data-name="Camera" d="M13.294,16H3.706A3.8,3.8,0,0,1,0,12.129V6.854A3.8,3.8,0,0,1,3.706,2.983a.168.168,0,0,0,.162-.106l.05-.106.071-.156c.222-.489.473-1.042.626-1.363A2.063,2.063,0,0,1,6.494,0h4a2.069,2.069,0,0,1,1.887,1.252c.134.28.337.729.533,1.163l.121.267.086.2a.191.191,0,0,0,.17.106A3.8,3.8,0,0,1,17,6.854v5.274A3.8,3.8,0,0,1,13.294,16ZM8.5,5.691a3.262,3.262,0,0,0-2.372,1.03,3.52,3.52,0,0,0-.969,2.459,3.582,3.582,0,0,0,.978,2.469A3.28,3.28,0,0,0,8.5,12.67a3.24,3.24,0,0,0,2.355-1.021,3.594,3.594,0,0,0,.008-4.937A3.247,3.247,0,0,0,8.5,5.691Zm4.768-.213a.8.8,0,1,0,.774.808A.788.788,0,0,0,13.268,5.478ZM8.5,11.338a2.008,2.008,0,0,1-1.462-.63,2.193,2.193,0,0,1-.6-1.527V9.172a2.127,2.127,0,0,1,.6-1.51,2.011,2.011,0,0,1,2.932-.009,2.2,2.2,0,0,1,.6,1.527A2.126,2.126,0,0,1,8.5,11.338Z" fill="#3ea7ff"/>
  </g>
</svg>
