<svg id="Iconly_Bold_Bookmark" data-name="Iconly/Bold/Bookmark" xmlns="http://www.w3.org/2000/svg" width="13" height="16" viewBox="0 0 13 16">
  <g id="Bookmark" transform="translate(0 0)">
    <path id="Bookmark-2" data-name="Bookmark" d="M12.176,16a.843.843,0,0,1-.419-.112L6.492,13.3,1.219,15.888a.88.88,0,0,1-.4.1A.819.819,0,0,1,0,15.175V3.032A2.64,2.64,0,0,1,1.168.7,5.061,5.061,0,0,1,3.981,0H8.994a5.082,5.082,0,0,1,2.819.7A2.677,2.677,0,0,1,13,3.032V15.175a.821.821,0,0,1-.1.392.835.835,0,0,1-.5.4A.769.769,0,0,1,12.176,16ZM3.429,4.832a.632.632,0,1,0,0,1.264H9.547a.632.632,0,1,0,0-1.264Z" transform="translate(0 0)" fill="#3ea7ff"/>
  </g>
</svg>
