<svg id="Iconly_Bulk_Swap" data-name="Iconly/Bulk/Swap" xmlns="http://www.w3.org/2000/svg" width="20" height="18" viewBox="0 0 20 18">
  <g id="Swap" transform="translate(0 0)">
    <path id="Fill_1" data-name="Fill 1" d="M1.191,0A.941.941,0,0,0,.257.948L0,5.527A1.2,1.2,0,0,0,1.191,6.734a1.2,1.2,0,0,0,1.19-1.208L2.125.948A.941.941,0,0,0,1.191,0" transform="translate(3.514 9.891)" fill="#3ea7ff" opacity="0.4"/>
    <path id="Fill_3" data-name="Fill 3" d="M5.98.673a4.62,4.62,0,0,0-.434-.4A1.371,1.371,0,0,0,4.712,0a1.432,1.432,0,0,0-.893.3c-.046.046-.24.221-.4.384A17.743,17.743,0,0,0,.262,5.421,3.917,3.917,0,0,0,0,6.384a1.628,1.628,0,0,0,.171.73,1.491,1.491,0,0,0,.709.65,7.394,7.394,0,0,0,.834.209,17.975,17.975,0,0,0,2.986.2A20.868,20.868,0,0,0,7.593,8a6.358,6.358,0,0,0,1.04-.279A1.465,1.465,0,0,0,9.412,6.43V6.384A4.123,4.123,0,0,0,9.091,5.3,17.742,17.742,0,0,0,5.98.673" transform="translate(0 0)" fill="#3ea7ff"/>
    <path id="Fill_6" data-name="Fill 6" d="M1.191,6.735a.941.941,0,0,0,.934-.948l.256-4.579A1.2,1.2,0,0,0,1.191,0,1.2,1.2,0,0,0,0,1.208L.257,5.787a.941.941,0,0,0,.934.948" transform="translate(14.103 1.375)" fill="#3ea7ff" opacity="0.4"/>
    <path id="Fill_8" data-name="Fill 8" d="M9.241,1.056a1.5,1.5,0,0,0-.709-.65A7.457,7.457,0,0,0,7.7.2,17.975,17.975,0,0,0,4.712,0,20.868,20.868,0,0,0,1.819.173,6.484,6.484,0,0,0,.778.453,1.463,1.463,0,0,0,0,1.741v.046A4.065,4.065,0,0,0,.321,2.866,17.694,17.694,0,0,0,3.431,7.5a4.5,4.5,0,0,0,.434.394,1.361,1.361,0,0,0,.836.279,1.434,1.434,0,0,0,.892-.3c.046-.046.24-.221.4-.382A17.777,17.777,0,0,0,9.148,2.751a3.881,3.881,0,0,0,.263-.963,1.629,1.629,0,0,0-.171-.732" transform="translate(10.588 9.829)" fill="#3ea7ff"/>
  </g>
</svg>
