<svg id="Iconly_Bulk_Wallet" data-name="Iconly/Bulk/Wallet" xmlns="http://www.w3.org/2000/svg" width="13" height="12" viewBox="0 0 13 12">
  <g id="Wallet">
    <path id="Fill_1" data-name="Fill 1" d="M9.436,12H3.564a3.607,3.607,0,0,1-2.622-.942A3.607,3.607,0,0,1,0,8.436V3.559A3.6,3.6,0,0,1,.942.939,3.612,3.612,0,0,1,3.564,0H9.434a3.611,3.611,0,0,1,2.622.939A3.6,3.6,0,0,1,13,3.559v.025H10.245a2.324,2.324,0,0,0,0,4.649H13v.2a3.607,3.607,0,0,1-.942,2.622A3.606,3.606,0,0,1,9.436,12ZM3.081,2.583a.5.5,0,0,0-.495.5.5.5,0,0,0,.495.5H6.754a.5.5,0,0,0,.495-.5.5.5,0,0,0-.5-.5Z" fill="#3ea7ff"/>
    <path id="Fill_4" data-name="Fill 4" d="M.024,1.6a1.319,1.319,0,0,0,1.3,1.069H3.434A.478.478,0,0,0,3.9,2.177V.49A.48.48,0,0,0,3.434,0H1.271A1.308,1.308,0,0,0,0,1.34,1.388,1.388,0,0,0,.024,1.6" transform="translate(9.1 4.6)" fill="#3ea7ff" opacity="0.4"/>
    <ellipse id="Oval" cx="0.65" cy="0.667" rx="0.65" ry="0.667" transform="translate(9.75 5.267)" fill="#3ea7ff"/>
  </g>
</svg>
