<svg id="Camera" xmlns="http://www.w3.org/2000/svg" width="38" height="34" viewBox="0 0 38 34">
  <path id="Combined_Shape" data-name="Combined Shape" d="M2.186,13.112A7.4,7.4,0,0,1,0,7.868,7.289,7.289,0,0,1,2.167,2.64,7.468,7.468,0,0,1,14.935,7.868a7.481,7.481,0,0,1-12.75,5.244Zm2-8.471a4.4,4.4,0,0,0-1.33,3.208v.019A4.539,4.539,0,0,0,4.2,11.113a4.628,4.628,0,0,0,7.885-3.245,4.539,4.539,0,0,0-1.349-3.245,4.655,4.655,0,0,0-6.554.019ZM16.416,1.717a1.72,1.72,0,1,1,1.71,1.7A1.714,1.714,0,0,1,16.416,1.717Z" transform="translate(11.532 11.642)" fill="#3ea7ff"/>
  <path id="Path" d="M29.336,6.113l-.19-.415c-.513-1.075-1.1-2.321-1.463-3.038A4.642,4.642,0,0,0,23.465,0H14.516a4.615,4.615,0,0,0-4.2,2.66c-.38.755-1.026,2.113-1.558,3.226l-.114.226a.373.373,0,0,1-.361.226A8.263,8.263,0,0,0,0,14.566V25.774A8.263,8.263,0,0,0,8.284,34H29.716A8.275,8.275,0,0,0,38,25.774V14.566A8.275,8.275,0,0,0,29.716,6.34.433.433,0,0,1,29.336,6.113Z" fill="#3ea7ff" opacity="0.4"/>
</svg>
