<svg id="Iconly_Bulk_Chat" data-name="Iconly/Bulk/Chat" xmlns="http://www.w3.org/2000/svg" width="20.03" height="20" viewBox="0 0 20.03 20">
  <g id="Chat">
    <path id="Fill_1" data-name="Fill 1" d="M10.035,0A10.014,10.014,0,0,0,0,10.015a10.576,10.576,0,0,0,1.352,5,1.047,1.047,0,0,1,.07.9L.751,18.157a.625.625,0,0,0,.821.781l2.023-.6a1.707,1.707,0,0,1,1.493.361A10,10,0,1,0,10.035,0" fill="#d8d8d8"/>
    <path id="Combined_Shape" data-name="Combined Shape" d="M9.234,1.282a1.282,1.282,0,1,1,1.282,1.283A1.278,1.278,0,0,1,9.234,1.282Zm-4.617-.01A1.282,1.282,0,1,1,5.9,2.564,1.294,1.294,0,0,1,4.618,1.272ZM0,1.282a1.282,1.282,0,0,1,2.563,0A1.292,1.292,0,0,1,1.282,2.564,1.291,1.291,0,0,1,0,1.282Z" transform="translate(4.096 8.743)" fill="#efefef"/>
  </g>
</svg>
