<svg xmlns="http://www.w3.org/2000/svg" width="32" height="32" viewBox="0 0 32 32">
  <g id="Group_12693" data-name="Group 12693" transform="translate(-200 -870)">
    <circle id="Ellipse_2499" data-name="Ellipse 2499" cx="16" cy="16" r="16" transform="translate(200 870)" fill="#ac83f6" opacity="0.5"/>
    <g id="Iconly_Bulk_Chat" data-name="Iconly/Bulk/Chat" transform="translate(206 876)">
      <g id="Chat">
        <path id="Fill_1" data-name="Fill 1" d="M10.035,0A10.014,10.014,0,0,0,0,10.015a10.576,10.576,0,0,0,1.352,5,1.047,1.047,0,0,1,.07.9L.751,18.157a.625.625,0,0,0,.821.781l2.023-.6a1.707,1.707,0,0,1,1.493.361A10,10,0,1,0,10.035,0" fill="#ac83f6"/>
        <path id="Combined_Shape" data-name="Combined Shape" d="M9.234,1.282a1.282,1.282,0,1,1,1.282,1.283A1.278,1.278,0,0,1,9.234,1.282Zm-4.617-.01A1.282,1.282,0,1,1,5.9,2.564,1.294,1.294,0,0,1,4.618,1.272ZM0,1.282a1.282,1.282,0,0,1,2.563,0A1.292,1.292,0,0,1,1.282,2.564,1.291,1.291,0,0,1,0,1.282Z" transform="translate(4.096 8.743)" fill="#efefef"/>
      </g>
    </g>
  </g>
</svg>
