<svg xmlns="http://www.w3.org/2000/svg" xmlns:xlink="http://www.w3.org/1999/xlink" width="269.91" height="271.482" viewBox="0 0 269.91 271.482">
  <defs>
    <linearGradient id="linear-gradient" x1="0.879" y1="0.01" x2="0.455" y2="0.913" gradientUnits="objectBoundingBox">
      <stop offset="0.004" stop-color="#e38ddd"/>
      <stop offset="1" stop-color="#9571f6"/>
    </linearGradient>
    <linearGradient id="linear-gradient-2" y1="0.5" x2="1" y2="0.5" gradientUnits="objectBoundingBox">
      <stop offset="0" stop-color="#ff9085"/>
      <stop offset="1" stop-color="#fb6fbb"/>
    </linearGradient>
    <linearGradient id="linear-gradient-3" x1="0.568" y1="0.183" x2="0.406" y2="0.856" xlink:href="#linear-gradient"/>
    <clipPath id="clip-path">
      <path id="SVGID" d="M2383.685,1397.458c14.054.1,31.971-1.789,49.131-9.551,4.379-1.981,31.432-14.218,28.237-26.539-1.125-4.34-5.054-5.026-6.66-10.8-1.9-6.845,2.394-10.264,5.373-18.795,1.777-5.09,6.979-19.987-1.946-28.235-5.333-4.929-15.469-7.26-23.185-5.459-11.317,2.642-15.207,13.657-21.468,32.409-5.55,16.623-4.124,20.7-8.329,32.6C2401.717,1371.923,2395.84,1384.083,2383.685,1397.458Z" transform="translate(-2383.685 -1297.471)" fill="url(#linear-gradient)"/>
    </clipPath>
    <clipPath id="clip-path-2">
      <path id="SVGID-2" data-name="SVGID" d="M840.235,660.7c-10.786-6.655-25.545-18.025-34.924-36.439-12.3-24.151-4.542-39.2-14.534-82.293-6.318-27.247-11-46.2-26.9-53.611-12.455-5.808-30.3-3.834-39.427,5.757-7.586,7.974-10.029,22.148-9.682,31.839.283,7.9,2.434,13.237-1.151,18.158-3.663,5.029-9,3.689-12.584,7.592-7.277,7.915,1.83,27.372,3.3,30.516,16.372,34.98,55.32,52.892,72.4,60.5A233.975,233.975,0,0,0,840.235,660.7Z" transform="translate(-698.252 -485.097)" fill="url(#linear-gradient-2)"/>
    </clipPath>
    <clipPath id="clip-path-3">
      <path id="SVGID-3" data-name="SVGID" d="M575.954,1661.8c-15.853,12.21-37.791,25.5-63.932,31.478-6.671,1.525-47.883,10.946-54.87-5.776-2.461-5.89,1.4-10.05-1.75-17.983-3.736-9.4-11.553-9.577-22.276-16.684-6.4-4.241-25.124-16.653-22.107-33.69,1.8-10.181,11.288-21.553,21.587-26.155,15.107-6.749,29,2.39,52.25,18.261,20.607,14.069,22.5,19.924,37.52,29.8C533.52,1648.38,550.654,1657.107,575.954,1661.8Z" transform="translate(-410.692 -1590.748)" fill="url(#linear-gradient-3)"/>
    </clipPath>
    <clipPath id="clip-path-4">
      <path id="SVGID-4" data-name="SVGID" d="M1473.323,2393.891c-1.2-1.638-8.455-11.184-19.928-11.582-9.605-.333-16.951,5.927-18.653,7.377-6.852,5.838-6.06,10.5-11.594,12.386-6.572,2.245-11.289-3.092-15.539-.011-2.932,2.125-3.791,6.915-2.6,10.256,2.086,5.862,10.978,8.657,17.721,7.254,9.29-1.931,9.5-10.786,20.048-13.63,6.13-1.653,7.915.836,14.435-.761C1464.782,2403.325,1470.037,2398.091,1473.323,2393.891Z" transform="translate(-1404.49 -2382.297)" fill="url(#linear-gradient-2)"/>
    </clipPath>
    <linearGradient id="linear-gradient-9" x1="0.474" y1="1.105" x2="0.732" y2="-2.446" gradientUnits="objectBoundingBox">
      <stop offset="0" stop-color="#ffc444"/>
      <stop offset="0.996" stop-color="#f36f56"/>
    </linearGradient>
    <linearGradient id="linear-gradient-10" x1="0.903" y1="-2.897" x2="0.419" y2="-2.442" gradientUnits="objectBoundingBox">
      <stop offset="0" stop-color="#444b8c"/>
      <stop offset="0.996" stop-color="#3e4177"/>
    </linearGradient>
    <linearGradient id="linear-gradient-11" x1="1.092" y1="-3.031" x2="0.496" y2="-2.567" xlink:href="#linear-gradient-10"/>
    <linearGradient id="linear-gradient-12" x1="0.637" y1="-0.662" x2="0.22" y2="-0.05" xlink:href="#linear-gradient-10"/>
    <linearGradient id="linear-gradient-13" x1="0.751" y1="-2.647" x2="0.259" y2="-1.266" xlink:href="#linear-gradient-10"/>
    <linearGradient id="linear-gradient-14" x1="0.642" y1="-3.144" x2="0.181" y2="-1.213" xlink:href="#linear-gradient-10"/>
    <linearGradient id="linear-gradient-15" x1="0.468" y1="1.639" x2="0.493" y2="0.851" gradientUnits="objectBoundingBox">
      <stop offset="0" stop-color="#311944"/>
      <stop offset="1" stop-color="#893976"/>
    </linearGradient>
    <linearGradient id="linear-gradient-16" x1="0.545" y1="2.228" x2="0.466" y2="-0.276" xlink:href="#linear-gradient-9"/>
    <linearGradient id="linear-gradient-17" x1="0.68" y1="-0.624" x2="-0.075" y2="-0.088" xlink:href="#linear-gradient-10"/>
    <linearGradient id="linear-gradient-19" x1="0.139" y1="-0.521" x2="0.302" y2="-4.034" xlink:href="#linear-gradient-9"/>
    <linearGradient id="linear-gradient-20" x1="0.429" y1="1.276" x2="0.657" y2="-0.716" gradientUnits="objectBoundingBox">
      <stop offset="0.004" stop-color="#e38ddd"/>
      <stop offset="0.706" stop-color="#ac79ef"/>
      <stop offset="1" stop-color="#9571f6"/>
    </linearGradient>
    <linearGradient id="linear-gradient-21" x1="0.205" y1="0.495" x2="-0.207" y2="0.56" xlink:href="#linear-gradient-9"/>
    <linearGradient id="linear-gradient-22" x1="0.41" y1="0.225" x2="0.753" y2="1.362" xlink:href="#linear-gradient-9"/>
    <linearGradient id="linear-gradient-23" x1="0.489" y1="0.665" x2="0.524" y2="-1.287" xlink:href="#linear-gradient-9"/>
    <linearGradient id="linear-gradient-24" x1="0.41" y1="0.216" x2="0.753" y2="1.366" xlink:href="#linear-gradient-9"/>
    <linearGradient id="linear-gradient-25" x1="0.507" y1="0.166" x2="0.85" y2="1.443" xlink:href="#linear-gradient-9"/>
    <linearGradient id="linear-gradient-26" y1="0.5" x2="1" y2="0.5" gradientUnits="objectBoundingBox">
      <stop offset="0" stop-color="#aa80f9"/>
      <stop offset="0.996" stop-color="#6165d7"/>
    </linearGradient>
    <linearGradient id="linear-gradient-27" x1="3.16" y1="0.477" x2="4.191" y2="0.477" gradientUnits="objectBoundingBox">
      <stop offset="0" stop-color="#444b8c"/>
      <stop offset="0.996" stop-color="#26264f"/>
    </linearGradient>
    <linearGradient id="linear-gradient-28" x1="-3.957" y1="0.495" x2="-3.375" y2="2.345" xlink:href="#linear-gradient"/>
  </defs>
  <g id="Group_13757" data-name="Group 13757" transform="translate(-361.346 -455)">
    <path id="Path_27334" data-name="Path 27334" d="M426.23,497.243c-9.065,12.977,1.564,34.017-11.887,43.776-13.094,9.5-29.179-6.072-41.519,2.106-18.306,12.132-14.963,67.644,11.8,102.135,8.049,10.372,14.774,14.408,17.753,26.139,6.4,25.189-16.082,40.173-11.8,52.632,9.632,28.051,157.758,51.589,217.192-32.714,27.758-39.373,31.912-96.228,7.11-139.41C570.06,473.878,446.571,468.124,426.23,497.243Z" transform="translate(0 -23.655)" fill="#f4f7fa"/>
    <g id="Group_13727" data-name="Group 13727" transform="translate(549.869 533.536)">
      <g id="Group_13726" data-name="Group 13726" transform="translate(0 0)">
        <path id="SVGID-5" data-name="SVGID" d="M2383.685,1397.458c14.054.1,31.971-1.789,49.131-9.551,4.379-1.981,31.432-14.218,28.237-26.539-1.125-4.34-5.054-5.026-6.66-10.8-1.9-6.845,2.394-10.264,5.373-18.795,1.777-5.09,6.979-19.987-1.946-28.235-5.333-4.929-15.469-7.26-23.185-5.459-11.317,2.642-15.207,13.657-21.468,32.409-5.55,16.623-4.124,20.7-8.329,32.6C2401.717,1371.923,2395.84,1384.083,2383.685,1397.458Z" transform="translate(-2383.685 -1297.471)" fill="url(#linear-gradient)"/>
        <g id="Group_13725" data-name="Group 13725" clip-path="url(#clip-path)">
          <g id="Group_13724" data-name="Group 13724" transform="translate(-60.225 -14.792)" opacity="0.5" style="mix-blend-mode: soft-light;isolation: isolate">
            <path id="Path_27335" data-name="Path 27335" d="M1762.558,1261.241a96.729,96.729,0,0,1-24.921-3.377l.17-.641c15.38,4.095,30.345,4.442,44.48,1.032,18.829-4.543,35.162-15.823,48.545-33.526,13.941-18.442,21.189-39.232,24.815-53.426,2.509-9.821,2.024-20.7-1.44-32.323l.636-.19c3.5,11.744,3.986,22.738,1.447,32.677-3.641,14.253-10.921,35.132-24.929,53.662-13.478,17.829-29.937,29.192-48.919,33.772A84.572,84.572,0,0,1,1762.558,1261.241Z" transform="translate(-1737.637 -1138.79)" fill="#fff"/>
            <path id="Path_27336" data-name="Path 27336" d="M2790.032,1314.753l-.187-.232a57.825,57.825,0,0,1-7.176-12.477c-2.947-6.938-5.835-17.577-2.861-28.856l.642.169c-5.269,19.981,7.995,38.239,9.728,40.51,29.749-19.368,29.455-41.5,28.651-47.834-.022-.174-.034-.282-.033-.322l.333,0,.332,0c0,.037.012.117.028.238.817,6.451,1.129,29.022-29.2,48.641Z" transform="translate(-2681.521 -1253.88)" fill="#fff"/>
            <path id="Path_27337" data-name="Path 27337" d="M2686.9,1434.5a78.491,78.491,0,0,1-11.424-.869l-.176-.026-.076-.16c-.082-.172-8.116-17.424-6.354-40.879l1.777-23.639.662.05-1.776,23.639a89.031,89.031,0,0,0,6.218,40.385c10.053,1.456,24.532,1.7,36.785-5.3,7.367-4.208,10.472-9.114,10.5-9.163l.564.35c-.127.205-3.2,5.074-10.7,9.368C2707.546,1431.32,2699.058,1434.5,2686.9,1434.5Z" transform="translate(-2581.83 -1347.474)" fill="#fff"/>
          </g>
        </g>
      </g>
    </g>
    <g id="Group_13740" data-name="Group 13740" transform="translate(365.946 457.806)">
      <g id="Group_13731" data-name="Group 13731" transform="translate(26.806 0)">
        <g id="Group_13730" data-name="Group 13730">
          <path id="SVGID-6" data-name="SVGID" d="M840.235,660.7c-10.786-6.655-25.545-18.025-34.924-36.439-12.3-24.151-4.542-39.2-14.534-82.293-6.318-27.247-11-46.2-26.9-53.611-12.455-5.808-30.3-3.834-39.427,5.757-7.586,7.974-10.029,22.148-9.682,31.839.283,7.9,2.434,13.237-1.151,18.158-3.663,5.029-9,3.689-12.584,7.592-7.277,7.915,1.83,27.372,3.3,30.516,16.372,34.98,55.32,52.892,72.4,60.5A233.975,233.975,0,0,0,840.235,660.7Z" transform="translate(-698.252 -485.097)" fill="url(#linear-gradient-2)"/>
          <g id="Group_13729" data-name="Group 13729" clip-path="url(#clip-path-2)">
            <g id="Group_13728" data-name="Group 13728" transform="translate(-36.229 -8.469)" opacity="0.5" style="mix-blend-mode: soft-light;isolation: isolate">
              <path id="Path_27338" data-name="Path 27338" d="M1209.351,582.961c-17.007-2.785-32.05-7.175-44.712-13.048-18.739-8.692-31.7-20.421-38.511-34.861-5.33-11.294-6.873-24.4-8.826-40.99a234.078,234.078,0,0,1-1.444-32.36c.106-11.307.19-20.238-3.6-32.358a96.27,96.27,0,0,0-19.894-34.656l.5-.437a96.923,96.923,0,0,1,20.029,34.9c3.818,12.219,3.734,21.2,3.627,32.562a233.538,233.538,0,0,0,1.44,32.276c2.023,17.177,3.484,29.587,8.767,40.784,6.746,14.3,19.6,25.917,38.19,34.542,12.607,5.848,27.593,10.22,44.541,13Z" transform="translate(-1019.398 -394.251)" fill="#fff"/>
              <path id="Path_27339" data-name="Path 27339" d="M747.171,711.208l-.176-.331c-12.274-22.991-28.484-35.64-39.922-42.2-12.383-7.1-21.971-8.8-22.066-8.812l.111-.655c.1.016,9.8,1.728,22.285,8.891,11.457,6.573,27.67,19.21,40,42.127a66.2,66.2,0,0,0,14.851-16.509c6.463-10.087,13.329-26.8,9.334-49.11l.653-.117c4.035,22.539-2.908,39.418-9.444,49.609a65.532,65.532,0,0,1-15.316,16.893Z" transform="translate(-650.013 -621.163)" fill="#fff"/>
              <path id="Path_27340" data-name="Path 27340" d="M687.056,1138.869l-.24-.02c-15.7-1.333-34.995-18.427-48.417-32.533a333.793,333.793,0,0,1-25.59-30.543l.538-.388a333.163,333.163,0,0,0,25.538,30.479c13.273,13.948,32.3,30.835,47.749,32.3a190.784,190.784,0,0,1,15.415-28.306c9.227-13.658,35.273-23.03,35.535-23.123l.223.626c-.26.092-26.1,9.392-35.207,22.869a189.77,189.77,0,0,0-15.449,28.416Z" transform="translate(-584.545 -1011.888)" fill="#fff"/>
              <path id="Path_27341" data-name="Path 27341" d="M440.977,1669.461a184.8,184.8,0,0,1-24.512-1.68c-17.277-2.341-42.482-8.335-64.442-23.592l-42.406-29.462.379-.545,42.406,29.462c21.846,15.178,46.935,21.144,64.135,23.477a172.09,172.09,0,0,0,31.777,1.483,33.348,33.348,0,0,1-8.338-20.253,43.478,43.478,0,0,1,3.871-19.343,74.265,74.265,0,0,1,12.887-19.828l.478.46a73.554,73.554,0,0,0-12.762,19.645,42.812,42.812,0,0,0-3.811,19.04,32.843,32.843,0,0,0,8.611,20.344l.438.5-.659.054C448.966,1669.226,446,1669.461,440.977,1669.461Z" transform="translate(-309.616 -1495.925)" fill="#fff"/>
            </g>
          </g>
        </g>
      </g>
      <g id="Group_13735" data-name="Group 13735" transform="translate(0 103.069)">
        <g id="Group_13734" data-name="Group 13734">
          <path id="SVGID-7" data-name="SVGID" d="M575.954,1661.8c-15.853,12.21-37.791,25.5-63.932,31.478-6.671,1.525-47.883,10.946-54.87-5.776-2.461-5.89,1.4-10.05-1.75-17.983-3.736-9.4-11.553-9.577-22.276-16.684-6.4-4.241-25.124-16.653-22.107-33.69,1.8-10.181,11.288-21.553,21.587-26.155,15.107-6.749,29,2.39,52.25,18.261,20.607,14.069,22.5,19.924,37.52,29.8C533.52,1648.38,550.654,1657.107,575.954,1661.8Z" transform="translate(-410.692 -1590.748)" fill="url(#linear-gradient-3)"/>
          <g id="Group_13733" data-name="Group 13733" clip-path="url(#clip-path-3)">
            <g id="Group_13732" data-name="Group 13732" transform="translate(-11.386 -10.302)" opacity="0.5" style="mix-blend-mode: soft-light;isolation: isolate">
              <path id="Path_27342" data-name="Path 27342" d="M571.114,1563.673a142.732,142.732,0,0,1-38.651-5.614c-31.816-8.942-58.033-26.336-74.425-39.354-11.417-9.067-20.318-21.932-26.453-38.236l.621-.234c6.093,16.19,14.923,28.958,26.245,37.95,16.344,12.979,42.482,30.323,74.191,39.234,30.451,8.558,58.716,7.282,84.008-3.795,18.985-8.314,35.673-21.609,49.6-39.514l.524.407c-14,17.993-30.77,31.355-49.857,39.714A113.1,113.1,0,0,1,571.114,1563.673Z" transform="translate(-418.251 -1480.236)" fill="#fff"/>
              <path id="Path_27343" data-name="Path 27343" d="M353.451,1600.644c-43.621,0-60.419-22.878-64.717-30.326-.093-.161-.151-.265-.181-.3l.526-.405a4.093,4.093,0,0,1,.23.378c4.559,7.9,23.351,33.342,73.939,29.626a82.969,82.969,0,0,0-2.592-19.825c-2.6-10.276-8.416-24.643-21.315-34.726l.409-.523c13.053,10.2,18.926,24.722,21.555,35.106a82.174,82.174,0,0,1,2.6,20.287l-.009.3-.3.022Q358.3,1600.651,353.451,1600.644Z" transform="translate(-288.553 -1538.543)" fill="#fff"/>
              <path id="Path_27344" data-name="Path 27344" d="M804.6,1586.846a40.168,40.168,0,0,1-13.032-1.867l.238-.62c.077.029,7.842,2.928,19.849,1.357,11.062-1.448,28.085-7.094,46.431-25.761-.53-2.318-6.661-27.428-27.774-51.282l-22.37-25.273.5-.44,22.37,25.273c22.171,25.049,27.91,51.494,27.965,51.758l.037.174-.125.127c-18.543,18.921-35.788,24.631-46.988,26.089A55.022,55.022,0,0,1,804.6,1586.846Z" transform="translate(-744.673 -1482.706)" fill="#fff"/>
            </g>
          </g>
        </g>
      </g>
      <g id="Group_13739" data-name="Group 13739" transform="translate(92.642 176.858)">
        <g id="Group_13738" data-name="Group 13738">
          <path id="SVGID-8" data-name="SVGID" d="M1473.323,2393.891c-1.2-1.638-8.455-11.184-19.928-11.582-9.605-.333-16.951,5.927-18.653,7.377-6.852,5.838-6.06,10.5-11.594,12.386-6.572,2.245-11.289-3.092-15.539-.011-2.932,2.125-3.791,6.915-2.6,10.256,2.086,5.862,10.978,8.657,17.721,7.254,9.29-1.931,9.5-10.786,20.048-13.63,6.13-1.653,7.915.836,14.435-.761C1464.782,2403.325,1470.037,2398.091,1473.323,2393.891Z" transform="translate(-1404.49 -2382.297)" fill="url(#linear-gradient-2)"/>
          <g id="Group_13737" data-name="Group 13737" clip-path="url(#clip-path-4)">
            <g id="Group_13736" data-name="Group 13736" transform="translate(-4.658 -1.6)" opacity="0.5" style="mix-blend-mode: soft-light;isolation: isolate">
              <path id="Path_27345" data-name="Path 27345" d="M1375.247,2495.771c-5.7,0-12.639-2.843-20.721-8.5l.191-.272c10.827,7.58,19.559,10.073,25.953,7.41,4.03-1.678,6.026-4.843,8.14-8.192,2.379-3.77,4.837-7.668,10.418-9.529,4.292-1.431,9.262-.746,19.165.619a124.32,124.32,0,0,1,14.7,2.938l-.085.321a124.146,124.146,0,0,0-14.658-2.93c-9.852-1.358-14.8-2.04-19.015-.633-5.468,1.823-7.9,5.67-10.243,9.391-2.143,3.4-4.166,6.6-8.293,8.322A14.3,14.3,0,0,1,1375.247,2495.771Z" transform="translate(-1354.526 -2465.567)" fill="#fff"/>
              <path id="Path_27346" data-name="Path 27346" d="M1454.426,2571.825l-.075-.323c11.762-2.73,14.954-9.346,15.238-9.989-1.056-3.634-4.136-6.706-6.542-8.647a34.573,34.573,0,0,0-5.068-3.4l.154-.294c.1.05,9.758,5.156,11.792,12.309l.016.054-.021.052C1469.89,2561.658,1466.9,2568.93,1454.426,2571.825Z" transform="translate(-1445.045 -2532.013)" fill="#fff"/>
              <path id="Path_27347" data-name="Path 27347" d="M1642.522,2497.4c-1.183-3.555-.114-8.817,3.176-15.639a76.665,76.665,0,0,1,5.208-9.06c-5.312-4.329-18.3,5.95-18.434,6.055l-.208-.259a51.2,51.2,0,0,1,7.38-4.764c5.394-2.792,9.294-3.192,11.592-1.187l.112.1-.085.122c-.112.161-11.186,16.235-8.427,24.53Z" transform="translate(-1606.374 -2461.398)" fill="#fff"/>
              <path id="Path_27348" data-name="Path 27348" d="M1821.393,2396.174c-3.129-12.007,12.968-18.632,14.889-19.376-5.521-9.521-19.312-11.324-19.451-11.341l.041-.33c.142.018,14.258,1.864,19.8,11.676l.1.171-.185.066c-.182.065-18.1,6.642-14.865,19.049Z" transform="translate(-1773.735 -2365.128)" fill="#fff"/>
            </g>
          </g>
        </g>
      </g>
    </g>
    <g id="Group_13741" data-name="Group 13741" transform="translate(418.536 477.848)">
      <path id="Path_27349" data-name="Path 27349" d="M1015.472,738.138a4.046,4.046,0,0,0,3.652-7.193c-.1-.048-.192-.089-.289-.128a23.23,23.23,0,0,0,.77-3.315c.105,0,.211,0,.318-.011a4.22,4.22,0,0,0,3.71-4.3,3.574,3.574,0,0,0-3.869-3.62c-.109.01-.217.027-.323.046a21.367,21.367,0,0,0-.9-3.166c.1-.056.192-.114.286-.18a4.221,4.221,0,0,0,1.279-5.53,3.574,3.574,0,0,0-5.205-.987c-.092.064-.178.134-.263.2a18.924,18.924,0,0,0-2.322-2.167c.059-.1.117-.195.169-.3,1.008-1.986,2.326-4.156.478-5.058-4.277-2.088-6.112-.3-7.12,1.686-.052.1-.1.207-.141.312a18.929,18.929,0,0,0-3.12-.6c.007-.11.012-.221.01-.333-.044-2.186.6-3.369-1.5-3.41-4.581-.089-6.127,1.9-6.083,4.085,0,.114.012.226.023.337a21.352,21.352,0,0,0-3.084,1.145c-.048-.1-.1-.194-.154-.288a3.574,3.574,0,0,0-5.205-.987,4.22,4.22,0,0,0-1.279,5.53c.056.092.116.178.178.264a23.25,23.25,0,0,0-2.222,2.578c-.089-.056-.179-.11-.274-.158a4.046,4.046,0,0,0-3.652,7.193c.095.048.192.089.289.128a23.258,23.258,0,0,0-.77,3.315c-.105,0-.211,0-.318.011a4.22,4.22,0,0,0-3.71,4.3,3.574,3.574,0,0,0,3.869,3.62c.109-.01.217-.027.324-.046a21.327,21.327,0,0,0,.9,3.165c-.1.056-.192.115-.286.18a4.22,4.22,0,0,0-1.279,5.53c1.084,1.8,4.674,2.636,6.465,1.381.092-.064-1.081-.528-1-.6a18.916,18.916,0,0,0,2.322,2.168c-.059.1-.117.195-.169.3a3.737,3.737,0,1,0,6.643,3.373c.052-.1.1-.208.141-.312a18.906,18.906,0,0,0,3.12.6c-.006.11-.011.221-.009.333a3.574,3.574,0,0,0,3.869,3.62,4.22,4.22,0,0,0,3.71-4.3c0-.114-.012-.226-.023-.337a21.324,21.324,0,0,0,3.084-1.145c.048.1.1.194.154.288a3.574,3.574,0,0,0,5.205.987,4.22,4.22,0,0,0,1.279-5.53c-.056-.092-.116-.178-.178-.263a23.236,23.236,0,0,0,2.222-2.578C1015.287,738.035,1015.377,738.09,1015.472,738.138Zm-22.867.29c-6.66-3.381-9.091-11.969-5.43-19.181s12.029-10.317,18.689-6.935,9.091,11.969,5.43,19.181S999.265,741.81,992.605,738.428Z" transform="translate(-974.836 -700.096)" fill="#d8dee8"/>
      <path id="Path_27350" data-name="Path 27350" d="M1209.848,767.525a4.22,4.22,0,0,0,3.71-4.3,3.574,3.574,0,0,0-3.869-3.62c-.109.01-.217.027-.323.046a21.347,21.347,0,0,0-.9-3.165c.1-.056.192-.115.286-.18,1.79-1.254,4.006-4.285,2.743-5.964-2.4-3.187-4.879-1.807-6.669-.553-.092.064-.178.134-.263.2a18.924,18.924,0,0,0-2.322-2.167c.059-.1.117-.195.169-.3a4.167,4.167,0,0,0,.235-3.286q-2.594,4.566-5.111,9.174c5.313,3.893,7,11.566,3.684,18.108a14.665,14.665,0,0,1-13.871,8.266c-.244.632-.483,1.267-.744,1.893-.708,1.7-1.513,3.362-2.318,5.023q.76.143,1.526.224c-.007.11-.012.221-.01.333.044,2.186,1.371,4.043,5.164,3.842,2.1-.111,2.459-2.332,2.415-4.517,0-.114-.012-.226-.023-.337a21.352,21.352,0,0,0,3.084-1.144c.048.1.1.194.154.288,1.084,1.8,4.846,2.564,6.637,1.31s.932-4.053-.152-5.853c-.056-.092-.116-.178-.178-.263a23.262,23.262,0,0,0,2.222-2.578c.089.056.179.11.274.158a4.046,4.046,0,0,0,3.652-7.193c-.1-.048-.192-.089-.289-.128a23.221,23.221,0,0,0,.77-3.315C1209.635,767.536,1209.741,767.534,1209.848,767.525Z" transform="translate(-1164.761 -740.129)" fill="#d8dee8"/>
      <path id="Path_27351" data-name="Path 27351" d="M1036.637,738.382a4.046,4.046,0,0,0,3.652-7.193c-.095-.048-.192-.089-.289-.128a23.237,23.237,0,0,0,.77-3.315c.105,0,.211,0,.318-.012a4.22,4.22,0,0,0,3.71-4.3,3.574,3.574,0,0,0-3.869-3.62c-.109.01-.217.027-.323.046a21.347,21.347,0,0,0-.9-3.165c.1-.056.192-.115.286-.18a4.22,4.22,0,0,0,1.279-5.53,3.574,3.574,0,0,0-5.206-.987c-.092.064-.178.134-.263.2a18.953,18.953,0,0,0-2.322-2.167c.059-.1.117-.195.169-.3a3.737,3.737,0,1,0-6.643-3.373c-.052.1-.1.208-.141.312a18.9,18.9,0,0,0-3.12-.6c.007-.11.012-.221.009-.333a3.574,3.574,0,0,0-3.869-3.62,4.22,4.22,0,0,0-3.71,4.3c0,.114.012.226.023.337a21.351,21.351,0,0,0-3.084,1.145c-.048-.1-.1-.194-.154-.289a3.574,3.574,0,0,0-5.205-.987,4.221,4.221,0,0,0-1.279,5.53c.056.092.116.178.178.264a23.261,23.261,0,0,0-2.222,2.578c-.089-.056-.179-.11-.274-.158a4.046,4.046,0,0,0-3.652,7.193c.1.048.192.089.289.128a23.251,23.251,0,0,0-.77,3.315c-.105,0-.211,0-.318.012a4.22,4.22,0,0,0-3.71,4.3,3.574,3.574,0,0,0,3.869,3.62c.109-.01.217-.027.324-.046a21.339,21.339,0,0,0,.9,3.166c-.1.056-.192.114-.286.18a4.22,4.22,0,0,0-1.279,5.53,3.574,3.574,0,0,0,5.205.987c.092-.064.178-.134.263-.2a18.924,18.924,0,0,0,2.322,2.167c-.059.1-.117.195-.169.3a3.737,3.737,0,1,0,6.643,3.373c.052-.1.1-.207.141-.312a18.906,18.906,0,0,0,3.12.6c-.007.11-.012.221-.01.333a3.574,3.574,0,0,0,3.869,3.62,4.221,4.221,0,0,0,3.71-4.3c0-.114-.012-.226-.023-.337a21.359,21.359,0,0,0,3.084-1.145c.048.1.1.194.154.288a3.574,3.574,0,0,0,5.205.987,4.221,4.221,0,0,0,1.279-5.53c-.056-.092-.116-.178-.178-.263a23.235,23.235,0,0,0,2.222-2.578C1036.452,738.28,1036.542,738.334,1036.637,738.382Zm-22.867.29c-6.66-3.381-9.091-11.969-5.429-19.181s12.029-10.316,18.689-6.935,9.091,11.969,5.429,19.18S1020.43,742.054,1013.77,738.672Z" transform="translate(-994.028 -700.116)" fill="#fff"/>
    </g>
    <g id="Group_13744" data-name="Group 13744" transform="translate(458.837 455)">
      <path id="Path_27352" data-name="Path 27352" d="M2546.53,490.288c-1.8-5.822-4.607-8.638-6.748-10.127-4.586-3.189-10.8-3.553-10.627-4.775.075-.53,1.3-.891,1.672-1,1.8-.529,2.806.38,3.807-.218a3.034,3.034,0,0,0,1.1-2.159c.75-3.809-1.448-8.5-2.617-11.931-.081-.24-.265-.792-.084-.923s.712.28.886.422c1.859,1.514,4.181,8.274,4.178,8.275a11.935,11.935,0,0,0-.7-2.98c-1.218-3.843-2.542-5.625-2.426-8.674.022-.6.047-1.131.253-1.192,1.043-.309,4.792,12.109,5.485,11.88.174-.057.077-.886.028-1.3-.451-3.852-2.571-5-2.391-8.115.028-.49.07-1.2.337-1.28.9-.254,3.286,7,4.472,10.325a158.551,158.551,0,0,1,5.9,21.105Z" transform="translate(-2424.559 -455)" fill="url(#linear-gradient-9)"/>
      <path id="Path_27353" data-name="Path 27353" d="M1845.38,554.5c-3.317-1.036-4.206-4.875-4.558-6.392-.831-3.587-.509-9.779,3.248-11.5,3.018-1.379,6.39.981,6.808,1.283,4.252,3.068,3.454,8.945,3.36,9.56-.209,1.378-.642,4.22-3.142,5.987A7.123,7.123,0,0,1,1845.38,554.5Z" transform="translate(-1800.054 -528.619)" fill="url(#linear-gradient-10)"/>
      <g id="Group_13742" data-name="Group 13742" transform="translate(40.391 8.216)" opacity="0.3" style="mix-blend-mode: multiply;isolation: isolate">
        <path id="Path_27354" data-name="Path 27354" d="M1849.778,551.974c-2.2-2.178-5.306-1.225-6.616-3.208-.654-.99-.822-2.66.5-5.634-3.364,1.97-3.633,7.828-2.834,11.278.352,1.517,1.241,5.356,4.558,6.391a7.122,7.122,0,0,0,5.716-1.058c.11-.078.214-.158.316-.24C1851.783,556.653,1851.573,553.753,1849.778,551.974Z" transform="translate(-1840.45 -543.132)" fill="url(#linear-gradient-11)"/>
      </g>
      <path id="Path_27355" data-name="Path 27355" d="M1735.859,766.82s-13.347-41.511-13.3-57.128,13.667-21.687,19.716-23.13,18.869.144,22.816,17.726,1.1,56.982,1.1,56.982Z" transform="translate(-1693.155 -664.604)" fill="url(#linear-gradient-12)"/>
      <path id="Path_27356" data-name="Path 27356" d="M1758.453,943.826c9.616-1.176,11.747-10.255,20.587-11.3a13.358,13.358,0,0,1,2.883-.028c-.133-1.722-.3-3.378-.5-4.944a13.4,13.4,0,0,0-3.23-.011c-8.84,1.048-10.972,10.127-20.588,11.3-7.844.958-11.342-4.479-17.979-2.113a12.923,12.923,0,0,0-4.372,2.679c.277,1.578.6,3.22.948,4.9a12.886,12.886,0,0,1,4.274-2.591C1747.111,939.35,1750.609,944.785,1758.453,943.826Z" transform="translate(-1704.668 -883.405)" fill="#fff" opacity="0.3" style="mix-blend-mode: soft-light;isolation: isolate"/>
      <path id="Path_27357" data-name="Path 27357" d="M1802.416,1167.135c-7.192.823-10.482-4.656-16.546-2.409a10.76,10.76,0,0,0-3.039,1.756c3.631,13.931,7.683,26.533,7.683,26.533l30.327-5.551s1.116-15.442.983-31.3c-.223.012-.439.029-.648.052C1813.068,1157.11,1811.235,1166.126,1802.416,1167.135Z" transform="translate(-1747.811 -1090.798)" opacity="0.8" fill="url(#linear-gradient-13)" style="mix-blend-mode: multiply;isolation: isolate"/>
      <path id="Path_27358" data-name="Path 27358" d="M1784.524,990.338c-8.11.892-9.943,9.907-18.764,10.911-7.194.818-10.484-4.663-16.55-2.419a11.2,11.2,0,0,0-3.891,2.508c.981,4.76,2.213,9.852,3.5,14.778a10.757,10.757,0,0,1,3.039-1.756c6.064-2.247,9.353,3.232,16.546,2.409,8.819-1.009,10.652-10.024,18.76-10.921C1787.371,1005.826,1785.31,990.252,1784.524,990.338Z" transform="translate(-1713.796 -940.434)" opacity="0.3" fill="url(#linear-gradient-14)" style="mix-blend-mode: multiply;isolation: isolate"/>
      <path id="Path_27359" data-name="Path 27359" d="M1409.152,869.02c-5.852-7.624,2.2-24.882,11.039-34.606,10.282-11.313,23.446-14.427,31.8-16.285,27.645-6.153,36.513,6.353,50.467-.82,21.645-11.128,16.9-49.8,26.676-50.869,8.031-.878,20.685,24.177,17.191,49.024-2.711,19.28-21.048,38.244-39.56,46.688-13.43,6.126-11.391,4.5-41.971,6.266C1429.344,870.465,1414.92,876.535,1409.152,869.02Z" transform="translate(-1407.16 -737.386)" fill="url(#linear-gradient-15)"/>
      <path id="Path_27360" data-name="Path 27360" d="M1776.61,1119.295c5.674-2.044,14.95-2.506,14.853-22.781,0,0,11.752-.743,12.2-.6.422.139-3.113,20.251,13.31,20.114,1.117-.009,1.41,1.56.514,2.271-2.969,2.353-9.668,6-19.586,6.112-6.278.073-13.44,1.48-21.321-2.668A1.307,1.307,0,0,1,1776.61,1119.295Z" transform="translate(-1741.383 -1036.154)" fill="url(#linear-gradient-16)"/>
      <path id="Path_27361" data-name="Path 27361" d="M2044.823,873.962c-3.326.042-2.172-28.06-12.12-69.315-2.064-8.558-4.087-15.535-5.519-20.221l10.605-1.358a118.919,118.919,0,0,1,13.551,62.241C2050.521,858.693,2047.27,873.931,2044.823,873.962Z" transform="translate(-1969.385 -752.485)" fill="url(#linear-gradient-17)"/>
      <path id="Path_27362" data-name="Path 27362" d="M2044.823,873.962c-3.326.042-2.172-28.06-12.12-69.315-2.064-8.558-4.087-15.535-5.519-20.221l10.605-1.358a118.919,118.919,0,0,1,13.551,62.241C2050.521,858.693,2047.27,873.931,2044.823,873.962Z" transform="translate(-1969.385 -752.485)" fill="url(#linear-gradient-17)"/>
      <path id="Path_27363" data-name="Path 27363" d="M1820.257,859.275c.45,2.643,2.53,22.248,17.478,19.008,13.651-2.959,10.058-16.82,8.454-23.821,0,0-1.707-6.234-6.614-7.052,0,0,4.875,2.721,6.148,10.6,0,0-1.774-3.968-11.814-1.947s-11.379,6.957-11.379,6.957-3.061-7.2,1.369-12.234C1823.9,850.79,1820.472,852.681,1820.257,859.275Z" transform="translate(-1781.748 -810.83)" fill="url(#linear-gradient-19)"/>
      <g id="Group_13743" data-name="Group 13743" transform="translate(77.356 46.53)" opacity="0.3" style="mix-blend-mode: multiply;isolation: isolate">
        <path id="Path_27364" data-name="Path 27364" d="M2295.488,954.14c1.873,10.866-.136,17.884-3.064,22.608-6.595,10.638-18.254,10.312-32.609,27.1-8.035,9.4-8.556,14.385-13.551,21.6a49.848,49.848,0,0,1-9.291,10.057c10.79.3,12.877,1.144,22.247-3.13,18.512-8.444,36.849-27.409,39.559-46.688A68.687,68.687,0,0,0,2295.488,954.14Z" transform="translate(-2236.973 -954.14)" fill="url(#linear-gradient-20)"/>
      </g>
    </g>
    <g id="Group_13748" data-name="Group 13748" transform="translate(402.562 578.434)">
      <g id="Group_13745" data-name="Group 13745" transform="translate(0)">
        <path id="Path_27365" data-name="Path 27365" d="M999.1,1785.612l-188.342-6.5a7.034,7.034,0,0,0-7.276,7.029V1907.53a7.033,7.033,0,0,0,7.559,7.013l188.342-14.13a7.033,7.033,0,0,0,6.507-7.014V1792.641A7.033,7.033,0,0,0,999.1,1785.612Z" transform="translate(-803.484 -1779.11)" fill="url(#linear-gradient-21)"/>
      </g>
      <g id="Group_13746" data-name="Group 13746" transform="translate(3.237)">
        <path id="Path_27366" data-name="Path 27366" d="M1033.831,1785.612l-188.342-6.5a7.034,7.034,0,0,0-7.276,7.029V1907.53a7.033,7.033,0,0,0,7.56,7.013l188.342-14.13a7.033,7.033,0,0,0,6.507-7.014V1792.641A7.034,7.034,0,0,0,1033.831,1785.612Z" transform="translate(-838.213 -1779.11)" fill="url(#linear-gradient-22)"/>
      </g>
      <g id="Group_13747" data-name="Group 13747" transform="translate(3.237 0)">
        <path id="Path_27367" data-name="Path 27367" d="M984.729,1853.114l78.919-65.178a7.008,7.008,0,0,0-4.975-2.323l-188.342-6.5a7,7,0,0,0-4.722,1.609l105.5,72.97A11.294,11.294,0,0,0,984.729,1853.114Z" transform="translate(-863.056 -1779.111)" fill="url(#linear-gradient-23)"/>
        <path id="Path_27368" data-name="Path 27368" d="M959.887,1868.808a11.3,11.3,0,0,1-13.617.581l-105.5-72.97a7.014,7.014,0,0,0-2.554,5.42v121.386a7.033,7.033,0,0,0,7.56,7.013l188.342-14.13a7.033,7.033,0,0,0,6.507-7.014V1808.336a7,7,0,0,0-1.816-4.706Z" transform="translate(-838.213 -1794.806)" fill="url(#linear-gradient-24)"/>
      </g>
      <path id="Path_27369" data-name="Path 27369" d="M1038.805,1803.63l-78.919,65.178a11.3,11.3,0,0,1-13.617.581l-105.5-72.97a7.014,7.014,0,0,0-2.554,5.42v17.9a20.223,20.223,0,0,1,9.659-1.69c7.248.605,8.979,5.13,22.858,11.662,12.977,6.107,14.338,3.5,20.059,7.93,11.021,8.527,6.2,18.368,15.86,27.523,10.059,9.533,18.737,2.133,33.12,11.2,15.2,9.576,10.333,20.879,22.858,27.522,17.547,9.308,35.465-8.439,50.38.933,4.51,2.834,7.393,7.3,9.252,12.181l11.855-.89a7.033,7.033,0,0,0,6.507-7.014V1808.336A7,7,0,0,0,1038.805,1803.63Z" transform="translate(-834.975 -1794.806)" opacity="0.37" fill="url(#linear-gradient-25)" style="mix-blend-mode: multiply;isolation: isolate"/>
    </g>
    <g id="Group_13749" data-name="Group 13749" transform="translate(445.801 530.305)">
      <path id="Path_27370" data-name="Path 27370" d="M1286.513,1280.781a1.911,1.911,0,0,0,1.725-3.4c-.045-.023-.091-.042-.137-.061a10.976,10.976,0,0,0,.364-1.566c.05,0,.1,0,.15-.005a1.994,1.994,0,0,0,1.753-2.029,1.688,1.688,0,0,0-1.828-1.71c-.052,0-.1.013-.153.022a10.079,10.079,0,0,0-.423-1.5c.046-.027.091-.054.135-.085a1.993,1.993,0,0,0,.6-2.612,1.688,1.688,0,0,0-2.459-.466c-.043.03-.084.063-.124.1a8.917,8.917,0,0,0-1.1-1.024c.028-.046.055-.092.08-.14.476-.938,1.1-1.963.226-2.39-2.02-.986-2.887-.142-3.363.8-.025.049-.046.1-.066.148a8.933,8.933,0,0,0-1.474-.281c0-.052.006-.1,0-.157-.021-1.032.286-1.591-.707-1.611-2.164-.042-2.894.9-2.873,1.93,0,.054.006.107.011.159a10.08,10.08,0,0,0-1.457.541c-.022-.046-.046-.092-.073-.136a1.688,1.688,0,0,0-2.459-.466,1.993,1.993,0,0,0-.6,2.612c.026.044.055.084.084.125a11.02,11.02,0,0,0-1.049,1.218c-.042-.026-.084-.052-.129-.075a1.911,1.911,0,0,0-1.725,3.4c.045.023.091.042.137.06a10.993,10.993,0,0,0-.364,1.566c-.05,0-.1,0-.15.005a1.994,1.994,0,0,0-1.752,2.029,1.688,1.688,0,0,0,1.827,1.71c.052,0,.1-.013.153-.022a10.087,10.087,0,0,0,.423,1.5c-.045.027-.091.054-.135.085a1.994,1.994,0,0,0-.6,2.612,2.473,2.473,0,0,0,3.054.653c.043-.031-.511-.249-.47-.283a8.908,8.908,0,0,0,1.1,1.024c-.028.046-.055.092-.08.141a1.765,1.765,0,1,0,3.138,1.593c.025-.049.046-.1.066-.147a8.925,8.925,0,0,0,1.474.281c0,.052-.005.1,0,.157a1.688,1.688,0,0,0,1.828,1.71,1.994,1.994,0,0,0,1.752-2.029c0-.054-.006-.107-.011-.159a10.093,10.093,0,0,0,1.457-.541c.022.046.046.092.073.136a1.688,1.688,0,0,0,2.459.466,1.994,1.994,0,0,0,.6-2.612c-.026-.043-.055-.084-.084-.124a10.974,10.974,0,0,0,1.049-1.218C1286.426,1280.733,1286.468,1280.759,1286.513,1280.781Zm-10.8.137a6.939,6.939,0,1,1,8.828-3.276A6.669,6.669,0,0,1,1275.711,1280.918Z" transform="translate(-1267.318 -1262.811)" fill="#d8dee8"/>
      <path id="Path_27371" data-name="Path 27371" d="M1378.33,1294.663a1.994,1.994,0,0,0,1.752-2.029,1.688,1.688,0,0,0-1.828-1.71c-.052,0-.1.013-.153.022a10.108,10.108,0,0,0-.423-1.5c.045-.027.091-.054.135-.085.846-.593,1.892-2.025,1.3-2.818-1.133-1.505-2.3-.854-3.151-.261-.043.03-.084.063-.124.1a8.908,8.908,0,0,0-1.1-1.024c.028-.046.055-.092.08-.141a1.968,1.968,0,0,0,.111-1.552q-1.225,2.157-2.414,4.333a6.771,6.771,0,0,1,1.74,8.553,6.928,6.928,0,0,1-6.552,3.9c-.115.3-.228.6-.351.894-.334.8-.715,1.588-1.095,2.373q.359.068.72.106c0,.052-.005.1,0,.157.021,1.032.647,1.91,2.439,1.815.991-.052,1.161-1.1,1.141-2.134,0-.054-.006-.107-.011-.159a10.081,10.081,0,0,0,1.457-.541c.022.046.046.092.073.136a2.576,2.576,0,0,0,3.135.619c.846-.593.44-1.915-.072-2.765-.027-.044-.055-.084-.084-.125a11,11,0,0,0,1.049-1.218c.042.026.084.052.129.075a1.911,1.911,0,0,0,1.725-3.4c-.045-.023-.091-.042-.136-.06a11.027,11.027,0,0,0,.364-1.566C1378.229,1294.668,1378.279,1294.667,1378.33,1294.663Z" transform="translate(-1357.032 -1281.722)" fill="#d8dee8"/>
      <path id="Path_27372" data-name="Path 27372" d="M1296.51,1280.9a1.911,1.911,0,0,0,1.725-3.4c-.045-.023-.091-.042-.136-.06a11.011,11.011,0,0,0,.364-1.566c.05,0,.1,0,.15-.006a1.993,1.993,0,0,0,1.752-2.029,1.688,1.688,0,0,0-1.828-1.71c-.052,0-.1.013-.153.022a10.057,10.057,0,0,0-.423-1.5c.045-.027.091-.054.135-.085a1.993,1.993,0,0,0,.6-2.612,1.688,1.688,0,0,0-2.459-.466c-.043.03-.084.063-.124.1a8.926,8.926,0,0,0-1.1-1.024c.028-.046.055-.092.08-.141a1.765,1.765,0,1,0-3.138-1.593c-.024.049-.046.1-.066.147a8.927,8.927,0,0,0-1.474-.281c0-.052.005-.1,0-.157a1.688,1.688,0,0,0-1.828-1.71,1.994,1.994,0,0,0-1.753,2.029c0,.054.006.107.011.159a10.064,10.064,0,0,0-1.457.541c-.022-.046-.046-.092-.073-.136a1.688,1.688,0,0,0-2.459-.466,1.993,1.993,0,0,0-.6,2.612c.026.044.055.084.084.125a11,11,0,0,0-1.05,1.218c-.042-.026-.084-.052-.129-.075a1.911,1.911,0,0,0-1.725,3.4c.045.023.091.042.137.061a11.016,11.016,0,0,0-.364,1.566c-.05,0-.1,0-.15.005a1.994,1.994,0,0,0-1.752,2.029,1.688,1.688,0,0,0,1.827,1.71c.052,0,.1-.013.153-.022a10.055,10.055,0,0,0,.423,1.5c-.045.027-.091.054-.135.085a1.994,1.994,0,0,0-.6,2.612,1.689,1.689,0,0,0,2.459.466c.043-.03.084-.063.124-.1a8.924,8.924,0,0,0,1.1,1.024c-.028.046-.055.092-.08.141a1.765,1.765,0,1,0,3.138,1.593c.025-.049.046-.1.066-.147a8.93,8.93,0,0,0,1.474.281c0,.052-.005.1,0,.157a1.688,1.688,0,0,0,1.827,1.71,1.994,1.994,0,0,0,1.752-2.029c0-.054-.006-.107-.011-.159a10.089,10.089,0,0,0,1.457-.541c.022.046.046.092.073.136a1.688,1.688,0,0,0,2.459.466,1.994,1.994,0,0,0,.6-2.612c-.026-.044-.055-.084-.084-.125a11,11,0,0,0,1.05-1.218C1296.423,1280.848,1296.465,1280.874,1296.51,1280.9Zm-10.8.137a6.939,6.939,0,1,1,8.828-3.276A6.668,6.668,0,0,1,1285.708,1281.034Z" transform="translate(-1276.383 -1262.821)" fill="#fff"/>
    </g>
    <path id="Path_27373" data-name="Path 27373" d="M1044.662,2045.858v109.691l13.016,11.843,24.414-19.549Z" transform="translate(-619.617 -1442.558)" opacity="0.3" fill="url(#linear-gradient-26)" style="mix-blend-mode: multiply;isolation: isolate"/>
    <g id="Group_13755" data-name="Group 13755" transform="translate(425.031 599.976)">
      <g id="Group_13752" data-name="Group 13752" transform="translate(0 0)">
        <g id="Group_13751" data-name="Group 13751">
          <g id="Group_13750" data-name="Group 13750">
            <path id="Path_27374" data-name="Path 27374" d="M1108.146,2015.759l11.242,113.065a2.9,2.9,0,0,1-2.58,3.271l-54.775,4.588c-3.339.117-5.141-1.682-5.322-3.463l-12.18-119.679c-.183-1.8,1.485-3.389,4.858-3.32l55.521,2.341A3.574,3.574,0,0,1,1108.146,2015.759Z" transform="translate(-1044.516 -2010.216)" fill="url(#linear-gradient-27)"/>
            <path id="Path_27375" data-name="Path 27375" d="M1132.23,2015.592l11.29,113.647a2.918,2.918,0,0,1-2.591,3.289l-56.788,4.163a3.379,3.379,0,0,1-3.559-3.02l-12.235-120.314a2.791,2.791,0,0,1,2.945-3.162l57.688,2.182A3.591,3.591,0,0,1,1132.23,2015.592Z" transform="translate(-1066.111 -2010.193)" fill="#26264f"/>
            <path id="Path_27376" data-name="Path 27376" d="M1157.49,2089.544l10.47,105.334a2.72,2.72,0,0,1-2.425,3.067l-53.413,3.8a3.152,3.152,0,0,1-3.309-2.819L1097.521,2087.8a2.614,2.614,0,0,1,2.735-2.961l54.2,1.725A3.331,3.331,0,0,1,1157.49,2089.544Z" transform="translate(-1092.566 -2077.875)" fill="url(#linear-gradient-28)"/>
          </g>
          <path id="Path_27377" data-name="Path 27377" d="M1411.915,2049.56a.926.926,0,0,1-.959,1.065,1.283,1.283,0,0,1-1.183-1.139.926.926,0,0,1,.961-1.064A1.283,1.283,0,0,1,1411.915,2049.56Z" transform="translate(-1375.719 -2044.857)" fill="#fff"/>
        </g>
      </g>
      <g id="Group_13753" data-name="Group 13753" transform="translate(23.81 34.614)" opacity="0.66">
        <path id="Path_27378" data-name="Path 27378" d="M1307.258,2388.872c-6.384,3.322-9.118,10.708-6.1,16.5s10.63,7.79,17.015,4.468Z" transform="translate(-1299.927 -2388.186)" fill="#f4f7fa"/>
        <path id="Path_27379" data-name="Path 27379" d="M1389.472,2403.162h0l-10.91-20.967h0a6.069,6.069,0,0,1,8.184,2.582l5.308,10.2A6.068,6.068,0,0,1,1389.472,2403.162Z" transform="translate(-1371.231 -2381.509)" fill="#f4f7fa"/>
        <path id="Path_27380" data-name="Path 27380" d="M1473.281,2715.121c-6.384,3.322-9.117,10.708-6.1,16.5s10.631,7.79,17.015,4.467Z" transform="translate(-1450.474 -2684.022)" fill="#f4f7fa"/>
        <path id="Path_27381" data-name="Path 27381" d="M1555.5,2729.41h0l-10.91-20.966h0a6.067,6.067,0,0,1,8.184,2.582l5.308,10.2A6.068,6.068,0,0,1,1555.5,2729.41Z" transform="translate(-1521.779 -2677.344)" fill="#f4f7fa"/>
        <path id="Path_27382" data-name="Path 27382" d="M1330.626,2549.763l-6.64,3.455q-12.728-12.392-17.2-33.056l6.64-3.455Z" transform="translate(-1306.146 -2504.104)" fill="#f4f7fa"/>
      </g>
      <g id="Group_13754" data-name="Group 13754" transform="translate(2.22 0)" opacity="0.3" style="mix-blend-mode: soft-light;isolation: isolate">
        <path id="Path_27383" data-name="Path 27383" d="M1097.049,2070.371c-5.644-16.676,4.18-25.077-1.384-40.522-3.027-8.4-9.086-14.664-15.751-19.326l-8.622-.326a2.792,2.792,0,0,0-2.946,3.162l12.235,120.314a3.379,3.379,0,0,0,3.559,3.02l49.028-3.594c-.154-12.563-3.345-21.5-6.895-27.859C1116.52,2087.773,1102.893,2087.638,1097.049,2070.371Z" transform="translate(-1068.33 -2010.193)" fill="#f4f7fa"/>
      </g>
    </g>
  </g>
</svg>
