<svg xmlns="http://www.w3.org/2000/svg" width="15.538" height="19.427" viewBox="0 0 15.538 19.427">
  <g id="_-Product-Icons" data-name="ðŸ”-Product-Icons" transform="translate(-4 -2)">
    <g id="ic_fluent_copy_24_filled" transform="translate(4 2)">
      <path id="_-Color" data-name="ðŸŽ¨-Color" d="M5.459,4.551l0,2.062v10.2A3.156,3.156,0,0,0,8.613,19.97H16.98a2.186,2.186,0,0,1-2.061,1.456H8.613A4.613,4.613,0,0,1,4,16.814V6.613A2.186,2.186,0,0,1,5.459,4.551ZM17.353,2a2.185,2.185,0,0,1,2.185,2.185V16.81a2.185,2.185,0,0,1-2.185,2.185H8.613A2.185,2.185,0,0,1,6.428,16.81V4.185A2.185,2.185,0,0,1,8.613,2Z" transform="translate(-4 -2)" fill="#3ea7ff"/>
    </g>
  </g>
</svg>
