<svg id="copy-link-icon" xmlns="http://www.w3.org/2000/svg" width="14.391" height="15.921" viewBox="0 0 14.391 15.921">
  <path id="Path_27323" data-name="Path 27323" d="M12.656,2.7h0v0a1.732,1.732,0,0,1,1.731,1.73h0v9.757h0a1.732,1.732,0,0,1-1.73,1.731v0H4.985v0a1.734,1.734,0,0,1-1.732-1.73h0V4.431h0A1.736,1.736,0,0,1,4.986,2.7v0h7.67ZM0,9.767,0,1.735H0A1.734,1.734,0,0,1,1.732,0H9.4c1,0,1.153,1.291,0,1.316H1.734v0a.427.427,0,0,0-.419.42h0V9.766c0,1.07-1.315,1.13-1.315,0Zm13.073,4.42V4.429h0a.414.414,0,0,0-.126-.294.424.424,0,0,0-.3-.124v0H4.983v0a.427.427,0,0,0-.419.42h0v9.757h0a.427.427,0,0,0,.42.419v0h7.673v0a.427.427,0,0,0,.419-.42Z" fill="#ac83f6" fill-rule="evenodd"/>
</svg>
