<svg xmlns="http://www.w3.org/2000/svg" xmlns:xlink="http://www.w3.org/1999/xlink" width="229.265" height="219.058" viewBox="0 0 229.265 219.058">
  <defs>
    <linearGradient id="linear-gradient" x1="-0.358" y1="-0.396" x2="-0.863" y2="2.919" gradientUnits="objectBoundingBox">
      <stop offset="0" stop-color="#ff9085"/>
      <stop offset="1" stop-color="#fb6fbb"/>
    </linearGradient>
    <linearGradient id="linear-gradient-2" x1="7.943" y1="-2.469" x2="7.39" y2="0.776" gradientUnits="objectBoundingBox">
      <stop offset="0" stop-color="#aa80f9"/>
      <stop offset="0.996" stop-color="#6165d7"/>
    </linearGradient>
    <linearGradient id="linear-gradient-3" x1="-10.067" y1="0.377" x2="-9.098" y2="0.377" gradientUnits="objectBoundingBox">
      <stop offset="0" stop-color="#444b8c"/>
      <stop offset="0.996" stop-color="#26264f"/>
    </linearGradient>
    <linearGradient id="linear-gradient-4" x1="-16.722" y1="-0.187" x2="-17.573" y2="0.894" gradientUnits="objectBoundingBox">
      <stop offset="0" stop-color="#ffc444"/>
      <stop offset="0.996" stop-color="#f36f56"/>
    </linearGradient>
    <linearGradient id="linear-gradient-5" x1="-3.632" y1="1.033" x2="-3.008" y2="0.112" xlink:href="#linear-gradient-2"/>
    <linearGradient id="linear-gradient-6" x1="-7.495" y1="0.5" x2="-6.495" y2="0.5" xlink:href="#linear-gradient-3"/>
    <linearGradient id="linear-gradient-7" x1="-22.222" y1="1.151" x2="-21.078" y2="-0.562" xlink:href="#linear-gradient-4"/>
    <linearGradient id="linear-gradient-8" x1="-4.723" y1="1.033" x2="-3.951" y2="0.113" xlink:href="#linear-gradient-2"/>
    <linearGradient id="linear-gradient-9" x1="-4.748" y1="0.613" x2="-3.272" y2="0.054" xlink:href="#linear-gradient-2"/>
    <linearGradient id="linear-gradient-10" x1="-5.836" y1="-0.163" x2="-5.244" y2="0.897" gradientUnits="objectBoundingBox">
      <stop offset="0" stop-color="#311944"/>
      <stop offset="1" stop-color="#893976"/>
    </linearGradient>
    <linearGradient id="linear-gradient-11" x1="-3.152" y1="-0.15" x2="-2.499" y2="1.079" xlink:href="#linear-gradient-10"/>
    <linearGradient id="linear-gradient-12" x1="-8.016" y1="0.645" x2="-5.621" y2="0.084" xlink:href="#linear-gradient-2"/>
    <linearGradient id="linear-gradient-13" x1="-2.912" y1="-0.257" x2="-2.347" y2="0.939" xlink:href="#linear-gradient-10"/>
    <linearGradient id="linear-gradient-14" x1="-25.409" y1="1.317" x2="-25.318" y2="-0.325" xlink:href="#linear-gradient-4"/>
    <linearGradient id="linear-gradient-15" x1="-4.535" y1="0.459" x2="-3.841" y2="1.245" xlink:href="#linear-gradient-3"/>
    <linearGradient id="linear-gradient-16" x1="-20.377" y1="2.932" x2="-20.413" y2="6.094" xlink:href="#linear-gradient-4"/>
    <linearGradient id="linear-gradient-17" x1="-71.907" y1="29.954" x2="-71.72" y2="34.085" gradientUnits="objectBoundingBox">
      <stop offset="0" stop-color="#ffc444"/>
      <stop offset="1" stop-color="#f36f56"/>
    </linearGradient>
    <linearGradient id="linear-gradient-18" x1="-3.628" y1="-1.04" x2="-2.95" y2="0.886" xlink:href="#linear-gradient-10"/>
    <linearGradient id="linear-gradient-19" x1="-0.883" y1="-0.866" x2="-0.422" y2="0.307" xlink:href="#linear-gradient-10"/>
    <linearGradient id="linear-gradient-20" x1="-12.161" y1="1.377" x2="-12.106" y2="-0.408" xlink:href="#linear-gradient-4"/>
    <linearGradient id="linear-gradient-21" x1="-11.19" y1="1.373" x2="-11.146" y2="-0.41" xlink:href="#linear-gradient-4"/>
    <linearGradient id="linear-gradient-22" x1="1.354" y1="0.493" x2="2.385" y2="0.493" xlink:href="#linear-gradient-3"/>
    <linearGradient id="linear-gradient-23" x1="-2.067" y1="-1.492" x2="-1.664" y2="-0.235" xlink:href="#linear-gradient-2"/>
    <linearGradient id="linear-gradient-24" x1="-16.534" y1="-17.781" x2="-13.256" y2="-4.918" xlink:href="#linear-gradient-2"/>
    <linearGradient id="linear-gradient-25" x1="-16.289" y1="-24.641" x2="-13.415" y2="-8.38" xlink:href="#linear-gradient-2"/>
    <linearGradient id="linear-gradient-26" x1="-12.438" y1="-18.317" x2="-9.554" y2="-1.892" xlink:href="#linear-gradient-2"/>
    <linearGradient id="linear-gradient-27" x1="-17.684" y1="-16.923" x2="-14.427" y2="-4.117" xlink:href="#linear-gradient-2"/>
    <linearGradient id="linear-gradient-28" x1="-8.985" y1="-4.779" x2="-8.676" y2="-3.958" xlink:href="#linear-gradient-2"/>
    <linearGradient id="linear-gradient-29" x1="-2.413" y1="-1.735" x2="-1.436" y2="-1.735" xlink:href="#linear-gradient-2"/>
    <linearGradient id="linear-gradient-30" x1="-5.012" y1="-1.651" x2="-6.217" y2="-1.746" xlink:href="#linear-gradient-10"/>
    <linearGradient id="linear-gradient-31" x1="-6.045" y1="-1.725" x2="-4.355" y2="-1.672" gradientUnits="objectBoundingBox">
      <stop offset="0.004" stop-color="#e38ddd"/>
      <stop offset="1" stop-color="#9571f6"/>
    </linearGradient>
    <linearGradient id="linear-gradient-32" x1="-41.813" y1="-20.537" x2="-38.358" y2="-18.495" gradientUnits="objectBoundingBox">
      <stop offset="0" stop-color="#f57e53"/>
      <stop offset="0.005" stop-color="#f58152"/>
      <stop offset="0.042" stop-color="#f8994d"/>
      <stop offset="0.084" stop-color="#fbac49"/>
      <stop offset="0.133" stop-color="#fdb946"/>
      <stop offset="0.196" stop-color="#fec144"/>
      <stop offset="0.318" stop-color="#ffc444"/>
      <stop offset="0.455" stop-color="#fdb946"/>
      <stop offset="0.694" stop-color="#f99c4c"/>
      <stop offset="0.996" stop-color="#f36f56"/>
    </linearGradient>
    <linearGradient id="linear-gradient-33" x1="-46.287" y1="-21.969" x2="-45.422" y2="-21.969" xlink:href="#linear-gradient"/>
    <linearGradient id="linear-gradient-34" x1="-139.894" y1="-29.739" x2="-137.525" y2="-29.739" xlink:href="#linear-gradient"/>
    <linearGradient id="linear-gradient-35" x1="-140.701" y1="-29.554" x2="-138.328" y2="-29.554" xlink:href="#linear-gradient"/>
    <linearGradient id="linear-gradient-36" x1="-141.512" y1="-29.37" x2="-139.134" y2="-29.37" xlink:href="#linear-gradient"/>
    <linearGradient id="linear-gradient-37" x1="-63.644" y1="-35.848" x2="-62.963" y2="-35.848" xlink:href="#linear-gradient"/>
    <linearGradient id="linear-gradient-38" x1="-10.104" y1="-2.052" x2="-7.525" y2="-1.989" gradientUnits="objectBoundingBox">
      <stop offset="0" stop-color="#fb6fbb"/>
      <stop offset="1" stop-color="#ff9085"/>
    </linearGradient>
    <linearGradient id="linear-gradient-39" x1="-50.434" y1="-11.227" x2="-48.647" y2="-11.227" xlink:href="#linear-gradient-38"/>
    <linearGradient id="linear-gradient-40" x1="-40.457" y1="-7.409" x2="-38.528" y2="-7.409" xlink:href="#linear-gradient-38"/>
    <linearGradient id="linear-gradient-41" x1="-34.635" y1="-18.181" x2="-33.595" y2="-18.181" xlink:href="#linear-gradient"/>
    <linearGradient id="linear-gradient-42" x1="0.329" y1="0.554" x2="-0.255" y2="0.738" gradientUnits="objectBoundingBox">
      <stop offset="0" stop-color="#fcb148"/>
      <stop offset="0.052" stop-color="#fdb946"/>
      <stop offset="0.142" stop-color="#fec144"/>
      <stop offset="0.318" stop-color="#ffc444"/>
      <stop offset="0.485" stop-color="#fdb946"/>
      <stop offset="0.775" stop-color="#f99c4c"/>
      <stop offset="0.866" stop-color="#f8924f"/>
      <stop offset="1" stop-color="#f8924f"/>
    </linearGradient>
    <linearGradient id="linear-gradient-43" x1="0.727" y1="0.007" x2="0.207" y2="1.135" gradientUnits="objectBoundingBox">
      <stop offset="0" stop-color="#ffdb44"/>
      <stop offset="1" stop-color="#feef06"/>
    </linearGradient>
    <linearGradient id="linear-gradient-44" x1="0.636" y1="1.231" x2="0.531" y2="0.666" xlink:href="#linear-gradient-42"/>
    <linearGradient id="linear-gradient-45" x1="0.409" y1="0.31" x2="0.858" y2="1.247" xlink:href="#linear-gradient-42"/>
    <linearGradient id="linear-gradient-46" x1="0.253" y1="0.019" x2="0.711" y2="1.039" xlink:href="#linear-gradient-43"/>
    <linearGradient id="linear-gradient-47" x1="0.464" y1="0.369" x2="1.215" y2="1.306" xlink:href="#linear-gradient-42"/>
    <linearGradient id="linear-gradient-54" x1="0.641" y1="-0.993" x2="0.376" y2="1.775" gradientUnits="objectBoundingBox">
      <stop offset="0" stop-color="#ab316d"/>
      <stop offset="1" stop-color="#792d3d"/>
    </linearGradient>
    <linearGradient id="linear-gradient-55" x1="3.311" y1="-0.817" x2="-0.513" y2="0.923" xlink:href="#linear-gradient-54"/>
    <linearGradient id="linear-gradient-56" x1="4.112" y1="-0.532" x2="-0.545" y2="0.957" xlink:href="#linear-gradient-54"/>
    <linearGradient id="linear-gradient-57" x1="3.689" y1="-0.716" x2="-0.501" y2="0.882" xlink:href="#linear-gradient-4"/>
  </defs>
  <g id="Group_10493" data-name="Group 10493" transform="translate(-454.656 -517.787)">
    <path id="Path_21971" data-name="Path 21971" d="M550.688,734.711c-56.875-8.612-103.1-62.387-94.7-122.156,7.164-50.973,51.854-90.641,105.445-94.387q5.821-.408,11.768-.241a117.109,117.109,0,0,1,76.107,30.917c19.554,18.009,32.258,42.1,34.571,67.367C690.04,683.446,621.428,745.424,550.688,734.711Z" transform="translate(-0.344 -0.09)" fill="#d8d8d8" opacity="0.5"/>
    <g id="Group_11716" data-name="Group 11716">
      <g id="Group_10387" data-name="Group 10387" transform="translate(458.656 651.658)">
        <g id="Group_10386" data-name="Group 10386" transform="translate(0 0)">
          <path id="Path_21972" data-name="Path 21972" d="M538.3,2231.7c-13.3-1.709-30.164-6.2-36.937-18.86-1.611-3.011-3.228-8.862.839-11.065,3.717-2.014,8.525.114,11.287,2.734,2.032,1.928,3.617,6.227,5.9,7.587,3.341,1.993,5.139-3.44,5.069-5.68-.157-5.013-6.322-7.065-10.419-8.153-6.8-1.807-14.719-3.355-14.293-11.019s7.9-12.261,13.647-8.908c4.736,2.763,4.07,8.66,7.306,12.2,2.875,3.144,3.875-1.959,3.683-4.459-.417-5.433-5.193-9.363-8.708-13-3.974-4.116-8.364-12.4-4.128-17.841,2.437-3.131,8.629-3.865,12.289-3.336,17.914,2.587,6.035,25.77,9.292,28.357s6.339-1.942,6.331-8.826,1.046-11.964,8.23-9.76,8.553,20.187.349,27.1.515,14.452,2.717,9.5c1.59-3.576,2.988-12.941,7.583-13.97,7.657-1.707,7.544,13.929,5.34,17.566-3.089,5.1-10.074,6.209-13.975,10.611-1.133,1.279-3.692,4.444-2.7,6.313,1.386,2.608,5.254-.181,6.674-1.39,3.194-2.715,7.616-11.944,12.116-5.815C571.349,2219.147,562.056,2230.367,538.3,2231.7Z" transform="translate(-499.641 -2151.74)" fill="url(#linear-gradient)"/>
          <g id="Group_10385" data-name="Group 10385" transform="translate(24.669 17.75)" opacity="0.8" style="mix-blend-mode: soft-light;isolation: isolate">
            <path id="Path_21973" data-name="Path 21973" d="M813,2429.6a.676.676,0,0,0,.574-.671c.005-.271.376-27.59-11.531-60.015a.59.59,0,0,0-.738-.368.56.56,0,0,0-.341.723c11.833,32.227,11.466,59.375,11.461,59.645a.666.666,0,0,0,.564.686Z" transform="translate(-800.927 -2368.517)" fill="#fff"/>
          </g>
        </g>
        <path id="Path_21974" data-name="Path 21974" d="M684.266,2557.612c.446-2.8,5.792-3.594,7.946-4,1.25-.235,3.028-.477,3.669-1.77.674-1.353-.351-2.4-1.665-2.642-2.353-.431-4.884,1.065-7.071,1.746a10.026,10.026,0,0,1-7.115.064,7.357,7.357,0,0,1-4.163-4.726c-1.119-5.567,4.458-5.247,8.092-4.463,1.763.377,5.23.663,5.541-1.828.331-2.652-3.042-3.987-5.127-4.068-2.723-.1-5.4.5-8.1.692-2.436.177-5.32-.088-6-2.892a6.088,6.088,0,0,1,2.459-5.939c4.071-2.973,9.434,2.093,13.779,2.083,1.536,0,4.072-1.129,4.5-2.779.431-1.681-1.752-2.812-2.949-3.426-3.547-1.816-19.841-4.14-14-11.177a9.949,9.949,0,0,1,6.6-3.321c4.322-.119,9.178,2.813,12.507,5.344a45.639,45.639,0,0,1,12.794,15.329c6.575,12.97,3.39,21.667,3.39,21.667a23.376,23.376,0,0,1-8.1,8.183c-3.819,2.082-9.734,3-13.888,1.377C686.012,2560.542,683.99,2559.342,684.266,2557.612Z" transform="translate(-656.193 -2479.896)" fill="url(#linear-gradient-2)"/>
      </g>
      <path id="Path_21975" data-name="Path 21975" d="M1893.094,1703.216l-5.52.372a42.922,42.922,0,0,0-2.5-7.111l4.58-3.073a2.716,2.716,0,0,0,.717-3.79l-5.341-7.858a2.771,2.771,0,0,0-3.819-.764l-4.64,3.1a44.321,44.321,0,0,0-5.725-4.947l2.448-5.024a2.763,2.763,0,0,0-1.29-3.676l-8.6-4.231a2.749,2.749,0,0,0-3.7,1.23l-2.464,5.041a44.161,44.161,0,0,0-7.458-1.477l-.427-5.652a2.827,2.827,0,0,0-2.986-2.584l-9.613.567a2.722,2.722,0,0,0-2.58,2.919l.43,5.671a43.563,43.563,0,0,0-7.228,2.377l-3.242-4.727a2.858,2.858,0,0,0-3.907-.781l-8.045,5.283a2.728,2.728,0,0,0-.744,3.844l3.253,4.728a43.464,43.464,0,0,0-5.048,5.688l-5.205-2.514a2.837,2.837,0,0,0-3.783,1.258l-4.258,8.616a2.775,2.775,0,0,0,1.324,3.727l5.167,2.479a42.5,42.5,0,0,0-1.456,7.5l-5.72.385a2.788,2.788,0,0,0-2.625,2.971l.728,9.6a2.836,2.836,0,0,0,3.047,2.581l5.674-.4a42.845,42.845,0,0,0,2.546,7.26l-4.668,3.116a2.75,2.75,0,0,0-.748,3.868l5.516,7.943a2.862,2.862,0,0,0,3.934.727l4.632-3.109a44.279,44.279,0,0,0,5.909,5.016l-2.422,4.951a2.751,2.751,0,0,0,1.318,3.7l8.759,4.125a2.834,2.834,0,0,0,3.749-1.31l2.388-4.905a44.141,44.141,0,0,0,7.636,1.393l.411,5.422a2.769,2.769,0,0,0,3,2.537l9.6-.758a2.777,2.777,0,0,0,2.564-2.966l-.41-5.407a43.585,43.585,0,0,0,7.272-2.533l3.065,4.453a2.77,2.77,0,0,0,3.843.709l7.871-5.366a2.741,2.741,0,0,0,.723-3.815l-3.073-4.48a43.477,43.477,0,0,0,4.959-5.764l4.912,2.357a2.747,2.747,0,0,0,3.662-1.279l4.1-8.509a2.738,2.738,0,0,0-1.282-3.652l-4.921-2.378a42.512,42.512,0,0,0,1.368-7.419l5.475-.385a2.715,2.715,0,0,0,2.52-2.917l-.714-9.41A2.761,2.761,0,0,0,1893.094,1703.216Zm-49.756-16.911a28.253,28.253,0,0,1,30.04,25.866,27.785,27.785,0,0,1-25.823,29.716,28.241,28.241,0,0,1-30.347-25.843A27.777,27.777,0,0,1,1843.337,1686.305Z" transform="translate(-1228.522 -1051.143)" fill="#d8dee8" opacity="0.7" style="mix-blend-mode: multiply;isolation: isolate"/>
      <path id="Path_21976" data-name="Path 21976" d="M2184.93,887.794l-3.035.2a23.572,23.572,0,0,0-1.374-3.909l2.518-1.69a1.493,1.493,0,0,0,.395-2.084L2180.5,876a1.522,1.522,0,0,0-2.1-.419l-2.552,1.7a24.378,24.378,0,0,0-3.148-2.719l1.344-2.762a1.516,1.516,0,0,0-.708-2.021l-4.727-2.326a1.512,1.512,0,0,0-2.033.676l-1.354,2.771a24.211,24.211,0,0,0-4.1-.812l-.235-3.108a1.554,1.554,0,0,0-1.642-1.421l-5.284.312a1.5,1.5,0,0,0-1.418,1.605l.236,3.117a23.958,23.958,0,0,0-3.972,1.307l-1.784-2.6a1.57,1.57,0,0,0-2.147-.43l-4.423,2.9a1.5,1.5,0,0,0-.409,2.114l1.788,2.6a24.02,24.02,0,0,0-2.775,3.127l-2.862-1.382a1.558,1.558,0,0,0-2.078.692l-2.341,4.737a1.524,1.524,0,0,0,.727,2.048l2.843,1.363a23.264,23.264,0,0,0-.8,4.12l-3.145.212a1.534,1.534,0,0,0-1.444,1.634l.4,5.278a1.558,1.558,0,0,0,1.674,1.418l3.119-.219a23.707,23.707,0,0,0,1.4,3.992l-2.567,1.712a1.514,1.514,0,0,0-.41,2.127l3.031,4.366a1.572,1.572,0,0,0,2.162.4l2.547-1.709a24.385,24.385,0,0,0,3.25,2.757l-1.332,2.722a1.513,1.513,0,0,0,.722,2.036l4.817,2.267a1.558,1.558,0,0,0,2.061-.72l1.312-2.7a24.33,24.33,0,0,0,4.2.765l.225,2.981a1.524,1.524,0,0,0,1.647,1.395l5.277-.417a1.527,1.527,0,0,0,1.409-1.631l-.224-2.972a23.978,23.978,0,0,0,4-1.393l1.686,2.448a1.525,1.525,0,0,0,2.113.391l4.328-2.951a1.5,1.5,0,0,0,.4-2.1l-1.688-2.463a23.887,23.887,0,0,0,2.727-3.169l2.7,1.3a1.511,1.511,0,0,0,2.015-.7l2.253-4.679a1.506,1.506,0,0,0-.7-2.008l-2.706-1.307a23.332,23.332,0,0,0,.752-4.078l3.011-.212a1.493,1.493,0,0,0,1.386-1.6l-.393-5.173A1.519,1.519,0,0,0,2184.93,887.794Zm-27.355-9.3a15.533,15.533,0,0,1,16.515,14.22,15.276,15.276,0,0,1-14.2,16.337,15.526,15.526,0,0,1-16.684-14.208A15.27,15.27,0,0,1,2157.575,878.5Z" transform="translate(-1537.802 -319.21)" fill="#d8dee8" opacity="0.7" style="mix-blend-mode: multiply;isolation: isolate"/>
      <g id="Group_10390" data-name="Group 10390" transform="translate(628.85 585.152)">
        <path id="Path_21977" data-name="Path 21977" d="M2774.007,3050.451c1.659,1.343,1.753,2.294,1.7,2.758-.087.749-.65,1.039-2,2.452-1.827,1.911-1.548,2.168-2.478,2.86-2.053,1.525-4.958,1.421-5.131.9-.124-.363,1.189-.661,2.684-2.391a9.4,9.4,0,0,0,1.97-3.644,8.737,8.737,0,0,0,.3-2.08Z" transform="translate(-2750.706 -2910.358)" fill="url(#linear-gradient-3)"/>
        <path id="Path_21978" data-name="Path 21978" d="M2794.929,2977.328l3.267,5.7c.787.349,1.54.173,2.239-.844l-1.274-6.919Z" transform="translate(-2777.185 -2841.325)" fill="url(#linear-gradient-4)"/>
        <path id="Path_21979" data-name="Path 21979" d="M2639.175,2094.864a68.532,68.532,0,0,0-9.391,29.764,67.621,67.621,0,0,0,3.921,28.321,84.761,84.761,0,0,0,10.275,18.8c1.868-.78,2.966-2,4.833-2.786-.279-1.015-1.145-4.369-1.691-6.368-.422-1.548-1.2-4.412-1.361-5.024-1.34-5.126-.282-8.972-.65-15.313-.43-7.393-2.125-6.534-1.87-10.972.379-6.628,4.136-8.175,8.447-17.77,2.952-6.566,6.052-13.463,3.2-17.235C2651.3,2091.533,2640.393,2094.517,2639.175,2094.864Z" transform="translate(-2625.389 -2031.873)" fill="url(#linear-gradient-5)"/>
        <path id="Path_21980" data-name="Path 21980" d="M2898.495,3110.125a2.732,2.732,0,0,1,1.142,3.085c-.445.929-1.583.636-4.341,1.485-2.957.906-3.54,1.824-5.718,1.821-.882,0-2.478-.15-2.611-.744-.094-.415.584-.829,2.815-2.327a33.676,33.676,0,0,1,3.839-2.515C2895.4,3110.111,2897.18,3109.288,2898.495,3110.125Z" transform="translate(-2861.678 -2964.824)" fill="url(#linear-gradient-6)"/>
        <path id="Path_21981" data-name="Path 21981" d="M2970.105,3058.975l1.215,5.54a2.994,2.994,0,0,0,3.107,0l-.447-5.54Z" transform="translate(-2938.017 -2918.185)" fill="url(#linear-gradient-7)"/>
        <path id="Path_21982" data-name="Path 21982" d="M2711.8,2096.279c-3.584-4.746-14.5-1.762-15.713-1.415a68.786,68.786,0,0,0-4.5,9.073c3.868-.76,5.547-.071,6.328.847,3.038,3.56-6.468,11.42-4.514,23.349.764,4.664,2.761,6.764,2.4,12.462-.271,4.24-1.589,6.386-2.5,9.492a24.964,24.964,0,0,0-.99,6.919,87.007,87.007,0,0,0,8.589,14.741c1.866-.78,2.967-2,4.833-2.785-.281-1.017-1.146-4.371-1.691-6.369-.423-1.548-1.2-4.412-1.361-5.024-1.341-5.126-.282-8.972-.65-15.313-.431-7.393-2.124-6.534-1.869-10.972.379-6.628,4.136-8.175,8.447-17.77C2711.555,2106.948,2714.655,2100.051,2711.8,2096.279Z" transform="translate(-2682.303 -2031.873)" opacity="0.3" fill="url(#linear-gradient-8)" style="mix-blend-mode: multiply;isolation: isolate"/>
        <path id="Path_21983" data-name="Path 21983" d="M2849.682,2094.409a278.212,278.212,0,0,0,8.91,77.111,4.95,4.95,0,0,0,3.3.562,4.852,4.852,0,0,0,2.3-1.133,45.07,45.07,0,0,1-.344-9.025c.413-6.533,1.952-7.864,2.613-14.626a56.1,56.1,0,0,0-.327-13.019c-.912-6.913-2.147-7.055-2.17-11.2-.039-6.376,2.876-8.659,4.478-14.734,1.069-4.052,1.637-10.1-1.052-18.4Q2858.536,2092.18,2849.682,2094.409Z" transform="translate(-2827.374 -2028.506)" fill="url(#linear-gradient-9)"/>
        <path id="Path_21984" data-name="Path 21984" d="M2594.207,1541.887a30.2,30.2,0,0,0-7.983,6.447c-6.473,7.412-10.477,19.608-6.316,23.6,2.832,2.715,9.544,1.892,11.855-1.33,1.7-2.37.475-5.281-.112-9.417C2591.021,1556.735,2591.044,1550.279,2594.207,1541.887Z" transform="translate(-2578.208 -1525.316)" fill="url(#linear-gradient-10)"/>
        <path id="Path_21985" data-name="Path 21985" d="M2761.509,1571.255c-2.4-31.59-10.038-44.521-9.372-48.359-.961-.692-4.76-1.791-13.367-.658a13.234,13.234,0,0,0-5.717,3.978c6.046,1.142,12.206,4.585,14.424,9.464,3.84,9.328-3.294,19.753,0,27.984a38.845,38.845,0,0,0,7.8,11.743C2759.057,1574.463,2761.646,1573.076,2761.509,1571.255Z" transform="translate(-2720.375 -1506.826)" fill="url(#linear-gradient-11)"/>
        <path id="Path_21986" data-name="Path 21986" d="M2952.258,2089.953q-2.589.654-5.183,1.3a27.721,27.721,0,0,1,.728,13.09c-1.441,7.325-5.164,8.932-5.71,15.537-.5,5.942,2.31,7.156,3.655,15.079,1.375,8.123-.706,11.943-1.142,18.736a42.52,42.52,0,0,0,3.014,18.134,4.945,4.945,0,0,0,1.44-.883,45.01,45.01,0,0,1-.343-9.025c.414-6.533,1.952-7.864,2.612-14.626a56.109,56.109,0,0,0-.328-13.019c-.909-6.913-2.145-7.055-2.169-11.2-.037-6.376,2.876-8.659,4.478-14.734C2954.38,2104.3,2954.946,2098.249,2952.258,2089.953Z" transform="translate(-2912.244 -2028.506)" opacity="0.3" fill="url(#linear-gradient-12)" style="mix-blend-mode: multiply;isolation: isolate"/>
        <path id="Path_21987" data-name="Path 21987" d="M2683.892,1525.078a16.85,16.85,0,0,0-3.626,5.146c-2.012,4.613.154,8.573.8,16.105.713,8.263-.295,22.028-2.619,26.959a1.2,1.2,0,0,0-.1.642c.631,4.767,33.407,3.686,32.925-2.676-2.4-31.59-10.036-44.521-9.37-48.359-.961-.692-4.76-1.791-13.367-.658A14.3,14.3,0,0,0,2683.892,1525.078Z" transform="translate(-2670.142 -1506.826)" fill="url(#linear-gradient-13)"/>
        <g id="Group_10389" data-name="Group 10389" transform="translate(16.271 0)">
          <path id="Path_21988" data-name="Path 21988" d="M2824.1,1430.838s2.116,6.643,2.8,7.443-2.752,2.89-5.386,1.947c-2.421-.864,0-4.553,0-4.553Z" transform="translate(-2816.883 -1423.359)" fill="url(#linear-gradient-14)"/>
          <g id="Group_10388" data-name="Group 10388">
            <path id="Path_21989" data-name="Path 21989" d="M2778.886,1345.431a4.159,4.159,0,0,1,.468-4.744,4.528,4.528,0,0,1,3.355-1.178c2.541-.087,5.629,1.219,6.545,3.623.542,1.425-1.1,4.161-1.363,4.655-.3.559-.769.721-1.225,1.126-.632.561-1.623,1.453-3.243,2.949a10.3,10.3,0,0,0-.434-1.753,9.189,9.189,0,0,0-1.033-2.1C2780.772,1346.3,2779.674,1346.672,2778.886,1345.431Z" transform="translate(-2778.235 -1339.504)" fill="url(#linear-gradient-15)"/>
            <path id="Path_21990" data-name="Path 21990" d="M2784.348,1401.93a5.633,5.633,0,0,1-5.146,2.1c-2.932-.429-2.832-7.074-.837-8.324a3.733,3.733,0,0,1,2.94-.142c.59.218.773.486,1.745.824.9.311,1.164.23,1.421.485.323.32.518,1.053-.214,2.939a1.609,1.609,0,0,1,1.761-.424,1.017,1.017,0,0,1,.361.415C2786.73,1400.588,2785.964,1401.5,2784.348,1401.93Z" transform="translate(-2776.925 -1390.76)" fill="url(#linear-gradient-16)"/>
            <path id="Path_21991" data-name="Path 21991" d="M2787,1462.252a3.62,3.62,0,0,0,1.716.412c.053,0,.111.021.116.049a1.358,1.358,0,0,1-1.363.283c-.451-.168-.775-.634-.7-.74C2786.794,1462.211,2786.9,1462.226,2787,1462.252Z" transform="translate(-2785.95 -1452.179)" fill="url(#linear-gradient-17)"/>
          </g>
        </g>
        <path id="Path_21992" data-name="Path 21992" d="M2764.07,1777.605c-3.576,1.255-8.323,4.784-8.641,9.307-.49,6.945,9.852,10.755,8.473,15.621-.374,1.327-1.562,2.524-9.305,5.318-3.134,1.131-6.043,2.053-8.687,2.816,9.475,1.4,27.763-.4,27.4-5.168a183.4,183.4,0,0,0-4.3-28.606A13.324,13.324,0,0,0,2764.07,1777.605Z" transform="translate(-2732.179 -1741.069)" opacity="0.3" fill="url(#linear-gradient-18)" style="mix-blend-mode: multiply;isolation: isolate"/>
        <path id="Path_21993" data-name="Path 21993" d="M2830.146,1566.781c5.82,5.906,14.125,7.768,20.513,4.812,8.868-4.1,10.241-15.74,8.171-23.022-3.452-12.157-18.5-19.247-23.239-16.009-3.427,2.342-3.394,11.405.691,15.94,3.67,4.077,9.313,3.047,10.847,7.2,1.15,3.111-1.071,6.247-1.263,6.507-2.469,3.381-7.852,4.528-12.941,2.206Q2831.536,1565.6,2830.146,1566.781Z" transform="translate(-2809.518 -1516.036)" fill="url(#linear-gradient-19)"/>
        <path id="Path_21994" data-name="Path 21994" d="M2687.635,1806.745a3.9,3.9,0,0,1,3.226-2.47c1.184-.165,3.137.1,3.915,1.653a3.68,3.68,0,0,1-1.517,4.577,2.542,2.542,0,0,0-1.4-1.585c-1.365-.429-2.549,1.352-3.558.886C2687.5,1809.436,2687.289,1807.863,2687.635,1806.745Z" transform="translate(-2678.528 -1766.18)" fill="url(#linear-gradient-20)"/>
        <path id="Path_21995" data-name="Path 21995" d="M2717.962,1840.528l4.479.778a1.242,1.242,0,0,0,1.426-1.484l-1.629-7.575a1.24,1.24,0,0,0-1.147-.979l-5.361-.287a1.242,1.242,0,0,0-1.237,1.655l2.511,7.083A1.249,1.249,0,0,0,2717.962,1840.528Z" transform="translate(-2703.268 -1790.738)" fill="#fff"/>
        <path id="Path_21996" data-name="Path 21996" d="M2760.686,1897.887c-.368-2.637-1.481-3.329-1.881-3.525-.676-.328-1.007-.073-3.363-.11-2.105-.034-2.6-.249-2.87.11-.5.683.531,2.474,1.705,3.525a6.846,6.846,0,0,0,4.528,1.6Z" transform="translate(-2738.175 -1848.743)" fill="url(#linear-gradient-21)"/>
      </g>
      <g id="Group_10419" data-name="Group 10419" transform="translate(476.424 518.787)">
        <g id="Group_10395" data-name="Group 10395" transform="translate(0 0)">
          <g id="Group_10393" data-name="Group 10393" transform="translate(0 0)">
            <g id="Group_10392" data-name="Group 10392">
              <g id="Group_10391" data-name="Group 10391">
                <path id="Path_21997" data-name="Path 21997" d="M826.309,538.59l19.375,194.867a5,5,0,0,1-4.447,5.639L746.832,747c-5.755.2-8.86-2.9-9.173-5.969L716.667,534.766c-.315-3.1,2.559-5.841,8.373-5.723l95.691,4.034A6.159,6.159,0,0,1,826.309,538.59Z" transform="translate(-716.643 -529.036)" fill="url(#linear-gradient-22)"/>
                <path id="Path_21998" data-name="Path 21998" d="M873.5,538.3,892.96,734.168a5.027,5.027,0,0,1-4.465,5.668l-97.874,7.175a5.824,5.824,0,0,1-6.133-5.2L763.4,534.446a4.812,4.812,0,0,1,5.077-5.45l99.425,3.761A6.188,6.188,0,0,1,873.5,538.3Z" transform="translate(-759.545 -528.992)" fill="#26264f"/>
                <path id="Path_21999" data-name="Path 21999" d="M924,683.57l18.046,181.544a4.689,4.689,0,0,1-4.18,5.287l-92.057,6.544a5.433,5.433,0,0,1-5.7-4.859l-19.462-191.53a4.505,4.505,0,0,1,4.714-5.1l93.406,2.973A5.74,5.74,0,0,1,924,683.57Z" transform="translate(-812.104 -663.457)" fill="#d8dee8"/>
              </g>
              <path id="Path_22000" data-name="Path 22000" d="M1437.039,605.966a1.6,1.6,0,0,1-1.653,1.835,2.211,2.211,0,0,1-2.039-1.963A1.6,1.6,0,0,1,1435,604,2.21,2.21,0,0,1,1437.039,605.966Z" transform="translate(-1374.655 -597.86)" fill="#fff"/>
            </g>
          </g>
          <g id="Group_10394" data-name="Group 10394" transform="translate(3.826)" opacity="0.3" style="mix-blend-mode: soft-light;isolation: isolate">
            <path id="Path_22001" data-name="Path 22001" d="M812.868,632.707c-9.727-28.741,7.2-43.22-2.385-69.84-5.216-14.484-15.659-25.274-27.147-33.309L768.477,529a4.811,4.811,0,0,0-5.077,5.45l21.087,207.361a5.823,5.823,0,0,0,6.133,5.2l84.5-6.194c-.266-21.651-5.767-37.061-11.884-48.015C846.427,662.7,822.94,662.468,812.868,632.707Z" transform="translate(-763.371 -528.992)" fill="#f4f7fa"/>
          </g>
        </g>
        <g id="Group_10401" data-name="Group 10401" transform="translate(38.186 34.788)">
          <g id="Group_10400" data-name="Group 10400">
            <path id="Path_22002" data-name="Path 22002" d="M1253.82,953.859l43.719,36.216c-37.594,16.905-33.22,68.578-70.814,85.484l-43.719-36.216C1220.6,1022.437,1216.226,970.765,1253.82,953.859Z" transform="translate(-1183.006 -953.859)" fill="url(#linear-gradient-23)"/>
            <path id="Path_22003" data-name="Path 22003" d="M1372.811,1042.989c-31.892,17.971-30.69,63.356-62.582,81.327l-37.209-30.824c31.891-17.971,30.69-63.356,62.581-81.327Z" transform="translate(-1265.65 -1007.391)" fill="#fff"/>
            <g id="Group_10398" data-name="Group 10398">
              <g id="Group_10396" data-name="Group 10396" transform="translate(0 78.998)">
                <path id="Path_22004" data-name="Path 22004" d="M1196.99,1920.459c.164.137.308.265.456.408.014.012.025.023.038.037a6.964,6.964,0,0,1,2.3,5.669,6.3,6.3,0,0,1-2.877,4.593,9.309,9.309,0,0,1-.83.5,11.827,11.827,0,0,1-3.729,1.21l-9.337-7.735a50.083,50.083,0,0,0,10.667-6.486A9.668,9.668,0,0,1,1196.99,1920.459Z" transform="translate(-1183.006 -1918.655)" fill="url(#linear-gradient-24)"/>
                <path id="Path_22005" data-name="Path 22005" d="M1618.147,2298.059a8.639,8.639,0,0,1,2.275,2.909,50.135,50.135,0,0,1-10.617,6.446q-4.776-3.96-9.554-7.915a12.443,12.443,0,0,1,2.781-2c.294-.156.594-.3.9-.444,4.537-2.082,10.1-2.082,13.812.682l.043.033C1617.909,2297.862,1618.034,2297.963,1618.147,2298.059Z" transform="translate(-1566.087 -2264.712)" fill="url(#linear-gradient-25)"/>
              </g>
              <g id="Group_10397" data-name="Group 10397" transform="translate(60.148)">
                <path id="Path_22006" data-name="Path 22006" d="M1928.251,953.859l9.337,7.734a12.326,12.326,0,0,1-2.782,1.994c-.292.158-.593.307-.9.446-4.491,2.06-9.973,2.092-13.684-.587-.173-.124-.314-.232-.478-.368a7.605,7.605,0,0,1-2.162-2.734A50.09,50.09,0,0,1,1928.251,953.859Z" transform="translate(-1917.585 -953.859)" fill="url(#linear-gradient-26)"/>
                <path id="Path_22007" data-name="Path 22007" d="M2381.6,1299.5l9.553,7.915a50.1,50.1,0,0,0-10.616,6.446,11.062,11.062,0,0,1-3.529-1.9c-.115-.1-.235-.2-.344-.3-.011-.011-.027-.023-.038-.036a7.155,7.155,0,0,1-2.471-5.339,6.227,6.227,0,0,1,2.9-5.066,9.212,9.212,0,0,1,.825-.506A11.824,11.824,0,0,1,2381.6,1299.5Z" transform="translate(-2336.773 -1271.201)" fill="url(#linear-gradient-27)"/>
              </g>
            </g>
            <path id="Path_22008" data-name="Path 22008" d="M1724.234,1474.9c6.979,5.781,9.041,17.071,5.02,25.56s-13.326,10.365-20.367,4.532c-6.978-5.781-9.039-17.071-5.018-25.561S1717.193,1469.067,1724.234,1474.9Z" transform="translate(-1659.349 -1429.14)" fill="url(#linear-gradient-28)"/>
            <g id="Group_10399" data-name="Group 10399" transform="translate(48.097 50.547)">
              <path id="Path_22009" data-name="Path 22009" d="M1782.088,1576.528a7.792,7.792,0,0,0-3.968,2.833l-3.1-2.571.12-.213a10.394,10.394,0,0,1,1.351-1.841,8.668,8.668,0,0,1,.891-.831.859.859,0,0,0,.008-1.226q-.64-.644-1.279-1.288a.622.622,0,0,0-.905-.022c-.418.423-.832.9-1.211,1.362a18.807,18.807,0,0,0-1.437,2.021q-.543-.452-1.085-.9a.6.6,0,0,0-.944.13.861.861,0,0,0,.206,1.088l1.108.918a9.4,9.4,0,0,0-1.087,5.085,5.661,5.661,0,0,0,2.1,3.864,4.034,4.034,0,0,0,3.617,1.037,7.614,7.614,0,0,0,3.777-2.788l3.447,2.872a13.765,13.765,0,0,1-1.527,2.163A12.469,12.469,0,0,1,1781,1589.4a.927.927,0,0,0,0,1.3q.828.819,1.656,1.635a.611.611,0,0,0,.911-.009,15.4,15.4,0,0,0,1.183-1.459,21.357,21.357,0,0,0,1.456-2.347c.055-.1.111-.208.166-.312l1.181.978a.558.558,0,0,0,.913-.151l0-.011a.925.925,0,0,0-.237-1.1l-1.2-.991a11.227,11.227,0,0,0,.931-3.87,7.923,7.923,0,0,0-.076-1.547,6.2,6.2,0,0,0-2.239-3.993A3.987,3.987,0,0,0,1782.088,1576.528Zm-.914,5.545a3.09,3.09,0,0,1,1.414-.946,1.49,1.49,0,0,1,1.274.383,2.236,2.236,0,0,1,.814,1.4,2.972,2.972,0,0,1-.336,1.783Zm-5.242-.739a1.267,1.267,0,0,1-1.144-.316,1.922,1.922,0,0,1-.7-1.258,3.521,3.521,0,0,1,.26-1.691l2.85,2.36A2.606,2.606,0,0,1,1775.931,1581.334Z" transform="translate(-1770.413 -1571.184)" fill="#fff"/>
            </g>
            <path id="Path_22010" data-name="Path 22010" d="M1307.76,1383.286l.142.117c-37.594,16.905-33.22,68.578-70.814,85.484l-42.794-35.45a54.972,54.972,0,0,1,6.732-.31,51.418,51.418,0,0,1,9.118.976,61.8,61.8,0,0,1,12.129,3.8c21.971,9.323,28.285,1.473,32.093-11.785,1.047-3.514,1.95-7.384,3.044-11.318.483-1.728,1.022-3.472,1.621-5.2a63.947,63.947,0,0,1,4.306-9.837c5.6-10.617,15.418-17.8,27.567-17.481a34.257,34.257,0,0,1,6.77.787,17.621,17.621,0,0,0,1.869.3A46.968,46.968,0,0,0,1307.76,1383.286Z" transform="translate(-1193.37 -1347.187)" opacity="0.2" fill="url(#linear-gradient-29)" style="mix-blend-mode: multiply;isolation: isolate"/>
          </g>
        </g>
        <g id="Group_10412" data-name="Group 10412" transform="translate(32.819 57.367)">
          <path id="Path_22011" data-name="Path 22011" d="M1200.558,1268.661a2.413,2.413,0,0,1,1.5,3.071l-30.2,74.263a3.054,3.054,0,0,1-3.672,1.613l-49.2-20.458a2.958,2.958,0,0,1-1.321-3.692l30.455-73.1a2.5,2.5,0,0,1,3.232-1.166Z" transform="translate(-1117.455 -1247.415)" fill="url(#linear-gradient-30)"/>
          <path id="Path_22012" data-name="Path 22012" d="M1202.773,1249.393a2.428,2.428,0,0,1,1.509,3.095l-30.761,75.211a2.577,2.577,0,0,1-3.409,1.289l-49.509-20.575a2.49,2.49,0,0,1-1.417-3.263l30.783-74.159a2.521,2.521,0,0,1,3.255-1.18Z" transform="translate(-1118.865 -1229.616)" fill="url(#linear-gradient-31)"/>
          <g id="Group_10402" data-name="Group 10402" transform="translate(36.342 21.586)" opacity="0.7">
            <path id="Path_22013" data-name="Path 22013" d="M1571.7,2072.674l-5.211,12.2a1.189,1.189,0,0,1-1.442.649l-3.073-1.032a.978.978,0,0,1-.594-1.332l5.25-12.2a1.177,1.177,0,0,1,1.431-.635l3.047,1.027A.971.971,0,0,1,1571.7,2072.674Z" transform="translate(-1561.296 -2023.023)" fill="#f4f7fa"/>
            <path id="Path_22014" data-name="Path 22014" d="M1657.113,1876.783,1652,1888.766a1.169,1.169,0,0,1-1.424.632l-3.043-1.027a.965.965,0,0,1-.591-1.312l5.153-11.976a1.158,1.158,0,0,1,1.413-.618l3.018,1.021A.959.959,0,0,1,1657.113,1876.783Z" transform="translate(-1639.85 -1843.196)" fill="#f4f7fa"/>
            <path id="Path_22015" data-name="Path 22015" d="M1740.963,1684.448l-5.023,11.766a1.153,1.153,0,0,1-1.407.616l-3.014-1.021a.955.955,0,0,1-.589-1.294l5.059-11.759a1.14,1.14,0,0,1,1.4-.6l2.989,1.016A.948.948,0,0,1,1740.963,1684.448Z" transform="translate(-1716.966 -1666.631)" fill="#f4f7fa"/>
            <path id="Path_22016" data-name="Path 22016" d="M1823.3,1495.573l-4.933,11.554a1.136,1.136,0,0,1-1.39.6l-2.985-1.016a.942.942,0,0,1-.586-1.274l4.968-11.548a1.127,1.127,0,0,1,1.381-.587l2.959,1.011A.938.938,0,0,1,1823.3,1495.573Z" transform="translate(-1792.685 -1493.243)" fill="#f4f7fa"/>
          </g>
          <g id="Group_10408" data-name="Group 10408" transform="translate(19.189 66.634)">
            <path id="Path_22017" data-name="Path 22017" d="M1364.644,2048.847l-2.458,5.79a2.184,2.184,0,0,1-2.862,1.068l-6.141-2.538a2.12,2.12,0,0,1-1.222-2.753l2.481-5.764a2.184,2.184,0,0,1,2.851-1.059l6.116,2.514A2.117,2.117,0,0,1,1364.644,2048.847Z" transform="translate(-1351.804 -2043.416)" fill="url(#linear-gradient-32)"/>
            <path id="Path_22018" data-name="Path 22018" d="M1372.578,2057.317l-2.112,4.971a2.013,2.013,0,0,1-2.643.985l-5.272-2.178a1.953,1.953,0,0,1-1.129-2.542l2.129-4.953a2.012,2.012,0,0,1,2.633-.976l5.256,2.161A1.95,1.95,0,0,1,1372.578,2057.317Zm-10.893,1.345a1.68,1.68,0,0,0,.972,2.188l5.272,2.177a1.733,1.733,0,0,0,2.275-.848l2.113-4.971a1.68,1.68,0,0,0-.982-2.18l-5.256-2.161a1.732,1.732,0,0,0-2.265.841Z" transform="translate(-1360.5 -2051.721)" fill="url(#linear-gradient-33)"/>
            <g id="Group_10406" data-name="Group 10406" transform="translate(2.625 1.239)">
              <g id="Group_10403" data-name="Group 10403">
                <path id="Path_22019" data-name="Path 22019" d="M1385.46,2067.434l3.526-8.229Z" transform="translate(-1385.329 -2059.15)" fill="#f4f7fa"/>
                <path id="Path_22020" data-name="Path 22020" d="M1387.648,2058.657l-3.525,8.228-.262-.107,3.525-8.229Z" transform="translate(-1383.861 -2058.55)" fill="url(#linear-gradient-34)"/>
              </g>
              <g id="Group_10404" data-name="Group 10404" transform="translate(1.982 0.812)">
                <path id="Path_22021" data-name="Path 22021" d="M1409.665,2077.361l3.52-8.235Z" transform="translate(-1409.534 -2069.072)" fill="#f4f7fa"/>
                <path id="Path_22022" data-name="Path 22022" d="M1411.844,2068.577l-3.52,8.235-.261-.108,3.52-8.235Z" transform="translate(-1408.063 -2068.47)" fill="url(#linear-gradient-35)"/>
              </g>
              <g id="Group_10405" data-name="Group 10405" transform="translate(3.965 1.625)">
                <path id="Path_22023" data-name="Path 22023" d="M1433.887,2087.3l3.513-8.24Z" transform="translate(-1433.756 -2079.001)" fill="#f4f7fa"/>
                <path id="Path_22024" data-name="Path 22024" d="M1436.061,2078.508l-3.513,8.243-.262-.109,3.514-8.242Z" transform="translate(-1432.286 -2078.4)" fill="url(#linear-gradient-36)"/>
              </g>
            </g>
            <g id="Group_10407" data-name="Group 10407" transform="translate(2.344 2.828)">
              <path id="Path_22025" data-name="Path 22025" d="M1390.1,2083.1l-.981,2.305a1.217,1.217,0,0,1-1.594.594l-4.6-1.9a1.178,1.178,0,0,1-.682-1.532l.985-2.3a1.218,1.218,0,0,1,1.591-.591l4.594,1.891A1.181,1.181,0,0,1,1390.1,2083.1Z" transform="translate(-1382.01 -2079.448)" fill="#fec045"/>
              <path id="Path_22026" data-name="Path 22026" d="M1388.644,2081.658l-.981,2.3a1.355,1.355,0,0,1-1.778.661l-4.6-1.9a1.313,1.313,0,0,1-.761-1.708l.987-2.3a1.356,1.356,0,0,1,1.773-.659l4.595,1.89A1.317,1.317,0,0,1,1388.644,2081.658Zm-7.859-.534a1.042,1.042,0,0,0,.6,1.356l4.6,1.9a1.076,1.076,0,0,0,1.41-.527l.981-2.3a1.042,1.042,0,0,0-.609-1.354l-4.594-1.891a1.075,1.075,0,0,0-1.407.523Z" transform="translate(-1380.426 -2077.95)" fill="url(#linear-gradient-37)"/>
            </g>
          </g>
          <path id="Path_22027" data-name="Path 22027" d="M1520.482,1484.148c-1.793,6.526-3.382,10.5-6.785,14.312a31.218,31.218,0,0,1-14.141,8.745l19.96,8.3a2.579,2.579,0,0,0,3.409-1.289L1553.687,1439a2.429,2.429,0,0,0-1.51-3.1l-7.933-3.141c-12.1,8.245-16.661,16.653-18.564,22.959C1523.383,1463.34,1524.743,1468.645,1520.482,1484.148Z" transform="translate(-1468.27 -1416.131)" opacity="0.15" fill="url(#linear-gradient-38)" style="mix-blend-mode: multiply;isolation: isolate"/>
          <g id="Group_10409" data-name="Group 10409" transform="translate(46.744 37.156)" opacity="0.42" style="mix-blend-mode: multiply;isolation: isolate">
            <path id="Path_22028" data-name="Path 22028" d="M1699.394,2079.379l-6.947,16.835a.655.655,0,0,1-.864.324l-2.824-1.167a.654.654,0,0,1-.382-.84l6.973-16.807a.649.649,0,0,1,.856-.32l2.805,1.147A.646.646,0,0,1,1699.394,2079.379Z" transform="translate(-1688.333 -2045.094)" fill="url(#linear-gradient-39)"/>
            <path id="Path_22029" data-name="Path 22029" d="M1837.576,1685.4l-9.244,22.395a.658.658,0,0,1-.863.327l-2.825-1.15a.647.647,0,0,1-.382-.832l9.278-22.36a.65.65,0,0,1,.852-.319l2.8,1.123A.636.636,0,0,1,1837.576,1685.4Z" transform="translate(-1813.091 -1683.406)" fill="url(#linear-gradient-40)"/>
          </g>
          <path id="Path_22030" data-name="Path 22030" d="M1533.769,1372.766a6.6,6.6,0,0,1,3.513,8.766,6.766,6.766,0,0,1-8.673,3.774,6.6,6.6,0,0,1-3.54-8.652A6.761,6.761,0,0,1,1533.769,1372.766Z" transform="translate(-1491.233 -1360.625)" opacity="0.26" fill="url(#linear-gradient-41)" style="mix-blend-mode: multiply;isolation: isolate"/>
          <g id="Group_10411" data-name="Group 10411" transform="translate(25.855 58.678)" opacity="0.53">
            <path id="Path_22031" data-name="Path 22031" d="M1458.653,2011.307a1.083,1.083,0,0,1-.586,1.4,1.055,1.055,0,0,1-1.4-.571,1.082,1.082,0,0,1,.6-1.4A1.055,1.055,0,0,1,1458.653,2011.307Z" transform="translate(-1454.68 -2005.385)" fill="#f4f7fa"/>
            <g id="Group_10410" data-name="Group 10410">
              <path id="Path_22032" data-name="Path 22032" d="M1442.36,1950.652a.388.388,0,0,1-.21.217.4.4,0,0,1-.525-.214,6.108,6.108,0,0,0-7.857-3.209.4.4,0,0,1-.523-.214.392.392,0,0,1,.231-.509,6.925,6.925,0,0,1,8.877,3.624A.4.4,0,0,1,1442.36,1950.652Z" transform="translate(-1433.218 -1946.241)" fill="#f4f7fa"/>
              <path id="Path_22033" data-name="Path 22033" d="M1447.467,1968.642a.394.394,0,0,1-.214.218.4.4,0,0,1-.528-.216,4.478,4.478,0,0,0-5.8-2.369.4.4,0,0,1-.526-.214.4.4,0,0,1,.23-.516,5.292,5.292,0,0,1,6.831,2.79A.4.4,0,0,1,1447.467,1968.642Z" transform="translate(-1439.788 -1963.614)" fill="#f4f7fa"/>
              <path id="Path_22034" data-name="Path 22034" d="M1452.642,1986.9a.4.4,0,0,1-.218.221.4.4,0,0,1-.531-.217,2.848,2.848,0,0,0-3.712-1.518.4.4,0,1,1-.3-.74,3.674,3.674,0,0,1,2.789,0,3.6,3.6,0,0,1,1.969,1.948A.4.4,0,0,1,1452.642,1986.9Z" transform="translate(-1446.443 -1981.245)" fill="#f4f7fa"/>
            </g>
          </g>
        </g>
        <g id="Group_10414" data-name="Group 10414" transform="translate(28.088 86.679)">
          <path id="Path_22035" data-name="Path 22035" d="M1109.334,1628.7c0,13.435-10.506,24.005-23.933,23.593-13.974-.429-25.727-12.5-25.727-26.94s11.753-24.927,25.727-23.472C1098.829,1603.281,1109.334,1615.266,1109.334,1628.7Z" transform="translate(-1059.674 -1600.589)" fill="url(#linear-gradient-42)"/>
          <path id="Path_22036" data-name="Path 22036" d="M1153.647,1614.553c0,13.435-10.506,24-23.933,23.592-13.974-.429-25.727-12.5-25.727-26.94s11.753-24.927,25.727-23.471C1143.141,1589.132,1153.647,1601.118,1153.647,1614.553Z" transform="translate(-1100.359 -1587.599)" fill="url(#linear-gradient-43)"/>
          <path id="Path_22037" data-name="Path 22037" d="M1166.2,1627.472c0,12.844-10.052,22.93-22.879,22.515-13.326-.431-24.513-11.948-24.513-25.71s11.188-23.77,24.513-22.4C1156.152,1603.186,1166.2,1614.629,1166.2,1627.472Z" transform="translate(-1113.969 -1600.59)" fill="url(#linear-gradient-44)"/>
          <path id="Path_22038" data-name="Path 22038" d="M1175.141,1636.7c0,12.42-9.726,22.162-22.124,21.745-12.862-.432-23.649-11.555-23.649-24.831s10.787-22.946,23.649-21.643C1165.415,1613.223,1175.141,1624.276,1175.141,1636.7Z" transform="translate(-1123.661 -1609.864)" fill="url(#linear-gradient-45)"/>
          <g id="Group_10413" data-name="Group 10413" transform="translate(17.879 6.323)">
            <path id="Path_22039" data-name="Path 22039" d="M1289.38,1664.829h0a1.352,1.352,0,0,1,1.193,1.327v2.286a33.944,33.944,0,0,1,3.964.687q1.463.345,2.907.819a1.337,1.337,0,0,1,.911,1.373l-.281,2.867a1.075,1.075,0,0,1-1.535.891,16.685,16.685,0,0,0-1.949-.726,17.712,17.712,0,0,0-3.678-.687l-.338-.028v6.548c3.442.963,5.97,2.259,7.6,3.888a8.215,8.215,0,0,1,2.437,6.068,7.989,7.989,0,0,1-2.694,6.309,12.3,12.3,0,0,1-7.619,2.683v2.523a1.147,1.147,0,0,1-1.195,1.167h-.021a1.268,1.268,0,0,1-1.2-1.265v-2.49l-.532-.024a35.075,35.075,0,0,1-4.414-.47,29,29,0,0,1-3.05-.7,1.316,1.316,0,0,1-.957-1.359l.331-3.686a1.166,1.166,0,0,1,1.63-.961,23.787,23.787,0,0,0,2.682.88,23.5,23.5,0,0,0,4.289.718l.021-7.285a15.789,15.789,0,0,1-7.4-3.632,8.318,8.318,0,0,1-2.452-6.18,7.231,7.231,0,0,1,2.658-6c1.761-1.4,4.264-2.093,7.493-2.092v-2.338A1.08,1.08,0,0,1,1289.38,1664.829Zm-1.2,8.742a4.036,4.036,0,0,0-2.386.842,2.452,2.452,0,0,0-.856,1.965,2.639,2.639,0,0,0,.791,1.954,5.619,5.619,0,0,0,2.452,1.251Zm2.117,13.191v6.681a3.693,3.693,0,0,0,2.556-.794,2.862,2.862,0,0,0,.889-2.249,3.067,3.067,0,0,0-.827-2.2A6.057,6.057,0,0,0,1290.3,1686.762Z" transform="translate(-1278.03 -1664.824)" fill="url(#linear-gradient-46)"/>
          </g>
          <path id="Path_22040" data-name="Path 22040" d="M1149.013,1641.1c.748-7.383,7.533-10.509,6.648-17.3-.546-4.186-3.719-7.712-7.257-10.468-10.734,1.126-19.036,10.014-19.036,21.64,0,13.275,10.787,24.4,23.649,24.831a22.4,22.4,0,0,0,3.654-.179C1151.563,1654.541,1148.371,1647.44,1149.013,1641.1Z" transform="translate(-1123.661 -1611.224)" opacity="0.3" fill="url(#linear-gradient-47)" style="mix-blend-mode: multiply;isolation: isolate"/>
        </g>
        <g id="Group_10416" data-name="Group 10416" transform="translate(31.498 42.302)">
          <path id="Path_22041" data-name="Path 22041" d="M1134.774,1073.3a15.582,15.582,0,0,1-16.119,15.89,18.245,18.245,0,0,1-17.327-18.145,15.537,15.537,0,0,1,17.327-15.808A18.362,18.362,0,0,1,1134.774,1073.3Z" transform="translate(-1101.327 -1054.368)" fill="url(#linear-gradient-42)"/>
          <path id="Path_22042" data-name="Path 22042" d="M1164.619,1063.773a15.58,15.58,0,0,1-16.119,15.889,18.243,18.243,0,0,1-17.327-18.145,15.538,15.538,0,0,1,17.327-15.808A18.363,18.363,0,0,1,1164.619,1063.773Z" transform="translate(-1128.728 -1045.619)" fill="url(#linear-gradient-43)"/>
          <path id="Path_22043" data-name="Path 22043" d="M1173.076,1072.474a14.868,14.868,0,0,1-15.409,15.164,17.413,17.413,0,0,1-16.51-17.316,14.829,14.829,0,0,1,16.51-15.09A17.521,17.521,0,0,1,1173.076,1072.474Z" transform="translate(-1137.895 -1054.368)" fill="url(#linear-gradient-44)"/>
          <path id="Path_22044" data-name="Path 22044" d="M1179.1,1078.687a14.36,14.36,0,0,1-14.9,14.646,16.821,16.821,0,0,1-15.928-16.724,14.324,14.324,0,0,1,15.928-14.577A16.923,16.923,0,0,1,1179.1,1078.687Z" transform="translate(-1144.424 -1060.615)" fill="url(#linear-gradient-45)"/>
          <g id="Group_10415" data-name="Group 10415" transform="translate(12.042 4.259)">
            <path id="Path_22045" data-name="Path 22045" d="M1256.036,1097.634h0a.912.912,0,0,1,.8.894v1.54a22.609,22.609,0,0,1,2.669.463q.983.232,1.957.551a.9.9,0,0,1,.613.924l-.188,1.931a.725.725,0,0,1-1.035.6,11.029,11.029,0,0,0-1.312-.489,11.936,11.936,0,0,0-2.478-.463l-.227-.018v4.41a11.584,11.584,0,0,1,5.12,2.619,5.535,5.535,0,0,1,1.641,4.087,5.38,5.38,0,0,1-1.815,4.249,8.269,8.269,0,0,1-5.13,1.807v1.7a.774.774,0,0,1-.8.786h-.015a.855.855,0,0,1-.807-.852V1120.7l-.358-.017a23.535,23.535,0,0,1-2.973-.317,19.171,19.171,0,0,1-2.054-.473.885.885,0,0,1-.645-.915l.224-2.483a.785.785,0,0,1,1.1-.648,16.288,16.288,0,0,0,1.807.594,15.826,15.826,0,0,0,2.888.482l.015-4.906a10.628,10.628,0,0,1-4.985-2.446,5.6,5.6,0,0,1-1.651-4.163,4.868,4.868,0,0,1,1.79-4.043,7.938,7.938,0,0,1,5.047-1.41v-1.574A.727.727,0,0,1,1256.036,1097.634Zm-.806,5.888a2.717,2.717,0,0,0-1.608.567,1.652,1.652,0,0,0-.576,1.324,1.775,1.775,0,0,0,.533,1.316,3.781,3.781,0,0,0,1.651.842Zm1.427,8.884v4.5a2.481,2.481,0,0,0,1.719-.535,1.924,1.924,0,0,0,.6-1.515,2.066,2.066,0,0,0-.557-1.48A4.085,4.085,0,0,0,1256.657,1112.407Z" transform="translate(-1248.393 -1097.631)" fill="url(#linear-gradient-46)"/>
          </g>
          <path id="Path_22046" data-name="Path 22046" d="M1161.5,1081.65c.5-4.972,5.073-7.077,4.476-11.651-.367-2.819-2.5-5.2-4.888-7.05a14.325,14.325,0,0,0-12.82,14.574,16.822,16.822,0,0,0,15.928,16.725,15.078,15.078,0,0,0,2.461-.121C1163.215,1090.7,1161.066,1085.922,1161.5,1081.65Z" transform="translate(-1144.424 -1061.53)" opacity="0.3" fill="url(#linear-gradient-47)" style="mix-blend-mode: multiply;isolation: isolate"/>
        </g>
        <g id="Group_10418" data-name="Group 10418" transform="translate(26.697 123.704)">
          <path id="Path_22047" data-name="Path 22047" d="M1133.1,2045.071l5.394,62.973a5.426,5.426,0,0,1-1.39,4.245,5.351,5.351,0,0,1-3.464,1.693l-79.449,6.691a5.887,5.887,0,0,1-6.488-5.318l-4.993-67a5.676,5.676,0,0,1,5.613-6.007l78.956-2.568A5.788,5.788,0,0,1,1133.1,2045.071Z" transform="translate(-1042.693 -2039.779)" fill="url(#linear-gradient-54)"/>
          <path id="Path_22048" data-name="Path 22048" d="M1137.189,2140.779a5.417,5.417,0,0,1-3.5,1.693l-79.477,6.692a5.912,5.912,0,0,1-6.515-5.319l-4.993-67a5.677,5.677,0,0,1,5.613-6.007l.92-.03c.333,1.729.78,3.671,1.207,5.534.059.258.12.54.178.786.5,2.15.92,3.918,1,4.147,2.477,7.419,5.98,15.944,13.38,20.09,11.307,6.342,25.624,5.2,37.515,8.676,7.831,2.286,15.871,5.376,22.1,10.551a36.387,36.387,0,0,1,10.641,13.895A37.906,37.906,0,0,1,1137.189,2140.779Z" transform="translate(-1042.693 -2068.271)" opacity="0.2" fill="url(#linear-gradient-55)" style="mix-blend-mode: multiply;isolation: isolate"/>
          <g id="Group_10417" data-name="Group 10417" transform="translate(3.797 4.053)" opacity="0.7">
            <path id="Path_22049" data-name="Path 22049" d="M1169.86,2156.687h0l-2.737.17a.591.591,0,0,1-.613-.543.526.526,0,0,1,.514-.567l2.732-.181h0a4.451,4.451,0,0,0,1.361-.329.548.548,0,0,1,.711.331.6.6,0,0,1-.351.75A5.246,5.246,0,0,1,1169.86,2156.687Zm-7.026.465-4.307.354a.567.567,0,1,1-.094-1.131l4.308-.349a.565.565,0,1,1,.094,1.126Zm-8.641.708-4.359.357a.57.57,0,1,1-.093-1.136l4.359-.354a.569.569,0,1,1,.093,1.133Zm-8.744.716-4.411.361a.574.574,0,1,1-.092-1.143l4.411-.359a.573.573,0,1,1,.092,1.141Zm-8.85.725-4.465.364a.577.577,0,1,1-.092-1.15l4.465-.362a.576.576,0,1,1,.092,1.148Zm-8.957.733-4.519.37a.581.581,0,1,1-.091-1.158l4.519-.367a.58.58,0,1,1,.091,1.155Zm-9.067.742-4.574.375a.594.594,0,0,1-.651-.534.6.6,0,0,1,.561-.632l4.574-.371a.583.583,0,1,1,.09,1.162Zm-9.176.752-4.631.379a.6.6,0,0,1-.657-.537.605.605,0,0,1,.569-.636l4.63-.376a.588.588,0,1,1,.09,1.171Zm-9.29.623a.539.539,0,0,1-.125,0,7.737,7.737,0,0,1-4.485-2.086.572.572,0,0,1,.009-.836.644.644,0,0,1,.88,0,6.474,6.474,0,0,0,3.757,1.749.588.588,0,0,1,.533.655A.615.615,0,0,1,1100.109,2162.15Zm74.539-8.41a.563.563,0,0,1-.515-.869,5.731,5.731,0,0,0,.931-3.674.552.552,0,0,1,.509-.6.564.564,0,0,1,.6.512,6.838,6.838,0,0,1-1.109,4.382A.557.557,0,0,1,1174.647,2153.741Zm-80.634,2.516a.608.608,0,0,1-.673-.508c-.01-.086-.028-.162-.035-.251l-.316-4.225a.567.567,0,0,1,.524-.638.558.558,0,0,1,.611.54l.317,4.221c.006.073.075.14.084.212a.568.568,0,0,1-.522.646C1094,2156.254,1094.021,2156.256,1094.013,2156.256Zm81.535-8.673c-.308.024-.473-.206-.5-.512l-.359-4.224c-.026-.305.1-.574.4-.6s.473.207.5.515l.358,4.219C1175.979,2147.291,1175.856,2147.561,1175.549,2147.583Zm-82.282-.231a.561.561,0,0,1-.612-.542l-.334-4.457a.57.57,0,1,1,1.135-.091l.334,4.453A.566.566,0,0,1,1093.267,2147.353Zm81.564-8.206c-.307.022-.473-.21-.5-.516l-.358-4.213c-.026-.306.1-.572.4-.592s.472.211.5.518l.358,4.209C1175.261,2138.858,1175.138,2139.126,1174.831,2139.147Zm-82.232-.7a.564.564,0,0,1-.612-.545l-.333-4.448a.555.555,0,0,1,.524-.625.562.562,0,0,1,.61.544l.333,4.443A.561.561,0,0,1,1092.6,2138.446Zm81.516-7.718c-.307.021-.472-.213-.5-.519l-.357-4.205c-.026-.305.1-.569.4-.587s.472.215.5.521l.358,4.2C1174.545,2130.443,1174.421,2130.707,1174.115,2130.728Zm-82.183-1.17a.566.566,0,0,1-.611-.547l-.332-4.438a.552.552,0,0,1,.523-.621.569.569,0,0,1,.61.548l.333,4.434A.553.553,0,0,1,1091.933,2129.557Zm81.468-7.232c-.307.019-.472-.217-.5-.522l-.356-4.2c-.027-.3.1-.565.4-.581s.472.218.5.523l.355,4.192C1173.83,2122.044,1173.707,2122.307,1173.4,2122.325Zm-82.134-1.635a.571.571,0,0,1-.61-.551l-.332-4.429a.544.544,0,0,1,.523-.614.571.571,0,0,1,.61.551l.332,4.423A.551.551,0,0,1,1091.267,2120.69Zm81.42-6.751c-.306.018-.472-.219-.5-.524l-.355-4.187c-.026-.305.1-.562.4-.577s.471.22.5.524l.356,4.184C1173.117,2113.665,1172.993,2113.924,1172.688,2113.939Zm-82.084-2.1a.574.574,0,0,1-.61-.553l-.331-4.418a.54.54,0,0,1,.522-.61.577.577,0,0,1,.61.555l.331,4.415A.542.542,0,0,1,1090.6,2111.84Zm81.372-6.269c-.307.014-.472-.222-.5-.528l-.355-4.178c-.026-.3.1-.561.4-.573s.471.225.5.529l.355,4.175C1172.405,2105.3,1172.282,2105.557,1171.976,2105.571Zm-82.033-2.561a.579.579,0,0,1-.612-.556l-.248-3.316a6.869,6.869,0,0,1,.025-1.187.6.6,0,0,1,.68-.507.568.568,0,0,1,.5.649,5.834,5.834,0,0,0-.072,1l.249,3.315A.537.537,0,0,1,1089.943,2103.01Zm81.323-5.79c-.306.014-.471-.226-.5-.53l-.068-.809a6.015,6.015,0,0,0-1.141-2.885.529.529,0,0,1,.087-.761.523.523,0,0,1,.735.162,6.994,6.994,0,0,1,1.219,3.446l.069.806C1171.7,2096.954,1171.573,2097.208,1171.266,2097.221Zm-79.577-2.5a.656.656,0,0,1-.469-.172.556.556,0,0,1-.023-.821,7.54,7.54,0,0,1,4.428-2.017.638.638,0,0,1,.7.511.561.561,0,0,1-.519.638,6.335,6.335,0,0,0-3.709,1.693A.616.616,0,0,1,1091.688,2094.726Zm74.9-4a.548.548,0,0,1-.2-.03,6.021,6.021,0,0,0-2.115-.306l-1.9.07a.592.592,0,0,1-.607-.533.526.526,0,0,1,.514-.572l1.9-.068a7.113,7.113,0,0,1,2.521.368.576.576,0,0,1,.38.7A.525.525,0,0,1,1166.591,2090.723Zm-8.476-.114-4.284.154a.6.6,0,0,1-.613-.536.532.532,0,0,1,.521-.576l4.284-.15a.592.592,0,0,1,.61.534A.529.529,0,0,1,1158.115,2090.609Zm-8.594.31-4.334.156a.6.6,0,0,1-.62-.54.538.538,0,0,1,.528-.579l4.335-.153a.6.6,0,0,1,.616.538A.535.535,0,0,1,1149.522,2090.919Zm-8.7.312-4.387.157a.6.6,0,0,1-.626-.54.542.542,0,0,1,.535-.583l4.386-.154a.6.6,0,0,1,.622.54A.539.539,0,0,1,1140.826,2091.23Zm-8.8.316-4.44.159a.608.608,0,0,1-.632-.544.549.549,0,0,1,.543-.587l4.438-.155a.6.6,0,0,1,.629.542A.544.544,0,0,1,1132.027,2091.547Zm-8.906.321-4.492.162a.614.614,0,0,1-.639-.549.553.553,0,0,1,.55-.59l4.492-.158a.613.613,0,0,1,.636.547A.552.552,0,0,1,1123.121,2091.867Zm-9.012.324-4.547.163a.619.619,0,0,1-.647-.551.559.559,0,0,1,.557-.593l4.547-.16a.616.616,0,0,1,.642.549A.558.558,0,0,1,1114.11,2092.191Zm-9.122.327-4.6.165a.626.626,0,0,1-.653-.554.566.566,0,0,1,.566-.6l4.6-.162a.62.62,0,0,1,.65.552A.562.562,0,0,1,1104.988,2092.519Z" transform="translate(-1089.068 -2089.279)" fill="#fff"/>
          </g>
          <path id="Path_22050" data-name="Path 22050" d="M1945.571,2313.308a1.709,1.709,0,0,0-1.57-.123l-16.156,6.911a5.99,5.99,0,0,0-3.69,5.875l.557,6.71a6.407,6.407,0,0,0,5.058,5.517l16.719,3.662a1.744,1.744,0,0,0,1.5-.376,1.708,1.708,0,0,0,.59-1.415l-2.183-25.4A1.762,1.762,0,0,0,1945.571,2313.308Z" transform="translate(-1851.963 -2290.673)" fill="url(#linear-gradient-56)"/>
          <path id="Path_22051" data-name="Path 22051" d="M1979.247,2466.933a3.292,3.292,0,0,1-3.107,3.57,3.5,3.5,0,0,1-3.687-3.172,3.286,3.286,0,0,1,3.123-3.564A3.5,3.5,0,0,1,1979.247,2466.933Z" transform="translate(-1896.313 -2429.046)" fill="url(#linear-gradient-57)"/>
        </g>
      </g>
    </g>
  </g>
</svg>
