<svg xmlns="http://www.w3.org/2000/svg" width="18" height="18" viewBox="0 0 18 18">
  <g id="draft" transform="translate(0)">
    <path id="Path_27327" data-name="Path 27327" d="M17.707,8.86l-5.756,5.662c-.392.387-2.485,1.8-2.882,1.41s1.052-2.437,1.445-2.824L16.27,7.446a1.023,1.023,0,0,1,1.43.007.983.983,0,0,1,.007,1.407Z" fill="#3ea7ff"/>
    <path id="Path_27328" data-name="Path 27328" d="M12.6,0H1.4A1.417,1.417,0,0,0,0,1.43V16.57A1.417,1.417,0,0,0,1.4,18H12.6A1.417,1.417,0,0,0,14,16.57V13.85l-1.39,1.39c-.02.02-1.93,1.76-3.35,1.76a1.22,1.22,0,0,1-.9-.35c-.8-.81-.06-2.08.26-2.63a9.97,9.97,0,0,1,1.16-1.61L14,8.19V1.43A1.417,1.417,0,0,0,12.6,0ZM3.03,2H8A1,1,0,0,1,8,4H3.03a1,1,0,1,1,0-2ZM7,12.01,3,12a1,1,0,1,1,0-1.99H7a1,1,0,0,1,0,2ZM11,8H3A1,1,0,0,1,3,6h8a1,1,0,0,1,0,2Z" fill="#3ea7ff"/>
  </g>
</svg>
