<svg id="Iconly_Bulk_Edit" data-name="Iconly/Bulk/Edit" xmlns="http://www.w3.org/2000/svg" width="8" height="8" viewBox="0 0 8 8">
  <g id="Edit">
    <path id="Fill_1" data-name="Fill 1" d="M2.979,0H.448A.452.452,0,0,0,0,.455.451.451,0,0,0,.448.91H2.979A.451.451,0,0,0,3.426.455.452.452,0,0,0,2.979,0" transform="translate(4.574 7.09)" fill="#ac83f6" opacity="0.4"/>
    <path id="Fill_3" data-name="Fill 3" d="M3.248.03l2.4,1.938a.138.138,0,0,1,.023.191l-2.843,3.7a.933.933,0,0,1-.724.363L.55,6.245a.177.177,0,0,1-.174-.139L.023,4.573a.95.95,0,0,1,.179-.8L3.059.053A.133.133,0,0,1,3.248.03" transform="translate(0 1.705)" fill="#ac83f6"/>
    <path id="Fill_5" data-name="Fill 5" d="M3.1,2.518,2.638,3.1a.132.132,0,0,1-.188.021L.05,1.171A.137.137,0,0,1,.031.979L.476.425A1.143,1.143,0,0,1,2.155.311l.654.521a1.363,1.363,0,0,1,.508.779,1.069,1.069,0,0,1-.216.908" transform="translate(3.619 0)" fill="#ac83f6" opacity="0.4"/>
  </g>
</svg>
