<svg xmlns="http://www.w3.org/2000/svg" width="12.87" height="12.868" viewBox="0 0 12.87 12.868">
  <path id="smiling-line-icon" d="M6.435,0h0A6.431,6.431,0,0,1,12.87,6.433h0a6.434,6.434,0,0,1-6.434,6.434h0A6.431,6.431,0,0,1,0,6.437H0A6.43,6.43,0,0,1,6.435,0ZM3.474,4.3a.35.35,0,0,1-.542-.442,1.344,1.344,0,0,1,.189-.193,2.044,2.044,0,0,1,1.164-.419,1.876,1.876,0,0,1,1.293.392,1.656,1.656,0,0,1,.236.237.351.351,0,0,1-.543.445.862.862,0,0,0-.138-.131,1.191,1.191,0,0,0-.816-.237,1.333,1.333,0,0,0-.755.26A.615.615,0,0,0,3.47,4.3Zm4.274,0a.35.35,0,0,1-.543-.442,1.337,1.337,0,0,1,.189-.189,2.049,2.049,0,0,1,1.164-.423,1.877,1.877,0,0,1,1.294.392,1.713,1.713,0,0,1,.236.237.351.351,0,1,1-.543.445A.909.909,0,0,0,9.41,4.19a1.192,1.192,0,0,0-.821-.241,1.335,1.335,0,0,0-.755.264.658.658,0,0,0-.09.088ZM2.775,7.89a.35.35,0,1,1,.614-.334A3.4,3.4,0,0,0,5.048,9.044a3.99,3.99,0,0,0,1.692.322A3.6,3.6,0,0,0,8.35,8.946,2.841,2.841,0,0,0,9.618,7.569a.352.352,0,0,1,.647.274A3.534,3.534,0,0,1,8.694,9.558a4.3,4.3,0,0,1-1.926.506,4.694,4.694,0,0,1-1.99-.378,4.093,4.093,0,0,1-1.99-1.8ZM6.441.82h0A5.619,5.619,0,0,0,.82,6.435h0a5.62,5.62,0,0,0,5.615,5.615h0A5.62,5.62,0,0,0,12.05,6.434h0A5.619,5.619,0,0,0,6.435.82Z" transform="translate(0 0)"/>
</svg>
