<svg id="Iconly_Bulk_Image" data-name="Iconly/Bulk/Image" xmlns="http://www.w3.org/2000/svg" width="34" height="34" viewBox="0 0 34 34">
  <g id="Image">
    <path id="Fill_1" data-name="Fill 1" d="M24.366,34H9.633C3.871,34,0,29.959,0,23.943V10.058C0,4.043,3.871,0,9.633,0H24.367C30.129,0,34,4.043,34,10.058V23.943C34,29.959,30.129,34,24.366,34" fill="#3ea7ff" opacity="0.4"/>
    <path id="Combined_Shape" data-name="Combined Shape" d="M4.275,23.063a7.112,7.112,0,0,1-3.7-.949,1.252,1.252,0,0,1-.28-1.862c.8-.968,1.588-1.942,2.384-2.922,1.516-1.876,2.537-2.42,3.674-1.943a9.487,9.487,0,0,1,1.4.808c1.268.84,3.031,1.992,5.353.742a9.549,9.549,0,0,0,3.326-3.672c.33-.529.643-1.056,1.007-1.535.378-.494,1.778-2.041,3.589-.939a18.167,18.167,0,0,1,3.164,2.636,3.707,3.707,0,0,1,.866,1.291,6.06,6.06,0,0,1-.334,4.515,6.179,6.179,0,0,1-3.82,3.478,7.8,7.8,0,0,1-2.379.352ZM1.875,4.226A4.224,4.224,0,1,1,6.1,8.45,4.23,4.23,0,0,1,1.875,4.226Z" transform="translate(5.392 7.121)" fill="#3ea7ff"/>
  </g>
</svg>
