<svg xmlns="http://www.w3.org/2000/svg" xmlns:xlink="http://www.w3.org/1999/xlink" width="300.156" height="287.779" viewBox="0 0 300.156 287.779">
  <defs>
    <clipPath id="clip-path">
      <path id="SVGID" d="M1612.7,1008.282c-1.15.1-2.248.22-3.251.318-3.113.3-9.937,2.192-12.289-.908-3.879-5.114,5.975-13.787,8.456-17.684,3.069-4.82,6.871-10.186,7.488-16.04.938-8.9-5.16-20.945-12.686-25.594-10.381-6.413-24.883-2.049-34.21,4.247-13.512,9.12-23.006,24.164-26.859,39.878-4.154,16.937,1.575,34.468-.067,51.634-2.58,26.981-40.821-7.393-33.348,63.557,1.65,15.663,4.34,32.8,13.14,46.222,3.649,5.567,10.945,13.3,18.216,12.857,10.31-.634,9.85-15.219,13.048-21.953,3.739-7.871,10.262-14.089,17.511-18.741,9.22-5.916,19.91-11.208,23.575-22.378,2.38-7.254-1.2-14.724-5.785-20.367-2.526-3.11-7.909-6.666-7.1-11.248.67-3.8,6.01-6.593,8.795-8.6a225.421,225.421,0,0,0,24.508-20.112c6.835-6.56,18.395-16.511,17.459-27.171C1628.548,1007.623,1619.684,1007.662,1612.7,1008.282Z" transform="translate(-1504.97 -945.222)" fill="#bfc8d6"/>
    </clipPath>
    <clipPath id="clip-path-2">
      <path id="SVGID-2" data-name="SVGID" d="M1916.694,1551.985c-3.607-13-15.029-22.847-28.1-26.246a64.4,64.4,0,0,0-25.782-1.357c-11.413,1.987-20.834,9.432-28.177,18.061-8.628,10.139-9.436,22.7-12.52,35.185-.6,2.447-4.593,15.921-7.614,8.024-4.211-11.011-13.6-9.069-13.606-9.069a21.972,21.972,0,0,0-15.714,13.707c-7.258,18.14-5.015,41.7-3.48,60.716.722,8.943,1.835,17.839,3.161,26.706a5.659,5.659,0,0,0,9.9,2.846c1.5-1.751,3.07-3.359,4.524-4.773,13.983-13.607,35.876-15.621,54.349-16.436,10.786-.475,19.672-1.161,29.07-6.953,3.9-2.407,8.149-5.362,9.959-9.76,1.638-3.978,1.957-10.791-.51-14.491-3.072-4.608-9.894-4.318-13.955-7.712-6.562-5.484,10.6-9.3,14.057-10.412,5.511-1.772,9.166-6.167,13.294-9.978a48.73,48.73,0,0,0,8.408-9.726C1920.948,1579.178,1920.09,1564.225,1916.694,1551.985Z" transform="translate(-1780.13 -1523.644)" fill="#d8dee8"/>
    </clipPath>
    <linearGradient id="linear-gradient" x1="0.491" y1="0.477" x2="0.209" y2="0.496" gradientUnits="objectBoundingBox">
      <stop offset="0" stop-color="#444b8c"/>
      <stop offset="0.996" stop-color="#26264f"/>
    </linearGradient>
    <linearGradient id="linear-gradient-2" x1="0.708" y1="0.034" x2="0.013" y2="1.514" xlink:href="#linear-gradient"/>
    <linearGradient id="linear-gradient-3" x1="0.367" y1="0.773" x2="0.636" y2="0.173" gradientUnits="objectBoundingBox">
      <stop offset="0.494" stop-color="#ebeff2"/>
      <stop offset="1" stop-color="#fff"/>
    </linearGradient>
    <linearGradient id="linear-gradient-4" x1="1.226" y1="-1.493" x2="-27.991" y2="78.646" gradientUnits="objectBoundingBox">
      <stop offset="0" stop-color="#311944"/>
      <stop offset="1" stop-color="#893976"/>
    </linearGradient>
    <linearGradient id="linear-gradient-5" x1="0.698" y1="-0.009" x2="0.424" y2="0.669" gradientUnits="objectBoundingBox">
      <stop offset="0" stop-color="#aa80f9"/>
      <stop offset="0.996" stop-color="#6165d7"/>
    </linearGradient>
    <linearGradient id="linear-gradient-6" x1="0" y1="0.5" x2="1" y2="0.5" xlink:href="#linear-gradient-5"/>
    <linearGradient id="linear-gradient-8" y1="0.5" x2="1" y2="0.5" gradientUnits="objectBoundingBox">
      <stop offset="0" stop-color="#ffc444"/>
      <stop offset="0.996" stop-color="#f36f56"/>
    </linearGradient>
    <linearGradient id="linear-gradient-9" x1="0.001" y1="1.048" x2="1.159" y2="-0.595" xlink:href="#linear-gradient-8"/>
    <linearGradient id="linear-gradient-10" x1="0.878" y1="-0.042" x2="-0.536" y2="1.588" gradientUnits="objectBoundingBox">
      <stop offset="0" stop-color="#ab316d"/>
      <stop offset="1" stop-color="#792d3d"/>
    </linearGradient>
    <linearGradient id="linear-gradient-11" x1="0.345" y1="0.113" x2="-0.559" y2="2.925" gradientUnits="objectBoundingBox">
      <stop offset="0.004" stop-color="#26264f"/>
      <stop offset="1" stop-color="#444b8c"/>
    </linearGradient>
    <linearGradient id="linear-gradient-12" x1="0.363" y1="-0.009" x2="-0.499" y2="2.7" xlink:href="#linear-gradient-5"/>
    <linearGradient id="linear-gradient-13" x1="0.914" y1="-0.135" x2="-0.482" y2="1.483" gradientUnits="objectBoundingBox">
      <stop offset="0" stop-color="#ff9085"/>
      <stop offset="1" stop-color="#fb6fbb"/>
    </linearGradient>
    <linearGradient id="linear-gradient-14" x1="-1.494" y1="0.629" x2="-0.293" y2="0.231" xlink:href="#linear-gradient-8"/>
    <linearGradient id="linear-gradient-15" x1="-1.425" y1="0.425" x2="-0.333" y2="0.425" xlink:href="#linear-gradient-8"/>
    <linearGradient id="linear-gradient-16" x1="-2.561" y1="0.794" x2="-1.349" y2="0.407" xlink:href="#linear-gradient-13"/>
    <linearGradient id="linear-gradient-17" x1="-2.473" y1="0.675" x2="-1.357" y2="0.675" xlink:href="#linear-gradient-13"/>
    <linearGradient id="linear-gradient-18" x1="21.539" y1="-5.931" x2="20.831" y2="-3.644" xlink:href="#linear-gradient-8"/>
    <linearGradient id="linear-gradient-19" x1="-1.355" y1="-2.41" x2="-1.175" y2="2.649" gradientUnits="objectBoundingBox">
      <stop offset="0" stop-color="#311944"/>
      <stop offset="1" stop-color="#a03976"/>
    </linearGradient>
    <linearGradient id="linear-gradient-20" x1="-3.397" y1="1.152" x2="-3.519" y2="-5.07" xlink:href="#linear-gradient-8"/>
    <linearGradient id="linear-gradient-21" x1="8.348" y1="-1.484" x2="8.633" y2="1.472" xlink:href="#linear-gradient-19"/>
    <linearGradient id="linear-gradient-22" x1="14.203" y1="1.353" x2="14.117" y2="-3.032" xlink:href="#linear-gradient-8"/>
    <linearGradient id="linear-gradient-23" x1="-0.239" y1="0.5" x2="0.761" y2="0.5" gradientUnits="objectBoundingBox">
      <stop offset="0" stop-color="#444b8c"/>
      <stop offset="0.996" stop-color="#3e4177"/>
    </linearGradient>
    <linearGradient id="linear-gradient-24" x1="-0.257" y1="0.5" x2="0.817" y2="0.5" xlink:href="#linear-gradient-23"/>
    <linearGradient id="linear-gradient-25" x1="0.66" y1="0.5" x2="1.66" y2="0.5" xlink:href="#linear-gradient-23"/>
    <linearGradient id="linear-gradient-26" x1="0.566" y1="-0.79" x2="0.509" y2="0.62" xlink:href="#linear-gradient-8"/>
    <linearGradient id="linear-gradient-27" x1="0.546" y1="0.812" x2="0.422" y2="-0.259" xlink:href="#linear-gradient-11"/>
    <linearGradient id="linear-gradient-28" x1="0.316" y1="0.321" x2="1.723" y2="1.907" xlink:href="#linear-gradient-8"/>
    <linearGradient id="linear-gradient-29" x1="0.574" y1="1.264" x2="0.476" y2="0.186" xlink:href="#linear-gradient-8"/>
    <linearGradient id="linear-gradient-30" x1="0.578" y1="1.439" x2="0.368" y2="-0.14" xlink:href="#linear-gradient-8"/>
    <linearGradient id="linear-gradient-31" x1="-3.018" y1="8.336" x2="-1.376" y2="0.822" xlink:href="#linear-gradient-13"/>
    <linearGradient id="linear-gradient-32" x1="-6.905" y1="-33.948" x2="-6.697" y2="-28.282" xlink:href="#linear-gradient-10"/>
    <linearGradient id="linear-gradient-33" x1="-6.242" y1="-31.325" x2="-6.347" y2="-38.971" xlink:href="#linear-gradient-8"/>
    <linearGradient id="linear-gradient-34" x1="-7.46" y1="-3.754" x2="-7.252" y2="1.903" xlink:href="#linear-gradient-10"/>
    <linearGradient id="linear-gradient-35" x1="12.816" y1="-4.922" x2="12.665" y2="-9.076" xlink:href="#linear-gradient-8"/>
    <linearGradient id="linear-gradient-36" x1="-2.865" y1="0.979" x2="-3.671" y2="0.272" xlink:href="#linear-gradient"/>
    <linearGradient id="linear-gradient-37" x1="-5.16" y1="0.989" x2="-6.398" y2="0.283" xlink:href="#linear-gradient"/>
    <linearGradient id="linear-gradient-38" x1="-1.422" y1="0.887" x2="-1.749" y2="0.09" xlink:href="#linear-gradient"/>
    <linearGradient id="linear-gradient-39" x1="-2.351" y1="1.243" x2="-1.124" y2="0.193" xlink:href="#linear-gradient"/>
    <linearGradient id="linear-gradient-40" x1="-1.948" y1="3.077" x2="-1.22" y2="0.231" xlink:href="#linear-gradient-13"/>
    <linearGradient id="linear-gradient-41" x1="-2.69" y1="6.845" x2="-1.94" y2="0.312" xlink:href="#linear-gradient-13"/>
    <linearGradient id="linear-gradient-42" x1="-15.213" y1="1.418" x2="-15.679" y2="-1.348" xlink:href="#linear-gradient-8"/>
    <linearGradient id="linear-gradient-43" x1="-48.235" y1="-1.548" x2="-52.961" y2="1.935" xlink:href="#linear-gradient-8"/>
    <linearGradient id="linear-gradient-44" x1="-51.642" y1="-0.55" x2="-52.16" y2="3.257" xlink:href="#linear-gradient-8"/>
    <linearGradient id="linear-gradient-45" x1="-3.686" y1="0.5" x2="-2.686" y2="0.5" xlink:href="#linear-gradient-13"/>
    <linearGradient id="linear-gradient-46" x1="28.895" y1="1.484" x2="28.408" y2="2.406" xlink:href="#linear-gradient-10"/>
    <linearGradient id="linear-gradient-47" x1="77.061" y1="2.931" x2="75.588" y2="4.855" xlink:href="#linear-gradient-10"/>
    <linearGradient id="linear-gradient-48" x1="-15.312" y1="1.524" x2="-14.6" y2="2.247" xlink:href="#linear-gradient-8"/>
    <linearGradient id="linear-gradient-49" x1="-14.485" y1="-6.064" x2="-15.516" y2="-4.412" xlink:href="#linear-gradient"/>
    <linearGradient id="linear-gradient-50" x1="-20.951" y1="-5.931" x2="-20.502" y2="-5.931" xlink:href="#linear-gradient-10"/>
    <linearGradient id="linear-gradient-51" x1="1.222" y1="-1.642" x2="-0.279" y2="2.822" xlink:href="#linear-gradient-4"/>
    <linearGradient id="linear-gradient-52" x1="0.314" y1="0.088" x2="1.003" y2="1.612" xlink:href="#linear-gradient-13"/>
    <linearGradient id="linear-gradient-54" x1="-16.649" y1="-0.017" x2="-15.682" y2="1.976" xlink:href="#linear-gradient-13"/>
    <linearGradient id="linear-gradient-55" x1="-0.164" y1="-0.988" x2="0.574" y2="0.666" xlink:href="#linear-gradient-8"/>
    <linearGradient id="linear-gradient-56" x1="0.306" y1="0.097" x2="1.026" y2="1.586" xlink:href="#linear-gradient-8"/>
    <linearGradient id="linear-gradient-57" x1="0.162" y1="-0.012" x2="1.216" y2="1.958" xlink:href="#linear-gradient-8"/>
    <linearGradient id="linear-gradient-58" x1="0.781" y1="-0.332" x2="-0.72" y2="4.132" xlink:href="#linear-gradient"/>
    <linearGradient id="linear-gradient-60" x1="0.314" y1="0.088" x2="1.003" y2="1.612" xlink:href="#linear-gradient-5"/>
    <linearGradient id="linear-gradient-61" x1="-17.998" y1="-0.017" x2="-17.031" y2="1.976" xlink:href="#linear-gradient-5"/>
    <linearGradient id="linear-gradient-62" x1="-0.008" y1="0.35" x2="0.749" y2="0.573" xlink:href="#linear-gradient-4"/>
    <linearGradient id="linear-gradient-63" x1="-22.111" y1="0.094" x2="-21.462" y2="1.596" gradientUnits="objectBoundingBox">
      <stop offset="0.004" stop-color="#e38ddd"/>
      <stop offset="1" stop-color="#9571f6"/>
    </linearGradient>
    <linearGradient id="linear-gradient-64" x1="-33.006" y1="-0.027" x2="-32.079" y2="2" xlink:href="#linear-gradient-63"/>
  </defs>
  <g id="Group_11795" data-name="Group 11795" transform="translate(-398.006 -440.583)">
    <path id="Path_22246" data-name="Path 22246" d="M552.754,440.649c-76.839-2.238-143.4,52.746-153.453,124.891C388.307,644.42,448.82,715.394,523.278,726.761c92.614,14.139,182.444-67.658,174.378-156.4C691.58,503.509,630.862,442.923,552.754,440.649Z" transform="translate(0 0)" fill="#f4f7fa"/>
    <g id="Group_11768" data-name="Group 11768" transform="translate(512.029 492.563)">
      <g id="Group_11758" data-name="Group 11758" transform="translate(0)">
        <g id="Group_11757" data-name="Group 11757">
          <path id="SVGID-3" data-name="SVGID" d="M1612.7,1008.282c-1.15.1-2.248.22-3.251.318-3.113.3-9.937,2.192-12.289-.908-3.879-5.114,5.975-13.787,8.456-17.684,3.069-4.82,6.871-10.186,7.488-16.04.938-8.9-5.16-20.945-12.686-25.594-10.381-6.413-24.883-2.049-34.21,4.247-13.512,9.12-23.006,24.164-26.859,39.878-4.154,16.937,1.575,34.468-.067,51.634-2.58,26.981-40.821-7.393-33.348,63.557,1.65,15.663,4.34,32.8,13.14,46.222,3.649,5.567,10.945,13.3,18.216,12.857,10.31-.634,9.85-15.219,13.048-21.953,3.739-7.871,10.262-14.089,17.511-18.741,9.22-5.916,19.91-11.208,23.575-22.378,2.38-7.254-1.2-14.724-5.785-20.367-2.526-3.11-7.909-6.666-7.1-11.248.67-3.8,6.01-6.593,8.795-8.6a225.421,225.421,0,0,0,24.508-20.112c6.835-6.56,18.395-16.511,17.459-27.171C1628.548,1007.623,1619.684,1007.662,1612.7,1008.282Z" transform="translate(-1504.97 -945.222)" fill="#bfc8d6"/>
          <g id="Group_11756" data-name="Group 11756" clip-path="url(#clip-path)">
            <g id="Group_11755" data-name="Group 11755" transform="translate(3.686 -8.431)" opacity="0.8" style="mix-blend-mode: soft-light;isolation: isolate">
              <g id="Group_11750" data-name="Group 11750" transform="translate(23.449)">
                <path id="Path_22247" data-name="Path 22247" d="M1794.053,1111.886a.522.522,0,0,1-.3-.1c-17.6-12.57-25.881-31.763-25.32-58.674.489-23.462,7.366-48.918,14.017-73.537,5.238-19.387,10.185-37.7,11.085-52.407a65.916,65.916,0,0,1,10-31.771,69.8,69.8,0,0,1,18.905-19.5,85.246,85.246,0,0,1,26.515-12.508.523.523,0,0,1,.237,1.019,84.149,84.149,0,0,0-26.178,12.365c-12.085,8.525-26.827,24.2-28.435,50.463-.907,14.814-5.867,33.176-11.119,52.616-13.088,48.446-27.922,103.356,10.9,131.087a.523.523,0,0,1-.3.949Z" transform="translate(-1768.403 -863.374)" fill="#fff"/>
              </g>
              <g id="Group_11751" data-name="Group 11751" transform="translate(33.331 28.697)">
                <path id="Path_22248" data-name="Path 22248" d="M1880.521,1173.093a.522.522,0,0,1-.161-.025c-.141-.046-3.49-1.162-7.155-5.519-3.342-3.973-7.593-11.536-8.866-25a.523.523,0,1,1,1.041-.1c1.243,13.142,5.346,20.5,8.568,24.36,3.477,4.164,6.7,5.255,6.734,5.266a.523.523,0,0,1-.162,1.021Z" transform="translate(-1864.337 -1141.972)" fill="#fff"/>
              </g>
              <g id="Group_11752" data-name="Group 11752" transform="translate(43.76 53.114)">
                <path id="Path_22249" data-name="Path 22249" d="M1966.107,1418.6a.523.523,0,0,1-.052-1.044,77.308,77.308,0,0,0,20.83-6.166,91.782,91.782,0,0,0,38.625-32.151.523.523,0,0,1,.863.592,92.829,92.829,0,0,1-39.105,32.534,78.315,78.315,0,0,1-21.107,6.232A.5.5,0,0,1,1966.107,1418.6Z" transform="translate(-1965.584 -1379.014)" fill="#fff"/>
              </g>
              <g id="Group_11753" data-name="Group 11753" transform="translate(0 114.504)">
                <path id="Path_22250" data-name="Path 22250" d="M1566.151,2033.434a.522.522,0,0,1-.174-.03,40.328,40.328,0,0,1-16.146-11.981,39.608,39.608,0,0,1-8.254-17.85c-1.6-8.365-.863-17.851,2.184-28.2a.523.523,0,0,1,1,.3c-6.774,23-.56,37.191,5.846,45.049a40.052,40.052,0,0,0,15.715,11.695.523.523,0,0,1-.174,1.017Z" transform="translate(-1540.755 -1975.002)" fill="#fff"/>
              </g>
              <g id="Group_11754" data-name="Group 11754" transform="translate(27.916 132.581)">
                <path id="Path_22251" data-name="Path 22251" d="M1812.3,2173.2a.523.523,0,0,1-.068-1.042c.418-.055,41.954-5.7,52.132-21.414a.523.523,0,1,1,.879.569c-4.4,6.788-14.643,12.535-30.457,17.082a174.347,174.347,0,0,1-22.417,4.8A.507.507,0,0,1,1812.3,2173.2Z" transform="translate(-1811.775 -2150.505)" fill="#fff"/>
              </g>
            </g>
          </g>
        </g>
      </g>
      <g id="Group_11767" data-name="Group 11767" transform="translate(28.343 59.581)">
        <g id="Group_11766" data-name="Group 11766">
          <path id="SVGID-4" data-name="SVGID" d="M1916.694,1551.985c-3.607-13-15.029-22.847-28.1-26.246a64.4,64.4,0,0,0-25.782-1.357c-11.413,1.987-20.834,9.432-28.177,18.061-8.628,10.139-9.436,22.7-12.52,35.185-.6,2.447-4.593,15.921-7.614,8.024-4.211-11.011-13.6-9.069-13.606-9.069a21.972,21.972,0,0,0-15.714,13.707c-7.258,18.14-5.015,41.7-3.48,60.716.722,8.943,1.835,17.839,3.161,26.706a5.659,5.659,0,0,0,9.9,2.846c1.5-1.751,3.07-3.359,4.524-4.773,13.983-13.607,35.876-15.621,54.349-16.436,10.786-.475,19.672-1.161,29.07-6.953,3.9-2.407,8.149-5.362,9.959-9.76,1.638-3.978,1.957-10.791-.51-14.491-3.072-4.608-9.894-4.318-13.955-7.712-6.562-5.484,10.6-9.3,14.057-10.412,5.511-1.772,9.166-6.167,13.294-9.978a48.73,48.73,0,0,0,8.408-9.726C1920.948,1579.178,1920.09,1564.225,1916.694,1551.985Z" transform="translate(-1780.13 -1523.644)" fill="#d8dee8"/>
          <g id="Group_11765" data-name="Group 11765" clip-path="url(#clip-path-2)">
            <g id="Group_11764" data-name="Group 11764" transform="translate(2.046 -0.523)" opacity="0.8" style="mix-blend-mode: soft-light;isolation: isolate">
              <g id="Group_11759" data-name="Group 11759" transform="translate(0 5.55)">
                <path id="Path_22252" data-name="Path 22252" d="M1800.519,1730.762a.524.524,0,0,1-.473-.747,763.389,763.389,0,0,1,41.381-74.443c14.041-22.033,27.576-40.068,40.229-53.606,15.864-16.974,30.4-26.9,43.208-29.508a.523.523,0,1,1,.208,1.025c-12.589,2.563-26.939,12.386-42.652,29.2-12.609,13.491-26.1,31.475-40.111,53.454a762.1,762.1,0,0,0-41.317,74.328A.523.523,0,0,1,1800.519,1730.762Z" transform="translate(-1799.996 -1572.447)" fill="#fff"/>
              </g>
              <g id="Group_11760" data-name="Group 11760" transform="translate(62.224)">
                <path id="Path_22253" data-name="Path 22253" d="M2404.606,1577.739a.5.5,0,0,1-.083-.006.523.523,0,0,1-.434-.6c.079-.493,7.788-49.432.133-57.691a.523.523,0,1,1,.768-.711c8,8.628.458,56.532.133,58.567A.523.523,0,0,1,2404.606,1577.739Z" transform="translate(-2404.082 -1518.564)" fill="#fff"/>
              </g>
              <g id="Group_11761" data-name="Group 11761" transform="translate(89.703 24.815)">
                <path id="Path_22254" data-name="Path 22254" d="M2735.382,1768.495a.517.517,0,0,1-.277-.08c-20.523-12.827-63.219-6.128-63.648-6.059a.523.523,0,1,1-.167-1.033,179.893,179.893,0,0,1,24.236-1.845c12.28-.1,29.216,1.227,40.133,8.05a.523.523,0,0,1-.278.967Z" transform="translate(-2670.85 -1759.473)" fill="#fff"/>
              </g>
              <g id="Group_11762" data-name="Group 11762" transform="translate(1.548 69.167)">
                <path id="Path_22255" data-name="Path 22255" d="M1831.226,2251.343a.506.506,0,0,1-.118-.014.523.523,0,0,1-.392-.628c5.6-24.206-15.4-59.5-15.614-59.851a.523.523,0,0,1,.9-.54,151.579,151.579,0,0,1,10.02,20.941c4.254,10.993,8.7,26.8,5.717,39.686A.524.524,0,0,1,1831.226,2251.343Z" transform="translate(-1815.026 -2190.057)" fill="#fff"/>
              </g>
              <g id="Group_11763" data-name="Group 11763" transform="translate(34.59 83.948)">
                <path id="Path_22256" data-name="Path 22256" d="M2136.323,2349.935a.523.523,0,0,1-.164-1.02,391.058,391.058,0,0,1,41.847-10.718c21.1-4.139,50.018-7.626,67.972-.735a.523.523,0,1,1-.375.977c-17.722-6.8-46.431-3.328-67.395.785a389.776,389.776,0,0,0-41.721,10.684A.516.516,0,0,1,2136.323,2349.935Z" transform="translate(-2135.8 -2333.55)" fill="#fff"/>
              </g>
            </g>
          </g>
        </g>
      </g>
    </g>
    <g id="Group_11771" data-name="Group 11771" transform="translate(431.946 458.737)">
      <g id="Group_11770" data-name="Group 11770" transform="translate(0 0)">
        <path id="Path_22257" data-name="Path 22257" d="M863,625.942l28.122,233.745a6.159,6.159,0,0,1-5.378,6.982L768.611,879.528c-7.175.446-11.1-3.22-11.547-6.946L727.54,624.072c-.44-3.706,3.08-7.062,10.286-7.062l118.2,2.489A7.451,7.451,0,0,1,863,625.942Z" transform="translate(-727.503 -616.992)" fill="url(#linear-gradient)"/>
        <path id="Path_22258" data-name="Path 22258" d="M909.523,625.379,937.8,860.293a6.188,6.188,0,0,1-5.4,7.018L810.97,879.4a7.1,7.1,0,0,1-7.741-6.121L773.538,623.486a5.892,5.892,0,0,1,6.2-6.654L902.519,618.9A7.485,7.485,0,0,1,909.523,625.379Z" transform="translate(-768.755 -616.831)" fill="url(#linear-gradient-2)"/>
        <path id="Path_22259" data-name="Path 22259" d="M959.468,762.523l26.208,217.811a5.77,5.77,0,0,1-5.053,6.545l-114.2,11.1a6.621,6.621,0,0,1-7.2-5.714L831.785,761.516a5.52,5.52,0,0,1,5.758-6.237l115.375,1.229A6.945,6.945,0,0,1,959.468,762.523Z" transform="translate(-821.004 -741.017)" fill="url(#linear-gradient-3)"/>
        <path id="Path_22260" data-name="Path 22260" d="M1437.348,678.241a1.943,1.943,0,0,1-2.006,2.236,2.678,2.678,0,0,1-2.553-2.3,1.943,1.943,0,0,1,2.011-2.236A2.678,2.678,0,0,1,1437.348,678.241Z" transform="translate(-1360.126 -669.855)" fill="url(#linear-gradient-4)"/>
        <g id="Group_11769" data-name="Group 11769" transform="translate(4.737)" opacity="0.5" style="mix-blend-mode: soft-light;isolation: isolate">
          <path id="Path_22261" data-name="Path 22261" d="M887.475,784.545c-23.38-43.226-58.306-56.165-68.821-100.714-5.684-24.081-1.811-47.129,4.711-66.263l-43.623-.736a5.892,5.892,0,0,0-6.2,6.654L803.23,873.28a7.1,7.1,0,0,0,7.741,6.121l95.458-9.5C907.135,831.165,897.9,803.814,887.475,784.545Z" transform="translate(-773.493 -616.831)" fill="#fff"/>
        </g>
      </g>
    </g>
    <g id="Group_11773" data-name="Group 11773" transform="translate(447.643 477.344)">
      <path id="Path_22262" data-name="Path 22262" d="M1002.5,867.354l-109.634,2.91c-2.748.073-5.35-2.949-5.807-6.754L879.965,804.4c-.463-3.854,1.422-6.958,4.2-6.929l110.907,1.149c2.471.026,4.785,2.983,5.175,6.6l5.974,55.544C1006.608,864.34,1004.943,867.289,1002.5,867.354Z" transform="translate(-879.895 -797.468)" opacity="0.3" fill="url(#linear-gradient-5)"/>
      <path id="Path_22263" data-name="Path 22263" d="M1187.476,2354.331,1080.6,2365.9c-2.676.29-5.208-2.455-5.65-6.134l-6.859-57.159c-.447-3.726,1.39-6.907,4.1-7.1l108.094-7.764c2.411-.173,4.666,2.532,5.043,6.039l5.788,53.816C1191.487,2351.058,1189.861,2354.073,1187.476,2354.331Z" transform="translate(-1048.645 -2134.226)" opacity="0.3" fill="url(#linear-gradient-6)"/>
      <g id="Group_11772" data-name="Group 11772" transform="translate(9.771 77.935)">
        <path id="Path_22264" data-name="Path 22264" d="M1095.763,1621.735l-108.24,7.309c-2.711.183-5.278-2.7-5.727-6.439l-6.975-58.124c-.455-3.79,1.406-6.932,4.15-7.017l109.485-3.381c2.441-.075,4.725,2.754,5.108,6.317l5.88,54.67C1099.822,1618.589,1098.177,1621.572,1095.763,1621.735Z" transform="translate(-974.752 -1554.082)" opacity="0.3" fill="url(#linear-gradient-6)"/>
      </g>
    </g>
    <g id="Group_11780" data-name="Group 11780" transform="translate(400.22 489.496)">
      <g id="Group_11774" data-name="Group 11774" transform="translate(39.691 107.572)">
        <path id="Path_22265" data-name="Path 22265" d="M1205.338,1966.891l-1.57-3.006v-4.106l3.022,7.112Z" transform="translate(-1162.676 -1959.779)" fill="url(#linear-gradient-8)"/>
        <path id="Path_22266" data-name="Path 22266" d="M811.711,1995.141c6.673-2.4,11.628,8.4,21.725,6.9,6.724-1,11.43-6.822,14.73-4.635a4.515,4.515,0,0,1,1.713,2.822c-1.274,3.146-4.711,10.35-12.406,14.633-11.27,6.273-28.355,4.434-31.885-3.8C803.274,2005.652,806.566,1996.99,811.711,1995.141Z" transform="translate(-804.835 -1991.185)" fill="url(#linear-gradient-9)"/>
      </g>
      <g id="Group_11779" data-name="Group 11779" transform="translate(58.206)">
        <g id="Group_11778" data-name="Group 11778" transform="translate(0 25.793)">
          <g id="Group_11775" data-name="Group 11775" transform="translate(15.552)">
            <path id="Path_22267" data-name="Path 22267" d="M1165.939,1215.191l42.115-31.247-13.014-17.541-15.552-.554-26.563,31.8a42.934,42.934,0,0,0-8.9,60.062l17.541-13.014A21.116,21.116,0,0,1,1165.939,1215.191Z" transform="translate(-1135.564 -1165.849)" fill="url(#linear-gradient-10)"/>
            <path id="Path_22268" data-name="Path 22268" d="M1245.909,1722.371a42.652,42.652,0,0,0,31.874-7.99l42.115-31.247-13.014-17.541-15.552-.554-26.563,31.8a21.117,21.117,0,0,1-29.507-4.371l-15.552-.555-1.989,13.569A42.653,42.653,0,0,0,1245.909,1722.371Z" transform="translate(-1209.258 -1613.62)" fill="url(#linear-gradient-11)"/>
          </g>
          <g id="Group_11776" data-name="Group 11776">
            <path id="Path_22269" data-name="Path 22269" d="M1094.927,1721.817a42.652,42.652,0,0,0,31.874-7.99l42.115-31.247-13.014-17.541-42.115,31.247a21.116,21.116,0,0,1-29.507-4.371l-17.541,13.014A42.653,42.653,0,0,0,1094.927,1721.817Z" transform="translate(-1058.276 -1613.62)" fill="url(#linear-gradient-12)"/>
            <path id="Path_22270" data-name="Path 22270" d="M1014.957,1214.636l42.115-31.247-13.014-17.541-42.115,31.247a42.934,42.934,0,0,0-8.9,60.062l17.541-13.014A21.116,21.116,0,0,1,1014.957,1214.636Z" transform="translate(-984.582 -1165.849)" fill="url(#linear-gradient-13)"/>
          </g>
          <path id="Path_22271" data-name="Path 22271" d="M1561.981,1165.849,1575,1183.39l15.552.554-13.014-17.541Z" transform="translate(-1502.506 -1165.849)" fill="#fff" opacity="0.45" style="mix-blend-mode: soft-light;isolation: isolate"/>
          <path id="Path_22272" data-name="Path 22272" d="M1932.35,1665.039l13.014,17.541,15.552.555-13.014-17.541Z" transform="translate(-1834.725 -1613.62)" fill="#fff" opacity="0.45" style="mix-blend-mode: soft-light;isolation: isolate"/>
          <g id="Group_11777" data-name="Group 11777" transform="translate(0 35.103)">
            <path id="Path_22273" data-name="Path 22273" d="M1073.7,1549.027c-6.745-.246-9.535-4.523-14.985-8.641l-18.62,13.815a21.089,21.089,0,0,1-31.935-25.28c-3.706-6.474-2.364-14.963-9.765-21.488-.315-.278-.639-.54-.966-.794a42.936,42.936,0,0,0,55.68,65.1l42.115-31.247-1.7-2.287C1088.283,1544.028,1081.46,1549.31,1073.7,1549.027Z" transform="translate(-984.582 -1506.639)" fill="#fff" opacity="0.45" style="mix-blend-mode: soft-light;isolation: isolate"/>
          </g>
        </g>
        <path id="Path_22274" data-name="Path 22274" d="M1672.849,945.309a23.467,23.467,0,0,1,2.6-6.688,14.981,14.981,0,0,1,2.4-3.044,12.719,12.719,0,0,1,3.349-2.337c.31-.16.641-.279.967-.41s.667-.223,1-.325a12.823,12.823,0,0,1,2.058-.376,16.837,16.837,0,0,1,3.939.1c1.242.16,2.387.408,3.475.639s2.1.455,3.051.6a12.383,12.383,0,0,0,2.575.169,5.627,5.627,0,0,0,1.974-.467,5.5,5.5,0,0,0,1.582-1.1,8.628,8.628,0,0,0,1.342-1.767c.213-.331.392-.722.585-1.092.092-.191.173-.4.261-.6s.177-.395.25-.613c.153-.426.319-.838.446-1.293l.206-.665c.064-.226.119-.461.179-.69a44.107,44.107,0,0,0,1.032-5.8l0-.016a4.64,4.64,0,1,1,9.216,1.086c-.018.156-.046.315-.079.465a52.665,52.665,0,0,1-1.98,6.9c-.109.288-.209.575-.325.863l-.367.865c-.232.574-.525,1.151-.806,1.723-.134.286-.3.572-.459.857s-.315.569-.49.852c-.365.565-.714,1.127-1.144,1.677a16.112,16.112,0,0,1-3,3.089,12.611,12.611,0,0,1-8.5,2.667,19.3,19.3,0,0,1-3.9-.648c-2.355-.631-4.341-1.421-6.164-1.847a11.305,11.305,0,0,0-2.562-.35,7.364,7.364,0,0,0-1.172.08,6.776,6.776,0,0,0-1.125.286,7.542,7.542,0,0,0-2.124,1.172,10.128,10.128,0,0,0-1.84,1.9,19.185,19.185,0,0,0-2.646,5.22l-.008.022a1.986,1.986,0,0,1-3.806-1.118Z" transform="translate(-1601.906 -915.446)" fill="url(#linear-gradient-14)"/>
        <path id="Path_22275" data-name="Path 22275" d="M1715.858,1136.864a19.708,19.708,0,0,1,2.075-2.356,14.76,14.76,0,0,1,2.562-2,12.507,12.507,0,0,1,3.082-1.37c.278-.069.555-.147.837-.206s.567-.112.858-.144a10.557,10.557,0,0,1,1.76-.089,11.2,11.2,0,0,1,1.751.187,13.411,13.411,0,0,1,1.666.413,26.912,26.912,0,0,1,2.977,1.164c.919.41,1.777.8,2.6,1.121.408.156.808.293,1.2.408a10.458,10.458,0,0,0,1.14.26,7.361,7.361,0,0,0,2.163.041,9.555,9.555,0,0,0,2.121-.558,15.718,15.718,0,0,0,4.088-2.561,41.536,41.536,0,0,0,6.99-8.1l.035-.052a3.978,3.978,0,0,1,6.542,4.529,4.426,4.426,0,0,1-.314.4l-1.04,1.155-.52.576c-.174.192-.361.377-.541.565l-1.089,1.123-1.143,1.092a38.437,38.437,0,0,1-5.039,4.028,21.7,21.7,0,0,1-6.214,2.882,15.153,15.153,0,0,1-3.622.48,12.817,12.817,0,0,1-3.642-.519,15.826,15.826,0,0,1-1.657-.594c-.525-.225-1.025-.467-1.5-.717-.95-.5-1.813-1.031-2.628-1.513a12.951,12.951,0,0,0-4.617-1.951,6.771,6.771,0,0,0-1.162-.081c-.2,0-.395.015-.594.027s-.4.051-.6.073a9.125,9.125,0,0,0-2.36.735,11.741,11.741,0,0,0-2.224,1.352,17.025,17.025,0,0,0-2.019,1.818l-.01.011a1.256,1.256,0,0,1-1.907-1.627Z" transform="translate(-1640.305 -1100.106)" fill="url(#linear-gradient-15)"/>
        <path id="Path_22276" data-name="Path 22276" d="M2042.362,1544.487a15.316,15.316,0,0,1,1.629-4.477,10.188,10.188,0,0,1,1.609-2.126,8.9,8.9,0,0,1,2.332-1.685,8.6,8.6,0,0,1,1.4-.546,9.183,9.183,0,0,1,1.458-.291,11.927,11.927,0,0,1,2.732.015c.843.091,1.6.235,2.295.363s1.32.243,1.875.307a5.66,5.66,0,0,0,1.374.017,1.907,1.907,0,0,0,.782-.28,2.282,2.282,0,0,0,.534-.5,4.922,4.922,0,0,0,.537-.866,11.453,11.453,0,0,0,.9-2.762,27.3,27.3,0,0,0,.472-3.441,4.651,4.651,0,1,1,9.156,1.471l-.017.065a35.525,35.525,0,0,1-1.421,4.543c-.077.192-.149.382-.231.575l-.261.581c-.165.383-.373.776-.573,1.163-.1.192-.214.389-.327.584s-.225.388-.35.583c-.261.392-.512.777-.823,1.163a11.735,11.735,0,0,1-2.19,2.187,9.537,9.537,0,0,1-3.011,1.527,9.354,9.354,0,0,1-3.254.354,12.941,12.941,0,0,1-2.694-.5c-1.565-.46-2.782-.988-3.808-1.274a6.779,6.779,0,0,0-1.355-.267,3.171,3.171,0,0,0-1.123.092,3.67,3.67,0,0,0-1.108.521,5.258,5.258,0,0,0-1.054.985,10.97,10.97,0,0,0-1.672,3.009l-.016.04a1.989,1.989,0,0,1-3.8-1.136Z" transform="translate(-1933.365 -1461.262)" fill="url(#linear-gradient-16)"/>
        <path id="Path_22277" data-name="Path 22277" d="M2072.277,1667.544a11.106,11.106,0,0,1,2.988-2.955,8.426,8.426,0,0,1,2.071-.979,8.111,8.111,0,0,1,2.377-.351,8.872,8.872,0,0,1,2.359.358,18.683,18.683,0,0,1,1.988.712l.856.347c.263.1.531.207.771.281.25.091.473.141.7.2a5.015,5.015,0,0,0,.62.1,4.438,4.438,0,0,0,.559.016q.134-.017.265-.026c.088-.017.176-.034.262-.047a5.211,5.211,0,0,0,1.055-.365,9.321,9.321,0,0,0,2.175-1.55,25.781,25.781,0,0,0,3.952-5.012l.01-.015a3.988,3.988,0,1,1,6.737,4.271,4.233,4.233,0,0,1-.483.617l-.7.732c-.231.244-.464.486-.713.724l-.733.713-.77.7a25.98,25.98,0,0,1-3.418,2.584,15.03,15.03,0,0,1-4.3,1.872,10.666,10.666,0,0,1-2.555.288c-.22-.009-.439-.019-.657-.034s-.436-.053-.653-.083a9.931,9.931,0,0,1-1.25-.3,10.465,10.465,0,0,1-1.142-.431c-.343-.165-.694-.332-1-.509-.321-.175-.6-.35-.883-.524l-.778-.5a8.117,8.117,0,0,0-2.575-1.261,4.323,4.323,0,0,0-1.276-.069,5.01,5.01,0,0,0-1.35.344,8.23,8.23,0,0,0-2.594,1.773l-.018.017a1.258,1.258,0,0,1-1.9-1.634Z" transform="translate(-1960.03 -1580.082)" fill="url(#linear-gradient-17)"/>
      </g>
      <path id="Path_22278" data-name="Path 22278" d="M1264.634,1784.985s1.064.569,2.106-1.5c.817-1.617,1.349-1.974,1.5-1.469s-.405,1.375-.405,1.375a8.452,8.452,0,0,0,3.544-1.173c1.526-1.018,1,.394.605,1.169a7.8,7.8,0,0,1-3.581,2.379,10.753,10.753,0,0,0-2.757,1.324Z" transform="translate(-1177.581 -1692.569)" fill="url(#linear-gradient-18)"/>
      <path id="Path_22279" data-name="Path 22279" d="M772.655,3167.277s7.917,3.6,8.046,4.172-5.091-.193-7.222-.11-3.884-.547-3.692-1.449.939-3.173.939-3.173Z" transform="translate(-733.693 -2934.824)" fill="url(#linear-gradient-19)"/>
      <path id="Path_22280" data-name="Path 22280" d="M775,3140.094l-.482,3.564a2.794,2.794,0,0,1-2.1-.081l-.359-3.91Z" transform="translate(-735.749 -2910.561)" fill="url(#linear-gradient-20)"/>
      <path id="Path_22281" data-name="Path 22281" d="M428.265,3144.636l-.921,1.479a1.763,1.763,0,0,0-.211,1.382c.322,1.229.965,3.625,1.246,4.25.382.851,5.505,1.356,5.505,1.356s.457-.643-.607-1.42-1.747-.9-2.123-2.045a30,30,0,0,1-.626-4.387Z" transform="translate(-426.295 -2915.018)" fill="url(#linear-gradient-21)"/>
      <path id="Path_22282" data-name="Path 22282" d="M439.821,3104.469a47.778,47.778,0,0,0-1.982,5.263s-.533.681-1.544-.324-.458-.451-.458-.451l.19-4.912Z" transform="translate(-434.018 -2878.608)" fill="url(#linear-gradient-22)"/>
      <path id="Path_22283" data-name="Path 22283" d="M678.55,2405.462c.418,10.632.435,22.185-.177,34.525-.689,13.9-2.073,26.74-3.818,38.384-.648.021-1.33.024-2.042,0-.481-.013-.946-.037-1.4-.068a88.452,88.452,0,0,1-2.933-9.381,90.233,90.233,0,0,1-2.048-10.985c-1.525-12.043.262-13.093-.975-22.018-1.1-7.9-2.654-8.213-4.483-19.435-1.985-12.176-.507-14,.211-14.663C663.948,2399.015,671.133,2400.928,678.55,2405.462Z" transform="translate(-634.943 -2247.54)" fill="url(#linear-gradient-23)"/>
      <path id="Path_22284" data-name="Path 22284" d="M660.89,2401.839c2.917-2.68,9.589-1.058,16.636,3.032-8.107,8.758-8.99,14.44-8.019,18.126,1.1,4.167,4.438,5.367,4.425,9.923-.016,5.6-5.069,7.082-4.961,13.007.071,3.918,2.291,3.877,2.816,8.716.62,5.725-2.28,7.7-1.341,11.934.4,1.822,1.558,4.2,4.844,6.657-.237,1.739-.48,3.461-.733,5.151-.648.02-1.33.024-2.042,0q-.721-.02-1.4-.068a88.424,88.424,0,0,1-2.934-9.381,90.269,90.269,0,0,1-2.048-10.985c-1.524-12.043.262-13.093-.975-22.018-1.1-7.9-2.654-8.213-4.483-19.435C658.694,2404.325,660.171,2402.5,660.89,2401.839Z" transform="translate(-634.943 -2247.554)" opacity="0.3" fill="url(#linear-gradient-24)" style="mix-blend-mode: multiply;isolation: isolate"/>
      <path id="Path_22285" data-name="Path 22285" d="M458.087,2395.483a238.734,238.734,0,0,0-32.73,70.053,4.265,4.265,0,0,1-2.337.362,4.348,4.348,0,0,1-2.647-1.43,68.758,68.758,0,0,1-.607-16.953,58.428,58.428,0,0,1,2.384-12.743c1.927-6.216,3.252-6.565,5.766-13.141,2.609-6.826,1.977-8.529,4.476-17.071a112.718,112.718,0,0,1,5.581-14.977Z" transform="translate(-419.501 -2237.739)" fill="url(#linear-gradient-25)"/>
      <path id="Path_22286" data-name="Path 22286" d="M752.544,1886.174a18.342,18.342,0,0,1-1.227,5.2c-.9,2-5.361,3.138-6.271,3.562s1.623,1.827,4.2,2.167,9.975-.018,11.336-.957-1.041-.939-2.865-1.674-2.779-4.375-2.4-6S752.544,1886.174,752.544,1886.174Z" transform="translate(-711.344 -1786.184)" fill="url(#linear-gradient-26)"/>
      <path id="Path_22287" data-name="Path 22287" d="M794.1,1813.294c1.358-1.8.779-5.337-.432-5.792-.346-.13-.58.053-4.033,2.88-1.715,1.4-2.548,2.126-2.594,3.093a2.882,2.882,0,0,0,.619,1.79,7.267,7.267,0,0,0,1.224,1.086c.616.477.581.466.767.6a10.1,10.1,0,0,0,2.642,1.342,7.04,7.04,0,0,1-.03-1.22,6.211,6.211,0,0,1,.3-1.555A7.016,7.016,0,0,1,794.1,1813.294Z" transform="translate(-749.178 -1715.59)" fill="url(#linear-gradient-27)"/>
      <path id="Path_22288" data-name="Path 22288" d="M806.926,1863.771a3.812,3.812,0,0,0,3.731.448c1.834-.8.58-5.118-.944-5.577a2.522,2.522,0,0,0-1.941.434c-.346.247-.418.455-.991.849-.529.363-.717.358-.839.571-.153.265-.149.779.666,1.877a1.087,1.087,0,0,0-1.224.038.683.683,0,0,0-.162.335C805.132,1863.323,805.795,1863.778,806.926,1863.771Z" transform="translate(-765.482 -1761.439)" fill="url(#linear-gradient-28)"/>
      <path id="Path_22289" data-name="Path 22289" d="M493.244,1877.088c2.912,2.638,7.957,2.852,9.058,2.9,5.183.22,5.924-2.031,11.051-1.812,5.143.219,6.5,2.569,10.145,1.631.646-.166,3.17-.9,5.851-4.4,7.6-9.931,1.247-20.859,8.823-34.908a22.542,22.542,0,0,1,4.167-5.979c6.538-6.466,12.772-3.525,21.011-8.714,6.759-4.256,11.3-12.813,9.334-16.67-.889-1.748-1.659-1.517-2.853-1.658-2.006,3.4-6.972,7.552-12.683,9.967-5.419,2.292-9.6,1.2-17.888,1.312-5.068.071-13.769.193-20.668,2.663-17.253,6.176-23.64,27.179-25.529,33.389C491.412,1860.234,487.8,1872.156,493.244,1877.088Z" transform="translate(-483.053 -1715.59)" fill="url(#linear-gradient-29)"/>
      <path id="Path_22290" data-name="Path 22290" d="M507.375,2068.6c-1.881-2.427,7.824-9.111,6.522-16.909-1.1-6.566-8.88-7.222-10.87-13.285-.86-2.62-.7-6.434,2.961-12.111-8.024,8.7-11.594,20.416-12.925,24.792-1.651,5.428-5.266,17.351.181,22.283,2.913,2.637,7.957,2.852,9.058,2.9,5.183.22,5.924-2.03,11.051-1.812,5.143.219,6.5,2.569,10.145,1.63.646-.166,3.17-.9,5.851-4.4.04-.052.074-.1.113-.157a15.632,15.632,0,0,0-7.353-4.134C514.967,2065.793,508.9,2070.563,507.375,2068.6Z" transform="translate(-483.053 -1911.87)" opacity="0.3" fill="url(#linear-gradient-30)" style="mix-blend-mode: multiply;isolation: isolate"/>
    </g>
    <g id="Group_11782" data-name="Group 11782" transform="translate(592.285 562.48)">
      <path id="Path_22291" data-name="Path 22291" d="M2376.194,2017.1l-1.953-1.494c-.57.162-9.925,2.974-11.777,11.2-.255,1.132-1.194,5.3,1.091,7.985,3.831,4.5,14.947,2.725,20.165-3.562,4.1-4.94,4.609-12.73,2.24-14.189-2.867-1.766-11.413,4.84-12.064,5.343-1.306,1.01-2.492,2.084-2.7,1.9C2370.844,2023.962,2373.649,2020.293,2376.194,2017.1Z" transform="translate(-2354.028 -1975.269)" fill="url(#linear-gradient-31)"/>
      <g id="Group_11781" data-name="Group 11781" transform="translate(90.38 95.515)">
        <path id="Path_22292" data-name="Path 22292" d="M3197.286,2555.839s-.5-1.294.282-1.971,5.1-2.635,7.265-2.594.421,1.71-.816,2.656a28.1,28.1,0,0,1-4.865,3.093C3198.41,2557.189,3197.286,2555.839,3197.286,2555.839Z" transform="translate(-3193.464 -2551.273)" fill="url(#linear-gradient-32)"/>
        <path id="Path_22293" data-name="Path 22293" d="M3161.547,2577.961c1.258-.979,2.356-1.744,3.185-2.3a13.006,13.006,0,0,1,3.471-1.852c.714-.223,2.333-.638,2.484-.3s-1.346,1.142-5.03,3.938c-.535.405-2.233,1.7-2.233,1.7h0Z" transform="translate(-3161.547 -2571.106)" fill="url(#linear-gradient-33)"/>
      </g>
      <path id="Path_22294" data-name="Path 22294" d="M2554.62,3169.677s.5,1.293-.28,1.971-5.094,2.643-7.261,2.6-.423-1.71.813-2.657a28.088,28.088,0,0,1,4.861-3.1C2553.495,3168.328,2554.62,3169.677,2554.62,3169.677Z" transform="translate(-2519.071 -3009.391)" fill="url(#linear-gradient-34)"/>
      <path id="Path_22295" data-name="Path 22295" d="M2585.4,3124.507a15.845,15.845,0,0,1-.261,3.917,4.983,4.983,0,0,1-1.046,2.749c-1.113,1.179-3.063,1.411-3.346.937-.321-.538,1.742-1.587,2.427-4.109a6.54,6.54,0,0,0,.112-2.806Z" transform="translate(-2550.165 -2969.946)" fill="url(#linear-gradient-35)"/>
      <path id="Path_22296" data-name="Path 22296" d="M2535.6,2444.52c-2.92,3.074-2.282,7.466-1.368,15.34.767,6.6,1.812,16.373,2.8,28.737q1.338,12.939,2.677,25.875h4.461a41.639,41.639,0,0,0,4.1-17.131c.09-6.07-1.328-6.866-1.6-13.741-.15-3.781.184-5.9,3.03-22.306,2.264-13.052,2.709-15.5.892-17.488C2547.38,2440.3,2539.309,2440.611,2535.6,2444.52Z" transform="translate(-2507.777 -2357.174)" fill="url(#linear-gradient-36)"/>
      <path id="Path_22297" data-name="Path 22297" d="M2599.9,2504.685c-.767-2.406-2.806-4.865-2.944-9.636-.163-5.629,2.537-7.034,2.141-12.312-.38-5.073-3-5.442-3.748-10.439-.871-5.805,2.358-7.323,3.48-14.187a32.83,32.83,0,0,0-2-16.443c3.465-.632,7.2.082,9.14,2.207,1.817,1.987,1.372,4.437-.892,17.488-2.845,16.406-3.18,18.526-3.03,22.306.274,6.874,1.692,7.671,1.6,13.741a41.641,41.641,0,0,1-4.1,17.131h-1.477C2600.452,2510.2,2600.653,2507.043,2599.9,2504.685Z" transform="translate(-2563.159 -2357.242)" opacity="0.4" fill="url(#linear-gradient-37)" style="mix-blend-mode: multiply;isolation: isolate"/>
      <path id="Path_22298" data-name="Path 22298" d="M2670.006,2402.75c-6.254,8.617-18.213,22.854-28.553,20.44-5.467-1.277-7.451-6.5-23.521-28.568-3.865-5.306-7.155-9.681-9.49-12.751l18.737-4.639a137.647,137.647,0,0,1,8.7,16.821c4.1,9.506,5.583,15.977,9.318,16.371,1.826.193,3.01-1.192,5.532-3.212a51.635,51.635,0,0,1,16.06-8.566Z" transform="translate(-2575.034 -2299.644)" fill="url(#linear-gradient-38)"/>
      <path id="Path_22299" data-name="Path 22299" d="M2584.067,1653.774c1.266-2.038,3.219-2.84,5.4-3.7,2.829-1.116,4.105-.888,6.207-1.421,5.2-1.319,5.3-4.718,9.969-7.057,5.966-2.99,8.88,1.021,13.831-1.619,5.558-2.963,3.593-8.927,8.5-12.881,6.814-5.489,22.747-3.782,27.76,5.684,2.9,5.467,2.351,13.9-1.736,18.638-2.382,2.76-5.8,4.228-5.63,6.689.122,1.752,2.194,1.99,3.408,4.479,1.566,3.208.115,6.892-.119,7.487-2.175,5.522-12.1,8.92-20.834,7.742-15.758-2.124-22.728-18.462-32.765-15.36-1.846.571-4.515,2.162-8.238,1.579-1.121-.176-5.093-.8-6.5-4.088C2582.083,1657.049,2583.848,1654.128,2584.067,1653.774Z" transform="translate(-2552.11 -1623.986)" fill="url(#linear-gradient-39)"/>
      <path id="Path_22300" data-name="Path 22300" d="M2535.936,2010.854a154.574,154.574,0,0,0-16.778.674c-13.027,1.375-12.515,7.857-10.156,13.767a33.189,33.189,0,0,1,2.275,13.25c-.078,3.052-.632,5.5-1.742,10.392-1.928,8.5-3.363,10.454-2.006,12.628,1.979,3.169,7.524,3.013,8.5,2.966,4.925-.237,5.97-3.127,10.123-3.584,4.825-.531,5.94,3.092,12.648,5.53,7.918,2.878,18.112,2.116,22.847-3.185,1.828-2.047,3-4.875,2.215-5.765-1.07-1.212-4.793,2.275-8.756.892-2.626-.917-2.388-2.934-5.533-4.9-3.784-2.37-6.009-.626-8.575-2.155-4-2.386-3.141-9.345-3.465-20.8A190.842,190.842,0,0,0,2535.936,2010.854Z" transform="translate(-2484.038 -1971.002)" fill="url(#linear-gradient-40)"/>
      <path id="Path_22301" data-name="Path 22301" d="M2662.933,2006.816c6.949.339,9.433,7.572,16.687,9,4.4.865,10.951-.322,20.365-9.465l4,1.852a27.184,27.184,0,0,1-7.051,14.757c-10.685,11.084-30.948,10.744-41.921,1.242a26.15,26.15,0,0,1-6.439-8.576C2652.044,2011.311,2657.092,2006.532,2662.933,2006.816Z" transform="translate(-2611.034 -1966.965)" fill="url(#linear-gradient-41)"/>
      <path id="Path_22302" data-name="Path 22302" d="M2587.692,1957.661a.787.787,0,0,1,1.208.4c.455,1.407,1.4,3.8,2.677,4.4,1.845.861,4.624.483,4.975.824s-8.285,4.822-14.039,2.784a.84.84,0,0,1-.117-.052l-.328-.177a.786.786,0,0,1,.221-1.463c1.11-.219,4.017-1.054,4.749-2.322a6.74,6.74,0,0,0,.086-1.456l-.236-1.854a.787.787,0,0,1,.321-.738Z" transform="translate(-2551.006 -1923.158)" fill="url(#linear-gradient-42)"/>
      <path id="Path_22303" data-name="Path 22303" d="M2620.054,1932.743a2.6,2.6,0,0,1-2.77,1.24c-1.642-.386-1.187-4.561,0-5.173a2.224,2.224,0,0,1,1.719.03,2.465,2.465,0,0,1,1.1,2.66c.384-.162.746-.1.857.087.141.236-.155.616-.222.7A1.345,1.345,0,0,1,2620.054,1932.743Z" transform="translate(-2582.009 -1897.27)" fill="url(#linear-gradient-43)"/>
      <path id="Path_22304" data-name="Path 22304" d="M3149.6,1942.542l.655-1.292s-3.347-5.475-.6-6.354,1.97.687,1.659,1.433a6.948,6.948,0,0,0,.667,3.926c.477.744-.352,3.222-.352,3.222Z" transform="translate(-3059.529 -1902.638)" fill="url(#linear-gradient-44)"/>
      <path id="Path_22305" data-name="Path 22305" d="M2768.418,2173.593c-1.731-1.178-.54-3.488-2.5-5.354-1.793-1.707-3.754-.692-6.959-1.606a14.037,14.037,0,0,1-8.208-6.96c-.978-1.948-.9-3.224,0-13.205.856-9.505,1.1-11.827,2.319-12.134,2.223-.56,4.213,6.423,8.566,6.424,2.458,0,2.792-2.227,5.889-3.391,5.256-1.975,9.014,2.67,14.633,2.5a11.119,11.119,0,0,0,5.167-1.536c-8.1,7.813-21.142,9.521-31.716,5.981.143,9.661-.232,15.616,3.4,17.784,2.565,1.529,4.792-.214,8.575,2.155,3.144,1.969,2.907,3.987,5.533,4.9,3.963,1.383,7.686-2.1,8.756-.892.713.807-.192,3.2-1.729,5.17a9.749,9.749,0,0,0-2.985-.73C2773.015,2172.377,2770.46,2174.982,2768.418,2173.593Z" transform="translate(-2702.054 -2081.737)" opacity="0.3" fill="url(#linear-gradient-45)" style="mix-blend-mode: multiply;isolation: isolate"/>
      <path id="Path_22306" data-name="Path 22306" d="M2353.139,1789.181l.489-1.272-1.269-1.256a.912.912,0,0,0-1.067-.158,18.228,18.228,0,0,0-9.177,11.591.913.913,0,0,0,.387.973,12.3,12.3,0,0,0,1.269.708Z" transform="translate(-2336.118 -1769.661)" fill="url(#linear-gradient-46)"/>
      <path id="Path_22307" data-name="Path 22307" d="M2502.01,1962.822l-.755,4.161a7.1,7.1,0,0,1-.235,1.67,3.578,3.578,0,0,0,1.661.923l2.367-4.7-2.9-2.07Z" transform="translate(-2478.677 -1927.907)" fill="url(#linear-gradient-47)"/>
      <path id="Path_22308" data-name="Path 22308" d="M2484.707,1990.29l.676-1.691a3.057,3.057,0,0,1,2.36-1.564c1.743-.228,1.724.713,1.724.713l-1.137.336a2.276,2.276,0,0,0-1.24,1.278,6.55,6.55,0,0,1-1.463,1.631Z" transform="translate(-2464.045 -1949.607)" fill="url(#linear-gradient-48)"/>
      <path id="Path_22309" data-name="Path 22309" d="M2380.978,1818.648s-10.575-10.13-12.718-17.5c-7.519,2.074-9.858,11.859-9.858,11.859s15.144,4.937,20.106,8.8C2380.284,1821.407,2380.978,1818.648,2380.978,1818.648Z" transform="translate(-2350.751 -1782.895)" fill="url(#linear-gradient-49)"/>
      <path id="Path_22310" data-name="Path 22310" d="M2285.82,1748.67a1.275,1.275,0,0,0,.833-.995c2.174-13.086,11.313-15.17,11.4-15.189a1.277,1.277,0,0,0-.53-2.5c-.447.094-10.936,2.482-13.392,17.269a1.277,1.277,0,0,0,1.686,1.413Z" transform="translate(-2284.116 -1719.043)" fill="url(#linear-gradient-50)"/>
    </g>
    <g id="Group_11786" data-name="Group 11786" transform="translate(585.863 462.566)">
      <path id="Path_22311" data-name="Path 22311" d="M2284.087,674.271a17.072,17.072,0,0,1-.039,1.813c-.028.257-.032.511-.072.762-.079.5-.166,1-.291,1.493-.061.245-.121.489-.191.731-.049.159-.1.321-.149.48a19.081,19.081,0,0,1-7.173,9.392c-.074.052-.143.1-.217.153a23.54,23.54,0,0,1-3.768,2.135c-.082.037-.165.073-.25.11q-.885.39-1.816.716c-.263.092-.532.18-.8.263-.18.058-.361.113-.544.165-.272.08-.547.153-.826.223-.183.046-.37.092-.556.135a27.441,27.441,0,0,1-7.371.664c-.19-.009-.379-.018-.566-.031-.055,0-.11-.009-.162-.012-.015,0-.031,0-.046,0-.119-.009-.238-.015-.354-.028-.061-.006-.119-.009-.177-.015l-.388-.037c-.055-.006-.11-.015-.165-.021-.132-.012-.266-.027-.4-.046l-.144-.018c-.141-.018-.281-.037-.425-.058l-.107-.018c-.156-.021-.309-.046-.465-.073-.021,0-.042-.219-.061-.222-.174-.031-.348-.308-.52-.308h0a12.191,12.191,0,0,1-4.187-.949s0,.1.006.1c-.416-.153-.826-.265-1.229-.439-.358-.156-.71-.291-1.055-.459-.168.135-.364.289-.581.438a23.245,23.245,0,0,1-7.218-4.81,11.8,11.8,0,0,0,.661-.988,17.5,17.5,0,0,1-4.548-11.559c0-10.261,9.674-18.872,22.133-19.248.407-.012.7-.015,1.1-.009,12.209.156,22.464,8.261,22.839,18.708v.474C2283.965,674,2284.087,674.136,2284.087,674.271Z" transform="translate(-2236.228 -654.617)" fill="url(#linear-gradient-51)"/>
      <g id="Group_11785" data-name="Group 11785" transform="translate(0 0)">
        <path id="Path_22312" data-name="Path 22312" d="M2268.083,673.581c0,10.958-10.6,19.417-23.3,19.258-.294,0-.59-.012-.887-.024-.269-.012-.538-.028-.8-.049s-.544-.043-.814-.07c-.055-.006-.11-.009-.165-.018-.174-.018-.345-.037-.52-.061s-.34-.043-.51-.07c-.245-.034-.49-.073-.731-.116-.147-.028-.291-.052-.434-.079a26.348,26.348,0,0,1-4.184-1.168c-.41-.153-.81-.312-1.205-.483a23.26,23.26,0,0,1-7.218-4.817,17.782,17.782,0,0,1-5.547-12.622c0-10.261,9.674-18.873,22.133-19.249a27.145,27.145,0,0,1,2.872.061c10.13.732,18.575,6.943,20.758,15.259v0q.082.314.153.631c.015.068.029.137.043.205.035.168.07.337.1.507.044.25.084.5.117.753,0,0,0,.006,0,.012.012.095.024.193.034.287q.023.179.037.358c.012.131.025.266.031.4,0,.04.006.083.009.122q.014.229.018.459Q2268.083,673.324,2268.083,673.581Z" transform="translate(-2221.768 -653.997)" fill="url(#linear-gradient-52)"/>
        <path id="Path_22313" data-name="Path 22313" d="M2268.083,673.581c0,10.958-10.6,19.417-23.3,19.258-.294,0-.59-.012-.887-.024-.269-.012-.538-.028-.8-.049s-.544-.043-.814-.07c-.055-.006-.11-.009-.165-.018-.174-.018-.345-.037-.52-.061s-.34-.043-.51-.07c-.245-.034-.49-.073-.731-.116-.147-.028-.291-.052-.434-.079a26.348,26.348,0,0,1-4.184-1.168c-.41-.153-.81-.312-1.205-.483a23.26,23.26,0,0,1-7.218-4.817,17.782,17.782,0,0,1-5.547-12.622c0-10.261,9.674-18.873,22.133-19.249a27.145,27.145,0,0,1,2.872.061c10.13.732,18.575,6.943,20.758,15.259v0q.082.314.153.631c.015.068.029.137.043.205.035.168.07.337.1.507.044.25.084.5.117.753,0,0,0,.006,0,.012.012.095.024.193.034.287q.023.179.037.358c.012.131.025.266.031.4,0,.04.006.083.009.122q.014.229.018.459Q2268.083,673.324,2268.083,673.581Z" transform="translate(-2221.768 -653.997)" fill="url(#linear-gradient-52)"/>
        <g id="Group_11783" data-name="Group 11783" transform="translate(8.94 9.444)">
          <path id="Path_22314" data-name="Path 22314" d="M2309.058,750.47h0a6.616,6.616,0,0,1,6.041-4.621c3.651-.044,6.649,3.207,6.649,7.262a7.186,7.186,0,0,1,6.823-7.424,6.95,6.95,0,0,1,6.516,4.7h0c3.951,10.071-13.339,18.908-13.339,18.908S2305.533,759.938,2309.058,750.47Z" transform="translate(-2308.557 -745.686)" fill="#fff"/>
        </g>
        <g id="Group_11784" data-name="Group 11784" transform="translate(13.965 7.347)" opacity="0.3" style="mix-blend-mode: multiply;isolation: isolate">
          <path id="Path_22315" data-name="Path 22315" d="M2359.961,751.656c2.744-5.6-.03-10.969,3.686-14.609,3.831-3.752,8.893-.212,14.452-3.317,2.181-1.218,4.626-3.564,6.458-8.411a17.633,17.633,0,0,1,5.138,12.236c0,11.212-11.1,19.812-24.183,19.235a26.971,26.971,0,0,1-8.167-1.628A11.941,11.941,0,0,0,2359.961,751.656Z" transform="translate(-2357.346 -725.32)" fill="url(#linear-gradient-54)"/>
        </g>
      </g>
    </g>
    <g id="Group_11788" data-name="Group 11788" transform="translate(643.341 486.442)">
      <path id="Path_22316" data-name="Path 22316" d="M2829.6,902.574c0-9.61-8.865-17.112-19.422-16.769a19.486,19.486,0,0,0-14.51,6.907l0,0c-.02.025-.039.051-.059.076-.056.07-.111.141-.166.212-.1.129-.2.259-.3.391q-.085.117-.169.235-.139.2-.273.4c-.051.077-.1.153-.152.23q-.149.232-.289.469c-.034.057-.07.113-.1.17q-.186.32-.357.649c-.031.058-.058.117-.087.176-.083.164-.164.329-.241.5-.038.082-.074.164-.11.247q-.1.222-.189.446c-.035.087-.07.174-.1.262q-.088.23-.169.464c-.029.081-.058.162-.085.244q-.1.294-.181.592c-.011.042-.025.082-.037.124q-.1.36-.18.725c-.016.072-.029.144-.044.216-.036.175-.071.35-.1.526-.015.09-.029.18-.043.271q-.038.245-.067.492c-.011.093-.022.185-.031.278-.018.174-.031.349-.043.524-.005.081-.012.163-.016.244-.013.256-.021.513-.021.772,0,6.167,3.735,11.606,9.334,14.519q.772.4,1.592.739.409.168.831.319a20.619,20.619,0,0,0,6.373,1.194h0c.311.009.62.01.928.006.1,0,.207-.007.31-.01.2-.006.407-.012.61-.024.123-.007.246-.018.369-.027.18-.014.361-.027.54-.046.131-.013.261-.03.392-.046.17-.021.339-.042.507-.066.134-.02.267-.042.4-.064.163-.027.324-.055.486-.086.135-.026.269-.053.4-.081q.237-.05.471-.106.2-.047.4-.1c.154-.04.308-.082.461-.125.132-.037.263-.075.394-.114.048-.015.1-.027.145-.042l0,0C2824.3,916.185,2829.6,909.983,2829.6,902.574Z" transform="translate(-2790.788 -885.794)" fill="url(#linear-gradient-55)"/>
      <path id="Path_22317" data-name="Path 22317" d="M2817.144,902.96c0,9.585-8.819,17.1-19.324,16.791-10.114-.3-18.04-7.781-18.04-16.729s7.927-16.46,18.04-16.789C2808.324,885.891,2817.144,893.375,2817.144,902.96Z" transform="translate(-2779.779 -886.178)" fill="url(#linear-gradient-56)"/>
      <path id="Path_22318" data-name="Path 22318" d="M2860.827,948.244l-2.83,5.207-5.71.685a1.062,1.062,0,0,0-.66,1.742l3.856,4.289-1.315,5.9a1.037,1.037,0,0,0,1.426,1.213l5.373-2.578,5.214,3.165a1.069,1.069,0,0,0,1.609-1.077l-.8-6.155,4.517-4.114a1.07,1.07,0,0,0-.536-1.848l-5.93-1.034-2.376-5.368A1.024,1.024,0,0,0,2860.827,948.244Z" transform="translate(-2843.996 -941.311)" fill="#fff"/>
      <g id="Group_11787" data-name="Group 11787" transform="translate(0 6.941)" opacity="0.2" style="mix-blend-mode: multiply;isolation: isolate">
        <path id="Path_22319" data-name="Path 22319" d="M2802.388,975.643c-2.28-5.019.025-9.656-3.053-12.875s-7.057-.211-11.26-2.8c-1.608-.99-3.384-2.883-4.7-6.788a15.619,15.619,0,0,0-3.6,9.9c0,8.948,7.927,16.434,18.04,16.729a20.607,20.607,0,0,0,6.782-.928A11.543,11.543,0,0,1,2802.388,975.643Z" transform="translate(-2779.779 -953.182)" fill="url(#linear-gradient-57)"/>
      </g>
    </g>
    <g id="Group_11791" data-name="Group 11791" transform="translate(601.511 521.81)">
      <path id="Path_22320" data-name="Path 22320" d="M2434.549,1248.955a16.539,16.539,0,0,1-.039,1.771c-.027.251-.031.5-.07.744-.078.493-.162.98-.285,1.458-.06.239-.118.478-.187.714-.048.155-.095.314-.146.469a18.632,18.632,0,0,1-7.005,9.173c-.072.051-.14.1-.211.149a23.03,23.03,0,0,1-3.68,2.085l-.245.108q-.864.38-1.774.7c-.257.09-.52.176-.782.257-.176.057-.352.111-.531.161-.266.078-.535.149-.807.218-.179.045-.361.09-.544.131a26.8,26.8,0,0,1-7.2.648c-.186-.009-.371-.018-.553-.03-.054,0-.108-.009-.158-.012l-.045,0c-.116-.009-.233-.015-.346-.027l-.173-.015-.379-.036c-.054-.006-.108-.015-.162-.021-.128-.012-.26-.027-.388-.045l-.141-.018c-.137-.018-.275-.036-.415-.057l-.1-.018c-.152-.021-.3-.045-.454-.072-.021,0-.042-.214-.06-.217-.17-.03-.34-.3-.508-.3h0a11.907,11.907,0,0,1-4.089-.927s0,.1.006.1c-.406-.149-.807-.259-1.2-.429-.349-.152-.693-.285-1.031-.449-.164.131-.356.282-.568.428a22.706,22.706,0,0,1-7.049-4.7,11.473,11.473,0,0,0,.645-.965,17.1,17.1,0,0,1-4.442-11.289c0-10.021,9.448-18.432,21.617-18.8.4-.012.686-.014,1.078-.009,11.924.152,21.939,8.068,22.306,18.272v.463C2434.43,1248.695,2434.549,1248.823,2434.549,1248.955Z" transform="translate(-2387.807 -1229.759)" fill="url(#linear-gradient-58)"/>
      <path id="Path_22321" data-name="Path 22321" d="M2418.917,1248.281c0,10.7-10.353,18.964-22.751,18.809-.287,0-.577-.012-.866-.024-.263-.012-.526-.027-.786-.048s-.532-.042-.795-.069c-.054-.006-.107-.009-.161-.018-.17-.018-.337-.036-.507-.06s-.332-.042-.5-.069c-.239-.033-.478-.072-.714-.114-.143-.027-.284-.051-.424-.077a25.75,25.75,0,0,1-4.086-1.141c-.4-.149-.792-.3-1.177-.472a22.721,22.721,0,0,1-7.049-4.7,17.366,17.366,0,0,1-5.418-12.327c0-10.021,9.448-18.433,21.617-18.8a26.516,26.516,0,0,1,2.8.06c9.895.715,18.142,6.781,20.273,14.9v0q.081.307.15.616c.015.067.028.134.042.2.035.165.069.329.1.495.043.244.083.489.115.735,0,0,0,.006,0,.012.012.092.024.188.033.281.015.117.027.233.036.35s.024.26.03.388c0,.039.006.081.009.12.009.149.015.3.018.448Q2418.917,1248.03,2418.917,1248.281Z" transform="translate(-2373.683 -1229.154)" fill="url(#linear-gradient-52)"/>
      <path id="Path_22322" data-name="Path 22322" d="M2418.917,1248.281c0,10.7-10.353,18.964-22.751,18.809-.287,0-.577-.012-.866-.024-.263-.012-.526-.027-.786-.048s-.532-.042-.795-.069c-.054-.006-.107-.009-.161-.018-.17-.018-.337-.036-.507-.06s-.332-.042-.5-.069c-.239-.033-.478-.072-.714-.114-.143-.027-.284-.051-.424-.077a25.75,25.75,0,0,1-4.086-1.141c-.4-.149-.792-.3-1.177-.472a22.721,22.721,0,0,1-7.049-4.7,17.366,17.366,0,0,1-5.418-12.327c0-10.021,9.448-18.433,21.617-18.8a26.516,26.516,0,0,1,2.8.06c9.895.715,18.142,6.781,20.273,14.9v0q.081.307.15.616c.015.067.028.134.042.2.035.165.069.329.1.495.043.244.083.489.115.735,0,0,0,.006,0,.012.012.092.024.188.033.281.015.117.027.233.036.35s.024.26.03.388c0,.039.006.081.009.12.009.149.015.3.018.448Q2418.917,1248.03,2418.917,1248.281Z" transform="translate(-2373.683 -1229.154)" fill="url(#linear-gradient-60)"/>
      <g id="Group_11789" data-name="Group 11789" transform="translate(11.601 5.52)">
        <path id="Path_22323" data-name="Path 22323" d="M2546.349,1307.039c.044-8.77.325-15.155.6-15.923.058-.163.163-.374.3-.735,1.467-3.964.344-6.543,1.621-7.4a2.35,2.35,0,0,1,1.883-.066c2.877.69,4.758,4.732,4.118,7.807a5.67,5.67,0,0,1-.327,1.047c.2.007.353.011.507.019,1.29.061,2.588.043,3.865.2a5.077,5.077,0,0,1,4.417,5.11,29.757,29.757,0,0,1-.215,4.13,6.842,6.842,0,0,1-3.526,4.789,8.852,8.852,0,0,1-3.36,1.261,8.406,8.406,0,0,1-1.5.087C2551.7,1307.3,2547,1307.071,2546.349,1307.039Z" transform="translate(-2540.164 -1282.746)" fill="#fff"/>
        <path id="Path_22324" data-name="Path 22324" d="M2490.959,1365.932c-.191,5.21-.38,10.365-.57,15.556-1.11-.041-2.2-.052-3.292-.134a.946.946,0,0,1-.788-1.077c.026-1.009.067-2.017.1-3.026q.187-5.095.376-10.189c.034-.9.417-1.263,1.309-1.234C2489.044,1365.86,2489.989,1365.9,2490.959,1365.932Z" transform="translate(-2486.309 -1357.269)" fill="#fff"/>
      </g>
      <g id="Group_11790" data-name="Group 11790" transform="translate(13.639 7.175)" opacity="0.3" style="mix-blend-mode: multiply;isolation: isolate">
        <path id="Path_22325" data-name="Path 22325" d="M2508.652,1324.535c2.68-5.473-.029-10.713,3.6-14.268,3.741-3.664,8.686-.207,14.114-3.24,2.13-1.189,4.519-3.481,6.308-8.215a17.221,17.221,0,0,1,5.018,11.95c0,10.95-10.839,19.349-23.618,18.786a26.335,26.335,0,0,1-7.977-1.59A11.669,11.669,0,0,0,2508.652,1324.535Z" transform="translate(-2506.098 -1298.813)" fill="url(#linear-gradient-61)"/>
      </g>
    </g>
    <g id="Group_11794" data-name="Group 11794" transform="translate(642.814 453.344)">
      <path id="Path_22326" data-name="Path 22326" d="M2802.729,564.476c6.956.214,12.8,4.46,13.936,9.836,0,.007,0,.014,0,.021q.092.441.142.892l.007.059q.022.211.033.423c0,.026,0,.051,0,.077.007.145.011.29.011.436,0,6.247-6.376,10.982-14.138,10.58-.206-.011-.411-.026-.616-.043l-.06,0q-.289-.026-.576-.062l-.089-.011q-.278-.036-.551-.08l-.1-.017q-.269-.045-.534-.1l-.107-.022q-.264-.054-.524-.116l-.1-.025q-.258-.063-.513-.133l-.091-.026q-.229-.065-.454-.136l-.115-.036c-.152-.049-.3-.1-.453-.154l-.1-.033h0c-5.16-1.861-8.787-6.05-8.787-10.734C2788.959,568.986,2795.08,564.241,2802.729,564.476Z" transform="translate(-2787.486 -564.468)" fill="url(#linear-gradient-62)"/>
      <path id="Path_22327" data-name="Path 22327" d="M2774.662,575.071c0,6.085,6.121,11.335,13.77,11.731,7.762.4,14.138-4.333,14.138-10.58s-6.376-11.507-14.138-11.746C2780.783,564.241,2774.662,568.986,2774.662,575.071Z" transform="translate(-2774.662 -564.468)" fill="url(#linear-gradient-63)"/>
      <g id="Group_11792" data-name="Group 11792" transform="translate(7.238 3.586)">
        <path id="Path_22328" data-name="Path 22328" d="M2870.827,603.1a3.731,3.731,0,0,1-3.815,3.785,3.8,3.8,0,1,1,3.815-3.785Z" transform="translate(-2861.501 -599.282)" fill="#fff"/>
        <path id="Path_22329" data-name="Path 22329" d="M2844.935,688.932c0-2.447,2.41-4.655,5.511-4.527,3.252.134,6.008,2.764,6.008,5.432Z" transform="translate(-2844.935 -675.632)" fill="#fff"/>
      </g>
      <g id="Group_11793" data-name="Group 11793" transform="translate(8.786 4.789)" opacity="0.2" style="mix-blend-mode: multiply;isolation: isolate">
        <path id="Path_22330" data-name="Path 22330" d="M2861.565,625.5c1.675-3.209-.018-6.359,2.248-8.389,2.312-2.072,5.331.066,8.6-1.575a8.011,8.011,0,0,0,3.738-4.571,10.217,10.217,0,0,1,2.929,6.965c0,6.247-6.376,10.982-14.138,10.58a17.365,17.365,0,0,1-4.984-1A6.846,6.846,0,0,0,2861.565,625.5Z" transform="translate(-2859.957 -610.965)" fill="url(#linear-gradient-64)"/>
      </g>
    </g>
  </g>
</svg>
