<svg xmlns="http://www.w3.org/2000/svg" xmlns:xlink="http://www.w3.org/1999/xlink" width="307.394" height="312.865" viewBox="0 0 307.394 312.865">
  <defs>
    <linearGradient id="linear-gradient" x1="0.294" y1="0.988" x2="0.959" y2="-0.074" gradientUnits="objectBoundingBox">
      <stop offset="0.004" stop-color="#e38ddd"/>
      <stop offset="1" stop-color="#9571f6"/>
    </linearGradient>
    <linearGradient id="linear-gradient-2" y1="0.5" x2="1" y2="0.5" gradientUnits="objectBoundingBox">
      <stop offset="0" stop-color="#ff9085"/>
      <stop offset="1" stop-color="#fb6fbb"/>
    </linearGradient>
    <clipPath id="clip-path">
      <path id="Path_8573" data-name="Path 8573" d="M2134.813,644.088c-3.586-2.967-9.025-4.583-13.623-4.908-32.594-2.309-37.349,65.818-32.354,81.043s1.759,20.225-23.91,28.19-13.355,23.3-10.226,32.272,9.324,16.546-9.388,25.458-12.21,14.434-12.21,14.434,34.509,35.3,32.6,24,1.547-28.366,32.487-29.662c13.327-.558,33.735-6.916,38.254-21.185,1.052-3.323,1.784-8.4.984-11.838-1.11-4.771-4.242-8.53-5.98-13.021-4.052-10.464,6.111-18.127,11.959-25.121a77.828,77.828,0,0,0,8.443-11.56c4.855-8.643,3.037-17.913-2.249-25.881-2.535-3.821-6.058-7.875-7.163-12.432-1.188-4.9-.153-11.584.129-16.62a105.808,105.808,0,0,0,.376-11.844C2142.532,658.045,2140.807,649.047,2134.813,644.088Z" transform="translate(-2032.008 -639.122)" fill="url(#linear-gradient)"/>
    </clipPath>
    <clipPath id="clip-path-2">
      <path id="Path_8580" data-name="Path 8580" d="M1969.585,1493.779c-2.37-4.005-6.942-7.366-11.158-9.228-29.889-13.2-57.417,49.3-57.869,65.315s-5.189,19.627-32.039,18.437-20.452,17.409-20.542,26.908,3.175,18.725-17.449,20.78-16.373,9.451-16.373,9.451,20.529,44.894,22.56,33.614,11.054-26.169,40.608-16.919c12.729,3.984,34.085,4.907,43.166-6.992,2.115-2.771,4.521-7.3,4.931-10.806.569-4.865-1.1-9.463-1.222-14.276-.272-11.218,11.884-14.99,19.754-19.593a77.829,77.829,0,0,0,11.857-8.021c7.493-6.491,8.92-15.829,6.642-25.115-1.093-4.453-3.036-9.46-2.534-14.123.539-5.008,3.776-10.952,5.746-15.6a105.643,105.643,0,0,0,4.361-11.018C1972.126,1509.525,1973.548,1500.474,1969.585,1493.779Z" transform="translate(-1813.792 -1482.733)" fill="url(#linear-gradient-2)"/>
    </clipPath>
    <linearGradient id="linear-gradient-5" x1="-0.084" y1="0.477" x2="-0.366" y2="0.496" gradientUnits="objectBoundingBox">
      <stop offset="0" stop-color="#444b8c"/>
      <stop offset="0.996" stop-color="#26264f"/>
    </linearGradient>
    <linearGradient id="linear-gradient-6" x1="0.197" y1="0.034" x2="-0.498" y2="1.514" xlink:href="#linear-gradient-5"/>
    <linearGradient id="linear-gradient-7" x1="-22.271" y1="-1.493" x2="-51.489" y2="78.648" gradientUnits="objectBoundingBox">
      <stop offset="0" stop-color="#ffc444"/>
      <stop offset="0.996" stop-color="#f36f56"/>
    </linearGradient>
    <linearGradient id="linear-gradient-8" x1="10.206" y1="10.271" x2="9.137" y2="11.34" gradientUnits="objectBoundingBox">
      <stop offset="0" stop-color="#311944"/>
      <stop offset="1" stop-color="#893976"/>
    </linearGradient>
    <linearGradient id="linear-gradient-9" x1="0.165" y1="0.812" x2="1.048" y2="-0.012" xlink:href="#linear-gradient-2"/>
    <linearGradient id="linear-gradient-10" x1="-47.876" y1="0.03" x2="-44.561" y2="1.813" xlink:href="#linear-gradient-7"/>
    <linearGradient id="linear-gradient-11" x1="-12.57" y1="-0.747" x2="-12.581" y2="-7.554" gradientUnits="objectBoundingBox">
      <stop offset="0" stop-color="#aa80f9"/>
      <stop offset="0.996" stop-color="#6165d7"/>
    </linearGradient>
    <linearGradient id="linear-gradient-12" x1="-145.481" y1="8.275" x2="-145.419" y2="3.978" xlink:href="#linear-gradient-7"/>
    <linearGradient id="linear-gradient-13" x1="-9.06" y1="-1.686" x2="-9.071" y2="-8.493" xlink:href="#linear-gradient-11"/>
    <linearGradient id="linear-gradient-14" x1="-133.551" y1="7.209" x2="-133.489" y2="2.913" xlink:href="#linear-gradient-7"/>
    <linearGradient id="linear-gradient-15" x1="-6.282" y1="0.162" x2="-5.66" y2="0.831" xlink:href="#linear-gradient-8"/>
    <linearGradient id="linear-gradient-16" x1="-26.868" y1="0.746" x2="-25.838" y2="0.746" xlink:href="#linear-gradient-8"/>
    <linearGradient id="linear-gradient-17" x1="-19.662" y1="0.727" x2="-18.453" y2="0.727" xlink:href="#linear-gradient-8"/>
    <linearGradient id="linear-gradient-18" x1="-3.596" y1="0.282" x2="-3.111" y2="3.745" xlink:href="#linear-gradient-11"/>
    <linearGradient id="linear-gradient-19" x1="-8.053" y1="2.459" x2="-7.655" y2="4.281" xlink:href="#linear-gradient-11"/>
    <linearGradient id="linear-gradient-20" x1="-8.249" y1="1.943" x2="-9.577" y2="0.482" xlink:href="#linear-gradient-11"/>
    <linearGradient id="linear-gradient-21" x1="-6.207" y1="-2.638" x2="-7.363" y2="1.127" xlink:href="#linear-gradient-7"/>
    <linearGradient id="linear-gradient-22" x1="-13.363" y1="2.885" x2="-12.639" y2="5.094" xlink:href="#linear-gradient-11"/>
    <linearGradient id="linear-gradient-23" x1="-32.364" y1="30.789" x2="-32.364" y2="29.393" xlink:href="#linear-gradient-7"/>
    <linearGradient id="linear-gradient-24" x1="-44.72" y1="3.637" x2="-45.438" y2="2.051" gradientUnits="objectBoundingBox">
      <stop offset="0" stop-color="#444b8c"/>
      <stop offset="0.996" stop-color="#3e4177"/>
    </linearGradient>
    <linearGradient id="linear-gradient-25" x1="-84.021" y1="57.263" x2="-82.893" y2="54.886" xlink:href="#linear-gradient-7"/>
    <linearGradient id="linear-gradient-26" x1="0" y1="0.5" x2="1" y2="0.5" xlink:href="#linear-gradient-8"/>
    <linearGradient id="linear-gradient-27" x1="0.618" y1="2.099" x2="0.497" y2="0.43" gradientUnits="objectBoundingBox">
      <stop offset="0.004" stop-color="#f36f56"/>
      <stop offset="1" stop-color="#ffc444"/>
    </linearGradient>
    <linearGradient id="linear-gradient-28" x1="0" y1="0.5" x2="1" y2="0.5" xlink:href="#linear-gradient-27"/>
    <linearGradient id="linear-gradient-30" x1="0.583" y1="-0.668" x2="0.196" y2="4.766" xlink:href="#linear-gradient-27"/>
    <linearGradient id="linear-gradient-31" x1="0.435" y1="-1.462" x2="0.566" y2="2.496" xlink:href="#linear-gradient-27"/>
  </defs>
  <g id="Group_498" data-name="Group 498" transform="translate(-479.482 -455)">
    <path id="Path_8566" data-name="Path 8566" d="M782.34,576.146c-3.386-41.743-5.079-62.614-12.958-76.118-22.561-38.665-88.155-47.86-129.583-44.335-55.462,4.72-118.91,36.6-146.839,98.161-25.367,55.913-13.67,119.2,24.552,160.6C587.579,790.351,732.112,776.8,767.418,727c14.09-19.875,15.106-51.619,16.6-98.25A444.431,444.431,0,0,0,782.34,576.146Z" transform="translate(0 0)" fill="#f4f7fa"/>
    <g id="Group_481" data-name="Group 481" transform="translate(628.575 475.573)">
      <g id="Group_471" data-name="Group 471" transform="translate(24.383 0)">
        <g id="Group_470" data-name="Group 470">
          <path id="Path_8567" data-name="Path 8567" d="M2134.813,644.088c-3.586-2.967-9.025-4.583-13.623-4.908-32.594-2.309-37.349,65.818-32.354,81.043s1.759,20.225-23.91,28.19-13.355,23.3-10.226,32.272,9.324,16.546-9.388,25.458-12.21,14.434-12.21,14.434,34.509,35.3,32.6,24,1.547-28.366,32.487-29.662c13.327-.558,33.735-6.916,38.254-21.185,1.052-3.323,1.784-8.4.984-11.838-1.11-4.771-4.242-8.53-5.98-13.021-4.052-10.464,6.111-18.127,11.959-25.121a77.828,77.828,0,0,0,8.443-11.56c4.855-8.643,3.037-17.913-2.249-25.881-2.535-3.821-6.058-7.875-7.163-12.432-1.188-4.9-.153-11.584.129-16.62a105.808,105.808,0,0,0,.376-11.844C2142.532,658.045,2140.807,649.047,2134.813,644.088Z" transform="translate(-2032.008 -639.122)" fill="url(#linear-gradient)"/>
          <g id="Group_469" data-name="Group 469" clip-path="url(#clip-path)">
            <g id="Group_468" data-name="Group 468" transform="translate(-2.265 -8.478)" opacity="0.8" style="mix-blend-mode: soft-light;isolation: isolate">
              <g id="Group_463" data-name="Group 463">
                <path id="Path_8568" data-name="Path 8568" d="M2012.383,773a.482.482,0,0,1-.386-.881,232.545,232.545,0,0,0,30.88-20.3c14.933-11.6,34.388-29.883,42.264-51.141,6.579-17.755,12.579-47.105,16.461-80.526,3.481-29.969,4.031-52.133,2.552-56.248a.482.482,0,1,1,.907-.326c1.73,4.813.632,29.712-2.5,56.685-3.891,33.494-9.91,62.926-16.514,80.749-7.958,21.476-27.553,39.9-42.591,51.578a233.493,233.493,0,0,1-31.011,20.386A.466.466,0,0,1,2012.383,773Z" transform="translate(-2011.738 -563.251)" fill="#fff"/>
              </g>
              <g id="Group_464" data-name="Group 464" transform="translate(61.005 21.177)">
                <path id="Path_8569" data-name="Path 8569" d="M2586.512,794.3a.432.432,0,0,1-.594-.229c-.121-.329-12.271-33.019-27.939-40.4a.463.463,0,0,1-.225-.627.481.481,0,0,1,.644-.223c16.027,7.549,27.925,39.552,28.424,40.913a.434.434,0,0,1-.306.563Z" transform="translate(-2557.707 -752.778)" fill="#fff"/>
              </g>
              <g id="Group_465" data-name="Group 465" transform="translate(83.241 77.581)">
                <path id="Path_8570" data-name="Path 8570" d="M2757.353,1280.6a.482.482,0,0,1-.469-.825,152.818,152.818,0,0,1,20.073-13.57c14.914-8.32,26.343-10.643,33.97-6.9a.482.482,0,1,1-.424.865c-17.55-8.6-52.654,20.061-53.006,20.351A.481.481,0,0,1,2757.353,1280.6Z" transform="translate(-2756.708 -1257.567)" fill="#fff"/>
              </g>
              <g id="Group_466" data-name="Group 466" transform="translate(21.344 113.34)">
                <path id="Path_8571" data-name="Path 8571" d="M2226.354,1642.348a.483.483,0,0,1-.646-.446,183.745,183.745,0,0,0-3.186-28.943c-2.692-13.549-8.25-30.521-19.441-34.432a.482.482,0,1,1,.318-.91c9.332,3.261,16.085,15.093,20.071,35.167a184.784,184.784,0,0,1,3.2,29.1A.483.483,0,0,1,2226.354,1642.348Z" transform="translate(-2202.759 -1577.59)" fill="#fff"/>
              </g>
              <g id="Group_467" data-name="Group 467" transform="translate(64.209 128.934)">
                <path id="Path_8572" data-name="Path 8572" d="M2587.021,1743.656a.482.482,0,0,1-.449-.841c1.552-1.147,38.162-28.062,52.438-25.491a.482.482,0,1,1-.171.949c-13.873-2.5-51.318,25.039-51.695,25.318A.491.491,0,0,1,2587.021,1743.656Z" transform="translate(-2586.376 -1717.15)" fill="#fff"/>
              </g>
            </g>
          </g>
        </g>
      </g>
      <g id="Group_480" data-name="Group 480" transform="translate(0 94.263)">
        <g id="Group_479" data-name="Group 479">
          <path id="Path_8574" data-name="Path 8574" d="M1969.585,1493.779c-2.37-4.005-6.942-7.366-11.158-9.228-29.889-13.2-57.417,49.3-57.869,65.315s-5.189,19.627-32.039,18.437-20.452,17.409-20.542,26.908,3.175,18.725-17.449,20.78-16.373,9.451-16.373,9.451,20.529,44.894,22.56,33.614,11.054-26.169,40.608-16.919c12.729,3.984,34.085,4.907,43.166-6.992,2.115-2.771,4.521-7.3,4.931-10.806.569-4.865-1.1-9.463-1.222-14.276-.272-11.218,11.884-14.99,19.754-19.593a77.829,77.829,0,0,0,11.857-8.021c7.493-6.491,8.92-15.829,6.642-25.115-1.093-4.453-3.036-9.46-2.534-14.123.539-5.008,3.776-10.952,5.746-15.6a105.643,105.643,0,0,0,4.361-11.018C1972.126,1509.525,1973.548,1500.474,1969.585,1493.779Z" transform="translate(-1813.792 -1482.733)" fill="url(#linear-gradient-2)"/>
          <g id="Group_478" data-name="Group 478" clip-path="url(#clip-path-2)">
            <g id="Group_477" data-name="Group 477" transform="translate(-9.377 -5.761)" opacity="0.8" style="mix-blend-mode: soft-light;isolation: isolate">
              <g id="Group_472" data-name="Group 472">
                <path id="Path_8575" data-name="Path 8575" d="M1730.358,1597.37a.482.482,0,0,1-.065-.959,232.552,232.552,0,0,0,35.929-8.657c17.976-5.86,42.471-16.485,57.076-33.823,12.2-14.481,27.776-40.07,42.738-70.206,13.417-27.023,21.434-47.694,21.434-52.067a.482.482,0,1,1,.964,0c0,5.115-9.459,28.174-21.534,52.5-14.995,30.2-30.618,55.861-42.864,70.4-14.755,17.516-39.43,28.225-57.531,34.124a233.512,233.512,0,0,1-36.08,8.69A.47.47,0,0,1,1730.358,1597.37Z" transform="translate(-1729.876 -1431.176)" fill="#fff"/>
              </g>
              <g id="Group_473" data-name="Group 473" transform="translate(120.899 9.317)">
                <path id="Path_8576" data-name="Path 8576" d="M2825.112,1563.339a.471.471,0,0,1-.482-.466c0-.351-.374-35.248-12.621-47.495a.48.48,0,1,1,.681-.677c12.527,12.527,12.894,46.714,12.9,48.164a.471.471,0,0,1-.479.473Z" transform="translate(-2811.868 -1514.56)" fill="#fff"/>
              </g>
              <g id="Group_474" data-name="Group 474" transform="translate(115.258 83.45)">
                <path id="Path_8577" data-name="Path 8577" d="M2761.867,2186.229a.482.482,0,0,1-.162-.936,152.728,152.728,0,0,1,23.48-5.977c16.849-2.783,28.39-1.1,34.3,5a.482.482,0,1,1-.692.671c-13.6-14.035-56.336,1.06-56.766,1.215A.478.478,0,0,1,2761.867,2186.229Z" transform="translate(-2761.385 -2178.014)" fill="#fff"/>
              </g>
              <g id="Group_475" data-name="Group 475" transform="translate(52.389 82.615)">
                <path id="Path_8578" data-name="Path 8578" d="M2199.218,2239.329a.482.482,0,0,1-.456-.638,183.851,183.851,0,0,0,6.8-28.314c2.052-13.661,2.565-31.512-6.643-38.979a.482.482,0,1,1,.606-.749c7.678,6.226,10.029,19.645,6.988,39.884a184.858,184.858,0,0,1-6.835,28.47A.483.483,0,0,1,2199.218,2239.329Z" transform="translate(-2198.736 -2170.541)" fill="#fff"/>
              </g>
              <g id="Group_476" data-name="Group 476" transform="translate(78.796 127.431)">
                <path id="Path_8579" data-name="Path 8579" d="M2435.55,2581.011a.482.482,0,0,1-.138-.944c1.847-.554,45.405-13.493,57.97-6.244a.482.482,0,0,1-.482.835c-12.209-7.044-56.763,6.2-57.212,6.332A.478.478,0,0,1,2435.55,2581.011Z" transform="translate(-2435.068 -2571.624)" fill="#fff"/>
              </g>
            </g>
          </g>
        </g>
      </g>
    </g>
    <g id="Group_484" data-name="Group 484" transform="translate(584.441 465.303)">
      <g id="Group_482" data-name="Group 482" transform="translate(76.973 1.92)">
        <path id="Path_8581" data-name="Path 8581" d="M2130.453,565.46l-.344,2.465a19.371,19.371,0,0,0-3.361.445l-.932-2.3a1.222,1.222,0,0,0-1.6-.665l-3.952,1.628a1.246,1.246,0,0,0-.688,1.611l.937,2.329a19.94,19.94,0,0,0-2.7,2.065l-1.988-1.54a1.242,1.242,0,0,0-1.737.229l-2.655,3.4a1.237,1.237,0,0,0,.2,1.741l1.992,1.549a19.888,19.888,0,0,0-1.336,3.147l-2.529-.332a1.271,1.271,0,0,0-1.413,1.076l-.635,4.284a1.225,1.225,0,0,0,1.048,1.405l2.536.333a19.65,19.65,0,0,0,.382,3.4l-2.38.992a1.286,1.286,0,0,0-.7,1.649l1.586,4.029a1.227,1.227,0,0,0,1.625.682l2.381-1a19.524,19.524,0,0,0,2.039,2.746l-1.586,2.06a1.277,1.277,0,0,0,.206,1.782l3.4,2.668a1.248,1.248,0,0,0,1.763-.24l1.568-2.047a19.147,19.147,0,0,0,3.166,1.331l-.357,2.554a1.254,1.254,0,0,0,1.067,1.43l4.294.563a1.275,1.275,0,0,0,1.417-1.1l.346-2.535a19.342,19.342,0,0,0,3.432-.452l.942,2.342a1.237,1.237,0,0,0,1.634.686l4-1.7a1.288,1.288,0,0,0,.683-1.665l-.943-2.325a19.94,19.94,0,0,0,2.753-2.14l1.957,1.522a1.238,1.238,0,0,0,1.752-.239l2.623-3.477a1.275,1.275,0,0,0-.231-1.771l-1.94-1.5a19.854,19.854,0,0,0,1.316-3.234l2.426.318a1.246,1.246,0,0,0,1.393-1.085l.55-4.3a1.25,1.25,0,0,0-1.071-1.4l-2.418-.317a19.605,19.605,0,0,0-.446-3.436l2.243-.939a1.248,1.248,0,0,0,.666-1.627l-1.638-3.96a1.233,1.233,0,0,0-1.613-.669l-2.256.94a19.561,19.561,0,0,0-2.081-2.715l1.49-1.945a1.235,1.235,0,0,0-.226-1.731l-3.369-2.589a1.232,1.232,0,0,0-1.727.228l-1.5,1.948a19.1,19.1,0,0,0-3.14-1.286l.335-2.446a1.221,1.221,0,0,0-1.052-1.378l-4.21-.552A1.242,1.242,0,0,0,2130.453,565.46Zm-14.841,19.967a15.588,15.588,0,0,1,17.361-13.3,15.329,15.329,0,0,1,13.131,17.3,15.58,15.58,0,0,1-17.384,13.469A15.324,15.324,0,0,1,2115.612,585.427Z" transform="translate(-2107.692 -564.391)" fill="#d8dee8"/>
      </g>
      <g id="Group_483" data-name="Group 483" transform="translate(0 0)">
        <path id="Path_8582" data-name="Path 8582" d="M1454.007,548.864l-.532,3.811a29.911,29.911,0,0,0-5.2.689l-1.44-3.555a1.89,1.89,0,0,0-2.479-1.028l-6.111,2.518a1.926,1.926,0,0,0-1.063,2.49l1.448,3.6a30.849,30.849,0,0,0-4.182,3.193l-3.072-2.381a1.921,1.921,0,0,0-2.686.355l-4.105,5.252a1.913,1.913,0,0,0,.311,2.692l3.081,2.4a30.7,30.7,0,0,0-2.066,4.866l-3.91-.513a1.965,1.965,0,0,0-2.184,1.664l-.983,6.624a1.894,1.894,0,0,0,1.621,2.173l3.921.514a30.393,30.393,0,0,0,.59,5.26l-3.68,1.534a1.988,1.988,0,0,0-1.088,2.549l2.451,6.229a1.9,1.9,0,0,0,2.512,1.054l3.682-1.542a30.206,30.206,0,0,0,3.153,4.246l-2.453,3.186a1.974,1.974,0,0,0,.318,2.755l5.26,4.126a1.929,1.929,0,0,0,2.725-.371l2.424-3.164a29.606,29.606,0,0,0,4.9,2.058l-.552,3.95a1.939,1.939,0,0,0,1.649,2.21l6.64.871a1.972,1.972,0,0,0,2.19-1.707l.536-3.92a29.9,29.9,0,0,0,5.306-.7l1.456,3.621a1.913,1.913,0,0,0,2.527,1.06l6.192-2.624a1.99,1.99,0,0,0,1.055-2.575l-1.457-3.6a30.859,30.859,0,0,0,4.256-3.309l3.026,2.353a1.913,1.913,0,0,0,2.708-.369l4.056-5.376a1.971,1.971,0,0,0-.358-2.739l-3-2.325a30.705,30.705,0,0,0,2.035-5l3.75.492a1.927,1.927,0,0,0,2.153-1.678l.851-6.642a1.932,1.932,0,0,0-1.655-2.168l-3.739-.49a30.385,30.385,0,0,0-.689-5.312l3.468-1.452a1.928,1.928,0,0,0,1.031-2.516l-2.533-6.123a1.906,1.906,0,0,0-2.494-1.034l-3.487,1.454a30.224,30.224,0,0,0-3.218-4.2l2.3-3.008a1.91,1.91,0,0,0-.349-2.676l-5.209-4a1.905,1.905,0,0,0-2.669.353l-2.319,3.012a29.579,29.579,0,0,0-4.856-1.987l.517-3.782a1.888,1.888,0,0,0-1.627-2.131l-6.508-.854A1.92,1.92,0,0,0,1454.007,548.864Zm-22.945,30.872a24.1,24.1,0,0,1,26.842-20.566,23.7,23.7,0,0,1,20.3,26.75,24.09,24.09,0,0,1-26.878,20.826A23.693,23.693,0,0,1,1431.062,579.736Z" transform="translate(-1418.815 -547.211)" fill="#d8dee8"/>
      </g>
    </g>
    <g id="Group_486" data-name="Group 486" transform="translate(579.398 494.803)">
      <path id="Path_8583" data-name="Path 8583" d="M1451.358,820.426l-28.466,236.608a6.234,6.234,0,0,0,5.443,7.068l118.567,13.017c7.264.452,11.24-3.259,11.688-7.031l29.886-251.554c.446-3.751-3.118-7.149-10.412-7.149l-119.646,2.52A7.542,7.542,0,0,0,1451.358,820.426Z" transform="translate(-1417.35 -811.365)" fill="url(#linear-gradient-5)"/>
      <path id="Path_8584" data-name="Path 8584" d="M1402.356,819.87l-28.623,237.792a6.264,6.264,0,0,0,5.462,7.1L1502.115,1077a7.186,7.186,0,0,0,7.836-6.2l30.054-252.854a5.964,5.964,0,0,0-6.278-6.736l-124.283,2.1A7.577,7.577,0,0,0,1402.356,819.87Z" transform="translate(-1373.684 -811.218)" fill="url(#linear-gradient-6)"/>
      <path id="Path_8585" data-name="Path 8585" d="M1439.9,947.742l-26.53,220.48a5.841,5.841,0,0,0,5.115,6.625l115.6,11.237a6.7,6.7,0,0,0,7.285-5.783l27.775-233.579a5.588,5.588,0,0,0-5.829-6.314l-116.789,1.244A7.03,7.03,0,0,0,1439.9,947.742Z" transform="translate(-1408.892 -925.973)" fill="#d8dee8"/>
      <path id="Path_8586" data-name="Path 8586" d="M2205.826,868.7a1.967,1.967,0,0,0,2.031,2.263,2.71,2.71,0,0,0,2.584-2.326,1.967,1.967,0,0,0-2.035-2.263A2.711,2.711,0,0,0,2205.826,868.7Z" transform="translate(-2112.829 -860.215)" fill="url(#linear-gradient-7)"/>
      <g id="Group_485" data-name="Group 485" transform="translate(31.765)" style="mix-blend-mode: soft-light;isolation: isolate">
        <path id="Path_8587" data-name="Path 8587" d="M1677.194,980.987c23.666-43.756,59.02-56.853,69.665-101.948,5.753-24.376,1.833-47.707-4.769-67.075l44.157-.745a5.964,5.964,0,0,1,6.278,6.736l-30.054,252.854a7.186,7.186,0,0,1-7.836,6.2l-96.627-9.62C1657.293,1028.178,1666.645,1000.491,1677.194,980.987Z" transform="translate(-1657.969 -811.218)" fill="#fff"/>
      </g>
    </g>
    <g id="Group_491" data-name="Group 491" transform="translate(491.368 484.603)">
      <g id="Group_487" data-name="Group 487" transform="translate(0 1.854)">
        <path id="Path_8588" data-name="Path 8588" d="M585.856,778.616c0-23.25,20.281-42.1,44.62-42.092,23.619,0,42.26,17.856,42.26,39.876s-18.641,40.824-42.26,42.032C606.137,819.676,585.856,801.866,585.856,778.616Z" transform="translate(-585.856 -736.524)" fill="url(#linear-gradient-8)"/>
      </g>
      <g id="Group_488" data-name="Group 488" transform="translate(2.624 0)">
        <path id="Path_8589" data-name="Path 8589" d="M609.337,762.022c0-23.25,19.695-42.1,43.329-42.092,22.936,0,41.037,17.856,41.037,39.876s-18.1,40.824-41.037,42.032C629.032,803.083,609.337,785.272,609.337,762.022Z" transform="translate(-609.337 -719.93)" fill="url(#linear-gradient-9)"/>
      </g>
      <g id="Group_489" data-name="Group 489" transform="translate(9.366 6.551)" opacity="0.5" style="mix-blend-mode: soft-light;isolation: isolate">
        <path id="Path_8590" data-name="Path 8590" d="M669.681,813.924c0-19.534,16.546-35.367,36.4-35.364,19.269,0,34.477,15,34.477,33.5s-15.208,34.3-34.477,35.314C686.227,848.421,669.681,833.458,669.681,813.924Z" transform="translate(-669.681 -778.56)" fill="#fff"/>
      </g>
      <path id="Path_8591" data-name="Path 8591" d="M724.173,781.56c19.27,0,34.477,15,34.477,33.5a33.837,33.837,0,0,1-2.439,12.573,34.018,34.018,0,0,0,3.806-15.574c0-18.5-15.208-33.5-34.477-33.5a36.6,36.6,0,0,0-33.956,22.69A36.707,36.707,0,0,1,724.173,781.56Z" transform="translate(-679.77 -772.007)" fill="#fff" opacity="0.5" style="mix-blend-mode: soft-light;isolation: isolate"/>
      <g id="Group_490" data-name="Group 490" transform="translate(29.306 19.099)">
        <path id="Path_8592" data-name="Path 8592" d="M848.127,1048.006v17.049a8.815,8.815,0,0,0,9.247,8.684l12.646-.33a9.258,9.258,0,0,0,9.11-9.069v-16.869Zm11.646,17.625,2.35-7.121a3.074,3.074,0,0,1-1.689-2.735,3.3,3.3,0,0,1,3.276-3.231,3.144,3.144,0,0,1,3.268,3.1,3.225,3.225,0,0,1-1.683,2.8l2.341,7Z" transform="translate(-848.127 -1029.972)" fill="#fff"/>
        <path id="Path_8593" data-name="Path 8593" d="M885.016,906.881a2.348,2.348,0,0,1-2.43-2.319,9.109,9.109,0,0,0-9.395-8.967,9.466,9.466,0,0,0-9.456,9.268,2.471,2.471,0,0,1-2.465,2.416,2.377,2.377,0,0,1-2.47-2.338,14.383,14.383,0,0,1,14.39-14.082,13.84,13.84,0,0,1,14.25,13.625A2.44,2.44,0,0,1,885.016,906.881Z" transform="translate(-857.608 -890.859)" fill="#fff"/>
      </g>
    </g>
    <g id="Group_493" data-name="Group 493" transform="translate(488.204 588.103)">
      <path id="Path_8594" data-name="Path 8594" d="M1351.8,1846.421s-.86-3.225-.251-4.049,4.336-4.12,3.978-3.045a6.908,6.908,0,0,1-.9,1.792s2.007.931.717,2.329-1.721,1.72-1.792,2.974S1352.656,1848.105,1351.8,1846.421Z" transform="translate(-1262.63 -1817.559)" fill="url(#linear-gradient-10)"/>
      <path id="Path_8595" data-name="Path 8595" d="M1031.965,3150.29a28.741,28.741,0,0,0-.4,3.781c.058.993,11.073,1.5,11.184.756s-1.821-1.925-3.18-2.343-5.34-1.531-5.34-1.531Z" transform="translate(-978.596 -2982.229)" fill="url(#linear-gradient-11)"/>
      <path id="Path_8596" data-name="Path 8596" d="M1032.683,3124.5l-.351,3.468a2.506,2.506,0,0,1-2.407.193l-.564-3.775Z" transform="translate(-976.64 -2959.219)" fill="url(#linear-gradient-12)"/>
      <path id="Path_8597" data-name="Path 8597" d="M856.081,3190.754a28.722,28.722,0,0,0-.4,3.781c.058.992,11.073,1.5,11.184.757s-1.821-1.927-3.181-2.344-5.34-1.531-5.34-1.531Z" transform="translate(-822.365 -3018.17)" fill="url(#linear-gradient-13)"/>
      <path id="Path_8598" data-name="Path 8598" d="M856.8,3164.963l-.351,3.468a2.5,2.5,0,0,1-2.407.193l-.564-3.775Z" transform="translate(-820.411 -2995.161)" fill="url(#linear-gradient-14)"/>
      <path id="Path_8599" data-name="Path 8599" d="M925.815,2303.41l3.82,7.743c1.024,14.731,1.533,30.749,1.206,47.879-.243,12.745-.924,24.818-1.9,36.151l-5.179-.238a51.656,51.656,0,0,1-5.714-21.725c-.283-9.664,2.647-10.948,2.461-20.2-.241-11.993-5.27-15.193-7.95-29.62a77.241,77.241,0,0,1-.895-21.466Z" transform="translate(-871.771 -2228.665)" fill="url(#linear-gradient-15)"/>
      <path id="Path_8600" data-name="Path 8600" d="M911.663,2301.934l7.643.8c4.586,7.981,5.867,16.288,5.062,19.962-1.139,5.2-4.151,6.864-3.985,12.084.164,5.164,3.207,6.5,5.137,12.591,1.336,4.215.984,8.089.223,15.667-1.531,15.265-5.217,19.933-2.13,24.938a11.272,11.272,0,0,0,5.555,4.409c-.076.936-.15,1.875-.231,2.8l-5.179-.237a51.667,51.667,0,0,1-5.714-21.726c-.283-9.665,2.647-10.948,2.461-20.2-.241-11.994-5.27-15.193-7.95-29.62A77.245,77.245,0,0,1,911.663,2301.934Z" transform="translate(-871.771 -2228.665)" opacity="0.3" fill="url(#linear-gradient-16)" style="mix-blend-mode: multiply;isolation: isolate"/>
      <path id="Path_8601" data-name="Path 8601" d="M796.236,2327.72c-2.39,13.032-4.5,26.981-6.148,41.773-1.989,17.861-3.05,34.7-3.467,50.333l-5.684.162c-7.466-14.771-7.922-24.785-6.846-31.3a94.3,94.3,0,0,0,1.8-14.8,104.055,104.055,0,0,0-.557-13.733c-.9-10.295-1.985-12.542-2.141-20.417-.147-7.39-.177-11.129,1.932-13.311C780.681,2320.671,795.14,2327.211,796.236,2327.72Z" transform="translate(-749.042 -2248.327)" fill="url(#linear-gradient-17)"/>
      <path id="Path_8602" data-name="Path 8602" d="M1049.77,1831.185l3.78-.264c2.973,12.013.841,23.665-5.869,27.95-10.482,6.7-29.963-5.919-34.185-19.654-1.853-6.029-1.431-14.729,2.272-16.42,1.028-.469,2.623-.542,6.079,1.4,10.321,5.795,10.593,16.747,15.839,17.674C1040.02,1842.283,1043.787,1840.8,1049.77,1831.185Z" transform="translate(-961.596 -1802.82)" fill="url(#linear-gradient-18)"/>
      <path id="Path_8603" data-name="Path 8603" d="M720.75,1877.858c1.815-3.012-.465-5.918-.984-11.625-.588-6.468,1.9-7.545,4.368-18.265,1.639-7.129,3.212-13.973,1.334-21.984-.9-3.839-2.426-10.352-7.816-13.5-2.781-1.623-6.579-1.461-14.06-1.069-9.251.484-13.877.725-17.327,2.542-.505.266-11,5.974-11.722,15.28-.735,9.471,9.578,10.743,10.954,23.373.618,5.67-.483,14.389-1.2,20.045-.685,5.43-1.157,6.821-.085,8.465,2.583,3.963,10.491,2.833,26.306.575C716.726,1880.812,719.4,1880.105,720.75,1877.858Z" transform="translate(-661.437 -1792.726)" fill="url(#linear-gradient-19)"/>
      <path id="Path_8604" data-name="Path 8604" d="M696.687,1940.69c-.669,2.461-3.074,4.3-4.748,10.287-.361,1.293-2.936,10.5.4,12.764,1.929,1.308,3.661-1.171,8.342-1.495,8.113-.561,11.977,6.257,17.276,4.4a7.258,7.258,0,0,0,3.345-2.595,5.352,5.352,0,0,1-.556,3.919c-1.354,2.248-4.025,2.954-10.229,3.84-15.816,2.258-23.723,3.388-26.306-.575-1.072-1.644-.6-3.035.085-8.465.714-5.656,1.815-14.376,1.2-20.045-1.376-12.629-11.689-13.9-10.954-23.373a14.687,14.687,0,0,1,2.373-6.748C690,1917.895,698.789,1932.955,696.687,1940.69Z" transform="translate(-661.437 -1882.834)" fill="url(#linear-gradient-20)"/>
      <path id="Path_8605" data-name="Path 8605" d="M725.115,2326.9l2.618,1.672a6.13,6.13,0,0,1,3.257-2.012c1.914-.421,4.112.182,4.163.793.041.49-1.3.983-1.5,1.059-1.67.617-2.909.105-3.585.776a5.107,5.107,0,0,1-1.221,1.088,3.818,3.818,0,0,1-.467.241c-1.115.433-3.027-1.507-3.191-1.677Z" transform="translate(-706.39 -2250.41)" fill="url(#linear-gradient-21)"/>
      <path id="Path_8606" data-name="Path 8606" d="M583.994,1850.214c1.894-4.536,3.206-11.479.215-21.792-19.708,7.765-29.759,26.175-25.835,40.769,3.235,12.031,15.005,17.891,17.631,19.123l1.833-4.171c-3.043-3.389-6.471-8.4-5.987-14.116C572.524,1862.1,580.16,1859.4,583.994,1850.214Z" transform="translate(-557.535 -1808.062)" fill="url(#linear-gradient-22)"/>
      <path id="Path_8607" data-name="Path 8607" d="M862.754,1730a21.1,21.1,0,0,1-1.226,6.029c-.967,2.333-6.054,3.8-7.085,4.321s1.932,2.044,4.907,2.342,11.473-.376,13-1.5-1.231-1.043-3.355-1.823-3.351-4.933-2.977-6.818S862.754,1730,862.754,1730Z" transform="translate(-821.081 -1720.635)" fill="url(#linear-gradient-23)"/>
      <path id="Path_8608" data-name="Path 8608" d="M906.553,1654.324c1.544-1.517,1.759-1.694,1.928-2.219.675-2.1-.957-4.986-3.1-5.7-.111-.037-1.547-.5-2.1.126-.465.529.219,1.26-.106,2.279-.3.955-1.132,1.026-2.666,2.278-1.263,1.03-2.048,1.671-2.229,2.573-.373,1.858,1.876,4.552,3.868,4.479C902.869,1658.117,903.064,1657.751,906.553,1654.324Z" transform="translate(-860.174 -1646.211)" fill="url(#linear-gradient-24)"/>
      <g id="Group_492" data-name="Group 492" transform="translate(40.403 6.769)">
        <path id="Path_8609" data-name="Path 8609" d="M920.895,1712.243a4.386,4.386,0,0,0,4.141,1.244c2.238-.55,1.667-5.687.029-6.508a2.906,2.906,0,0,0-2.286.109c-.441.213-.564.434-1.291.767-.671.307-.884.265-1.064.481-.226.271-.323.853.385,2.259a1.251,1.251,0,0,0-1.395-.2.785.785,0,0,0-.249.347C918.95,1711.381,919.612,1712.027,920.895,1712.243Z" transform="translate(-919.124 -1706.793)" fill="url(#linear-gradient-25)"/>
      </g>
    </g>
    <g id="Group_497" data-name="Group 497" transform="translate(572.867 530.466)">
      <path id="Path_8610" data-name="Path 8610" d="M1460.459,1133.022l.578,3.118h0l-11.893.028-103.2.245a5.739,5.739,0,0,0-5.461,4.9l-24.635,164.649c-.367,2.725,3.875,6.885,6.514,7.089l45.785,3.518v-.055l68.486,5.254h0l.166.069a5.622,5.622,0,0,0,5.986-4.775s0,.012,0,.011l23.071-175.791C1466.235,1138.432,1463.4,1133.014,1460.459,1133.022Z" transform="translate(-1315.759 -1132.728)" fill="url(#linear-gradient-26)"/>
      <g id="Group_496" data-name="Group 496" transform="translate(0 0)">
        <path id="Path_8611" data-name="Path 8611" d="M1439.93,1311.3a5.644,5.644,0,0,1-5.984,4.807l-114.558-8.8a4.558,4.558,0,0,1-4.107-5.3l22.4-166.4a5.739,5.739,0,0,1,5.458-4.9l115.2-.317a4.488,4.488,0,0,1,4.651,5.149Z" transform="translate(-1315.234 -1130.391)" fill="url(#linear-gradient-27)"/>
        <path id="Path_8612" data-name="Path 8612" d="M1602.914,1766.017a2.9,2.9,0,0,1-2.975,2.437l-100.824-3.68a2.142,2.142,0,0,1-2.084-2.506l1.982-14.693a2.64,2.64,0,0,1,2.729-2.244l100.913,2.8a2.19,2.19,0,0,1,2.3,2.494Z" transform="translate(-1476.697 -1676.618)" fill="#fff"/>
        <path id="Path_8613" data-name="Path 8613" d="M1568.666,2018.325a3,3,0,0,1-2.975,2.576l-100.748-4.977a2.314,2.314,0,0,1-2.072-2.7l2-14.976a2.839,2.839,0,0,1,2.74-2.477l100.809,4.066a2.447,2.447,0,0,1,2.3,2.8Z" transform="translate(-1446.353 -1899.072)" fill="#fff"/>
        <path id="Path_8614" data-name="Path 8614" d="M1604.955,1750.574a2.748,2.748,0,0,0-.769-.127l-100.915-2.8a2.637,2.637,0,0,0-2.728,2.243l-1.985,14.693c0,.039-.008.073-.012.112a2.14,2.14,0,0,1-1.527-2.42l1.985-14.693a2.637,2.637,0,0,1,2.728-2.243l100.915,2.8A2.194,2.194,0,0,1,1604.955,1750.574Z" transform="translate(-1476.687 -1676.624)" opacity="0.1" fill="url(#linear-gradient-28)" style="mix-blend-mode: multiply;isolation: isolate"/>
        <path id="Path_8615" data-name="Path 8615" d="M1570.726,2002.292a2.388,2.388,0,0,0-.781-.165l-100.807-4.067a2.837,2.837,0,0,0-2.739,2.478l-2,14.978a2.353,2.353,0,0,0-.019.285,2.365,2.365,0,0,1-1.52-2.593l2-14.978a2.838,2.838,0,0,1,2.74-2.478l100.807,4.067A2.438,2.438,0,0,1,1570.726,2002.292Z" transform="translate(-1446.344 -1899.057)" opacity="0.1" fill="url(#linear-gradient-28)" style="mix-blend-mode: multiply;isolation: isolate"/>
        <path id="Path_8616" data-name="Path 8616" d="M1674.409,2354.887a3.887,3.887,0,0,0-3.561-4.46l-52.154-3a4.471,4.471,0,0,0-4.448,3.89l-2.152,16.222a3.845,3.845,0,0,0,3.363,4.448l52.127,3.567a4.624,4.624,0,0,0,4.647-4.013Z" transform="translate(-1578.891 -2211.437)" fill="url(#linear-gradient-30)"/>
        <g id="Group_495" data-name="Group 495" transform="translate(60.391 14.579)">
          <path id="Path_8617" data-name="Path 8617" d="M1894.771,1280.442a22.574,22.574,0,0,1-22.188,19.173,17.046,17.046,0,0,1-13.253-6.333,17.386,17.386,0,0,1-3.451-13.259c1.416-10.607,11.161-19.182,21.856-19.157C1888.53,1260.891,1896.2,1269.654,1894.771,1280.442Z" transform="translate(-1855.705 -1260.865)" fill="url(#linear-gradient-31)"/>
          <g id="Group_494" data-name="Group 494" transform="translate(3.625 5.233)">
            <path id="Path_8618" data-name="Path 8618" d="M1977.859,1316.148a9.793,9.793,0,0,1-9.561,8.313,7.263,7.263,0,0,1-7.27-8.452,9.8,9.8,0,0,1,9.5-8.31A7.263,7.263,0,0,1,1977.859,1316.148Z" transform="translate(-1952.818 -1307.699)" fill="#fff"/>
            <path id="Path_8619" data-name="Path 8619" d="M1916.448,1488.591a21.939,21.939,0,0,1-15.05,5.864,17.044,17.044,0,0,1-13.253-6.333,18.668,18.668,0,0,1,15.146-7.905A14.3,14.3,0,0,1,1916.448,1488.591Z" transform="translate(-1888.145 -1460.939)" fill="#fff"/>
          </g>
        </g>
        <path id="Path_8620" data-name="Path 8620" d="M1773.445,1135.543,1750.386,1311.3a5.808,5.808,0,0,1-6.154,4.794l-68.8-5.283a36.659,36.659,0,0,1-7.881-12.181,37.6,37.6,0,0,1-2.093-7.595,63.333,63.333,0,0,1,1.081-24.139,79.717,79.717,0,0,1,6.553-18.346,60.246,60.246,0,0,1,8.024-12.179c2.175-2.511,4.526-4.95,7.007-7.343,2.991-2.887,6.17-5.706,9.449-8.5,7.641-6.51,15.824-12.876,23.4-19.6,17.481-15.507,31.662-32.834,28.25-57.557-.109-.779-1.175-6.742-2.535-12.924l21.94-.061A4.612,4.612,0,0,1,1773.445,1135.543Z" transform="translate(-1625.69 -1130.395)" fill="#fff" opacity="0.4" style="mix-blend-mode: soft-light;isolation: isolate"/>
      </g>
    </g>
  </g>
</svg>
