<svg xmlns="http://www.w3.org/2000/svg" xmlns:xlink="http://www.w3.org/1999/xlink" width="300.156" height="298.482" viewBox="0 0 300.156 298.482">
  <defs>
    <linearGradient id="linear-gradient" x1="0.126" y1="0.5" x2="1.627" y2="0.466" gradientUnits="objectBoundingBox">
      <stop offset="0" stop-color="#444b8c"/>
      <stop offset="0.996" stop-color="#26264f"/>
    </linearGradient>
    <linearGradient id="linear-gradient-2" x1="36.73" y1="-2.293" x2="36.011" y2="0.214" gradientUnits="objectBoundingBox">
      <stop offset="0" stop-color="#aa80f9"/>
      <stop offset="0.996" stop-color="#6165d7"/>
    </linearGradient>
    <linearGradient id="linear-gradient-3" x1="0.287" y1="0.5" x2="1.287" y2="0.5" xlink:href="#linear-gradient-2"/>
    <linearGradient id="linear-gradient-4" x1="0.769" y1="0.5" x2="1.769" y2="0.5" gradientUnits="objectBoundingBox">
      <stop offset="0" stop-color="#311944"/>
      <stop offset="1" stop-color="#6b3976"/>
    </linearGradient>
    <linearGradient id="linear-gradient-5" x1="2.719" y1="-3.466" x2="1.942" y2="2.597" gradientUnits="objectBoundingBox">
      <stop offset="0" stop-color="#311944"/>
      <stop offset="1" stop-color="#a03976"/>
    </linearGradient>
    <linearGradient id="linear-gradient-6" x1="0.236" y1="0.5" x2="1.307" y2="0.5" xlink:href="#linear-gradient-2"/>
    <linearGradient id="linear-gradient-7" x1="0.336" y1="0.5" x2="1.336" y2="0.5" xlink:href="#linear-gradient-2"/>
    <linearGradient id="linear-gradient-8" x1="0.809" y1="-0.107" x2="0.486" y2="1.081" gradientUnits="objectBoundingBox">
      <stop offset="0" stop-color="#ffc444"/>
      <stop offset="0.996" stop-color="#f36f56"/>
    </linearGradient>
    <linearGradient id="linear-gradient-9" x1="1.245" y1="0.353" x2="1.541" y2="1.391" xlink:href="#linear-gradient-8"/>
    <linearGradient id="linear-gradient-10" x1="0.989" y1="-0.209" x2="0.51" y2="1.155" xlink:href="#linear-gradient-8"/>
    <linearGradient id="linear-gradient-11" x1="1.054" y1="-0.078" x2="0.459" y2="1.623" xlink:href="#linear-gradient-8"/>
    <linearGradient id="linear-gradient-12" x1="0.664" y1="0.118" x2="1.005" y2="1.205" gradientUnits="objectBoundingBox">
      <stop offset="0.494" stop-color="#ebeff2"/>
      <stop offset="1" stop-color="#fff"/>
    </linearGradient>
    <linearGradient id="linear-gradient-13" x1="1.264" y1="1.317" x2="0.757" y2="0.447" xlink:href="#linear-gradient-12"/>
    <linearGradient id="linear-gradient-14" x1="1.23" y1="-1.24" x2="1.078" y2="1.38" xlink:href="#linear-gradient-5"/>
    <linearGradient id="linear-gradient-15" x1="1.659" y1="0.5" x2="2.659" y2="0.5" xlink:href="#linear-gradient-5"/>
    <linearGradient id="linear-gradient-16" x1="-4.382" y1="3.563" x2="-5.059" y2="1.72" xlink:href="#linear-gradient-4"/>
    <linearGradient id="linear-gradient-17" x1="2.498" y1="-0.993" x2="2.14" y2="-0.051" xlink:href="#linear-gradient-5"/>
    <linearGradient id="linear-gradient-18" x1="29.103" y1="-0.867" x2="28.243" y2="1.314" xlink:href="#linear-gradient-2"/>
    <linearGradient id="linear-gradient-19" x1="-10.199" y1="0.539" x2="-9.073" y2="0.539" gradientUnits="objectBoundingBox">
      <stop offset="0" stop-color="#ff9085"/>
      <stop offset="1" stop-color="#fb6fbb"/>
    </linearGradient>
    <linearGradient id="linear-gradient-20" x1="-50.324" y1="0.421" x2="-50.485" y2="0.655" xlink:href="#linear-gradient"/>
    <linearGradient id="linear-gradient-21" x1="-53.354" y1="1.082" x2="-52.267" y2="1.082" xlink:href="#linear-gradient"/>
    <linearGradient id="linear-gradient-22" x1="-5.387" y1="0.407" x2="-4.824" y2="0.804" gradientUnits="objectBoundingBox">
      <stop offset="0" stop-color="#311944"/>
      <stop offset="1" stop-color="#893976"/>
    </linearGradient>
    <linearGradient id="linear-gradient-23" x1="-34.734" y1="-2.085" x2="-33.259" y2="2.176" gradientUnits="objectBoundingBox">
      <stop offset="0" stop-color="#444b8c"/>
      <stop offset="0.996" stop-color="#3e4177"/>
    </linearGradient>
    <linearGradient id="linear-gradient-24" x1="-106.097" y1="-0.367" x2="-105.834" y2="1.809" xlink:href="#linear-gradient-8"/>
    <linearGradient id="linear-gradient-25" x1="-37.044" y1="-0.74" x2="-35.569" y2="3.521" xlink:href="#linear-gradient-23"/>
    <linearGradient id="linear-gradient-26" x1="-114.841" y1="-0.608" x2="-114.578" y2="1.568" xlink:href="#linear-gradient-8"/>
    <linearGradient id="linear-gradient-27" x1="-12.842" y1="0.5" x2="-11.842" y2="0.5" xlink:href="#linear-gradient-23"/>
    <linearGradient id="linear-gradient-28" x1="-13.18" y1="0.5" x2="-12.18" y2="0.5" xlink:href="#linear-gradient-23"/>
    <linearGradient id="linear-gradient-29" x1="-11.136" y1="0.5" x2="-10.136" y2="0.5" xlink:href="#linear-gradient-23"/>
    <linearGradient id="linear-gradient-30" x1="0.873" y1="-0.454" x2="0.374" y2="1.28" xlink:href="#linear-gradient-19"/>
    <linearGradient id="linear-gradient-31" x1="1.131" y1="3.122" x2="0.518" y2="0.971" xlink:href="#linear-gradient-8"/>
    <linearGradient id="linear-gradient-32" x1="0.459" y1="-1.224" x2="0.546" y2="2.728" xlink:href="#linear-gradient-8"/>
    <linearGradient id="linear-gradient-33" x1="0.832" y1="-0.409" x2="0.4" y2="1.28" xlink:href="#linear-gradient-19"/>
    <linearGradient id="linear-gradient-34" x1="-49.416" y1="-10.993" x2="-48.509" y2="-10.993" xlink:href="#linear-gradient-8"/>
    <linearGradient id="linear-gradient-35" x1="0.775" y1="-0.823" x2="0.142" y2="1.558" xlink:href="#linear-gradient-19"/>
    <linearGradient id="linear-gradient-36" x1="0.438" y1="-1.232" x2="0.576" y2="2.736" xlink:href="#linear-gradient-8"/>
    <linearGradient id="linear-gradient-37" x1="0" y1="0.5" x2="1" y2="0.5" xlink:href="#linear-gradient-8"/>
    <linearGradient id="linear-gradient-38" x1="0" y1="0.5" x2="1" y2="0.5" xlink:href="#linear-gradient"/>
    <linearGradient id="linear-gradient-39" x1="-6.511" y1="-22.859" x2="-5.511" y2="-22.859" xlink:href="#linear-gradient-2"/>
    <linearGradient id="linear-gradient-40" x1="-9.013" y1="-32.403" x2="-8.069" y2="-30.336" xlink:href="#linear-gradient-2"/>
    <linearGradient id="linear-gradient-41" x1="0" y1="0.5" x2="1" y2="0.5" xlink:href="#linear-gradient-5"/>
    <linearGradient id="linear-gradient-42" x1="-8.624" y1="-26.934" x2="-7.624" y2="-26.934" xlink:href="#linear-gradient-19"/>
    <linearGradient id="linear-gradient-43" x1="-12.004" y1="-37.774" x2="-11.06" y2="-35.707" xlink:href="#linear-gradient-19"/>
    <linearGradient id="linear-gradient-44" x1="0.128" y1="0.474" x2="0.867" y2="0.526" xlink:href="#linear-gradient-5"/>
    <linearGradient id="linear-gradient-45" x1="-14.35" y1="-3.552" x2="-13.703" y2="-2.01" xlink:href="#linear-gradient-8"/>
    <linearGradient id="linear-gradient-46" x1="-21.496" y1="-4.308" x2="-20.573" y2="-2.263" xlink:href="#linear-gradient-8"/>
    <linearGradient id="linear-gradient-47" x1="0" y1="0.5" x2="1" y2="0.5" xlink:href="#linear-gradient-2"/>
  </defs>
  <g id="Group_11749" data-name="Group 11749" transform="translate(-453.073 -455)">
    <path id="Path_22187" data-name="Path 22187" d="M748.815,582.491c-8.136-53.251-41.492-118.675-107.39-125.521,0,0-50.033-6.086-99.355,3.138-29.273,5.474-54.94,21.77-71.182,45.19A98.006,98.006,0,0,0,455.805,584.5c4.276,17.684,7.166,35.986,6.373,54.158-1.38,31.626-.586,61.146,30.106,80.007,27.4,16.841,61.893,31.693,94.8,34.295,22.361,1.768,47.437-1.093,68.988-6.915C765.9,716.38,756.95,635.742,748.815,582.491Z" transform="translate(0 0)" fill="#f4f7fa"/>
    <g id="Group_11732" data-name="Group 11732" transform="translate(515.747 470.496)">
      <g id="Group_11731" data-name="Group 11731" transform="translate(0 0)">
        <path id="Path_22188" data-name="Path 22188" d="M1163.058,614q13.461,113.773,26.923,225.172a5.749,5.749,0,0,1-5.116,6.549q-54.1,5.132-108.2,10.49c-6.434.312-9.967-3.283-10.381-6.882Q1052.424,729.07,1038.568,606.3c-.414-3.676,2.7-6.836,9.134-6.522q54.368,3.877,108.736,7.65A7.6,7.6,0,0,1,1163.058,614Z" transform="translate(-1038.532 -599.753)" fill="#26264f"/>
        <path id="Path_22189" data-name="Path 22189" d="M1203.236,614q13.546,114.269,27.093,226.134a5.78,5.78,0,0,1-5.148,6.579q-56.177,4.757-112.355,9.7a6.664,6.664,0,0,1-6.976-6.02q-13.943-120.807-27.886-244.161c-.417-3.692,2.061-6.526,5.5-6.292q56.555,3.773,113.11,7.455A7.646,7.646,0,0,1,1203.236,614Z" transform="translate(-1073.701 -599.914)" fill="url(#linear-gradient)"/>
        <path id="Path_22190" data-name="Path 22190" d="M1246.422,745.565q12.547,105.87,25.094,209.675a5.382,5.382,0,0,1-4.811,6.136q-52.832,4.321-105.664,8.806a6.233,6.233,0,0,1-6.5-5.621q-12.892-111.582-25.785-225.343c-.388-3.431,1.917-6.087,5.119-5.9q53.161,3.1,106.322,6.126A7.066,7.066,0,0,1,1246.422,745.565Z" transform="translate(-1119.063 -719.013)" fill="#eaedf3"/>
        <path id="Path_22191" data-name="Path 22191" d="M1293.765,740.135q-52.531-2.994-105.062-6.053a80.308,80.308,0,0,0,6.153,19.9c11.616,25.2,28.682,26.59,35.359,48.552,6.878,22.626-8.634,29.707-1.056,50.135,8.224,22.167,28.393,18.959,39.053,43.274,9.188,20.958-2.64,30.539,6.861,43.275,10.414,13.96,29.678,9.227,49.675,13.955q-12.381-102.458-24.762-206.923A7.066,7.066,0,0,0,1293.765,740.135Z" transform="translate(-1172.627 -719.702)" fill="#eaedf3" style="mix-blend-mode: multiply;isolation: isolate"/>
      </g>
      <path id="Path_22192" data-name="Path 22192" d="M1657.1,684.022a1.762,1.762,0,0,1-1.842,2.1,2.7,2.7,0,0,1-2.36-2.358,1.758,1.758,0,0,1,1.844-2.1A2.7,2.7,0,0,1,1657.1,684.022Z" transform="translate(-1587.118 -672.893)" fill="#eaedf3"/>
    </g>
    <g id="Group_11733" data-name="Group 11733" transform="translate(475.568 526.672)">
      <path id="Path_22193" data-name="Path 22193" d="M1105.138,1179.539s7.254,1.8,4.69,3.7-9.164,0-9.164,0Z" transform="translate(-1053.833 -1173.648)" fill="url(#linear-gradient-2)"/>
      <path id="Path_22194" data-name="Path 22194" d="M787.275,1930.717c-9.54-4.659-28.148,12.217-37.2,28.381-3.609,6.441-7.846,14-6.806,22.994,1.843,15.94,19.524,29.921,43.862,34.589l2.055-7.341c-2.661-2.771-6.64-6.773-11.726-11.357-7.812-7.042-9.417-7.511-9.792-9.735-1.227-7.282,17.5-13.378,24.161-26.183C797.552,1951.057,794.6,1934.3,787.275,1930.717Z" transform="translate(-734.552 -1843.708)" fill="url(#linear-gradient-3)"/>
      <path id="Path_22195" data-name="Path 22195" d="M885.942,3131.022s1.566,3.864.787,5.377-4.537.556-9.836,1.366-8.956,2.049-9.249.951,10.688-6.893,11.566-7.694S885.942,3131.022,885.942,3131.022Z" transform="translate(-845.753 -2915.905)" fill="url(#linear-gradient-4)"/>
      <path id="Path_22196" data-name="Path 22196" d="M994.6,3080.034l-3.706,5.776a5.176,5.176,0,0,0,4.61,1.058l4.077-5.472Z" transform="translate(-955.818 -2870.692)" fill="url(#linear-gradient-5)"/>
      <path id="Path_22197" data-name="Path 22197" d="M820.525,1962.128c5.727-11.009,2.779-27.77-4.55-31.349a9.738,9.738,0,0,0-6.721-.363,12.884,12.884,0,0,1,.407,8.515c-2.9,8.7-15.458,7.712-19.38,17.618-2.479,6.261,1.463,9.369-2.055,14.388-3.647,5.2-9.61,4.329-11.451,9.4-1.373,3.775,1.334,5.922.293,9.1a5.983,5.983,0,0,1-1.822,2.621c6.45,11.6,21.458,21.019,40.581,24.686l2.055-7.341c-2.661-2.771-6.64-6.773-11.726-11.357-7.812-7.042-9.417-7.511-9.792-9.734C795.137,1981.029,813.864,1974.933,820.525,1962.128Z" transform="translate(-763.251 -1843.771)" opacity="0.3" fill="url(#linear-gradient-6)" style="mix-blend-mode: multiply;isolation: isolate"/>
      <path id="Path_22198" data-name="Path 22198" d="M1019.882,1969.548c.413,16.684.181,34.723-1.027,53.927a616.314,616.314,0,0,1-7.966,67.283l4.708,1.5c16.142-15.727,20.972-29.562,22.294-39.513.934-7.035-.48-7.639.781-16.444,2.4-16.767,8.67-22.509,13.071-38.2a93.449,93.449,0,0,0,3.373-26.393Z" transform="translate(-973.669 -1879.085)" fill="url(#linear-gradient-7)"/>
      <path id="Path_22199" data-name="Path 22199" d="M697.852,1296.537c.293.067,1.565.49,2.068,5.806,1.214,12.818-5.46,18.007-3.817,24.958,1.577,6.672,9.622,9.909,17.9,13.241,5.533,2.227,22.648,9.114,32.6,1.37,4.189-3.259,4.647-7.194,7.636-21.658,7.593-36.749,10.534-39.906,7.341-47.861-5.484-13.661-20.167-19.319-22.609-20.26-26.048-10.037-56.809,8.41-68.964,29.6-1.6,2.791-11.159,19.456-4.443,27.361,4.063,4.782,13.4,5.554,19.561,2.293C693.36,1307.033,695.109,1295.909,697.852,1296.537Z" transform="translate(-663.202 -1235.959)" fill="url(#linear-gradient-8)"/>
      <path id="Path_22200" data-name="Path 22200" d="M716.049,1635.647a.588.588,0,0,1-.534-.831c.223-.489,5.6-12.028,18.025-16.582a.587.587,0,0,1,.4,1.1c-11.952,4.38-17.307,15.852-17.36,15.967A.588.588,0,0,1,716.049,1635.647Z" transform="translate(-709.868 -1565.348)" fill="url(#linear-gradient-9)"/>
      <path id="Path_22201" data-name="Path 22201" d="M1016.822,1370.95c-1.644,4.475,3.289,8.354,1.175,13.213-3.03,6.964-15.074,3.39-19.38,10.277-5.1,8.162,6.583,21.551,1.762,26.133-2.2,2.088-4.735-.586-11.158.881-9.147,2.089-11.9,9.318-16.15,8.222-1.338-.345-2.96-1.559-4.324-5.3a11.806,11.806,0,0,0-.374,6.18c1.578,6.672,9.622,9.909,17.9,13.241,5.534,2.227,22.648,9.113,32.6,1.37,4.189-3.259,4.647-7.194,7.636-21.658,7.593-36.749,10.534-39.906,7.34-47.861a31.128,31.128,0,0,0-7.32-10.7C1020.259,1366.339,1017.683,1368.607,1016.822,1370.95Z" transform="translate(-935.471 -1339.213)" opacity="0.3" fill="url(#linear-gradient-10)" style="mix-blend-mode: multiply;isolation: isolate"/>
      <path id="Path_22202" data-name="Path 22202" d="M1251.643,1344.64c.7.639,7.829,6.916,16.4,4.772,7.466-1.867,12.049-9.125,12.852-15.232,1.91-14.525-17.014-26.717-14.681-29.656,1.389-1.751,8.84,1.64,13.8,4.7,5.149,3.174,19.065,11.752,22.031,28.585.252,1.431,3.524,21.5-7.932,29.788-10.593,7.664-31.342,3.495-45.395-14.632Z" transform="translate(-1186.038 -1284.826)" fill="url(#linear-gradient-11)"/>
      <path id="Path_22203" data-name="Path 22203" d="M845.994,1535.538l8.485,27.1a2.2,2.2,0,0,0,2.017,1.538l45.659,1.613a2.195,2.195,0,0,0,2.223-2.659l-5.9-27.214a2.195,2.195,0,0,0-2.077-1.729l-48.24-1.5A2.2,2.2,0,0,0,845.994,1535.538Z" transform="translate(-826.335 -1488.991)" fill="#d8dee8"/>
      <path id="Path_22204" data-name="Path 22204" d="M849.821,1544.562l8.235,26.3a2.13,2.13,0,0,0,1.958,1.493l44.314,1.566a2.13,2.13,0,0,0,2.157-2.581l-5.73-26.413a2.131,2.131,0,0,0-2.016-1.678L851.92,1541.8A2.131,2.131,0,0,0,849.821,1544.562Z" transform="translate(-829.755 -1497.124)" fill="url(#linear-gradient-12)"/>
      <path id="Path_22205" data-name="Path 22205" d="M1009.787,1607.53l-5.47-25.211a7.079,7.079,0,0,1-3.271,3.869c-3.3,1.629-5.865-1.306-13.067-1.027-2.754.106-8.384.324-11.892,3.964-3.3,3.421-1.9,6.935-3.964,11.745a18.107,18.107,0,0,1-6.717,7.75l42.222,1.491A2.13,2.13,0,0,0,1009.787,1607.53Z" transform="translate(-933.057 -1533.31)" fill="url(#linear-gradient-13)"/>
      <path id="Path_22206" data-name="Path 22206" d="M1050.986,1201.835a3.119,3.119,0,0,1-2.261,3.889,28.429,28.429,0,0,0-5.724,1.827c-2.014,1.153,6.135-.179,13.63-.355a62,62,0,0,0,10.143-1.014.52.52,0,0,0,.058-1.005,44.561,44.561,0,0,0-7.492-1.83c-3.186-.4-6.6-7.432-6.6-7.432l-2.73,2.48Z" transform="translate(-1002.065 -1188.272)" fill="url(#linear-gradient-14)"/>
      <path id="Path_22207" data-name="Path 22207" d="M862.908,1610.309l.518-.847a3.627,3.627,0,0,1,3.954-2.686l2.723.336a1.465,1.465,0,0,1,1.253,1.756c-.253,1.215-.905,2.669-2.578,2.556-2.842-.192-4.658,3.95-4.658,3.95l-1.091-1.536A3.205,3.205,0,0,1,862.908,1610.309Z" transform="translate(-841.109 -1555.125)" fill="url(#linear-gradient-15)"/>
      <path id="Path_22208" data-name="Path 22208" d="M1040.394,1147.152c-2.355-.349-2.8-3.719-2.747-5.355.071-2.248,3.015-2.088,5.61-2.71s3.707-.4,4.452.169a5.582,5.582,0,0,1,2.094,2.541,10.868,10.868,0,0,1,.008,2.472c-.074,1.186-.719,1.128-.75,1.479a15.4,15.4,0,0,1-1.124,4.375,10.711,10.711,0,0,0-1.366-1.263,9.448,9.448,0,0,0-2.078-1.225C1042.8,1146.95,1041.823,1147.364,1040.394,1147.152Z" transform="translate(-997.559 -1137.193)" fill="url(#linear-gradient-16)"/>
      <path id="Path_22209" data-name="Path 22209" d="M1071.722,1186.885a5.81,5.81,0,0,1-3.244,4.721c-2.768,1.29-6.441-4.489-5.431-6.7a3.846,3.846,0,0,1,2.451-1.785c.632-.146.942-.02,1.97-.28.948-.239,1.132-.46,1.5-.386.458.092,1.041.613,1.478,2.652.227-.8.731-1.329,1.276-1.361a1.039,1.039,0,0,1,.546.152C1073.014,1184.381,1072.868,1185.6,1071.722,1186.885Z" transform="translate(-1020.091 -1176.243)" fill="url(#linear-gradient-17)"/>
      <path id="Path_22210" data-name="Path 22210" d="M1036.476,1133.449c4.478-5.322,11.206-2.738,11.206-2.738s1.234-6.106-5.881-6.2S1033.85,1131.553,1036.476,1133.449Zm1.519-4.156a1.243,1.243,0,0,1,1.709.558,4.141,4.141,0,0,0-2.458,1.567A1.493,1.493,0,0,1,1038,1129.294Z" transform="translate(-995.295 -1124.509)" fill="url(#linear-gradient-18)"/>
    </g>
    <g id="Group_11735" data-name="Group 11735" transform="translate(628.666 524.264)">
      <path id="Path_22211" data-name="Path 22211" d="M2707.572,1220.409l-3.375,1.98c.628,1.4,4.565,10.544.105,18.384-4.206,7.393-13.774,9.929-20.639,9.21-6.511-.682-9.875-4.218-12.714-2.3-2.856,1.927-2.368,7.475-1.506,10.605,2.039,7.4,9.385,12.96,16.324,14.812,11.282,3.011,23.22-3.307,28.829-12.273,8.689-13.891-.144-30.41-1.794-33.32A37.427,37.427,0,0,0,2707.572,1220.409Z" transform="translate(-2607.174 -1207.735)" fill="url(#linear-gradient-19)"/>
      <g id="Group_11734" data-name="Group 11734" transform="translate(91.699)">
        <path id="Path_22212" data-name="Path 22212" d="M2956.457,1121.089l-6.325-11.415a1.53,1.53,0,0,1-.008-1.468l2.946-5.453.011-.021.023-.043a.506.506,0,0,1,.031-.042l.024-.032c.008-.01.014-.021.023-.03a1.381,1.381,0,0,1,1.31-.555.86.86,0,0,1-.555.709l6.408,12.716-3.084,5.631a.459.459,0,0,1-.8,0Z" transform="translate(-2949.94 -1102.02)" fill="url(#linear-gradient-20)"/>
        <path id="Path_22213" data-name="Path 22213" d="M2965.245,1120.391l-6.085-11.091a1.53,1.53,0,0,1-.01-1.453l2.988-5.621a.377.377,0,0,1,.67.007l6.08,12.047a1.029,1.029,0,0,1-.016.958l-2.822,5.152a.459.459,0,0,1-.8,0Z" transform="translate(-2958.005 -1102.024)" fill="url(#linear-gradient-21)"/>
      </g>
      <path id="Path_22214" data-name="Path 22214" d="M2139.868,1290.75c-10.362,4.8-20.2,3.367-27.084,2.366-7.779-1.131-15.27-2.221-18.21-7.839-2.91-5.561-.31-13.552,4.284-17.9,5.4-5.106,10.783-2.564,14.537-7.544,3.846-5.1-.7-9.243,2.754-14.939,4.342-7.169,13.668-4.129,18.209-11.389,2.166-3.462.977-7.621,1.7-11.353,1.381-7.14,11.489-7.485,17.138-5.5,1.876.658,4.628,2.288,5.626,4.028,1.755,3.058.636,6.555-.323,9.647-3.38,10.905,3.534,17.094,4.168,26.994C2163.526,1270.7,2152.643,1284.835,2139.868,1290.75Z" transform="translate(-2093.347 -1203.45)" fill="url(#linear-gradient-22)"/>
      <path id="Path_22215" data-name="Path 22215" d="M2438.738,2992.091s10.025,1.27,10.408,3.549c.445,2.645-11.148.322-11.148.322S2436.223,2995.378,2438.738,2992.091Z" transform="translate(-2400.559 -2789.757)" fill="url(#linear-gradient-23)"/>
      <path id="Path_22216" data-name="Path 22216" d="M2453.905,2941.458l-.245,5.6s1.225,1.554,2.629.43l1.119-6.026Z" transform="translate(-2415.089 -2744.544)" fill="url(#linear-gradient-24)"/>
      <path id="Path_22217" data-name="Path 22217" d="M2591.308,3017.407s10.025,1.27,10.408,3.549c.445,2.645-11.148.321-11.148.321S2588.793,3020.694,2591.308,3017.407Z" transform="translate(-2536.797 -2812.362)" fill="url(#linear-gradient-25)"/>
      <path id="Path_22218" data-name="Path 22218" d="M2606.476,2966.775l-.245,5.6s1.225,1.553,2.63.429l1.119-6.026Z" transform="translate(-2551.326 -2767.151)" fill="url(#linear-gradient-26)"/>
      <path id="Path_22219" data-name="Path 22219" d="M2460.194,2055.536a183.863,183.863,0,0,1-5.324,33.479c-1.259,4.939-2.525,9.056-5.375,17.612-3.4,10.217-8.2,24.172-14.456,41.028l-5.441.832c-3.755-13.685-2.676-24.446,1.18-33,2.283-5.068,3.627-5.114,5.977-10.771,2.5-6.012,3.518-12.069,2.887-32.518-.179-5.791-.513-13.487-1.188-22.594Z" transform="translate(-2391.523 -1948.163)" fill="url(#linear-gradient-27)"/>
      <path id="Path_22220" data-name="Path 22220" d="M2466.744,2055.536a183.863,183.863,0,0,1-5.324,33.479c-1.259,4.939-2.525,9.056-5.375,17.612-3.4,10.217-8.2,24.172-14.456,41.028l-5.441.832c-3.207-12.774-.858-19.481,2.059-23.269,1.8-2.34,4.067-3.884,5.719-7.911,1.945-4.739.568-6.884,1.578-12.432,1.362-7.479,4.594-7.59,5.736-13.438,1.347-6.9-2.471-10.218-5.048-19.24A52.569,52.569,0,0,1,2445,2049.6Z" transform="translate(-2398.074 -1948.163)" opacity="0.3" fill="url(#linear-gradient-28)" style="mix-blend-mode: multiply;isolation: isolate"/>
      <path id="Path_22221" data-name="Path 22221" d="M2445.2,2063.372c4.561,5.745,17.378,23.427,17.75,49.162a81.343,81.343,0,0,1-14.617,47.249l-5.352-.488a83.949,83.949,0,0,1,.887-21.756c2.334-13.469,6.028-14.923,5.473-22.6-.7-9.634-6.787-11.179-16.271-28.678-5.11-9.43-11.215-20.693-7.248-24.864C2426.576,2060.6,2430.258,2057.368,2445.2,2063.372Z" transform="translate(-2389.095 -1957.281)" fill="url(#linear-gradient-29)"/>
      <path id="Path_22222" data-name="Path 22222" d="M2269.193,1508.786c.14,2.145-.225,3.752-1.657,4.954-3.971,3.338-8.8-2.594-22.187-1.951-11.041.529-13.171,4.83-22.666,3.752-1.452-.164-14.129-1.731-16.085-8.362-1.357-4.61,3.642-7.628,10.5-18.784a115.127,115.127,0,0,0,11.4-25.555,28.5,28.5,0,0,0,1.482-12.234c-.6-5.748-2.724-8.746.823-12.278.684-.684,14.329-7.963,24.213-6.162a19.81,19.81,0,0,1,11.34,6.825c1.317,1.552,5.219,6.621,5.293,19.593.07,12.433-3.482,13.87-4.555,25.67C2266,1496.313,2268.874,1503.937,2269.193,1508.786Z" transform="translate(-2194.275 -1396.569)" fill="url(#linear-gradient-30)"/>
      <path id="Path_22223" data-name="Path 22223" d="M2567.885,1324.158s1.308,9.089-3.68,13.969a.614.614,0,0,0,.3,1.046,25.813,25.813,0,0,0,12.931-.484.611.611,0,0,0,.184-1.055,14.63,14.63,0,0,1-3.912-4.567c-1.453-2.984-1.712-8.076-1.712-8.076Z" transform="translate(-2513.629 -1300.378)" fill="url(#linear-gradient-31)"/>
      <path id="Path_22224" data-name="Path 22224" d="M2581.053,1282.656a5.182,5.182,0,0,0,5.786,1.8c3.164-1.154,1.275-9.324-1.234-10.256a4.438,4.438,0,0,0-3.4.468,4.922,4.922,0,0,0-1.546,5.534c-.8-.231-1.5-.021-1.679.375-.224.5.453,1.186.606,1.34A2.684,2.684,0,0,0,2581.053,1282.656Z" transform="translate(-2526.951 -1255.628)" fill="url(#linear-gradient-32)"/>
      <path id="Path_22225" data-name="Path 22225" d="M2267.536,1616.17c-3.971,3.338-8.8-2.595-22.187-1.951-11.041.529-13.171,4.83-22.666,3.752-1.452-.164-14.129-1.731-16.085-8.362-1.357-4.61,3.642-7.629,10.5-18.785a115.125,115.125,0,0,0,11.4-25.555,28.5,28.5,0,0,0,1.482-12.234c4.061-3.9,7.673-6.346,10.353-6.446,0,0-8.062,24.851,4.326,29.636s16.878,8.033,9.894,13.521c-6.586,5.174-7.628,12.119,14.639,21.469C2269.333,1613.361,2268.968,1614.967,2267.536,1616.17Z" transform="translate(-2194.275 -1498.998)" opacity="0.3" fill="url(#linear-gradient-33)" style="mix-blend-mode: multiply;isolation: isolate"/>
      <path id="Path_22226" data-name="Path 22226" d="M2354.09,2023.214s.311,2.508-1.327,3.437-2.636,3.775-2.749,2.685a6.369,6.369,0,0,1,.3-2.3s-5.953,3.982-5.683,2.372,4.825-6.532,7.451-7.271S2354.312,2021.179,2354.09,2023.214Z" transform="translate(-2317.718 -1923.164)" fill="url(#linear-gradient-34)"/>
      <path id="Path_22227" data-name="Path 22227" d="M2171.684,1497.3c7.387-.92,16.552-6.273,21.711-12.662a10.046,10.046,0,0,0-7.487-16.352,24.892,24.892,0,0,0-12.908,3.41c-14.362,7.913-36.229,15.877-26.378,29.007s29.658,34.6,29.281,27.035S2159.6,1498.8,2171.684,1497.3Z" transform="translate(-2138.715 -1429.064)" fill="url(#linear-gradient-35)"/>
      <path id="Path_22228" data-name="Path 22228" d="M3010.314,1150.627c.054-.158-1.085-5.975-2.395-6.225s-2.557,1.372-1,3.8S3009.466,1153.109,3010.314,1150.627Z" transform="translate(-2908.474 -1139.843)" fill="url(#linear-gradient-36)"/>
    </g>
    <path id="Path_22229" data-name="Path 22229" d="M2813.929,1090.581l-.634-7.628,4.379,6.266,7.627-3.473-5.288,5.879,3.908,6.857-5.631-3.134-5,5.312,2.064-7.015-10.692-.817Z" transform="translate(-2099.853 -560.73)" fill="url(#linear-gradient-37)"/>
    <g id="Group_11739" data-name="Group 11739" transform="translate(652.101 457.678)">
      <path id="Path_22230" data-name="Path 22230" d="M2370.23,502.945c.072-.086.141-.173.21-.26.052-.066.105-.132.156-.2.068-.09.134-.18.2-.271.048-.067.1-.133.144-.2l.043-.06c.02-.029.036-.058.056-.087q.209-.308.4-.626c.023-.039.048-.077.071-.117.137-.234.265-.472.386-.712.028-.055.054-.11.081-.166.12-.247.235-.5.337-.751l.008-.022c.1-.249.189-.5.272-.756.019-.057.037-.113.055-.169q.118-.384.211-.775c.01-.046.019-.091.029-.137.053-.24.1-.481.135-.725.007-.044.015-.089.021-.133.038-.267.064-.536.083-.807,0-.06.007-.12.01-.18.014-.279.022-.559.016-.842a11.574,11.574,0,0,0-1.864-5.986,13.3,13.3,0,0,0-.834-1.163,15.757,15.757,0,0,0-4.578-3.826q-.682-.385-1.411-.716a20,20,0,0,0-4.727-1.465,21.941,21.941,0,0,0-3.475-.087c-.3,0-.6.254-.9.254h0c-.289,0-.576-.231-.862-.213-.095.006-.189-.11-.283-.1-.19.014-.379-.034-.567-.015-.113.011-.225-.005-.337.008-.167.019-.334.023-.5.047-.12.017-.239.029-.358.047-.156.025-.312.046-.466.074-.122.022-.243.044-.365.068-.149.03-.3.059-.446.092-.122.027-.244.055-.365.084-.144.035-.287.07-.43.107-.121.032-.242.064-.362.1-.141.039-.28.081-.419.123-.118.036-.237.072-.354.11-.044.014-.088.027-.132.041l0,0c-6.5,2.159-11.031,7.319-10.892,13.238.18,7.677,8.144,13.717,17.788,13.491a21.183,21.183,0,0,0,7.43-1.5,17.359,17.359,0,0,0,6.323-4.291v0c.023-.025.044-.052.068-.077.074-.083.147-.166.22-.25C2370.119,503.077,2370.175,503.011,2370.23,502.945Z" transform="translate(-2335.45 -481.455)" fill="url(#linear-gradient-38)"/>
      <g id="Group_11738" data-name="Group 11738" transform="translate(0 0)">
        <path id="Path_22231" data-name="Path 22231" d="M2312.265,494.336c-.18-7.677,7.492-14.084,17.136-14.31s17.608,5.814,17.788,13.491a11.761,11.761,0,0,1-2.172,7,16.673,16.673,0,0,1-7.533,5.8,21.19,21.19,0,0,1-7.43,1.5C2320.409,508.053,2312.445,502.013,2312.265,494.336Z" transform="translate(-2312.262 -480.02)" fill="url(#linear-gradient-39)"/>
        <g id="Group_11736" data-name="Group 11736" transform="translate(10.892 0)" opacity="0.4" style="mix-blend-mode: multiply;isolation: isolate">
          <path id="Path_22232" data-name="Path 22232" d="M2416.1,483.666c2.2,4.056.164,7.943,3.074,10.529,2.957,2.627,6.658.034,10.756,2.133,1.585.812,3.362,2.394,4.733,5.706a12.146,12.146,0,0,0,3.382-8.517c-.18-7.677-8.144-13.717-17.788-13.491a21.424,21.424,0,0,0-6.247,1.07A9.185,9.185,0,0,1,2416.1,483.666Z" transform="translate(-2414.011 -480.02)" fill="url(#linear-gradient-40)"/>
        </g>
        <g id="Group_11737" data-name="Group 11737" transform="translate(9.262 3.787)">
          <path id="Path_22233" data-name="Path 22233" d="M2441.715,533.721a102.93,102.93,0,0,1-.229-11.941c.036-.124.106-.286.191-.563.929-3.028-.02-4.911.9-5.609a1.76,1.76,0,0,1,1.406-.129c2.182.394,3.762,3.339,3.413,5.667a4.3,4.3,0,0,1-.2.8c.149,0,.265-.006.38-.007.967-.009,1.938-.078,2.9-.013A3.8,3.8,0,0,1,2454,525.56a22.306,22.306,0,0,1,.015,3.1,5.129,5.129,0,0,1-2.435,3.734,6.635,6.635,0,0,1-2.46,1.087,6.338,6.338,0,0,1-1.12.129C2445.733,533.685,2442.207,533.717,2441.715,533.721Z" transform="translate(-2436.832 -515.397)" fill="#fff"/>
          <path id="Path_22234" data-name="Path 22234" d="M2401.85,577.92c.079,3.907.156,7.772.235,11.664-.832.017-1.651.055-2.469.04a.709.709,0,0,1-.635-.773c-.023-.756-.035-1.512-.051-2.269q-.076-3.82-.151-7.641c-.013-.677.258-.963.927-.979C2400.415,577.947,2401.123,577.935,2401.85,577.92Z" transform="translate(-2398.779 -571.227)" fill="#fff"/>
        </g>
      </g>
    </g>
    <g id="Group_11743" data-name="Group 11743" transform="translate(681.299 493.056)">
      <g id="Group_11742" data-name="Group 11742" transform="translate(0 0)">
        <path id="Path_22235" data-name="Path 22235" d="M2639.618,832.068c.068-.081.133-.163.2-.245.049-.062.1-.124.147-.187.065-.084.127-.17.189-.255.045-.063.092-.125.136-.188l.041-.056c.018-.027.034-.055.052-.082q.2-.291.378-.59c.021-.037.045-.073.067-.11.13-.22.25-.445.364-.671.026-.052.051-.1.076-.156.113-.233.221-.468.318-.707,0-.007.005-.014.008-.021.094-.234.178-.472.256-.712.017-.053.034-.106.051-.16.074-.241.141-.484.2-.73.01-.043.018-.086.027-.129q.075-.339.128-.683c.006-.042.014-.083.02-.125.036-.252.061-.505.078-.76,0-.057.007-.113.01-.17.013-.263.021-.527.015-.793a10.9,10.9,0,0,0-1.756-5.639,12.431,12.431,0,0,0-.785-1.1,14.841,14.841,0,0,0-4.313-3.6q-.642-.362-1.329-.675a18.843,18.843,0,0,0-4.454-1.38,20.653,20.653,0,0,0-3.274-.094c-.281,0-.563.227-.847.227h0c-.272,0-.543-.206-.812-.189-.089.006-.178-.1-.267-.091-.178.014-.358-.029-.534-.011-.107.011-.212,0-.318.009-.158.018-.315.023-.471.045-.113.016-.225.027-.337.045-.147.023-.293.043-.439.07-.115.021-.229.042-.344.064-.141.028-.281.056-.42.086-.115.026-.23.052-.344.079-.136.033-.271.066-.4.1-.114.03-.228.06-.341.092-.133.037-.264.076-.395.116-.112.034-.223.068-.333.1l-.124.039,0,0c-6.124,2.034-10.392,6.9-10.261,12.471.17,7.232,7.672,12.922,16.758,12.709a19.958,19.958,0,0,0,7-1.417,16.35,16.35,0,0,0,5.957-4.043v0c.022-.024.042-.049.063-.072.07-.078.139-.157.207-.236C2639.513,832.192,2639.566,832.13,2639.618,832.068Z" transform="translate(-2606.852 -811.822)" fill="url(#linear-gradient-41)"/>
        <g id="Group_11741" data-name="Group 11741">
          <path id="Path_22236" data-name="Path 22236" d="M2585.01,823.984c-.17-7.232,7.058-13.268,16.143-13.481s16.588,5.477,16.758,12.71a11.075,11.075,0,0,1-2.047,6.6,15.7,15.7,0,0,1-7.1,5.466,19.964,19.964,0,0,1-7,1.417C2592.683,836.907,2585.18,831.216,2585.01,823.984Z" transform="translate(-2585.008 -810.497)" fill="url(#linear-gradient-42)"/>
          <g id="Group_11740" data-name="Group 11740" transform="translate(10.261)" opacity="0.3" style="mix-blend-mode: multiply;isolation: isolate">
            <path id="Path_22237" data-name="Path 22237" d="M2682.831,813.932c2.075,3.821.154,7.483,2.9,9.919,2.786,2.475,6.272.032,10.133,2.009,1.493.765,3.167,2.255,4.459,5.375a11.443,11.443,0,0,0,3.186-8.024c-.17-7.232-7.672-12.923-16.758-12.71a20.185,20.185,0,0,0-5.885,1.008A8.673,8.673,0,0,1,2682.831,813.932Z" transform="translate(-2680.862 -810.497)" fill="url(#linear-gradient-43)"/>
          </g>
        </g>
      </g>
      <path id="Path_22238" data-name="Path 22238" d="M2663.041,868.8c-.157-2.941-2.155-5.411-4.644-5.724a4.636,4.636,0,0,0-4.678,2.68,5.251,5.251,0,0,0-4.734-3.139c-2.565.07-4.648,2.4-4.812,5.4a6.739,6.739,0,0,0,1.79,5.027l7.24,5.9a.817.817,0,0,0,1.033.029l7.091-5.38A6.236,6.236,0,0,0,2663.041,868.8Z" transform="translate(-2637.829 -857.033)" fill="#fff"/>
    </g>
    <g id="Group_11747" data-name="Group 11747" transform="translate(630.951 498.086)">
      <path id="Path_22239" data-name="Path 22239" d="M2139.787,884.782l-.155-.012-.281-.023-.156-.015-.28-.028-.148-.017-.288-.034-.134-.018-.3-.042-.115-.017-.327-.052-.086-.014c-.122-.021-.243-.042-.365-.065l-.044-.008a22.072,22.072,0,0,1-2.8-.716l0,0c-6.522-2.144-11.066-7.126-11.066-12.784,0-7.361,7.689-13.385,17.42-13.457,9.46-.07,17.419,5.481,18.271,12.632,0,.039.01.078.014.117.006.059.012.118.017.177s.01.111.014.166.008.1.011.151c0,.069.007.139.01.208,0,.04,0,.079.005.119,0,.111.006.221.006.333a12.041,12.041,0,0,1-5.11,9.52q-.305.234-.625.456t-.654.432q-.167.105-.338.207-.34.2-.695.394t-.72.368c-.207.1-.417.2-.63.29a20.691,20.691,0,0,1-3.814,1.246q-.387.087-.782.161a23.146,23.146,0,0,1-4.981.372q-.22-.007-.439-.018l-.136-.008Z" transform="translate(-2122.328 -857.478)" fill="url(#linear-gradient-44)"/>
      <g id="Group_11746" data-name="Group 11746" transform="translate(0 0)">
        <path id="Path_22240" data-name="Path 22240" d="M2114.688,871.381c0-7.361,7.552-13.577,17.11-13.891,9.836-.323,18.021,5.693,18.021,13.446s-8.186,13.977-18.021,13.9C2122.24,884.767,2114.688,878.742,2114.688,871.381Z" transform="translate(-2114.688 -857.478)" fill="url(#linear-gradient-45)"/>
        <g id="Group_11744" data-name="Group 11744" transform="translate(10.629 4.364)">
          <path id="Path_22241" data-name="Path 22241" d="M2215.618,917l.772-5.181-2.413.045V909.2l2.887-.043.474-3.232-2.525.026v-2.687l2.939-.018.739-5.006,2.615,0-.733,4.986,2.659-.017.756-4.967,2.575,0-.75,4.948,2.3-.015v2.636l-2.707.028-.463,3.194,2.4-.036v2.61l-2.83.053-.726,5.12-2.625.069.731-5.14-2.67.05-.737,5.16Zm6.541-7.919.467-3.206-2.662.027-.47,3.219Z" transform="translate(-2213.978 -898.243)" fill="#fff"/>
        </g>
        <g id="Group_11745" data-name="Group 11745" transform="translate(10.867)" opacity="0.3" style="mix-blend-mode: multiply;isolation: isolate">
          <path id="Path_22242" data-name="Path 22242" d="M2218.208,861.091c2.1,3.967-.023,7.765,2.817,10.323,2.909,2.621,6.727.105,10.884,2.244,1.621.834,3.432,2.448,4.784,5.8a12.032,12.032,0,0,0,3.772-8.518c0-7.753-8.186-13.769-18.021-13.446a22,22,0,0,0-6.244,1.1A8.605,8.605,0,0,1,2218.208,861.091Z" transform="translate(-2216.201 -857.478)" fill="url(#linear-gradient-46)"/>
        </g>
      </g>
    </g>
    <g id="Group_11748" data-name="Group 11748" transform="translate(479.571 538.549)">
      <circle id="Ellipse_2493" data-name="Ellipse 2493" cx="2.797" cy="2.797" r="2.797" transform="matrix(0.29, -0.957, 0.957, 0.29, 12.476, 25.311)" fill="url(#linear-gradient-47)"/>
      <path id="Path_22243" data-name="Path 22243" d="M716.565,1235.46a23.35,23.35,0,0,0-15.293,5.676,1.907,1.907,0,0,0-.116,2.8l.079.079a1.892,1.892,0,0,0,2.572.1,19.518,19.518,0,0,1,25.517,0,1.892,1.892,0,0,0,2.572-.1l.079-.079a1.906,1.906,0,0,0-.117-2.8A23.349,23.349,0,0,0,716.565,1235.46Z" transform="translate(-700.601 -1235.46)" fill="url(#linear-gradient-47)"/>
      <path id="Path_22244" data-name="Path 22244" d="M755.1,1296.293a16.849,16.849,0,0,0-10.651,3.774,1.9,1.9,0,0,0-.133,2.81l.014.014a1.913,1.913,0,0,0,2.559.116,13.1,13.1,0,0,1,16.424,0,1.912,1.912,0,0,0,2.559-.116l.014-.014a1.9,1.9,0,0,0-.133-2.81A16.85,16.85,0,0,0,755.1,1296.293Z" transform="translate(-739.14 -1289.781)" fill="url(#linear-gradient-47)"/>
      <path id="Path_22245" data-name="Path 22245" d="M787.784,1361.857a2.038,2.038,0,0,0,2.568.233,6.516,6.516,0,0,1,7.115,0,2.038,2.038,0,0,0,2.568-.233l.009-.009a1.9,1.9,0,0,0-.274-2.916,10.412,10.412,0,0,0-11.72,0,1.9,1.9,0,0,0-.274,2.916Z" transform="translate(-777.946 -1344.101)" fill="url(#linear-gradient-47)"/>
    </g>
  </g>
</svg>
