<svg id="Iconly_Bold_Hide" data-name="Iconly/Bold/Hide" xmlns="http://www.w3.org/2000/svg" width="21" height="18" viewBox="0 0 21 18">
  <g id="Hide" transform="translate(0 0)">
    <path id="Hide-2" data-name="Hide" d="M1.873,17.77a.787.787,0,0,1-.093-.98l.03-.042L16.964,1.331a.261.261,0,0,0,.051-.062.346.346,0,0,0,.052-.063l.963-.98A.776.776,0,0,1,18.576,0a.756.756,0,0,1,.54.227.768.768,0,0,1,.23.553.767.767,0,0,1-.23.552l-1.865,1.9A15.651,15.651,0,0,1,20.94,8.691a.816.816,0,0,1,0,.616c-2.2,5.2-6.1,8.3-10.44,8.3h-.01a9.493,9.493,0,0,1-5.542-1.855L2.959,17.77a.762.762,0,0,1-.543.23A.732.732,0,0,1,1.873,17.77Zm6.321-5.327a4.068,4.068,0,0,0,2.3.719A4.129,4.129,0,0,0,14.587,9a4.249,4.249,0,0,0-.707-2.346L12.764,7.8A2.644,2.644,0,0,1,13.051,9,2.577,2.577,0,0,1,10.5,11.6a2.513,2.513,0,0,1-1.189-.292ZM.062,9.31a.8.8,0,0,1,0-.615C2.254,3.5,6.158.408,10.492.408h.01a9.231,9.231,0,0,1,4.2,1.022L11.281,4.911a4.693,4.693,0,0,0-.779-.073,4.134,4.134,0,0,0-4.1,4.17,4.874,4.874,0,0,0,.072.792L2.684,13.657A16.79,16.79,0,0,1,.062,9.31Z" transform="translate(0 0)" fill="#3ea7ff"/>
  </g>
</svg>
