<svg xmlns="http://www.w3.org/2000/svg" width="17.664" height="15.601" viewBox="0 0 17.664 15.601">
  <path id="history-icon" d="M4.434,8.069v.046l.641-.643A.964.964,0,0,1,6.442,8.83l-2.2,2.215a.965.965,0,0,1-1.345.022L.658,9.1a.964.964,0,0,1,1.27-1.443l.577.511h0A7.838,7.838,0,0,1,3.659,3.691,7.583,7.583,0,0,1,7.121.7,8.681,8.681,0,0,1,8.708.194,7.586,7.586,0,0,1,17.379,4.68a8.378,8.378,0,0,1,.5,1.587,7.57,7.57,0,0,1-.189,3.888,7.669,7.669,0,0,1-2.1,3.269,8.239,8.239,0,0,1-3.255,1.89,7,7,0,0,1-5.844-.85.964.964,0,1,1,1.049-1.617,5.067,5.067,0,0,0,.8.433,4.935,4.935,0,0,0,.822.268,5.112,5.112,0,0,0,2.63-.078,6.315,6.315,0,0,0,2.493-1.461,5.728,5.728,0,0,0,1.577-2.461,5.627,5.627,0,0,0,.144-2.9,6.691,6.691,0,0,0-.387-1.226,5.654,5.654,0,0,0-6.492-3.35A6.492,6.492,0,0,0,7.9,2.467,5.627,5.627,0,0,0,5.306,4.694a5.906,5.906,0,0,0-.873,3.375ZM9.105,4.912a.881.881,0,0,1,1.763,0V7.653l2.148,1.193a.88.88,0,0,1-.857,1.538L9.624,8.975a.881.881,0,0,1-.519-.8Z" transform="translate(-0.385 -0.008)" opacity="0.8"/>
</svg>
