<svg id="Iconly_Bold_Calendar" data-name="Iconly/Bold/Calendar" xmlns="http://www.w3.org/2000/svg" width="14" height="15.555" viewBox="0 0 14 15.555">
  <g id="Calendar" transform="translate(0 0)">
    <path id="Calendar-2" data-name="Calendar" d="M4.007,15.555H4A4.007,4.007,0,0,1,1.09,14.481,4,4,0,0,1,.008,11.573L0,5.1A3.958,3.958,0,0,1,.948,2.372,3.842,3.842,0,0,1,3.5,1.19V.607a.6.6,0,0,1,.171-.43A.6.6,0,0,1,4.687.606V1.15l4.562-.006V.6A.6.6,0,0,1,9.418.17.6.6,0,0,1,10.431.6v.583a3.862,3.862,0,0,1,2.583,1.157,3.884,3.884,0,0,1,.977,2.71L14,11.6a3.682,3.682,0,0,1-3.989,3.947Zm6.138-4.517a.648.648,0,0,0-.629.662.645.645,0,1,0,.637-.662Zm-6.32,0h0a.662.662,0,0,0-.629.669.64.64,0,0,0,.631.622h.03a.629.629,0,0,0,.439-.206.639.639,0,0,0,.167-.463.632.632,0,0,0-.637-.621Zm3.164,0h0a.665.665,0,0,0-.629.67.64.64,0,0,0,.633.622H7.02a.64.64,0,0,0,.606-.67.632.632,0,0,0-.637-.621ZM3.821,8.24h0a.662.662,0,0,0-.629.669.639.639,0,0,0,.631.622h.03a.627.627,0,0,0,.438-.206.64.64,0,0,0,.167-.463.632.632,0,0,0-.636-.621Zm3.165-.027h0a.662.662,0,0,0-.629.669A.64.64,0,0,0,6.99,9.5h.028a.642.642,0,0,0,.606-.67.633.633,0,0,0-.636-.621Zm3.166,0h0a.643.643,0,0,0-.629.652v.009a.633.633,0,0,0,.638.621h.015a.642.642,0,0,0-.022-1.282ZM3.506,2.379A2.387,2.387,0,0,0,1.182,5.1v.242L12.81,5.321V5.049A2.4,2.4,0,0,0,10.433,2.37v.6a.594.594,0,0,1-1.014.425.6.6,0,0,1-.168-.424V2.341l-4.562.006v.629A.595.595,0,0,1,3.675,3.4a.6.6,0,0,1-.168-.424v-.6Z" transform="translate(0 0)" fill="#3ea7ff"/>
  </g>
</svg>
