<svg id="Iconly_Bulk_Message" data-name="Iconly/Bulk/Message" xmlns="http://www.w3.org/2000/svg" width="14.025" height="12.623" viewBox="0 0 14.025 12.623">
  <path id="Fill_1" data-name="Fill 1" d="M14.025,5.009A3.539,3.539,0,0,1,10.5,8.557H3.541A3.539,3.539,0,0,1,0,5.023V5.016S0,1.912.01.351A.35.35,0,0,1,.576.077C2.243,1.4,5.222,3.808,5.259,3.84a2.852,2.852,0,0,0,1.774.624,2.814,2.814,0,0,0,1.774-.632c.037-.025,2.95-2.362,4.641-3.706A.35.35,0,0,1,14.018.4c.007,1.549.007,4.609.007,4.609" transform="translate(0 4.065)" fill="#3ea7ff" opacity="0.4"/>
  <path id="Fill_4" data-name="Fill 4" d="M13.3,1.875A3.531,3.531,0,0,0,10.187,0h-7A3.531,3.531,0,0,0,.071,1.875a.606.606,0,0,0,.155.756L5.432,6.8a1.982,1.982,0,0,0,1.248.441h.014A1.982,1.982,0,0,0,7.943,6.8l5.207-4.165a.606.606,0,0,0,.155-.756" transform="translate(0.353)" fill="#3ea7ff"/>
</svg>
