<svg xmlns="http://www.w3.org/2000/svg" width="14.024" height="9.286" viewBox="0 0 14.024 9.286">
  <path id="name-id-icon" d="M7.847,7.076c-.114,0-.2-.122-.2-.272s.091-.272.2-.272h4.1c.114,0,.2.122.2.272s-.091.272-.2.272ZM2.929,0H11.1a.428.428,0,0,1,.418.342h1a1.512,1.512,0,0,1,1.508,1.507V7.784a1.505,1.505,0,0,1-.443,1.06h0a1.5,1.5,0,0,1-1.063.442H1.508A1.512,1.512,0,0,1,0,7.781V1.847A1.5,1.5,0,0,1,.443.786h0A1.5,1.5,0,0,1,1.508.342h1A.427.427,0,0,1,2.929,0Zm8.6,1.047V1.1a.427.427,0,0,1-.426.426H2.929A.427.427,0,0,1,2.5,1.1V1.047h-1a.8.8,0,0,0-.571.235h0A.8.8,0,0,0,.7,1.852V7.787a.8.8,0,0,0,.8.8H12.511a.8.8,0,0,0,.571-.235h0a.8.8,0,0,0,.235-.571V1.845a.807.807,0,0,0-.8-.8ZM5.114,5.5c.808.708,1.338-.312,1.734,1.35a.255.255,0,0,1-.267.25H2.228a.257.257,0,0,1-.267-.25c.386-1.637.85-.647,1.723-1.34A3.16,3.16,0,0,0,3.8,5.183c.029-.089-.148-.265-.208-.36l-.22-.352a.635.635,0,0,1-.126-.321.253.253,0,0,1,.022-.114.228.228,0,0,1,.076-.088A.236.236,0,0,1,3.4,3.922a5.489,5.489,0,0,1-.011-.63.888.888,0,0,1,.039-.139.929.929,0,0,1,.612-.595c.138-.047.084-.161.228-.153a1.737,1.737,0,0,1,1.027.457A1.455,1.455,0,0,1,5.485,3.95h0a.156.156,0,0,1,.114.114.5.5,0,0,1-.059.3h0v.008l-.259.42a2.054,2.054,0,0,1-.326.443c-.038.031.129.235.154.268ZM7.853,3.786c-.114,0-.2-.122-.2-.272s.091-.272.2-.272H10.3c.114,0,.2.122.2.272s-.091.272-.2.272Zm0,1.64c-.114,0-.2-.122-.2-.272s.091-.272.2-.272h3.88c.114,0,.2.122.2.272s-.091.272-.2.272Z" fill="#3ea7ff" fill-rule="evenodd"/>
</svg>
