<svg xmlns="http://www.w3.org/2000/svg" width="11.387" height="6.305" viewBox="0 0 11.387 6.305">
  <g id="increase-up-profit-icon" transform="translate(0.004 -0.006)" opacity="0.7">
    <path id="Path_22169" data-name="Path 22169" d="M.184,5.243a.622.622,0,1,0,.867.891l2.562-2.5L5.756,5.7a.622.622,0,0,0,.879-.017l3.5-3.542V3.929a.624.624,0,1,0,1.247,0V.627h0a.621.621,0,0,0-.661-.62H7.632a.624.624,0,0,0,0,1.247H9.266L6.177,4.379,4.043,2.319a.621.621,0,0,0-.865,0L.184,5.243Z" transform="translate(0)" fill="#fff"/>
  </g>
</svg>
