<svg id="Heart" xmlns="http://www.w3.org/2000/svg" width="17" height="16" viewBox="0 0 17 16">
  <path id="Path_34179" d="M8.291,15.863a30.78,30.78,0,0,1-5.379-4.175A10.655,10.655,0,0,1,.336,7.642c-.967-2.981.159-6.388,3.3-7.4a5.38,5.38,0,0,1,4.85.852h0a5.388,5.388,0,0,1,4.85-.852c3.143,1.011,4.276,4.418,3.309,7.4a10.656,10.656,0,0,1-2.561,4.046,31.06,31.06,0,0,1-5.379,4.175L8.5,16Z" transform="translate(0.019 0)" fill="#f11" opacity="0.4"/>
  <path id="Path_34178" d="M8.509,16l-.2-.137a30.833,30.833,0,0,1-5.386-4.175A10.655,10.655,0,0,1,.332,7.642C-.627,4.661.5,1.254,3.641.243A5.392,5.392,0,0,1,8.509,1.1Z" transform="translate(0 0)" fill="#f11"/>
  <path id="Path_34180" d="M1.9,3.368h0a.613.613,0,0,1-.44-.234.684.684,0,0,1-.142-.5h0A1.386,1.386,0,0,0,.469,1.3.662.662,0,0,1,.019.5.616.616,0,0,1,.753.016.328.328,0,0,1,.871.06,2.69,2.69,0,0,1,2.547,2.716a.677.677,0,0,1-.195.472A.6.6,0,0,1,1.9,3.368Z" transform="translate(11.9 2.526)" fill="#f11"/>
</svg>
