<svg xmlns="http://www.w3.org/2000/svg" width="14.025" height="16.499" viewBox="0 0 14.025 16.499">
  <g id="Lock" opacity="0.59">
    <path id="Lock-2" data-name="Lock" d="M10.5,16.5H3.522A3.487,3.487,0,0,1,0,13.056V8.982A3.436,3.436,0,0,1,2.456,5.716V4.452A4.514,4.514,0,0,1,7,0a4.6,4.6,0,0,1,3.233,1.3,4.368,4.368,0,0,1,1.335,3.148V5.716a3.436,3.436,0,0,1,2.456,3.266v4.073A3.487,3.487,0,0,1,10.5,16.5Zm-3.5-7.108a.722.722,0,0,0-.729.714v1.82a.733.733,0,0,0,1.466,0v-1.82A.727.727,0,0,0,7.008,9.392Zm.008-7.957a3.062,3.062,0,0,0-3.093,3v1.1H10.1V4.452A3.055,3.055,0,0,0,7.016,1.434Z" transform="translate(0 0)" fill="#3ea7ff"/>
  </g>
</svg>
