<svg xmlns="http://www.w3.org/2000/svg" width="14" height="17" viewBox="0 0 14 17">
  <g id="Iconly_Bulk_Notification" data-name="Iconly/Bulk/Notification" opacity="0.8">
    <g id="Notification">
      <path id="Fill_1" data-name="Fill 1" d="M13.4,8.2a3.362,3.362,0,0,1-.875-2.421V5.415a4.814,4.814,0,0,0-.985-3.184A5.733,5.733,0,0,0,7.036,0H6.963a5.752,5.752,0,0,0-4.43,2.136A4.878,4.878,0,0,0,1.477,5.415v.363A3.288,3.288,0,0,1,.6,8.2,2.92,2.92,0,0,0,0,10.162a3.127,3.127,0,0,0,.711,2.021,3.689,3.689,0,0,0,2.388,1.2,33.239,33.239,0,0,0,3.9.21c1.312,0,2.606-.1,3.9-.21a3.689,3.689,0,0,0,2.387-1.2A3.132,3.132,0,0,0,14,10.162,2.92,2.92,0,0,0,13.4,8.2" transform="translate(0 0)"/>
      <path id="Fill_4" data-name="Fill 4" d="M4.064.068a20.425,20.425,0,0,0-3.332,0C.381.152,0,.347,0,.775a1.325,1.325,0,0,0,.573,1h0A2.947,2.947,0,0,0,1.984,2.4a3.062,3.062,0,0,0,.83,0,2.947,2.947,0,0,0,1.411-.622h0a1.325,1.325,0,0,0,.573-1c0-.428-.381-.623-.733-.707" transform="translate(4.59 14.576)" opacity="0.4"/>
    </g>
  </g>
</svg>
