<svg id="Iconly_Bulk_Call" data-name="Iconly/Bulk/Call" xmlns="http://www.w3.org/2000/svg" width="13.5" height="13.5" viewBox="0 0 13.5 13.5">
  <g id="Call">
    <path id="Call-2" data-name="Call" d="M10.913,8.356a1.538,1.538,0,0,0-1.13.3c-.325.189-.944.691-1.3.563A8.054,8.054,0,0,1,4.224,5.057c-.13-.362.369-.984.557-1.314a1.576,1.576,0,0,0,.295-1.137A9.251,9.251,0,0,0,3.5.415,1.291,1.291,0,0,0,2.714,0C1.7-.042.569,1.31.371,1.633a2.628,2.628,0,0,0,.008,2.72c1.212,2.989,5.8,7.5,8.8,8.758a3.626,3.626,0,0,0,1.515.389,1.97,1.97,0,0,0,1.182-.37c.257-.148,1.665-1.336,1.628-2.377a1.31,1.31,0,0,0-.41-.787,9.315,9.315,0,0,0-2.176-1.61" transform="translate(0 0)" fill="#3ea7ff"/>
  </g>
</svg>
