<svg xmlns="http://www.w3.org/2000/svg" width="21" height="20.996" viewBox="0 0 21 20.996">
  <g id="push-pin-svgrepo-com" transform="translate(0 -0.048)">
    <g id="Group_12725" data-name="Group 12725" transform="translate(0 0.048)">
      <path id="Path_27242" data-name="Path 27242" d="M20.745,5.256,15.785.3a.718.718,0,0,0-.512-.248.641.641,0,0,0-.6.529l-.231.777a3.692,3.692,0,0,1-.794,1.339L9.619,6.71A3.914,3.914,0,0,1,8.3,7.52l-2.331.76A.633.633,0,0,0,5.7,9.405l2.314,2.331L3.023,16.729l-.017.017L.03,20.779a.175.175,0,0,0,.017.215.15.15,0,0,0,.116.05.235.235,0,0,0,.1-.033L4.3,18.035l.017-.017L9.3,13.026l2.331,2.348a.775.775,0,0,0,.512.265.693.693,0,0,0,.612-.529l.76-2.348a4.271,4.271,0,0,1,.81-1.339l4.034-4.034A3.56,3.56,0,0,1,19.7,6.595l.777-.231a.729.729,0,0,0,.512-.463A.771.771,0,0,0,20.745,5.256Z" transform="translate(0 -0.048)" fill="#3ea7ff"/>
    </g>
  </g>
</svg>
