<svg xmlns="http://www.w3.org/2000/svg" width="21.1" height="21.081" viewBox="0 0 21.1 21.081">
  <g id="exclamation-mark-svgrepo-com" transform="translate(0 -0.02)">
    <path id="Path_22186" data-name="Path 22186" d="M10.559.02H10.54a10.541,10.541,0,0,0,0,21.081h.019a10.541,10.541,0,0,0,0-21.081Zm0,18.064H10.54a1.725,1.725,0,1,1,0-3.45h.019a1.725,1.725,0,1,1,0,3.45ZM13.033,4.937c-.113,1.722-.9,6.842-.9,6.842a1.569,1.569,0,0,1-1.571,1.563h-.027a1.57,1.57,0,0,1-1.57-1.563s-.787-5.12-.9-6.842a2.393,2.393,0,0,1,2.47-2.462h.027A2.393,2.393,0,0,1,13.033,4.937Z" fill="#ff4b4b"/>
  </g>
</svg>
