<svg id="Iconly_Bold_Bookmark" data-name="Iconly/Bold/Bookmark" xmlns="http://www.w3.org/2000/svg" width="18" height="22" viewBox="0 0 18 22">
  <g id="Bookmark" transform="translate(0 0)">
    <path id="Bookmark-2" data-name="Bookmark" d="M16.859,22a1.174,1.174,0,0,1-.58-.155l-7.29-3.564-7.3,3.564a1.225,1.225,0,0,1-.552.143A1.13,1.13,0,0,1,0,20.866V4.169A3.622,3.622,0,0,1,1.617.962,7.045,7.045,0,0,1,5.512,0h6.942a7.075,7.075,0,0,1,3.9.962A3.673,3.673,0,0,1,18,4.169v16.7a1.122,1.122,0,0,1-.136.539,1.154,1.154,0,0,1-.7.55A1.071,1.071,0,0,1,16.859,22ZM4.748,6.644a.869.869,0,1,0,0,1.738h8.471a.869.869,0,1,0,0-1.738Z" transform="translate(0 0)" fill="#3ea7ff"/>
  </g>
</svg>
