<svg xmlns="http://www.w3.org/2000/svg" width="16.099" height="16" viewBox="0 0 16.099 16">
  <g id="Iconly_Bulk_Send" data-name="Iconly/Bulk/Send" opacity="0.5">
    <g id="Send">
      <path id="Fill_1" data-name="Fill 1" d="M15.645.466a1.561,1.561,0,0,0-1.554-.4L1.133,3.807A1.541,1.541,0,0,0,.02,5.024,1.8,1.8,0,0,0,.827,6.707L4.878,9.181a1.054,1.054,0,0,0,1.3-.154l4.639-4.639a.592.592,0,0,1,.854,0,.608.608,0,0,1,0,.854L7.019,9.881a1.055,1.055,0,0,0-.155,1.3l2.476,4.067a1.612,1.612,0,0,0,1.538.748A1.565,1.565,0,0,0,12.19,14.88L16.032,2.02A1.565,1.565,0,0,0,15.645.466" transform="translate(0 0)" fill="#7f7f7f"/>
      <path id="Combined_Shape" data-name="Combined Shape" d="M3.837,6.141a.6.6,0,0,1,0-.854l1.1-1.1a.6.6,0,0,1,.855.855l-1.1,1.1a.6.6,0,0,1-.854,0ZM3.205,3.09a.6.6,0,0,1,0-.854l1.1-1.1a.6.6,0,1,1,.855.855l-1.1,1.1a.6.6,0,0,1-.854,0ZM.177,2.13a.6.6,0,0,1,0-.854l1.1-1.1a.6.6,0,1,1,.855.855l-1.1,1.1a.6.6,0,0,1-.854,0Z" transform="translate(0.21 9.618)" fill="#7f7f7f" opacity="0.4"/>
    </g>
  </g>
</svg>
