<svg id="Iconly_Bulk_Chat" data-name="Iconly/Bulk/Chat" xmlns="http://www.w3.org/2000/svg" width="16.024" height="16" viewBox="0 0 16.024 16">
  <g id="Chat">
    <path id="Fill_1" data-name="Fill 1" d="M8.028,0A8.011,8.011,0,0,0,0,8.012a8.461,8.461,0,0,0,1.082,4,.838.838,0,0,1,.056.721L.6,14.526a.5.5,0,0,0,.657.625l1.618-.481a1.366,1.366,0,0,1,1.195.288A8,8,0,1,0,8.028,0" fill="#3ea7ff" opacity="0.4"/>
    <path id="Combined_Shape" data-name="Combined Shape" d="M7.387,1.025A1.025,1.025,0,1,1,8.413,2.052,1.022,1.022,0,0,1,7.387,1.025ZM3.694,1.018A1.025,1.025,0,1,1,4.719,2.052,1.035,1.035,0,0,1,3.694,1.018ZM0,1.025a1.025,1.025,0,1,1,2.051,0A1.033,1.033,0,0,1,1.025,2.052,1.033,1.033,0,0,1,0,1.025Z" transform="translate(3.277 6.994)" fill="#3ea7ff"/>
  </g>
</svg>
