<svg id="Iconly_Bulk_Setting" data-name="Iconly/Bulk/Setting" xmlns="http://www.w3.org/2000/svg" width="13" height="14" viewBox="0 0 13 14">
  <g id="Setting">
    <path id="Path" d="M12.815,8.659a1.591,1.591,0,0,0-.566-.553,1.071,1.071,0,0,1-.434-.448,1.292,1.292,0,0,1,.448-1.75,1.437,1.437,0,0,0,.517-1.981L12.312,3.1a1.427,1.427,0,0,0-1.965-.532,1.333,1.333,0,0,1-1.762-.483,1.1,1.1,0,0,1-.161-.616A1.267,1.267,0,0,0,8.235.728,1.466,1.466,0,0,0,6.991,0H6A1.5,1.5,0,0,0,4.767.728a1.271,1.271,0,0,0-.2.742,1.1,1.1,0,0,1-.161.616,1.326,1.326,0,0,1-1.755.483A1.436,1.436,0,0,0,.684,3.1l-.468.826A1.449,1.449,0,0,0,.733,5.908a1.3,1.3,0,0,1,.455,1.75,1.131,1.131,0,0,1-.441.448,1.465,1.465,0,0,0-.559.553A1.424,1.424,0,0,0,.2,10.094l.482.84a1.454,1.454,0,0,0,1.245.728,1.453,1.453,0,0,0,.741-.21,1.066,1.066,0,0,1,.615-.161,1.309,1.309,0,0,1,1.287,1.274A1.432,1.432,0,0,0,6.026,14h.951a1.43,1.43,0,0,0,1.447-1.435,1.32,1.32,0,0,1,1.294-1.274,1.1,1.1,0,0,1,.615.161,1.435,1.435,0,0,0,.741.21,1.451,1.451,0,0,0,1.238-.728l.489-.84a1.441,1.441,0,0,0,.014-1.435" fill="#3ea7ff"/>
    <path id="Path-2" data-name="Path" d="M1.986,3.955A1.978,1.978,0,1,1,3.951,1.981,1.956,1.956,0,0,1,1.986,3.955" transform="translate(4.522 5.026)" fill="#fff"/>
  </g>
</svg>
