<svg id="Iconly_Bulk_Send" data-name="Iconly/Bulk/Send" xmlns="http://www.w3.org/2000/svg" width="21.099" height="21" viewBox="0 0 21.099 21">
  <g id="Send">
    <path id="Fill_1" data-name="Fill 1" d="M20.5.611A2.044,2.044,0,0,0,18.467.083L1.485,5a2.022,2.022,0,0,0-1.46,1.6A2.364,2.364,0,0,0,1.083,8.8l5.31,3.247a1.379,1.379,0,0,0,1.7-.2l6.08-6.089a.775.775,0,0,1,1.119,0,.8.8,0,0,1,0,1.12L9.2,12.968a1.386,1.386,0,0,0-.2,1.7l3.244,5.338a2.111,2.111,0,0,0,2.016.982,2.052,2.052,0,0,0,1.72-1.459L21.01,2.651A2.056,2.056,0,0,0,20.5.611" fill="#3ea7ff"/>
    <path id="Combined_Shape" data-name="Combined Shape" d="M5.028,8.06a.794.794,0,0,1,0-1.121L6.469,5.5a.792.792,0,1,1,1.12,1.122L6.147,8.06a.79.79,0,0,1-1.119,0Zm-.827-4a.794.794,0,0,1,0-1.121L5.642,1.492a.792.792,0,0,1,1.12,1.122L5.32,4.056a.79.79,0,0,1-1.119,0ZM.232,2.8a.794.794,0,0,1,0-1.121L1.672.231a.792.792,0,1,1,1.12,1.122L1.35,2.8a.79.79,0,0,1-1.119,0Z" transform="translate(0.275 12.623)" fill="#3ea7ff" opacity="0.4"/>
  </g>
</svg>
