<svg xmlns="http://www.w3.org/2000/svg" xmlns:xlink="http://www.w3.org/1999/xlink" width="246.606" height="244.485" viewBox="0 0 246.606 244.485">
  <defs>
    <linearGradient id="linear-gradient" x1="5.777" y1="-0.206" x2="6.617" y2="0.64" gradientUnits="objectBoundingBox">
      <stop offset="0" stop-color="#ff9085"/>
      <stop offset="1" stop-color="#fb6fbb"/>
    </linearGradient>
    <clipPath id="clip-path">
      <path id="Path_8628" data-name="Path 8628" d="M664.271,882.566l15.078,3.677c1.4-1.92,3.481-5.584.563-7.324-4.057-2.419-2.217-10.163-.326-12.59,2.341-3,7.648-10.109,1.435-13.948-5.172-3.2-9.163-4.2-7.731-11.536s-1.38-12.847-8.051-14.072c-7.021-1.289-10.365-11.91-16.8-10.262-11.21,2.872-6.3,21.072,4.525,28.716s2.857,10.23,1.041,16.07c-2.481,7.974,8.885,9,10.971,12.907C666.612,877.265,665.326,880.6,664.271,882.566Z" transform="translate(-642.072 -816.338)" fill="none"/>
    </clipPath>
    <clipPath id="clip-path-2">
      <path id="Path_8637" data-name="Path 8637" d="M726.417,578.023l-16.677-.057s-3.11-8.566,1-14.589c8.38-12.29-2.969-18.772-7.316-22.2-6.556-5.167-10.08-12.579-.4-15.768s.014-18.2-11.776-25.019c-11.538-6.672-6.335-31.032,19.963-18.884,15.705,7.255,13.185,23.924,13.913,32.644s13.692,9.485,9.218,20.12c-3.821,9.084-11.045,15.692-5.571,21.965S734.785,569.524,726.417,578.023Z" transform="translate(-685.445 -478.165)" fill="none"/>
    </clipPath>
    <linearGradient id="linear-gradient-2" x1="3.283" y1="0.046" x2="2.616" y2="0.99" gradientUnits="objectBoundingBox">
      <stop offset="0" stop-color="#ffc444"/>
      <stop offset="0.996" stop-color="#f36f56"/>
    </linearGradient>
    <linearGradient id="linear-gradient-3" x1="-4.298" y1="-0.148" x2="-3.498" y2="1.061" gradientUnits="objectBoundingBox">
      <stop offset="0" stop-color="#aa80f9"/>
      <stop offset="0.996" stop-color="#6165d7"/>
    </linearGradient>
    <clipPath id="clip-path-3">
      <path id="Path_8647" data-name="Path 8647" d="M2211.547,754.774l-13.339-3.436s-3.436-9.993,1.5-12.656,3.043-12.259,2.63-17.493c-1.122-14.2,14.223-12.909,14.241-31.272,0-4.884-1.62-14.2,2.5-18.089,4.691-4.432,8.116-.084,11.132-3.79,4.714-5.792,12.364-7.87,16.925-1.909,4.5,5.883-.968,17.6-14.563,27.008-8.988,7.858-9.129,10.21-8.421,15.939.5,4.013,4.323,14.465-1.123,18.639s-9.609,8.684-7.511,13.216C2218.7,747.826,2211.547,754.774,2211.547,754.774Z" transform="translate(-2197.043 -662.551)" fill="none"/>
    </clipPath>
    <clipPath id="clip-path-4">
      <path id="Path_8656" data-name="Path 8656" d="M2106.53,1134.3l15.914,4.988s5.554-7.224,3.46-14.208c-4.273-14.249,8.5-17,13.684-18.948,7.812-2.943,13.412-8.943,5.152-14.908s5.489-17.354,18.789-20.288c13.015-2.872,15.42-27.665-13.32-24.036-17.164,2.167-19.8,18.818-23.132,26.91s-15.918,4.9-14.869,16.391c.9,9.814,5.784,18.3-1.331,22.621S2101.124,1123.665,2106.53,1134.3Z" transform="translate(-2103.653 -1046.536)" fill="none"/>
    </clipPath>
    <linearGradient id="linear-gradient-4" x1="3.59" y1="-0.441" x2="3.11" y2="0.577" gradientUnits="objectBoundingBox">
      <stop offset="0.004" stop-color="#e38ddd"/>
      <stop offset="1" stop-color="#9571f6"/>
    </linearGradient>
    <linearGradient id="linear-gradient-5" x1="-0.419" y1="-0.105" x2="0.27" y2="0.855" xlink:href="#linear-gradient-2"/>
    <clipPath id="clip-path-5">
      <path id="Path_8663" data-name="Path 8663" d="M2148.492,1641.839l-15.516.352c-.954-2.176-2.2-6.2,1.024-7.274,4.482-1.491,4.349-9.449,3.022-12.226-1.641-3.436-5.3-11.516,1.594-13.93,5.738-2.01,9.851-2.134,10.029-9.606s4.107-12.25,10.886-12.013c7.134.249,12.682-9.406,18.612-6.414,10.332,5.213,1.626,21.933-10.588,27.073s-4.989,9.377-4.469,15.472c.71,8.32-10.612,6.884-13.488,10.249C2147.345,1636.158,2147.885,1639.687,2148.492,1641.839Z" transform="translate(-2131.921 -1580.151)" fill="none"/>
    </clipPath>
    <linearGradient id="linear-gradient-6" x1="1.209" y1="0.822" x2="0.353" y2="0.447" gradientUnits="objectBoundingBox">
      <stop offset="0" stop-color="#444b8c"/>
      <stop offset="0.996" stop-color="#26264f"/>
    </linearGradient>
    <linearGradient id="linear-gradient-7" x1="-1.68" y1="1.021" x2="1.472" y2="1.082" xlink:href="#linear-gradient-6"/>
    <linearGradient id="linear-gradient-8" x1="0" y1="0.5" x2="1" y2="0.5" xlink:href="#linear-gradient"/>
    <linearGradient id="linear-gradient-9" x1="-0.307" y1="-1.128" x2="3.434" y2="6.419" xlink:href="#linear-gradient-3"/>
    <linearGradient id="linear-gradient-10" x1="-0.342" y1="-2.213" x2="2.051" y2="5.95" xlink:href="#linear-gradient-3"/>
    <linearGradient id="linear-gradient-11" x1="-0.474" y1="-16.277" x2="1.509" y2="17.876" xlink:href="#linear-gradient-3"/>
    <linearGradient id="linear-gradient-12" x1="-7.742" y1="-16.296" x2="6.377" y2="12.477" xlink:href="#linear-gradient-3"/>
    <linearGradient id="linear-gradient-13" x1="-8.159" y1="-17.074" x2="6.076" y2="11.817" xlink:href="#linear-gradient-3"/>
    <linearGradient id="linear-gradient-14" x1="-8.579" y1="-17.852" x2="5.772" y2="11.156" xlink:href="#linear-gradient-3"/>
    <linearGradient id="linear-gradient-15" x1="-9.002" y1="-18.63" x2="5.465" y2="10.496" xlink:href="#linear-gradient-3"/>
    <linearGradient id="linear-gradient-16" x1="-9.428" y1="-19.408" x2="5.155" y2="9.835" xlink:href="#linear-gradient-3"/>
    <linearGradient id="linear-gradient-18" x1="-0.023" y1="0.5" x2="1.67" y2="0.513" xlink:href="#linear-gradient"/>
    <linearGradient id="linear-gradient-19" x1="0.132" y1="0.656" x2="0.343" y2="0.417" xlink:href="#linear-gradient-3"/>
    <linearGradient id="linear-gradient-20" x1="-22.707" y1="13.562" x2="-21.744" y2="13.562" xlink:href="#linear-gradient-6"/>
    <linearGradient id="linear-gradient-21" x1="-37.122" y1="14.398" x2="-36.294" y2="12.511" xlink:href="#linear-gradient-2"/>
    <linearGradient id="linear-gradient-22" x1="-19.545" y1="12.188" x2="-18.581" y2="12.188" xlink:href="#linear-gradient-6"/>
    <linearGradient id="linear-gradient-23" x1="-31.474" y1="12.631" x2="-30.647" y2="10.744" xlink:href="#linear-gradient-2"/>
    <linearGradient id="linear-gradient-24" x1="-0.14" y1="0.76" x2="0.39" y2="0.332" xlink:href="#linear-gradient-3"/>
    <linearGradient id="linear-gradient-25" x1="0.054" y1="0.62" x2="0.959" y2="0.1" xlink:href="#linear-gradient-3"/>
    <linearGradient id="linear-gradient-26" x1="0.094" y1="1.167" x2="0.695" y2="0.505" xlink:href="#linear-gradient-3"/>
    <linearGradient id="linear-gradient-27" x1="-0.497" y1="1.988" x2="-0.081" y2="1.008" xlink:href="#linear-gradient-6"/>
    <linearGradient id="linear-gradient-28" x1="-0.124" y1="0.885" x2="-0.608" y2="1.857" xlink:href="#linear-gradient-6"/>
    <linearGradient id="linear-gradient-29" x1="-0.038" y1="3.574" x2="-0.159" y2="2.216" gradientUnits="objectBoundingBox">
      <stop offset="0" stop-color="#311944"/>
      <stop offset="1" stop-color="#893976"/>
    </linearGradient>
    <linearGradient id="linear-gradient-30" x1="-1.43" y1="1.755" x2="-1.311" y2="4.114" xlink:href="#linear-gradient-29"/>
    <linearGradient id="linear-gradient-31" x1="-2.578" y1="3.223" x2="-1.627" y2="3.223" xlink:href="#linear-gradient-2"/>
    <linearGradient id="linear-gradient-32" x1="0.379" y1="0.912" x2="0.182" y2="0.515" xlink:href="#linear-gradient-6"/>
    <linearGradient id="linear-gradient-33" x1="-0.02" y1="1.573" x2="0.42" y2="0.311" xlink:href="#linear-gradient-29"/>
    <linearGradient id="linear-gradient-34" x1="-0.246" y1="0.729" x2="0.765" y2="0.729" xlink:href="#linear-gradient-29"/>
    <linearGradient id="linear-gradient-35" x1="1.684" y1="-1.853" x2="1.74" y2="-3.63" xlink:href="#linear-gradient-2"/>
    <linearGradient id="linear-gradient-36" x1="-13.913" y1="-0.318" x2="-14.735" y2="-2.052" xlink:href="#linear-gradient-6"/>
    <linearGradient id="linear-gradient-37" x1="-5.091" y1="-3.05" x2="-5.127" y2="0.119" xlink:href="#linear-gradient-2"/>
    <linearGradient id="linear-gradient-38" x1="-21.121" y1="-1.635" x2="-21.994" y2="-3.615" xlink:href="#linear-gradient-6"/>
    <linearGradient id="linear-gradient-39" x1="-91.687" y1="-47.798" x2="-91.503" y2="-42.8" gradientUnits="objectBoundingBox">
      <stop offset="0" stop-color="#ffc444"/>
      <stop offset="1" stop-color="#f36f56"/>
    </linearGradient>
    <linearGradient id="linear-gradient-40" x1="0.755" y1="-0.093" x2="1.414" y2="0.432" xlink:href="#linear-gradient-3"/>
    <linearGradient id="linear-gradient-41" x1="4.869" y1="-0.046" x2="5.83" y2="-0.046" xlink:href="#linear-gradient-3"/>
    <linearGradient id="linear-gradient-42" x1="4.91" y1="-0.172" x2="5.871" y2="-0.172" xlink:href="#linear-gradient-3"/>
    <linearGradient id="linear-gradient-43" x1="0.281" y1="0.478" x2="1.287" y2="0.478" xlink:href="#linear-gradient-6"/>
    <linearGradient id="linear-gradient-44" x1="0.318" y1="0.461" x2="1.314" y2="0.461" xlink:href="#linear-gradient-6"/>
    <linearGradient id="linear-gradient-45" x1="4.64" y1="1.662" x2="0.273" y2="0.122" gradientUnits="objectBoundingBox">
      <stop offset="0" stop-color="#311944"/>
      <stop offset="1" stop-color="#6b3976"/>
    </linearGradient>
    <linearGradient id="linear-gradient-46" x1="1.502" y1="0.886" x2="-0.055" y2="0.094" xlink:href="#linear-gradient-45"/>
    <linearGradient id="linear-gradient-47" x1="0.687" y1="0.32" x2="2.025" y2="0.862" xlink:href="#linear-gradient-3"/>
    <linearGradient id="linear-gradient-48" x1="0.44" y1="0.272" x2="2.074" y2="0.79" xlink:href="#linear-gradient-3"/>
    <linearGradient id="linear-gradient-49" x1="6.68" y1="0.72" x2="6.757" y2="-1.081" xlink:href="#linear-gradient-2"/>
    <linearGradient id="linear-gradient-50" x1="0.895" y1="1.085" x2="0.985" y2="-0.674" xlink:href="#linear-gradient-2"/>
    <linearGradient id="linear-gradient-51" x1="14.369" y1="0.65" x2="14.324" y2="3.571" xlink:href="#linear-gradient-2"/>
    <linearGradient id="linear-gradient-52" x1="9.732" y1="4.249" x2="-0.018" y2="-0.558" xlink:href="#linear-gradient-45"/>
    <linearGradient id="linear-gradient-53" x1="0.931" y1="0.061" x2="1.849" y2="0.553" xlink:href="#linear-gradient-3"/>
    <linearGradient id="linear-gradient-54" x1="2.057" y1="1.335" x2="-0.229" y2="-0.217" xlink:href="#linear-gradient-45"/>
    <linearGradient id="linear-gradient-55" x1="2.517" y1="-0.412" x2="2.135" y2="-0.06" xlink:href="#linear-gradient-2"/>
    <linearGradient id="linear-gradient-56" x1="1.306" y1="0.149" x2="3.498" y2="0.149" xlink:href="#linear-gradient"/>
    <linearGradient id="linear-gradient-57" x1="-34.604" y1="-13.652" x2="-32.56" y2="-13.652" xlink:href="#linear-gradient-2"/>
    <linearGradient id="linear-gradient-58" x1="-29.38" y1="30.747" x2="-27.326" y2="30.747" xlink:href="#linear-gradient-2"/>
    <linearGradient id="linear-gradient-59" x1="3.15" y1="-0.245" x2="2.326" y2="1.055" xlink:href="#linear-gradient-3"/>
  </defs>
  <g id="Group_13718" data-name="Group 13718" transform="translate(-90.394 -68.707)">
    <g id="Group_12241" data-name="Group 12241" transform="translate(-276.829 -266.019)">
      <path id="Path_8621" data-name="Path 8621" d="M653.18,512.81c4.034,20.582,12.209,62.3-7.355,90.2-34.959,49.865-154.766,47.724-207.262-16.777-3.666-4.5-34.414-43.532-25.049-93.165,12.069-63.958,84.087-110.232,141.244-97.692,36.159,7.933,59.305,37.848,68.7,50C627.453,450.551,645.757,474.934,653.18,512.81Z" transform="translate(-44.525 -58.592)" fill="#f4f7fa"/>
      <g id="Group_12231" data-name="Group 12231" transform="translate(425.399 368.002)">
        <g id="Group_12225" data-name="Group 12225" transform="translate(0 7.095)">
          <g id="Group_12210" data-name="Group 12210" transform="translate(0 21.982)">
            <path id="Path_8622" data-name="Path 8622" d="M665.713,878.191l.157.12a35.119,35.119,0,0,0,11.622,5.727l2.807.6c1.325-2.01,2.224-4.159-.388-5.717-4.057-2.419-2.217-10.163-.326-12.59,2.341-3,7.648-10.109,1.435-13.948-5.172-3.2-9.163-4.2-7.731-11.536s-1.38-12.847-8.051-14.072c-7.021-1.289-10.365-11.91-16.8-10.262-11.21,2.872-6.3,21.072,4.525,28.716s2.857,10.23,1.041,16.07c-2.481,7.974,8.885,9,10.971,12.907A6.85,6.85,0,0,1,665.713,878.191Z" transform="translate(-642.072 -816.338)" fill="url(#linear-gradient)"/>
            <g id="Group_12209" data-name="Group 12209">
              <g id="Group_12208" data-name="Group 12208" clip-path="url(#clip-path)">
                <g id="Group_12207" data-name="Group 12207" transform="translate(-2.936 0.418)" opacity="0.5" style="mix-blend-mode: soft-light;isolation: isolate">
                  <path id="Path_8623" data-name="Path 8623" d="M697.048,887.941l.336.015c1.1-24.563-9.724-49.54-28.251-65.184l-.217.257C687.365,838.607,698.145,863.48,697.048,887.941Z" transform="translate(-664.235 -822.772)" fill="#fcfdfe"/>
                  <path id="Path_8624" data-name="Path 8624" d="M1093.281,1403.321l.326.081c2.331-9.378,12.175-14.692,12.275-14.745l-.158-.3C1105.624,1388.413,1095.649,1393.8,1093.281,1403.321Z" transform="translate(-1061.015 -1351.595)" fill="#fcfdfe"/>
                  <path id="Path_8625" data-name="Path 8625" d="M824.415,1538.468l.326-.084c-2.435-9.489-19.415-14.966-19.586-15.02l-.1.321C805.222,1523.738,822.026,1529.16,824.415,1538.468Z" transform="translate(-791.523 -1477.823)" fill="#fcfdfe"/>
                  <path id="Path_8626" data-name="Path 8626" d="M990.355,1009.346l.332-.055c-1.282-7.665,5.88-17.19,5.952-17.285l-.267-.2C996.3,991.9,989.05,1001.54,990.355,1009.346Z" transform="translate(-964.633 -980.815)" fill="#fcfdfe"/>
                  <path id="Path_8627" data-name="Path 8627" d="M614.956,953.382l.24-.236c-6.2-6.32-18.161-6.652-18.281-6.654l-.007.336C597.027,946.831,608.85,947.161,614.956,953.382Z" transform="translate(-596.908 -938.45)" fill="#fcfdfe"/>
                </g>
              </g>
            </g>
          </g>
          <g id="Group_12213" data-name="Group 12213" transform="translate(2.819)">
            <g id="Group_12212" data-name="Group 12212" clip-path="url(#clip-path-2)">
              <path id="Path_8629" data-name="Path 8629" d="M726.417,578.023l-16.677-.057s-3.11-8.566,1-14.589c8.38-12.29-2.969-18.772-7.316-22.2-6.556-5.167-9.43-11.823-1.51-16.108,8.961-4.848,1.121-17.86-10.669-24.679-11.538-6.672-6.335-31.032,19.963-18.884,15.705,7.255,13.185,23.924,13.913,32.644s13.692,9.485,9.218,20.12c-3.821,9.084-11.045,15.692-5.571,21.965S734.785,569.524,726.417,578.023Z" transform="translate(-685.445 -478.165)" fill="url(#linear-gradient-2)"/>
              <g id="Group_12211" data-name="Group 12211" transform="translate(-2.897 0.546)" opacity="0.5" style="mix-blend-mode: soft-light;isolation: isolate">
                <path id="Path_8630" data-name="Path 8630" d="M677.522,651.022l-.346-.065c.04-.214,3.972-21.69,1.45-44.154-2.323-20.7-10.758-46.491-37.751-51.848l.068-.345a41.16,41.16,0,0,1,27.941,19.505c5.212,8.434,8.607,19.421,10.092,32.656C681.5,629.287,677.562,650.807,677.522,651.022Z" transform="translate(-640.876 -550.186)" fill="#beb8f2"/>
                <path id="Path_8631" data-name="Path 8631" d="M1063.59,515.025l-.349-.045c1.487-11.623-2.887-28.156-2.931-28.322l.34-.091C1060.694,486.733,1065.085,503.333,1063.59,515.025Z" transform="translate(-1033.045 -486.567)" fill="#beb8f2"/>
                <path id="Path_8632" data-name="Path 8632" d="M708.205,744.736a29.332,29.332,0,0,0-23.022-3.883l-.11-.334a29.691,29.691,0,0,1,23.319,3.919Z" transform="translate(-682.2 -723.194)" fill="#beb8f2"/>
                <path id="Path_8633" data-name="Path 8633" d="M851.123,1280.883c-3.88-16.612-26.442-20.76-26.666-20.782l.012-.352c.221,0,23.082,4.294,27,21.054Z" transform="translate(-812.524 -1209.49)" fill="#beb8f2"/>
                <path id="Path_8634" data-name="Path 8634" d="M1231.757,1216.466l-.345-.073c2.253-10.65,13.839-17.944,13.956-18.017l.186.3C1245.438,1198.747,1233.978,1205.964,1231.757,1216.466Z" transform="translate(-1193.025 -1152.106)" fill="#beb8f2"/>
                <path id="Path_8635" data-name="Path 8635" d="M1066.935,1812.454c-.486-6.462-9.693-11.609-9.785-11.661l.17-.308c.386.213,9.466,5.29,9.966,11.943Z" transform="translate(-1030.09 -1715.076)" fill="#beb8f2"/>
                <path id="Path_8636" data-name="Path 8636" d="M1218.071,1718.356l-.347-.06c.88-5.048,8.534-10.649,11.049-12.49.355-.26.662-.484.709-.535l.262.235a8.188,8.188,0,0,1-.763.585C1226.494,1707.91,1218.926,1713.447,1218.071,1718.356Z" transform="translate(-1180.227 -1626.05)" fill="#beb8f2"/>
              </g>
            </g>
          </g>
          <g id="Group_12217" data-name="Group 12217" transform="translate(100.961 11.986)">
            <path id="Path_8638" data-name="Path 8638" d="M2213.823,740.93c1.835,3.964.086,7.929-1.593,10.6a4.024,4.024,0,0,0-1.037.212c-3.651.888-5.364.436-9.075.7a17.971,17.971,0,0,1-4.126-.848l-1.768-.61s-3.138-9.642,1.793-12.306,3.043-12.259,2.63-17.493c-1.122-14.2,14.223-12.909,14.24-31.272,0-4.884-1.62-14.2,2.5-18.089,4.691-4.432,8.116-.084,11.132-3.791,4.715-5.792,12.365-7.87,16.925-1.909,4.5,5.883-.968,17.6-14.563,27.008-8.988,7.858-9.129,10.21-8.421,15.939.5,4.013,4.323,14.465-1.124,18.639S2211.725,736.4,2213.823,740.93Z" transform="translate(-2195.239 -662.551)" fill="url(#linear-gradient-3)"/>
            <g id="Group_12216" data-name="Group 12216" transform="translate(0.117 0)">
              <g id="Group_12215" data-name="Group 12215" clip-path="url(#clip-path-3)">
                <g id="Group_12214" data-name="Group 12214" transform="translate(1.051 -1.436)" opacity="0.5" style="mix-blend-mode: soft-light;isolation: isolate">
                  <path id="Path_8639" data-name="Path 8639" d="M2326.885,731.943l-.271-.034c.2-1.615.425-3.24.663-4.832a171.046,171.046,0,0,1,8.329-33.276,137.5,137.5,0,0,1,11.646-24.365,114.88,114.88,0,0,1,12.1-16.455,91.959,91.959,0,0,1,9.5-9.313c.562-.473,1.164-.925,1.746-1.363.776-.583,1.577-1.185,2.292-1.842l.185.2c-.725.665-1.532,1.272-2.312,1.859-.579.435-1.178.885-1.734,1.353a91.74,91.74,0,0,0-9.477,9.286,114.667,114.667,0,0,0-12.074,16.415,137.26,137.26,0,0,0-11.622,24.317,170.76,170.76,0,0,0-8.315,33.222C2327.309,728.707,2327.086,730.33,2326.885,731.943Z" transform="translate(-2319.243 -640.463)" fill="#fcfdfe"/>
                  <path id="Path_8640" data-name="Path 8640" d="M2564.907,791.215l-.248-.116c4.979-10.611.607-30.216.562-30.413l.267-.061C2565.533,760.824,2569.926,780.519,2564.907,791.215Z" transform="translate(-2541.814 -752.815)" fill="#fcfdfe"/>
                  <path id="Path_8641" data-name="Path 8641" d="M2390.511,1510.673l-.26-.087c2.54-7.607,16.782-13.479,16.925-13.538l.1.253C2407.138,1497.359,2393.011,1503.184,2390.511,1510.673Z" transform="translate(-2378.744 -1441.367)" fill="#fcfdfe"/>
                  <path id="Path_8642" data-name="Path 8642" d="M2300.669,1464.909l-.27-.039c.753-5.181-.987-12.649-4.9-21.028-.2-.421-.2-.421-.19-.473l.271.036-.135-.018.132-.034c.01.03.084.189.17.373C2299.681,1452.153,2301.43,1459.676,2300.669,1464.909Z" transform="translate(-2289.97 -1391.162)" fill="#fcfdfe"/>
                  <path id="Path_8643" data-name="Path 8643" d="M2333.513,1895.651l-.248-.115c2.428-5.23,10.728-7.294,10.812-7.314l.064.265C2344.059,1888.506,2335.886,1890.54,2333.513,1895.651Z" transform="translate(-2325.462 -1807.112)" fill="#fcfdfe"/>
                  <path id="Path_8644" data-name="Path 8644" d="M2220.447,1852.612c-1.029-4.535-3.394-8.922-7.229-13.413l.207-.177c3.865,4.525,6.249,8.951,7.288,13.53Z" transform="translate(-2213.218 -1761.112)" fill="#fcfdfe"/>
                  <path id="Path_8645" data-name="Path 8645" d="M2791.015,656.228l-.24-.13a76.92,76.92,0,0,0,5.651-14.719c.153-.537.207-.726.237-.789l.246.119c-.022.048-.11.355-.22.744A77.113,77.113,0,0,1,2791.015,656.228Z" transform="translate(-2753.232 -640.583)" fill="#fcfdfe"/>
                  <path id="Path_8646" data-name="Path 8646" d="M2693,950.9l-.192-.195c4.362-4.294,16.6-4.156,17.121-4.148l0,.273C2709.8,946.831,2697.278,946.689,2693,950.9Z" transform="translate(-2661.63 -926.66)" fill="#fcfdfe"/>
                </g>
              </g>
            </g>
          </g>
          <g id="Group_12220" data-name="Group 12220" transform="translate(95.008 36.946)">
            <g id="Group_12219" data-name="Group 12219" clip-path="url(#clip-path-4)">
              <path id="Path_8648" data-name="Path 8648" d="M2106.53,1134.3l15.914,4.988s5.554-7.224,3.46-14.208c-4.273-14.249,8.5-17,13.684-18.948,7.812-2.943,12.563-8.419,6.31-14.9-7.076-7.33,4.331-17.364,17.631-20.3,13.015-2.872,15.42-27.665-13.32-24.036-17.164,2.167-19.8,18.818-23.132,26.91s-15.918,4.9-14.869,16.391c.9,9.814,5.784,18.3-1.331,22.621S2101.124,1123.665,2106.53,1134.3Z" transform="translate(-2103.653 -1046.536)" fill="url(#linear-gradient-4)"/>
              <g id="Group_12218" data-name="Group 12218" transform="translate(3.498 -1.987)" opacity="0.5" style="mix-blend-mode: soft-light;isolation: isolate">
                <path id="Path_8649" data-name="Path 8649" d="M2246.757,1285.561l.349.043c.027-.217,2.771-21.876,11.967-42.527,8.471-19.025,24.31-41.063,51.659-38.009l.04-.35a41.16,41.16,0,0,0-32.531,10.145c-7.518,6.464-14.076,15.91-19.493,28.077C2249.534,1263.64,2246.784,1285.345,2246.757,1285.561Z" transform="translate(-2240.953 -1192.178)" fill="#beb8f2"/>
                <path id="Path_8650" data-name="Path 8650" d="M2672.856,1042.208l.347.063c2.1-11.529,11.264-25.966,11.356-26.11l-.3-.19C2684.17,1016.116,2674.965,1030.612,2672.856,1042.208Z" transform="translate(-2639.354 -1015.971)" fill="#beb8f2"/>
                <path id="Path_8651" data-name="Path 8651" d="M2770.324,1319.676a29.334,29.334,0,0,1,23.119,3.26l.206-.285a29.692,29.692,0,0,0-23.413-3.315Z" transform="translate(-2730.403 -1298.658)" fill="#beb8f2"/>
                <path id="Path_8652" data-name="Path 8652" d="M2350.711,1834.207c8.721-14.662,31.481-11.794,31.7-11.748l.1-.338c-.211-.066-23.3-2.886-32.1,11.906Z" transform="translate(-2337.866 -1769.479)" fill="#beb8f2"/>
                <path id="Path_8653" data-name="Path 8653" d="M2274.035,1600.774l.351.035c1.073-10.833-7.766-21.289-7.855-21.393l-.268.229C2266.352,1579.748,2275.093,1590.092,2274.035,1600.774Z" transform="translate(-2259.19 -1542.789)" fill="#beb8f2"/>
                <path id="Path_8654" data-name="Path 8654" d="M2255.233,2278.651c2.417-6.013,12.749-8.136,12.853-8.156l-.069-.345c-.433.086-10.623,2.18-13.111,8.371Z" transform="translate(-2248.572 -2188.623)" fill="#beb8f2"/>
                <path id="Path_8655" data-name="Path 8655" d="M2164.706,2092.871l.349.047c.688-5.078-4.915-12.73-6.756-15.245-.26-.356-.485-.663-.514-.725l-.321.144a8.123,8.123,0,0,0,.551.788C2159.835,2080.367,2165.375,2087.934,2164.706,2092.871Z" transform="translate(-2157.464 -2007.981)" fill="#beb8f2"/>
              </g>
            </g>
          </g>
          <g id="Group_12224" data-name="Group 12224" transform="translate(96.679 71.633)">
            <path id="Path_8657" data-name="Path 8657" d="M2145.632,1637.255l-.179.083a35.114,35.114,0,0,1-12.581,3.1l-2.87-.019c-.862-2.248-1.28-4.54,1.607-5.5,4.481-1.491,4.348-9.45,3.022-12.226-1.641-3.436-5.3-11.516,1.594-13.93,5.738-2.01,9.851-2.134,10.029-9.606s4.107-12.25,10.886-12.013c7.134.25,12.682-9.406,18.611-6.414,10.332,5.213,1.627,21.933-10.588,27.073s-4.988,9.377-4.469,15.471c.71,8.32-10.611,6.884-13.488,10.249A6.848,6.848,0,0,0,2145.632,1637.255Z" transform="translate(-2129.362 -1580.15)" fill="url(#linear-gradient-5)"/>
            <g id="Group_12223" data-name="Group 12223" transform="translate(0.166 0)">
              <g id="Group_12222" data-name="Group 12222" clip-path="url(#clip-path-5)">
                <g id="Group_12221" data-name="Group 12221" transform="translate(3.476 1.761)" opacity="0.5" style="mix-blend-mode: soft-light;isolation: isolate">
                  <path id="Path_8658" data-name="Path 8658" d="M2268.848,1664.9l-.332-.057c4.2-24.226,20.139-46.295,41.594-57.594l.156.3C2288.9,1618.8,2273.031,1640.773,2268.848,1664.9Z" transform="translate(-2263.113 -1607.247)" fill="#fcfdfe"/>
                  <path id="Path_8659" data-name="Path 8659" d="M2194.544,2045.354l-.336.01c-.262-9.66-8.735-16.965-8.82-17.037l.218-.257C2185.692,2028.144,2194.278,2035.543,2194.544,2045.354Z" transform="translate(-2185.387 -2000.715)" fill="#fcfdfe"/>
                  <path id="Path_8660" data-name="Path 8660" d="M2283.053,2273.237l-.3-.152c4.417-8.745,22.177-10.447,22.356-10.463l.031.335C2304.962,2262.973,2287.386,2264.658,2283.053,2273.237Z" transform="translate(-2276.424 -2220.021)" fill="#fcfdfe"/>
                  <path id="Path_8661" data-name="Path 8661" d="M2466.509,1702.057l-.312-.125c2.9-7.211-2.05-18.052-2.1-18.16l.305-.142C2464.452,1683.74,2469.461,1694.713,2466.509,1702.057Z" transform="translate(-2445.979 -1678.665)" fill="#fcfdfe"/>
                  <path id="Path_8662" data-name="Path 8662" d="M2658.813,1739.329l-.184-.282c7.416-4.84,19.166-2.6,19.284-2.572l-.065.33C2677.732,1736.782,2666.114,1734.565,2658.813,1739.329Z" transform="translate(-2627.867 -1727.571)" fill="#fcfdfe"/>
                </g>
              </g>
            </g>
          </g>
        </g>
        <g id="Group_12230" data-name="Group 12230" transform="translate(28.535 0)">
          <g id="Group_12227" data-name="Group 12227">
            <g id="Group_12226" data-name="Group 12226">
              <path id="Path_8664" data-name="Path 8664" d="M1172.434,376.3V539.668c0,2.443-2.087,2.969-4.454,3.046l-81.118,4.2-1.229.04a4.429,4.429,0,0,1-4.588-4.446V373.468a4.429,4.429,0,0,1,4.588-4.446l1.668.055,81.415,6.332C1171.083,375.486,1172.434,373.86,1172.434,376.3Z" transform="translate(-1081.045 -369.019)" fill="url(#linear-gradient-6)"/>
              <path id="Path_8665" data-name="Path 8665" d="M1211.311,376.3V539.668a4.562,4.562,0,0,1-4.3,4.583l-82.5,2.7a4.429,4.429,0,0,1-4.588-4.446V373.468a4.429,4.429,0,0,1,4.588-4.446l82.5,2.7A4.562,4.562,0,0,1,1211.311,376.3Z" transform="translate(-1117.395 -369.019)" fill="url(#linear-gradient-7)"/>
              <path id="Path_8666" data-name="Path 8666" d="M1249.676,525.332V676.671a4.254,4.254,0,0,1-4.018,4.273l-77.577,2.437a4.131,4.131,0,0,1-4.271-4.148V522.963a4.142,4.142,0,0,1,4.271-4.158l77.577,2.262A4.243,4.243,0,0,1,1249.676,525.332Z" transform="translate(-1158.43 -509.067)" fill="url(#linear-gradient-8)"/>
            </g>
            <path id="Path_8667" data-name="Path 8667" d="M1814.34,444.914a1.49,1.49,0,0,1-1.532,1.512,1.605,1.605,0,0,1-1.534-1.607,1.49,1.49,0,0,1,1.534-1.512A1.606,1.606,0,0,1,1814.34,444.914Z" transform="translate(-1763.807 -438.477)" fill="#de8bdf"/>
          </g>
          <g id="Group_12229" data-name="Group 12229" transform="translate(15.831 25.888)">
            <path id="Path_8668" data-name="Path 8668" d="M1387.966,1803.16l-61.957.831a1.4,1.4,0,0,1-1.419-1.4v-13.567a1.431,1.431,0,0,1,1.419-1.429l61.957-.419a1.354,1.354,0,0,1,1.347,1.374v13.211A1.387,1.387,0,0,1,1387.966,1803.16Z" transform="translate(-1324.59 -1720.878)" fill="#f4f7fa"/>
            <path id="Path_8669" data-name="Path 8669" d="M1387.825,2187.579l-61.668,1.468a1.523,1.523,0,0,1-1.567-1.531v-13.27a1.6,1.6,0,0,1,1.567-1.595l61.668-1.058a1.477,1.477,0,0,1,1.488,1.5v12.922A1.552,1.552,0,0,1,1387.825,2187.579Z" transform="translate(-1324.59 -2080.307)" fill="#f4f7fa"/>
            <path id="Path_8670" data-name="Path 8670" d="M1496.3,801.732a24.46,24.46,0,0,1-24.329,24.66,25.028,25.028,0,0,1-24.824-25.155,24.429,24.429,0,0,1,24.824-24.655A25.064,25.064,0,0,1,1496.3,801.732Z" transform="translate(-1439.184 -775.972)" fill="#fff"/>
            <path id="Path_8671" data-name="Path 8671" d="M1694.031,897.782a9.974,9.974,0,0,1-10.024,10.065,10.28,10.28,0,0,1-10.091-10.321,9.97,9.97,0,0,1,10.091-10.064A10.285,10.285,0,0,1,1694.031,897.782Z" transform="translate(-1651.208 -879.647)" fill="url(#linear-gradient-9)"/>
            <path id="Path_8672" data-name="Path 8672" d="M1601.422,1271.792a24.061,24.061,0,0,0,15.622-5.731,15.99,15.99,0,0,0-31.447-.069A24.5,24.5,0,0,0,1601.422,1271.792Z" transform="translate(-1568.631 -1221.373)" fill="url(#linear-gradient-10)"/>
            <path id="Path_8673" data-name="Path 8673" d="M1443.769,1884.811l-33.815.369a2.074,2.074,0,0,1-2.092-2.076h0a2.126,2.126,0,0,1,2.092-2.118l33.815-.311a2.033,2.033,0,0,1,2.032,2.048h0A2.083,2.083,0,0,1,1443.769,1884.811Z" transform="translate(-1402.449 -1808.299)" fill="url(#linear-gradient-11)"/>
            <g id="Group_12228" data-name="Group 12228" transform="translate(5.142 96.939)">
              <path id="Path_8674" data-name="Path 8674" d="M1409.03,2272.943a2.737,2.737,0,0,1-2.662,2.728,2.6,2.6,0,0,1-2.668-2.619,2.735,2.735,0,0,1,2.668-2.727A2.6,2.6,0,0,1,1409.03,2272.943Z" transform="translate(-1403.7 -2269.559)" fill="url(#linear-gradient-12)"/>
              <path id="Path_8675" data-name="Path 8675" d="M1563.028,2269.954a2.72,2.72,0,0,1-2.641,2.717,2.588,2.588,0,0,1-2.646-2.608,2.719,2.719,0,0,1,2.646-2.717A2.589,2.589,0,0,1,1563.028,2269.954Z" transform="translate(-1547.728 -2266.774)" fill="url(#linear-gradient-13)"/>
              <path id="Path_8676" data-name="Path 8676" d="M1715.778,2266.99a2.7,2.7,0,0,1-2.619,2.705,2.573,2.573,0,0,1-2.625-2.6,2.7,2.7,0,0,1,2.625-2.705A2.573,2.573,0,0,1,1715.778,2266.99Z" transform="translate(-1690.589 -2264.012)" fill="url(#linear-gradient-14)"/>
              <path id="Path_8677" data-name="Path 8677" d="M1867.3,2264.05a2.687,2.687,0,0,1-2.6,2.694,2.556,2.556,0,0,1-2.6-2.587,2.687,2.687,0,0,1,2.6-2.695A2.558,2.558,0,0,1,1867.3,2264.05Z" transform="translate(-1832.298 -2261.273)" fill="url(#linear-gradient-15)"/>
              <path id="Path_8678" data-name="Path 8678" d="M2017.6,2261.134a2.671,2.671,0,0,1-2.577,2.683,2.542,2.542,0,0,1-2.583-2.577,2.671,2.671,0,0,1,2.583-2.683A2.543,2.543,0,0,1,2017.6,2261.134Z" transform="translate(-1972.869 -2258.556)" fill="url(#linear-gradient-16)"/>
            </g>
            <path id="Path_8679" data-name="Path 8679" d="M1463.277,818.3a25.093,25.093,0,0,1-17.956-7.546,25.746,25.746,0,0,1-7.469-18.214,25.226,25.226,0,0,1,7.578-18.174,24.611,24.611,0,0,1,17.864-7.085,25.117,25.117,0,0,1,17.648,7.756,25.783,25.783,0,0,1,7.273,18,25.285,25.285,0,0,1-7.277,17.86,24.613,24.613,0,0,1-17.656,7.4Zm-.5-49.815a23.408,23.408,0,0,0-16.5,6.745,24.025,24.025,0,0,0-7.215,17.311,24.543,24.543,0,0,0,7.12,17.364,23.9,23.9,0,0,0,17.1,7.187h0a23.921,23.921,0,0,0,23.724-24.055,24.525,24.525,0,0,0-23.736-24.546C1463.1,768.485,1462.94,768.484,1462.776,768.484Z" transform="translate(-1430.49 -767.274)" fill="#fff"/>
          </g>
          <path id="Path_8680" data-name="Path 8680" d="M1816.182,393.875a4.493,4.493,0,0,0-4.346-4.491l-44.991-1.472c16.688,17.685,20.44,32.522,20.869,42.662,1.223,28.942-23.711,41.552-19.075,73.2,1.271,8.677,4.082,14.126,5.18,29.116a143.019,143.019,0,0,1-1.017,30.3l39.08-1.279a4.562,4.562,0,0,0,4.3-4.582Z" transform="translate(-1722.266 -386.684)" opacity="0.3" fill="url(#linear-gradient-8)" style="mix-blend-mode: multiply;isolation: isolate"/>
        </g>
        <path id="Path_8681" data-name="Path 8681" d="M1144.7,1199.109c.474-13.941-4.3-19.769-5.568-21.2-.894-1.008-1.722-1.723-7.9-6.826-4.593-3.792-8.42-6.935-11.137-9.161q-.083,58.582-.166,117.164a145.693,145.693,0,0,1,8.115-33.515C1135.612,1225.367,1144.088,1217,1144.7,1199.109Z" transform="translate(-1088.859 -1110.384)" opacity="0.3" fill="url(#linear-gradient-18)" style="mix-blend-mode: multiply;isolation: isolate"/>
      </g>
      <g id="Group_12237" data-name="Group 12237" transform="translate(497.939 469.595)">
        <path id="Path_8682" data-name="Path 8682" d="M2397.492,2204.963c2.706-1.635,1.572-10.3-2.406-16.263-5.647-8.473-17.469-12.176-19.764-9.5-2.348,2.734,5.069,12.393,6.273,13.962C2385.966,2198.85,2394.291,2206.9,2397.492,2204.963Z" transform="translate(-2334.768 -2162.321)" fill="url(#linear-gradient-19)"/>
        <path id="Path_8683" data-name="Path 8683" d="M3190.5,3129.272a1.779,1.779,0,0,0,.006,2.145c.485.468,1.112.029,2.992-.083,2.013-.118,2.58.309,3.911-.189.538-.2,1.479-.658,1.425-1.05-.038-.276-.546-.374-2.251-.781a21.5,21.5,0,0,0-2.92-.66C3192.388,3128.558,3191.111,3128.462,3190.5,3129.272Z" transform="translate(-3097.048 -3050.802)" fill="url(#linear-gradient-20)"/>
        <path id="Path_8684" data-name="Path 8684" d="M3164.106,3087.979l2.115,2.8a1.957,1.957,0,0,1-1.725,1.065l-2.541-2.542Z" transform="translate(-3070.694 -3012.829)" fill="url(#linear-gradient-21)"/>
        <path id="Path_8685" data-name="Path 8685" d="M3022.76,3238.5a1.78,1.78,0,0,0,.051,2.145c.494.458,1.113.005,2.989-.145,2.011-.161,2.586.255,3.906-.272.534-.213,1.465-.688,1.4-1.08-.043-.275-.554-.363-2.267-.734a21.707,21.707,0,0,0-2.934-.6C3024.635,3237.745,3023.356,3237.676,3022.76,3238.5Z" transform="translate(-2940.236 -3152.89)" fill="url(#linear-gradient-22)"/>
        <path id="Path_8686" data-name="Path 8686" d="M2995.362,3198.835l2.115,2.8a1.955,1.955,0,0,1-1.724,1.065l-2.541-2.542Z" transform="translate(-2912.918 -3116.48)" fill="url(#linear-gradient-23)"/>
        <path id="Path_8687" data-name="Path 8687" d="M2033.62,2169.441a43.877,43.877,0,0,1,14.052-2.89c6.794-.253,12.251-.457,16.139,2.613,12.935,10.216,6.594,37.135,5.659,40.131a18.253,18.253,0,0,1-3.227,5.98,15.247,15.247,0,0,1-3.188,2.746c-9.73,6.438-15.778,10.44-22.165,8.8a12.979,12.979,0,0,1-6.842-4.769,4.57,4.57,0,0,1-.678-2.332C2032.379,2202.779,2034.377,2185.764,2033.62,2169.441Z" transform="translate(-2015.207 -2151.176)" fill="url(#linear-gradient-24)"/>
        <path id="Path_8688" data-name="Path 8688" d="M2031.337,2375.8c-1.3-3.548.043-7.611-2.848-9.383a6.942,6.942,0,0,0-3.809-.892c.177,12.474.429,24.935.738,37.952.1,4.3.64,4.512,4.81,8.278,4.831,4.364,8.807,2.957,15.944,1.525-9.351-5.744-11.677-8.868-10.724-13.973,1.11-5.945,12-7.706,11.555-11.932C2046.537,2382.9,2034.174,2383.557,2031.337,2375.8Z" transform="translate(-2007.345 -2337.337)" opacity="0.3" fill="url(#linear-gradient-25)" style="mix-blend-mode: multiply;isolation: isolate"/>
        <path id="Path_8689" data-name="Path 8689" d="M1779.4,2211.062c-3.212-1.794-10.6,3.31-14.634,7.71-1.876,2.045-8.406,9.166-6.375,18.327.331,1.493,1.859,8.474,8.661,11.666,6.09,2.858,14.127,1.764,20.428-2.844l2.571-2.219,2.512-2.638a21.642,21.642,0,0,0-7.076-3.191c-5.021-1.259-7.281.505-8.521-.863-1.528-1.683,1.878-4.585,2.771-11.993C1779.978,2223.018,1782.989,2213.066,1779.4,2211.062Z" transform="translate(-1758.005 -2192.571)" fill="url(#linear-gradient-26)"/>
        <path id="Path_8690" data-name="Path 8690" d="M2176.778,2603.953c.4,7.06,3.05,3.149,9.058-3.185,6.327-6.671,21.215-18.4,31.151-13.919,7.4,3.334,6.682,13.2,18.514,19.385a29.04,29.04,0,0,0,5.03,2.055l3.845-3.557c-.688-3.686-3.758-17.743-16.595-26.6-3.1-2.142-9.026-6.269-16.515-6.172C2191.019,2572.219,2176.414,2597.443,2176.778,2603.953Z" transform="translate(-2149.55 -2530.35)" fill="url(#linear-gradient-27)"/>
        <path id="Path_8691" data-name="Path 8691" d="M2033.341,2714.236a12.245,12.245,0,0,0,5.789,9.711c6.708,4.08,16.752-.323,22.379-4.825,6.846-5.478,6.844-10.845,10.342-10.818,5.436.041,6.384,13.039,18.514,19.385a29.047,29.047,0,0,0,5.03,2.055l3.845-3.556a57.663,57.663,0,0,0-7.762-17.343c-3-4.49-5.879-8.812-11.463-11.944a28.612,28.612,0,0,0-13.884-3.488C2051.073,2693.176,2033.12,2703.519,2033.341,2714.236Z" transform="translate(-2015.441 -2643.906)" fill="url(#linear-gradient-28)"/>
        <g id="Group_12232" data-name="Group 12232" transform="translate(20.362 45.656)">
          <path id="Path_8692" data-name="Path 8692" d="M2126.029,2634.257l-37.271,6.721,10.816,2.834,27.025-7.152Z" transform="translate(-2087.62 -2634.257)" fill="url(#linear-gradient-29)"/>
          <path id="Path_8693" data-name="Path 8693" d="M2071.269,2738.841h0a1.686,1.686,0,0,0,1.393,1.341l12.786,2.33-.578-3.238-12.483-1.678A1.047,1.047,0,0,0,2071.269,2738.841Z" transform="translate(-2071.249 -2730.876)" fill="url(#linear-gradient-30)"/>
        </g>
        <path id="Path_8694" data-name="Path 8694" d="M2163.089,2670.989c-.238-.006.579-2.937,1.691-2.835s6.837,2.075,7.544,3.211l.708,1.135a11.719,11.719,0,0,1-3.691.42C2167.858,2672.725,2165.025,2671.039,2163.089,2670.989Z" transform="translate(-2136.719 -2620.292)" fill="url(#linear-gradient-31)"/>
        <g id="Group_12234" data-name="Group 12234" transform="translate(32.023 25.206)">
          <g id="Group_12233" data-name="Group 12233">
            <path id="Path_8695" data-name="Path 8695" d="M2251.46,2325.253l-.818,24.436a2.292,2.292,0,0,0,2.074,1.9l38.863-5.367a1.373,1.373,0,0,0,1.2-1.233l3.12-23.779c.081-.863-1.517-1.626-2.379-1.536l-40.829,4.263A1.373,1.373,0,0,0,2251.46,2325.253Z" transform="translate(-2250.642 -2319.663)" fill="url(#linear-gradient-32)"/>
            <path id="Path_8696" data-name="Path 8696" d="M2266.008,2335.076l-.819,24.436a1.374,1.374,0,0,0,1.542,1.409l39.4-4.88a1.374,1.374,0,0,0,1.2-1.233l2.25-23.82a1.373,1.373,0,0,0-1.51-1.495l-40.829,4.263A1.372,1.372,0,0,0,2266.008,2335.076Z" transform="translate(-2264.243 -2328.847)" fill="url(#linear-gradient-33)"/>
          </g>
          <path id="Path_8697" data-name="Path 8697" d="M2290.609,2408.5c-3.564-1.2-2.557-4.084-6.9-7.25-5.727-4.178-11.058-1.771-13.248-5.181-.682-1.062-1.1-2.763-.27-5.631l-2.957.309a1.372,1.372,0,0,0-1.229,1.32l-.819,24.437a1.373,1.373,0,0,0,1.542,1.408l39.4-4.88a1.373,1.373,0,0,0,1.2-1.233l.31-3.287a14.977,14.977,0,0,0-4.429-1.287C2297.316,2406.491,2294.712,2409.884,2290.609,2408.5Z" transform="translate(-2264.243 -2385.839)" opacity="0.3" fill="url(#linear-gradient-34)" style="mix-blend-mode: multiply;isolation: isolate"/>
        </g>
        <g id="Group_12236" data-name="Group 12236" transform="translate(24.887)">
          <path id="Path_8698" data-name="Path 8698" d="M2148.721,2025.266a29.457,29.457,0,0,1-.305,5.9,4.558,4.558,0,0,1-.718,2.331,2.683,2.683,0,0,1-.181.2,32.833,32.833,0,0,1-4.246,1.06c-.1.022-1.88.456-2.392,1.415a.178.178,0,0,0-.019.054c-.176.958,5.3,4,10.805,3.011,3.369-.6,6.378-2.652,6.151-3.66s-3.591-.339-4.668-2.149c-.75-1.259-.032-3.113.841-4.658C2153.026,2027.125,2149.684,2026.919,2148.721,2025.266Z" transform="translate(-2140.856 -2019.197)" fill="url(#linear-gradient-35)"/>
          <g id="Group_12235" data-name="Group 12235" transform="translate(6.754)">
            <path id="Path_8699" data-name="Path 8699" d="M2253.092,1940.907c2.152-.625,3.541-8.037,1.729-8.933-.866-.429-1.507,1.106-4.959,2.479-2.763,1.1-3.93.744-4.7,1.956s-.291,2.932-.053,4.162c.1.534.448.785.721,1.231.378.619.965,1.6,1.918,3.235a8.908,8.908,0,0,1,.8-1.328,8.8,8.8,0,0,1,2.281-2A5.376,5.376,0,0,1,2253.092,1940.907Z" transform="translate(-2244.754 -1931.901)" fill="url(#linear-gradient-36)"/>
            <path id="Path_8700" data-name="Path 8700" d="M2248.135,2046.213a4.838,4.838,0,0,0,3.693,3.018c2.513.386,4.1-5.09,2.781-6.619a3.2,3.2,0,0,0-2.375-.856c-.539.03-.758.2-1.64.235-.814.03-1.012-.1-1.288.041-.344.18-.69.733-.563,2.464a1.38,1.38,0,0,0-1.337-.791.863.863,0,0,0-.4.249C2246.518,2044.513,2246.918,2045.451,2248.135,2046.213Z" transform="translate(-2246.67 -2034.612)" fill="url(#linear-gradient-37)"/>
            <path id="Path_8701" data-name="Path 8701" d="M2256.441,2040.189c.1.116-.364.481-.53,1.105a3.105,3.105,0,0,0,1.828,3.361c.731.239,1.036-.166,2.3-.024a5.805,5.805,0,0,1,1.78.5,3.052,3.052,0,0,1-1.6,3.111,3.177,3.177,0,0,1-2.738-.507,3.632,3.632,0,0,1-1.7-1.938c-.369-1.19.363-1.7-.17-2.565a5.891,5.891,0,0,1-.984-1.492,3.492,3.492,0,0,1-.147-.526C2255.263,2040.68,2256.3,2040.022,2256.441,2040.189Z" transform="translate(-2253.843 -2033.125)" fill="url(#linear-gradient-38)"/>
            <path id="Path_8702" data-name="Path 8702" d="M2328.645,2119.765a3.086,3.086,0,0,1-1.51-.1c-.044-.012-.1-.01-.108.012a1.163,1.163,0,0,0,1.046.574c.412-.024.8-.324.764-.429C2328.824,2119.782,2328.735,2119.768,2328.645,2119.765Z" transform="translate(-2321.677 -2107.457)" fill="url(#linear-gradient-39)"/>
          </g>
        </g>
      </g>
      <g id="Group_12240" data-name="Group 12240" transform="translate(413.034 409.805)">
        <path id="Path_8703" data-name="Path 8703" d="M452.335,1298.169a10.672,10.672,0,0,1,1.285-8.96c2.694-4.12,6.2-2.688,9.721-7.257a37.283,37.283,0,0,1,6.871-7.369c1.858-1.39,6.255-2.965,7.973-1.872,5.139,3.272-4.29,31.127-14.686,32.712C459.338,1306.057,453.888,1302.73,452.335,1298.169Z" transform="translate(-451.854 -1255.429)" fill="url(#linear-gradient-40)"/>
        <g id="Group_12238" data-name="Group 12238" transform="translate(10.389 54.737)">
          <path id="Path_8704" data-name="Path 8704" d="M692.514,2988a7.216,7.216,0,0,1,.666,2.511,7.075,7.075,0,0,1-.016,1.259,6.514,6.514,0,0,1-3.617,2.349c-1.178.233-3.089-.766-.925-2.118s2.487-1.677,1.851-5.134c-.164-.889-.1-1.214.04-1.277C690.84,2985.448,691.77,2986.812,692.514,2988Z" transform="translate(-682.7 -2912.037)" fill="url(#linear-gradient-41)"/>
          <path id="Path_8705" data-name="Path 8705" d="M846.044,3028.617a7.221,7.221,0,0,1,.666,2.511,7.1,7.1,0,0,1-.016,1.259,6.513,6.513,0,0,1-3.617,2.349c-1.178.233-3.089-.766-.925-2.118s2.487-1.677,1.851-5.134c-.164-.89-.1-1.214.04-1.277C844.371,3026.061,845.3,3027.425,846.044,3028.617Z" transform="translate(-826.251 -2950.01)" fill="url(#linear-gradient-42)"/>
          <path id="Path_8706" data-name="Path 8706" d="M641.846,1860.564l2.146,13.071a123.858,123.858,0,0,0-4.259,13.463c-4.46,17.52-7.241,34.394-7.445,46.482l-2.945,1.065c-1.759-6.642-1.228-16.686-2.792-28.53-1.848-13.993-.591-24.931-1.235-24.97-.616-.037-2.343,9.978-2.346,21.414,0,12.089-1.394,21.822-.5,28.81l-3.529.211c-3.258-9.24-4.681-20.25-6.33-34.807-1.145-10.109-2.5-23.54,4.257-37.4.674-1.384,3.029-4.455,3.47-5.214C628.088,1855.646,634.1,1859.083,641.846,1860.564Z" transform="translate(-611.674 -1854.164)" fill="url(#linear-gradient-43)"/>
          <path id="Path_8707" data-name="Path 8707" d="M651.467,1887.1a123.841,123.841,0,0,1,4.259-13.463l-2.146-13.071c-7.745-1.482-13.759-4.918-21.5-6.4-.441.759-2.8,3.83-3.47,5.214a50.236,50.236,0,0,0-4.383,13.756c14.984-.164,19.32,2.957,20.514,5.832,1.9,4.579-3.879,9.221-1.834,18.487.615,2.787,1.533,4.16,1.641,7.651.142,4.581-1.353,5.025-1.588,9.685-.256,5.1-2.022,10.082-1.194,13.7a44.437,44.437,0,0,0,1.581,5.34l.68-.246C644.226,1921.493,647.007,1904.619,651.467,1887.1Z" transform="translate(-623.407 -1854.164)" opacity="0.25" fill="url(#linear-gradient-44)" style="mix-blend-mode: multiply;isolation: isolate"/>
        </g>
        <path id="Path_8708" data-name="Path 8708" d="M784.223,1012.781c.481.642-.233,1.5-.376,4.639a22.123,22.123,0,0,0,.118,3.491c.027.773.071,1.49.131,2.123.044.464.092.828.158,1.214a14.856,14.856,0,0,0,.526,2.112.091.091,0,0,1-.05.112l-.008,0a.091.091,0,0,1-.115-.058,15.045,15.045,0,0,1-.533-2.138c-.067-.391-.115-.758-.16-1.228-.032-.334-.059-.692-.081-1.067a9.878,9.878,0,0,0,.228,3.538,5.885,5.885,0,0,1-5.075,7.455c-3.122.135-5.238-2.339-5.893-3.149a11.064,11.064,0,0,1-.665-12.47C775.678,1012.264,783.046,1011.207,784.223,1012.781Z" transform="translate(-750.082 -1012.108)" fill="url(#linear-gradient-45)"/>
        <path id="Path_8709" data-name="Path 8709" d="M852.3,1018.043a6.847,6.847,0,0,1,2.584-3.776c3.5-2.4,9.117-.474,12.335,2.351,3.368,2.956,1.968,5,5.278,8.283,3.6,3.565,6.12,2.008,11.118,5.452,1.966,1.354,7.264,5.005,7.619,10.7.306,4.921-3.174,9.849-7.432,11.75-7.29,3.255-16.42-2.558-20.727-7.9-4.131-5.127-1.344-6.382-7.217-16.283C853.733,1025.036,851.3,1021.739,852.3,1018.043Z" transform="translate(-826.054 -1013.11)" fill="url(#linear-gradient-46)"/>
        <path id="Path_8710" data-name="Path 8710" d="M598.4,1249.237a13.326,13.326,0,0,0-3.59,7.386,16.593,16.593,0,0,0,1.533,9.147c1.964,4.562,1.24,13.553-10.207,32.915,1.088.907,4.84,7.621,6.614,4.4,2.419-4.389,13.394-35.273,2.809,1.326-.139.482.939.385,1.43.568a34.482,34.482,0,0,0,12.536,2.209,35.239,35.239,0,0,0,16.278-4.28,68.813,68.813,0,0,1-5.124-19.135,70.318,70.318,0,0,1,4.442-33.632c-2.321-1.6-9.671-6.25-18.368-4.749A14.426,14.426,0,0,0,598.4,1249.237Z" transform="translate(-577.412 -1229.952)" fill="url(#linear-gradient-47)"/>
        <path id="Path_8711" data-name="Path 8711" d="M748.4,1283.773a70.319,70.319,0,0,1,4.442-33.633c-2.321-1.6-9.671-6.25-18.368-4.749a14.424,14.424,0,0,0-8.353,3.846,13.1,13.1,0,0,0-3.384,6.293c.065-.011.154-.026.261-.04,5.356-.74,11.542,3.569,13.656,7.645,3.529,6.8-4.589,12.36-4.386,23.14.11,5.828,2.643,12.718,10.386,20.413a35.712,35.712,0,0,0,10.87-3.78A68.812,68.812,0,0,1,748.4,1283.773Z" transform="translate(-705.131 -1229.951)" opacity="0.3" fill="url(#linear-gradient-48)" style="mix-blend-mode: multiply;isolation: isolate"/>
        <path id="Path_8712" data-name="Path 8712" d="M824.986,1166.606c-.763,1.549-1.407,3.486-.567,4.785a5.161,5.161,0,0,0,2.2,1.648c1.977.982,2.895.583,3.285,1.179.859,1.312-1.573,6.317-5.541,6.751-3.948.432-7.521-3.869-6.927-5.686.536-1.639,4.423-1.125,5.118-3.2a3.57,3.57,0,0,0-.853-2.986l-.465.041Z" transform="translate(-793.607 -1156.563)" fill="url(#linear-gradient-49)"/>
        <path id="Path_8713" data-name="Path 8713" d="M885.5,1174.22c-.39-.6-1.308-.2-3.285-1.179a5.161,5.161,0,0,1-2.2-1.648c-.84-1.3-.2-3.237.567-4.785l-3.754,2.535.465-.041a4.4,4.4,0,0,1,.944,2.33,3.24,3.24,0,0,1,.666.6,8.6,8.6,0,0,0-.761,2.7,3.554,3.554,0,0,0,.234,2.377,3.209,3.209,0,0,0,1.913,1.234,7,7,0,0,0,3.85.116C885.424,1176.857,885.98,1174.956,885.5,1174.22Z" transform="translate(-849.205 -1156.564)" opacity="0.4" fill="url(#linear-gradient-50)" style="mix-blend-mode: multiply;isolation: isolate"/>
        <path id="Path_8714" data-name="Path 8714" d="M850.633,1119.1a2.2,2.2,0,0,1-1.8,2.321c-2.384.41-3.7-5.843-3.178-6.3.6-.529,1.362.394,2.87-.223.634-.26,1.063-1.2,1.55-.345a7.315,7.315,0,0,1,.539,2.871s.489-.562.67-.014A1.672,1.672,0,0,1,850.633,1119.1Z" transform="translate(-819.947 -1107.562)" fill="url(#linear-gradient-51)"/>
        <path id="Path_8715" data-name="Path 8715" d="M852.952,1069.988c-.844.7-1.422,2.167-.972,2.982.647,1.17,3.015.264,3.8,1.694.343.627.235,1.437.446,1.446.174.007.335-.545.483-1,.814-2.5,1.48-2.716,1.362-3.467C857.827,1070.117,854.686,1068.551,852.952,1069.988Z" transform="translate(-825.824 -1065.695)" fill="url(#linear-gradient-52)"/>
        <path id="Path_8716" data-name="Path 8716" d="M834.749,1319.218c2.63.167,2.894-.622,5.805,1.511,8.359,6.124,13.781,23.4,5.492,31.744-4.61,4.643-13.024,7.478-20.181,3.934-5.827-2.885-7.976-8.588-8.5-10.115q.144-2.3.288-4.593c3.273,3.531,6.085,4.423,8.124,4.532,3.472.186,4.914-1.886,10.852-2.213,2.313-.127,3.605.1,3.875-.526.558-1.3-4.491-3.4-6.869-7.256C831.9,1333.423,830.854,1328.48,834.749,1319.218Z" transform="translate(-793.607 -1299.244)" fill="url(#linear-gradient-53)"/>
        <path id="Path_8717" data-name="Path 8717" d="M924.462,1118.82c-.593.527.376,2.575,2.337,6.65a37.667,37.667,0,0,0,2.224,4.32,14.592,14.592,0,0,0,10.555,5.763c2.958.141,3.505-.944,5.874-.292,3.573.983,5.33,4.281,5.512,4.135.2-.161-1.74-4.349-6.114-8.127-3.579-3.092-4.713-2.388-10.39-6.745-.412-.316-2.155-1.661-4.634-3.229C926.909,1119.453,925.051,1118.3,924.462,1118.82Z" transform="translate(-893.579 -1111.765)" fill="url(#linear-gradient-54)"/>
        <g id="Group_12239" data-name="Group 12239" transform="translate(7.473 28.837)">
          <path id="Path_8718" data-name="Path 8718" d="M568.369,1457.011l6.079,15.039a.964.964,0,0,0,.612.584l7.008,2.226a.963.963,0,0,0,1.223-1.163l-3.746-14.218a1.705,1.705,0,0,0-.952-1.245l-8.536-2.467C569.3,1455.54,568.093,1456.267,568.369,1457.011Z" transform="translate(-568.23 -1455.724)" fill="url(#linear-gradient-55)"/>
          <path id="Path_8719" data-name="Path 8719" d="M566.874,1460.494l5.383,14.555a.963.963,0,0,0,.612.584l7.008,2.226a.963.963,0,0,0,1.223-1.164l-3.746-14.218a.963.963,0,0,0-.658-.678l-8.644-2.563A.963.963,0,0,0,566.874,1460.494Z" transform="translate(-566.812 -1458.97)" fill="url(#linear-gradient-56)"/>
        </g>
        <path id="Path_8720" data-name="Path 8720" d="M750.5,1635.028l-.737-.688a16.918,16.918,0,0,0-1.837-2.127,1.672,1.672,0,0,0-2.4-.166c-.838.668-.126,1.772.479,2.736a4.058,4.058,0,0,0,2.272,1.183,7.178,7.178,0,0,1,1.672.952Z" transform="translate(-726.077 -1591.344)" fill="url(#linear-gradient-57)"/>
        <path id="Path_8721" data-name="Path 8721" d="M553.221,1506.138l.694-.732a16.921,16.921,0,0,0,2.142-1.819,1.672,1.672,0,0,0,.186-2.4c-.661-.843-1.771-.141-2.74.457a4.057,4.057,0,0,0-1.2,2.262,7.165,7.165,0,0,1-.965,1.665Z" transform="translate(-544.869 -1469.032)" fill="url(#linear-gradient-58)"/>
        <path id="Path_8722" data-name="Path 8722" d="M483.5,1560.184l2.7,1.344c.275.35,3.549,4.648,1.8,8.77-.227.536-1.087,2.563-2.782,2.922-2.616.554-6.427-3.032-6.3-6.882A7.318,7.318,0,0,1,483.5,1560.184Z" transform="translate(-477.152 -1524.557)" fill="url(#linear-gradient-59)"/>
      </g>
    </g>
  </g>
</svg>
