<svg xmlns="http://www.w3.org/2000/svg" width="17.208" height="18.912" viewBox="0 0 17.208 18.912">
  <path id="Path_27384" data-name="Path 27384" d="M8.575,0c3.209,2.034,6.107,3,8.595,2.769.434,8.788-2.811,13.977-8.562,16.143C3.055,16.885-.23,11.918.013,2.635A12.289,12.289,0,0,0,8.575,0ZM5.2,10.277a.433.433,0,0,1,.563-.658l1.769,1.52,3.875-4.261a.433.433,0,1,1,.641.583L7.89,12.034h0a.433.433,0,0,1-.6.038L5.2,10.277ZM8.578,1.086c2.84,1.8,5.406,2.652,7.608,2.451.384,7.779-2.488,12.372-7.578,14.289C3.692,16.032.784,11.636,1,3.418A10.876,10.876,0,0,0,8.578,1.086Z" transform="translate(-0.001)" fill-rule="evenodd"/>
</svg>
