<svg xmlns="http://www.w3.org/2000/svg" width="10.231" height="11.941" viewBox="0 0 10.231 11.941">
  <path id="Path_54" data-name="Path 54" d="M6.271.227,7,.273,7.149.265l4.581,4.988a.829.829,0,0,1-.067,1.174l-4.033,3.6a.835.835,0,0,1-1.04.053L10.716,6.4a.884.884,0,0,0,.072-1.251L6.271.227ZM5.157.31,9.582,5.128a.8.8,0,0,1-.065,1.134l-3.9,3.474A.806.806,0,0,1,4.488,9.67L.333,5.009l.008-.137L0,0,5.009.317,5.157.31ZM1.949.949a.9.9,0,1,1-.918.879A.9.9,0,0,1,1.949.949Zm.8,3.4L5.6,7.464l-.57.523L2.175,4.871l.57-.523ZM4.01,3.22,6.87,6.335l-.57.523L3.44,3.743l.57-.523ZM5.159,2.144,8.019,5.26l-.57.523L4.589,2.667l.57-.523Z" transform="translate(10.231) rotate(90)" fill-rule="evenodd"/>
</svg>
