<svg xmlns="http://www.w3.org/2000/svg" width="20" height="19.831" viewBox="0 0 20 19.831">
  <path id="upgrade-update-icon" d="M17.272,13.115a1.014,1.014,0,0,1,1.849.833A10,10,0,1,1,7.306.2a1.013,1.013,0,0,1,.539,1.952,7.976,7.976,0,1,0,9.427,10.961ZM8.873,14h2.26a.816.816,0,0,0,.813-.813V10.3h1.59a.674.674,0,0,0,.574-.27c.3-.452-.11-.9-.4-1.213-.81-.889-2.8-3.025-3.195-3.5a.661.661,0,0,0-1.038,0C9.07,5.8,6.985,8.035,6.215,8.9c-.267.3-.6.711-.319,1.128a.678.678,0,0,0,.575.27H8.06v2.886A.816.816,0,0,0,8.873,14ZM11.58,2.017a1.015,1.015,0,0,1,.4-1.992A10,10,0,0,1,20,9.6a1.012,1.012,0,0,1-2.023.04,7.978,7.978,0,0,0-6.4-7.623Z" transform="translate(0 -0.006)" fill="#3ea7ff"/>
</svg>
