<svg id="Iconly_Bulk_Wallet" data-name="Iconly/Bulk/Wallet" xmlns="http://www.w3.org/2000/svg" width="22" height="20" viewBox="0 0 22 20">
  <g id="Wallet" transform="translate(0 0)">
    <path id="Fill_1" data-name="Fill 1" d="M15.969,20H6.032a6.16,6.16,0,0,1-4.438-1.57A5.958,5.958,0,0,1,0,14.06V5.931A5.945,5.945,0,0,1,1.594,1.566,6.168,6.168,0,0,1,6.032,0h9.933A6.166,6.166,0,0,1,20.4,1.566,5.946,5.946,0,0,1,22,5.931v.041H17.338a3.913,3.913,0,0,0-3.927,3.869,3.82,3.82,0,0,0,1.148,2.741,3.934,3.934,0,0,0,2.779,1.138H22v.34a5.959,5.959,0,0,1-1.594,4.37A6.158,6.158,0,0,1,15.969,20ZM5.213,4.305a.838.838,0,0,0-.838.827.817.817,0,0,0,.244.587.842.842,0,0,0,.594.245H11.43a.842.842,0,0,0,.594-.246.818.818,0,0,0,.244-.588.838.838,0,0,0-.844-.826Z" transform="translate(0 0)" fill="#d8d8d8"/>
    <path id="Fill_4" data-name="Fill 4" d="M.041,2.663A2.225,2.225,0,0,0,2.236,4.444H5.811A.8.8,0,0,0,6.6,3.629V.816A.805.805,0,0,0,5.811,0H2.152A2.195,2.195,0,0,0,0,2.234a2.279,2.279,0,0,0,.041.429" transform="translate(15.4 7.667)" fill="#d8d8d8" opacity="0.4"/>
    <ellipse id="Oval" cx="1.1" cy="1.111" rx="1.1" ry="1.111" transform="translate(16.5 8.778)" fill="#d8d8d8"/>
  </g>
</svg>
